<?xml version="1.0" encoding="UTF-8" standalone="no"?>
<!-- Created with Inkscape (http://www.inkscape.org/) -->

<svg
   width="1600mm"
   height="900mm"
   viewBox="0 0 1600 900"
   version="1.1"
   id="svg19144"
   inkscape:version="1.2 (dc2aedaf03, 2022-05-15)"
   xml:space="preserve"
   sodipodi:docname="cog.svg"
   xmlns:inkscape="http://www.inkscape.org/namespaces/inkscape"
   xmlns:sodipodi="http://sodipodi.sourceforge.net/DTD/sodipodi-0.dtd"
   xmlns="http://www.w3.org/2000/svg"
   xmlns:svg="http://www.w3.org/2000/svg"><sodipodi:namedview
     id="namedview19146"
     pagecolor="#000000"
     bordercolor="#000000"
     borderopacity="0.25"
     inkscape:showpageshadow="2"
     inkscape:pageopacity="0"
     inkscape:pagecheckerboard="0"
     inkscape:deskcolor="#d1d1d1"
     inkscape:document-units="mm"
     showgrid="false"
     inkscape:zoom="0.56771216"
     inkscape:cx="-432.43745"
     inkscape:cy="-101.28372"
     inkscape:window-width="1904"
     inkscape:window-height="1096"
     inkscape:window-x="0"
     inkscape:window-y="0"
     inkscape:window-maximized="1"
     inkscape:current-layer="layer1" /><defs
     id="defs19141" /><g
     inkscape:label="Layer 1"
     inkscape:groupmode="layer"
     id="layer1"><rect
       style="fill:#ffffff;stroke:none;stroke-width:0.837999;stroke-dasharray:none;paint-order:stroke markers fill"
       id="rect3723"
       width="48.469395"
       height="38.682308"
       x="-22.370491"
       y="-16.777868" /><path
       d="m -42.702892,-4.858029 v 17.648024 c 0,2.440435 1.971597,4.412033 4.411979,4.412033 h 4.412032 V -9.2700586 h -4.412032 c -2.440382,0 -4.411979,1.9715968 -4.411979,4.4120296 z M 21.27128,-26.918132 H 5.829247 v -8.824011 c 0,-2.440383 -1.9716494,-4.412032 -4.4120318,-4.412032 -2.4403823,0 -4.4119795,1.971649 -4.4119795,4.412032 v 8.824011 H -18.436848 c -6.094104,0 -11.030001,4.935949 -11.030001,11.030053 V 21.61406 c 0,4.867008 3.957003,8.824011 8.824011,8.824011 h 44.12016 c 4.866956,0 8.824011,-3.957003 8.824011,-8.824011 v -37.502139 c 0,-6.094104 -4.935949,-11.030053 -11.030053,-11.030053 z m -28.6780762,44.12016 h -8.8240108 v -4.412033 h 8.8240108 z M -11.818827,0.65697138 c -3.047052,0 -5.515001,-2.46794878 -5.515001,-5.51500038 0,-3.0470502 2.467949,-5.51505 5.515001,-5.51505 3.0470511,0 5.5150517,2.4679998 5.5150517,5.51505 0,3.0470516 -2.4680006,5.51500038 -5.5150517,5.51500038 z M 5.829247,17.202028 H -2.9947643 V 12.789995 H 5.829247 Z m 13.236044,0 h -8.824013 v -4.412033 h 8.824013 z M 14.653259,0.65697138 c -3.047052,0 -5.5150015,-2.46794878 -5.5150015,-5.51500038 0,-3.0470502 2.4679495,-5.51505 5.5150015,-5.51505 3.047052,0 5.515053,2.4679998 5.515053,5.51505 0,3.0470516 -2.468001,5.51500038 -5.515053,5.51500038 z M 41.125345,-9.2700586 h -4.41198 V 17.202028 h 4.41198 c 2.440382,0 4.412031,-1.971598 4.412031,-4.412033 V -4.858029 c 0,-2.4404328 -1.971649,-4.4120296 -4.412031,-4.4120296 z"
       id="path919"
       style="fill:#b3b3b3;stroke:#666666;stroke-width:0.838;stroke-dasharray:none" /></g></svg>
