<?xml version="1.0" encoding="UTF-8" standalone="no"?>
<!-- Created with Inkscape (http://www.inkscape.org/) -->

<svg
   width="210mm"
   height="297mm"
   viewBox="0 0 210 297"
   version="1.1"
   id="svg5"
   sodipodi:docname="greenlet-api.svg"
   inkscape:version="1.2 (dc2aedaf03, 2022-05-15)"
   xmlns:inkscape="http://www.inkscape.org/namespaces/inkscape"
   xmlns:sodipodi="http://sodipodi.sourceforge.net/DTD/sodipodi-0.dtd"
   xmlns="http://www.w3.org/2000/svg"
   xmlns:svg="http://www.w3.org/2000/svg">
  <sodipodi:namedview
     id="namedview7"
     pagecolor="#ffffff"
     bordercolor="#000000"
     borderopacity="0.25"
     inkscape:showpageshadow="2"
     inkscape:pageopacity="0.0"
     inkscape:pagecheckerboard="0"
     inkscape:deskcolor="#d1d1d1"
     inkscape:document-units="mm"
     showgrid="false"
     inkscape:zoom="1.5694329"
     inkscape:cx="43.646339"
     inkscape:cy="70.407598"
     inkscape:window-width="2134"
     inkscape:window-height="1112"
     inkscape:window-x="-8"
     inkscape:window-y="-8"
     inkscape:window-maximized="1"
     inkscape:current-layer="g923" />
  <defs
     id="defs2">
    <filter
       id="mask-powermask-path-effect738_inverse"
       inkscape:label="filtermask-powermask-path-effect738"
       style="color-interpolation-filters:sRGB"
       height="100"
       width="100"
       x="-50"
       y="-50">
      <feColorMatrix
         id="mask-powermask-path-effect738_primitive1"
         values="1"
         type="saturate"
         result="fbSourceGraphic" />
      <feColorMatrix
         id="mask-powermask-path-effect738_primitive2"
         values="-1 0 0 0 1 0 -1 0 0 1 0 0 -1 0 1 0 0 0 1 0 "
         in="fbSourceGraphic" />
    </filter>
    <clipPath
       clipPathUnits="userSpaceOnUse"
       id="clipPath770">
      <path
         style="fill:#2c5aa0;stroke-width:0.264583"
         d="m 86.484267,29.8396 c -3.385021,-0.678389 -7.029466,0.334841 -10.283706,1.180097 -7.474982,1.941555 -14.732352,4.235453 -22.084676,6.574827 -1.176414,0.374314 -6.034508,1.537489 -6.406242,2.528782 -0.12002,0.320056 -0.187545,0.670216 -0.168585,1.01151 0.09213,1.65831 0.640107,2.729661 1.180098,4.214632 0.07176,0.197356 0.223101,1.187167 0.505756,1.348685 1.457481,0.832845 3.955947,0.476393 5.39473,0.505754 4.993753,0.101914 9.85702,0.855273 14.835507,0.168587 1.250749,-0.172519 2.170211,-1.180852 3.371707,-1.517269 1.526006,-0.427281 4.099029,-0.933757 5.731897,-1.011513 1.459423,-0.06949 2.922148,0 4.383222,0 0.955313,0 1.910633,0 2.865948,0 0.505757,0 1.064906,-0.226179 1.517269,0 0.201049,0.100526 0.02788,0.451297 0,0.674344 -0.0562,0.280974 -0.112389,0.561951 -0.168584,0.842925 -0.0562,0.0562 -0.143455,0.09319 -0.16859,0.168585 -0.03554,0.106624 0.05026,0.236646 0,0.337171 -0.02514,0.05026 -0.114067,-0.01363 -0.168582,0 -0.172397,0.0431 -0.343368,0.09641 -0.505756,0.168585 -0.344477,0.153101 -0.674341,0.337172 -1.01151,0.505756 -1.573464,0.786731 -3.134445,1.598941 -4.720389,2.360195 -3.07526,1.476123 -6.411656,2.342303 -9.77795,2.865951 -0.945594,0.147092 -1.911011,0.106306 -2.865951,0.168584 -2.005078,0.130768 -6.036778,0.371084 -8.26068,0.674341 -0.124503,0.01699 -0.214932,0.13948 -0.337169,0.168587 -6.904853,1.644013 0.353586,-0.457721 -6.069071,1.854438 -0.436004,0.156962 -0.911302,0.184087 -1.348685,0.337169 -2.206183,0.772166 -4.961681,1.855082 -6.406239,3.877464 -0.308142,0.431395 -0.548857,0.907576 -0.842929,1.348682 -0.355224,0.532839 -0.438671,1.082101 -0.505756,1.685853 -0.03924,0.353161 -0.277942,1.248423 -0.168584,1.685854 0.408379,1.633514 2.307635,2.068269 3.708876,2.360194 1.861301,0.387771 4.492879,0.588841 6.237658,0.505757 1.476589,-0.07032 2.905834,-0.623398 4.383217,-0.674344 1.179396,-0.04067 2.360194,0 3.540292,0 2.466813,0 4.954791,0.12315 7.417755,0 1.295744,-0.06479 2.581889,-0.268981 3.877461,-0.337169 0.62743,-0.03302 1.550971,-0.128127 2.191609,0 0.468292,0.09366 0.237898,0.370261 0.842926,0.168585 0.219808,-0.07327 -0.443156,-0.183997 -0.674341,-0.168585 -0.619321,0.04129 -1.237038,0.104717 -1.854438,0.168585 -2.571859,0.266054 -4.834713,0.522829 -7.417753,1.011512 -0.629557,0.119105 -1.226158,0.380101 -1.85444,0.505757 -4.442357,0.888468 -8.852501,1.353161 -13.318239,2.023022 -2.149033,0.322355 -4.236461,0.794531 -6.406243,1.011513 -4.296761,0.429675 -9.595098,-0.476218 -13.486823,1.685853 -0.218929,0.121627 -1.418013,0.74367 -1.517269,0.842926 -0.08885,0.08885 -0.07973,0.248319 -0.168584,0.337172 -0.08885,0.08885 -0.280977,0.05619 -0.337172,0.168584 -0.07539,0.150786 0.02384,0.338863 0,0.505757 0.608274,0.647422 -0.27782,0.546182 -0.337169,0.842925 -0.272248,1.361242 0.856737,2.117675 1.854438,2.865951 0.449559,0.337172 0.913754,0.655664 1.348682,1.01151 0.184523,0.150974 0.298754,0.387472 0.505756,0.505759 0.201171,0.114951 0.457396,0.08723 0.674341,0.168582 1.478862,0.554572 3.160707,1.036746 4.720389,1.348684 1.531826,0.306364 1.465059,0.128442 3.540292,0.505754 1.019471,0.185362 2.011029,0.512739 3.034535,0.674341 0.88505,0.139745 6.839095,0.641278 7.417752,0.674343 2.141456,0.12237 4.316527,-0.125806 6.406243,-0.505756 1.110586,-0.201925 2.288767,0.13412 3.371707,0.337172 0.617519,0.115784 1.234707,0.233881 1.854438,0.337169 0.05543,0.0092 0.12885,-0.03973 0.168585,0 0.138165,0.138165 -0.209405,0.883748 -0.337169,1.01151 -0.928026,0.928026 -2.496678,0.94021 -3.708879,1.011515 -2.195563,0.129151 -4.585399,0.09443 -6.743412,-0.337174 -2.835878,-0.567174 -1.142643,-0.522404 -3.877461,-0.674341 -3.762063,-0.209 -7.588594,0.300498 -11.295216,0.842931 -1.4688,0.214942 -3.53392,0.335044 -5.05756,0.842925 -0.09831,0.03277 -0.418764,0.206682 -0.505757,0.337172 -0.128873,0.19331 -0.251841,1.604666 -0.168584,1.854438 0.06407,0.192217 0.27895,0.311687 0.337169,0.505756 0.26947,0.898229 -0.125683,1.888755 0.674343,2.528777 1.989527,1.591622 -0.858136,-0.740672 1.01151,0.505759 0.198374,0.132249 0.315024,0.362704 0.505757,0.505756 0.889082,0.666811 3.537148,1.801762 4.046048,2.02302 0.895067,0.38916 2.351317,0.496885 3.20312,0.674341 0.674343,0.168587 1.348684,0.337172 2.023025,0.505759 0.224779,0 0.453924,-0.04408 0.674341,0 3.074371,0.614873 0.6467,0.388755 3.371707,0.842923 0.501944,0.08366 1.022236,0.05072 1.517266,0.168587 0.691489,0.164642 1.330802,0.512823 2.023026,0.674341 4.108378,0.958625 8.272637,1.180097 12.475313,1.180097 2.119664,0 4.463669,0.131977 6.574827,-0.337169 0.633071,-0.140684 -0.13176,-0.136943 0.168585,-0.337169 0.313655,-0.209106 0.658545,-0.373396 1.011512,-0.505759 2.258592,-0.846971 4.648957,-1.440691 6.743412,-2.697364 0.308546,-0.185126 0.537797,-0.483634 0.842925,-0.674343 1.859886,-1.162426 3.723696,-2.029664 5.226143,-3.708874 2.471994,-2.762816 2.220447,-7.261275 3.540294,-10.620875 0.798105,-2.031542 2.088986,-3.852124 2.865951,-5.900486 0.37814,-0.996921 0.628756,-2.039377 1.011513,-3.034535 0.180427,-0.469123 0.449556,-0.899123 0.674338,-1.348682 0.337172,-0.786733 0.714235,-1.557541 1.011515,-2.360195 0.265462,-0.716756 0.417264,-1.471803 0.674341,-2.19161 0.449255,-1.257924 1.110163,-2.436682 1.517264,-3.708876 1.120661,-3.502054 1.469469,-7.125835 1.011515,-10.789459 -0.128524,-1.028187 -0.481724,-2.016411 -0.674341,-3.034538 -0.20094,-1.062094 -0.306551,-2.140699 -0.505756,-3.20312 -0.138168,-0.736894 -0.391753,-1.450592 -0.505759,-2.19161 -0.111408,-0.724173 -0.07382,-1.465067 -0.168582,-2.191608 -0.191775,-1.470273 -1.033719,-5.64733 -1.517269,-6.911998 -0.466802,-1.220867 -1.120246,-2.361944 -1.685856,-3.540292 -0.110448,-0.230106 -0.349078,-0.848881 -0.674341,-1.011513 -0.414475,-0.207237 -0.906375,0.198951 -1.348679,0.337172 -1.818656,0.56833 -3.598908,1.255832 -5.39473,1.854438"
         id="path772" />
    </clipPath>
  </defs>
  <g
     inkscape:label="Layer 1"
     inkscape:groupmode="layer"
     id="layer1">
    <g
       id="g923"
       transform="matrix(1.1591125,0,0,1.1359015,0.05362072,-0.06873287)">
      <path
         style="fill:none;fill-opacity:1;stroke:#ff7f2a;stroke-width:4.35749;stroke-dasharray:none;stroke-opacity:1;paint-order:stroke markers fill"
         id="path12319"
         sodipodi:type="arc"
         sodipodi:cx="0"
         sodipodi:cy="0"
         sodipodi:rx="50"
         sodipodi:ry="50"
         sodipodi:start="1.5787161"
         sodipodi:end="1.8890245"
         sodipodi:arc-type="arc"
         d="M -0.39598452,49.998432 A 50,50 0 0 1 -15.644209,47.489564"
         sodipodi:open="true" />
    </g>
  </g>
</svg>
