<?xml version="1.0" encoding="UTF-8" standalone="no"?>
<!-- Created with Inkscape (http://www.inkscape.org/) -->

<svg
   width="1600mm"
   height="900mm"
   viewBox="0 0 1600 900"
   version="1.1"
   id="svg8686"
   sodipodi:docname="languages.svg"
   inkscape:version="1.2 (dc2aedaf03, 2022-05-15)"
   xmlns:inkscape="http://www.inkscape.org/namespaces/inkscape"
   xmlns:sodipodi="http://sodipodi.sourceforge.net/DTD/sodipodi-0.dtd"
   xmlns:xlink="http://www.w3.org/1999/xlink"
   xmlns="http://www.w3.org/2000/svg"
   xmlns:svg="http://www.w3.org/2000/svg">
  <sodipodi:namedview
     id="namedview8688"
     pagecolor="#000000"
     bordercolor="#000000"
     borderopacity="0.25"
     inkscape:showpageshadow="2"
     inkscape:pageopacity="0"
     inkscape:pagecheckerboard="0"
     inkscape:deskcolor="#d1d1d1"
     inkscape:document-units="mm"
     showgrid="false"
     inkscape:zoom="0.2488737"
     inkscape:cx="2308.3998"
     inkscape:cy="1709.7026"
     inkscape:window-width="1904"
     inkscape:window-height="1096"
     inkscape:window-x="0"
     inkscape:window-y="0"
     inkscape:window-maximized="1"
     inkscape:current-layer="layer1" />
  <defs
     id="defs8683">
    <linearGradient
       inkscape:collect="always"
       id="linearGradient16463">
      <stop
         style="stop-color:#ff0000;stop-opacity:1;"
         offset="0"
         id="stop16459" />
      <stop
         style="stop-color:#901700;stop-opacity:1;"
         offset="1"
         id="stop16461" />
    </linearGradient>
    <linearGradient
       inkscape:collect="always"
       xlink:href="#linearGradient16463"
       id="linearGradient16465"
       x1="1245.9801"
       y1="164.78406"
       x2="1292.7575"
       y2="164.78406"
       gradientUnits="userSpaceOnUse" />
  </defs>
  <g
     inkscape:label="Layer 1"
     inkscape:groupmode="layer"
     id="layer1">
    <g
       inkscape:groupmode="layer"
       inkscape:label="Chart-Layer: python:61,c:36,other:3"
       id="g8721" />
    <g
       inkscape:groupmode="layer"
       inkscape:label="Chart-Layer: python:61,c:36,other:3"
       id="g8784" />
    <g
       inkscape:groupmode="layer"
       inkscape:label="Chart-Layer: python:61,c:36,other:3"
       id="g8829" />
    <g
       inkscape:groupmode="layer"
       inkscape:label="Chart-Layer: python:57,fortran:18,C:19,Cython:4"
       id="g8907" />
    <g
       inkscape:groupmode="layer"
       inkscape:label="Chart-Layer: python:331702,c:765879"
       id="g8960" />
    <g
       inkscape:groupmode="layer"
       inkscape:label="Chart-Layer: python:102218,c:94442"
       id="g9016" />
    <g
       inkscape:groupmode="layer"
       inkscape:label="Chart-Layer: python:331702,c:765879,assembly:111405"
       id="g9080" />
    <g
       inkscape:groupmode="layer"
       inkscape:label="Chart-Layer: python:228774,c:106601,fortran:73352,cython:18300"
       id="g9175" />
    <g
       inkscape:groupmode="layer"
       inkscape:label="Chart-Layer: python:102218,c:21454"
       id="g9275" />
    <g
       inkscape:groupmode="layer"
       inkscape:label="Chart-Layer: python:181266,c:12581,cython:23028"
       id="g9389">
      <g
         aria-label="source: cloc (May 2023)"
         id="text14743"
         style="font-size:50.8px;font-family:Rockwell;-inkscape-font-specification:Rockwell;text-align:center;text-anchor:middle;fill:#ffffff;stroke-width:1.8">
        <path
           d="m 21.153288,869.63452 v -8.23515 h 4.216797 v 0.79375 q 0.223242,1.68671 1.810742,2.77812 1.612304,1.09141 3.795117,1.09141 2.282031,0 3.646289,-0.79375 1.364258,-0.79375 1.364258,-2.20762 0,-1.36426 -1.141016,-2.00918 -1.116211,-0.64492 -4.464844,-1.19063 -4.960937,-0.84335 -7.09414,-2.70371 -2.108399,-1.88515 -2.108399,-4.86171 0,-3.00137 2.306836,-5.01055 2.306836,-2.03399 6.077149,-2.03399 3.398242,0 5.853906,1.38907 v -1.017 h 4.191992 v 7.96231 h -4.191992 v -1.46348 q -1.909961,-2.95176 -5.55625,-2.95176 -1.860352,0 -3.075781,0.81856 -1.190625,0.79375 -1.190625,2.1332 0,1.36426 1.091406,1.88516 1.116211,0.49609 4.7625,1.0666 3.497461,0.5457 5.283398,1.28984 1.785938,0.71934 2.951758,2.43086 1.190625,1.68672 1.190625,3.94395 0,3.34863 -2.579687,5.33301 -2.554883,1.95957 -6.647657,1.95957 -3.844726,0 -6.275585,-1.73633 v 1.33945 z"
           id="path15213" />
        <path
           d="m 44.271256,857.62905 q 0,-5.55625 3.671093,-9.10332 3.671094,-3.57187 8.954493,-3.57187 5.184179,0 8.904882,3.52226 3.720703,3.49746 3.720703,9.15293 0,5.65547 -3.720703,9.17774 -3.695898,3.52226 -8.904882,3.52226 -5.357813,0 -9.004102,-3.57187 -3.621484,-3.57188 -3.621484,-9.12813 z m 4.985742,0 q 0,3.54707 2.207617,5.8291 2.232422,2.25723 5.432227,2.25723 3.249414,0 5.432226,-2.28203 2.207617,-2.30684 2.207617,-5.8043 0,-3.52226 -2.232422,-5.80429 -2.232422,-2.28204 -5.407421,-2.28204 -3.323829,0 -5.481836,2.33165 -2.158008,2.33164 -2.158008,5.75468 z"
           id="path15215" />
        <path
           d="m 99.560902,865.44253 v 4.19199 h -8.855274 v -2.75332 q -4.142383,3.1502 -7.9375,3.1502 -2.406054,0 -3.993554,-1.0418 -1.562696,-1.0666 -2.083594,-2.72852 -0.520898,-1.68671 -0.520898,-5.40742 v -11.03808 h -3.398243 v -4.192 h 8.111133 v 14.63477 q 0,2.6541 0.148828,3.57187 0.148828,0.91778 0.868164,1.51309 0.719336,0.59531 1.810742,0.59531 3.274219,0 6.994922,-3.12539 v -12.99765 h -4.241601 v -4.192 h 8.954492 v 19.81895 z"
           id="path15217" />
        <path
           d="m 106.01012,865.44253 v -15.62695 h -4.83691 v -4.192 h 8.60723 v 5.40743 q 0.79375,-2.1084 2.20761,-3.49746 1.41387,-1.38907 2.97657,-1.83555 1.5875,-0.44649 4.31601,-0.44649 h 1.24024 v 4.7625 h -0.94258 q -3.59668,0 -5.38262,0.71934 -1.76113,0.71934 -2.6293,2.6293 -0.84336,1.88515 -0.84336,6.79648 v 5.2834 h 5.23379 v 4.19199 h -14.78359 v -4.19199 z"
           id="path15219" />
        <path
           d="m 143.76285,845.62358 v 9.07852 h -4.21679 q -0.32246,-2.60449 -2.13321,-3.99355 -1.78593,-1.38907 -4.16718,-1.38907 -3.175,0 -5.15938,2.25723 -1.98437,2.23242 -1.98437,5.87871 0,3.39824 1.88515,6.00273 1.88516,2.57969 5.45703,2.57969 4.96094,0 7.19336,-4.71289 l 3.89434,1.83555 q -3.22461,7.16855 -11.28613,7.16855 -5.70508,0 -8.9793,-3.89433 -3.27422,-3.89434 -3.27422,-8.9793 0,-5.43223 3.57188,-8.95449 3.57187,-3.54707 8.23515,-3.54707 3.99356,0 6.74688,2.35644 v -1.68672 z"
           id="path15221" />
        <path
           d="m 172.90836,858.81968 h -20.19102 q 0.44649,3.32383 2.6293,5.38262 2.18281,2.05878 5.58106,2.05878 4.93613,0 7.81347,-3.96875 l 4.16719,1.83555 q -2.03398,3.1502 -5.2834,4.68809 -3.24941,1.51308 -6.79648,1.51308 -5.50664,0 -9.42578,-3.42304 -3.89434,-3.44786 -3.89434,-9.27696 0,-5.53144 3.79512,-9.10332 3.81992,-3.57187 8.75605,-3.57187 4.83692,0 8.75606,3.49746 3.94394,3.47265 4.09277,10.36836 z m -4.86172,-3.42305 q -0.49609,-2.53008 -2.6293,-4.56406 -2.1332,-2.05879 -5.23379,-2.05879 -2.82773,0 -4.83691,1.86035 -2.00918,1.83555 -2.45566,4.7625 z"
           id="path15223" />
        <path
           d="m 179.15915,851.72554 v -6.10196 h 6.10195 v 6.10196 z m 0,17.90898 v -6.10195 h 6.10195 v 6.10195 z"
           id="path15225" />
        <path
           d="m 222.81539,845.62358 v 9.07852 h -4.2168 q -0.32246,-2.60449 -2.1332,-3.99355 -1.78594,-1.38907 -4.16719,-1.38907 -3.175,0 -5.15937,2.25723 -1.98438,2.23242 -1.98438,5.87871 0,3.39824 1.88516,6.00273 1.88516,2.57969 5.45703,2.57969 4.96094,0 7.19336,-4.71289 l 3.89434,1.83555 q -3.22461,7.16855 -11.28614,7.16855 -5.70507,0 -8.97929,-3.89433 -3.27422,-3.89434 -3.27422,-8.9793 0,-5.43223 3.57187,-8.95449 3.57188,-3.54707 8.23516,-3.54707 3.99355,0 6.74687,2.35644 v -1.68672 z"
           id="path15227" />
        <path
           d="m 230.00875,865.44253 v -26.11934 h -4.26641 v -4.19199 h 8.9793 v 30.31133 h 3.67109 v 4.19199 h -12.65039 v -4.19199 z"
           id="path15229" />
        <path
           d="m 241.49332,857.62905 q 0,-5.55625 3.67109,-9.10332 3.6711,-3.57187 8.9545,-3.57187 5.18418,0 8.90488,3.52226 3.7207,3.49746 3.7207,9.15293 0,5.65547 -3.7207,9.17774 -3.6959,3.52226 -8.90488,3.52226 -5.35782,0 -9.0041,-3.57187 -3.62149,-3.57188 -3.62149,-9.12813 z m 4.98574,0 q 0,3.54707 2.20762,5.8291 2.23242,2.25723 5.43223,2.25723 3.24941,0 5.43222,-2.28203 2.20762,-2.30684 2.20762,-5.8043 0,-3.52226 -2.23242,-5.80429 -2.23242,-2.28204 -5.40742,-2.28204 -3.32383,0 -5.48184,2.33165 -2.15801,2.33164 -2.15801,5.75468 z"
           id="path15231" />
        <path
           d="m 293.23589,845.62358 v 9.07852 h -4.21679 q -0.32247,-2.60449 -2.13321,-3.99355 -1.78593,-1.38907 -4.16718,-1.38907 -3.175,0 -5.15938,2.25723 -1.98437,2.23242 -1.98437,5.87871 0,3.39824 1.88515,6.00273 1.88516,2.57969 5.45703,2.57969 4.96094,0 7.19336,-4.71289 l 3.89434,1.83555 q -3.22461,7.16855 -11.28613,7.16855 -5.70508,0 -8.9793,-3.89433 -3.27422,-3.89434 -3.27422,-8.9793 0,-5.43223 3.57187,-8.95449 3.57188,-3.54707 8.23516,-3.54707 3.99356,0 6.74688,2.35644 v -1.68672 z"
           id="path15233" />
        <path
           d="m 325.48198,834.51108 v 3.84473 q -2.67891,1.41387 -4.86172,4.44004 -2.15801,3.00137 -2.90215,6.3252 -0.71933,3.32382 -0.71933,8.4832 0,5.8043 0.94258,9.25215 0.94257,3.44785 2.97656,5.92832 2.05879,2.50527 4.56406,4.01836 v 3.86953 q -5.15937,-2.1084 -9.35137,-8.03672 -4.16718,-5.90352 -4.16718,-15.08125 0,-8.16074 3.64628,-14.2875 3.6711,-6.12676 9.87227,-8.75606 z"
           id="path15235" />
        <path
           d="m 332.27848,865.31851 v -25.87129 h -4.14238 v -4.31602 h 11.80703 l 9.07852,23.63887 9.17773,-23.63887 h 11.93106 v 4.31602 h -4.16719 v 25.87129 h 4.16719 v 4.31601 h -12.99766 v -4.31601 h 4.11758 v -25.87129 l -11.90625,30.53457 h -1.01699 l -11.78223,-30.53457 v 25.87129 h 3.79512 v 4.31601 H 328.1361 v -4.31601 z"
           id="path15237" />
        <path
           d="m 397.66362,865.44253 v 4.19199 h -8.23516 v -2.92695 q -3.42304,3.32383 -7.63984,3.32383 -3.27422,0 -5.70508,-2.13321 -2.40605,-2.1332 -2.40605,-5.45703 0,-3.34863 2.55488,-5.55625 2.57969,-2.20761 6.20117,-2.20761 3.37344,0 6.52364,2.03398 v -2.38125 q 0,-1.83555 -0.34727,-2.82773 -0.34727,-0.99219 -1.63711,-1.78594 -1.26504,-0.79375 -3.32383,-0.79375 -3.54707,0 -5.13457,2.82773 l -4.51445,-1.19062 q 3.00137,-5.60586 10.36836,-5.60586 2.70371,0 4.66328,0.74414 1.98437,0.71933 2.95176,1.88515 0.96738,1.14102 1.28984,2.48047 0.34727,1.33946 0.34727,4.26641 v 11.1125 z m -8.70644,-4.7377 q -3.05098,-2.38125 -6.17637,-2.38125 -1.95957,0 -3.27422,1.14102 -1.31465,1.14102 -1.31465,2.95176 0,1.68672 1.14102,2.82773 1.16582,1.14102 3.15019,1.14102 3.42305,0 6.47403,-2.87735 z"
           id="path15239" />
        <path
           d="m 409.59471,869.21284 -7.88789,-19.39726 h -3.99355 v -4.192 h 11.88144 v 4.192 h -2.87734 l 5.18418,13.29531 5.08496,-13.29531 h -3.175 v -4.192 h 11.6334 v 4.192 h -3.57188 l -11.88144,30.58418 h -7.96231 v -4.11758 h 4.68809 z"
           id="path15241" />
        <path
           d="m 462.99917,857.30659 -0.32246,12.32793 h -22.05136 q 0,-3.57187 1.26503,-6.82129 1.28985,-3.24941 3.59668,-5.68027 2.33165,-2.43086 7.09415,-5.90352 3.00136,-2.20761 4.06796,-3.67109 1.06661,-1.48828 1.06661,-3.44785 0,-2.40606 -1.51309,-3.91914 -1.51309,-1.53789 -4.16719,-1.53789 -3.10058,0 -4.53926,1.73633 -1.43867,1.73632 -1.43867,5.70507 0,0.99219 0.0496,1.88516 h -4.58887 q -0.0248,-0.89297 -0.0248,-1.46348 0,-5.60586 2.6541,-8.75605 2.6541,-3.175 7.78867,-3.175 5.18418,0 7.9375,2.70371 2.77813,2.70371 2.77813,6.64766 0,3.29902 -1.81074,5.63066 -1.81075,2.33164 -6.92051,5.92832 -4.96094,3.52227 -6.52363,5.72988 -1.5379,2.20762 -1.78594,3.91914 h 12.99765 l 0.19844,-7.83828 z"
           id="path15243" />
        <path
           d="m 467.9105,852.39526 q 0,-8.53281 3.19981,-13.17128 3.22461,-4.63848 8.78086,-4.63848 5.75468,0 8.85527,4.81211 3.10059,4.81211 3.10059,12.99765 0,8.48321 -3.19981,13.14649 -3.1998,4.63847 -8.75605,4.63847 -5.8043,0 -8.90489,-4.83691 -3.07578,-4.83691 -3.07578,-12.94805 z m 5.06016,0 q 0,7.3918 1.78594,10.59161 1.78593,3.175 5.13457,3.175 3.34863,0 5.13457,-3.19981 1.78593,-3.1998 1.78593,-10.5668 0,-7.49101 -1.81074,-10.64121 -1.81074,-3.15019 -5.10976,-3.15019 -3.72071,0 -5.33301,3.59668 -1.5875,3.57187 -1.5875,10.19472 z"
           id="path15245" />
        <path
           d="m 518.06558,857.30659 -0.32246,12.32793 h -22.05137 q 0,-3.57187 1.26504,-6.82129 1.28984,-3.24941 3.59668,-5.68027 2.33164,-2.43086 7.09414,-5.90352 3.00137,-2.20761 4.06797,-3.67109 1.0666,-1.48828 1.0666,-3.44785 0,-2.40606 -1.51308,-3.91914 -1.51309,-1.53789 -4.16719,-1.53789 -3.10059,0 -4.53926,1.73633 -1.43867,1.73632 -1.43867,5.70507 0,0.99219 0.0496,1.88516 h -4.58887 q -0.0248,-0.89297 -0.0248,-1.46348 0,-5.60586 2.6541,-8.75605 2.6541,-3.175 7.78867,-3.175 5.18418,0 7.9375,2.70371 2.77812,2.70371 2.77812,6.64766 0,3.29902 -1.81074,5.63066 -1.81074,2.33164 -6.92051,5.92832 -4.96093,3.52227 -6.52363,5.72988 -1.53789,2.20762 -1.78594,3.91914 h 12.99766 l 0.19844,-7.83828 z"
           id="path15247" />
        <path
           d="m 531.58413,853.75952 v -4.2664 q 3.62149,0 5.2586,-0.42168 1.66191,-0.42168 2.57969,-1.66192 0.91777,-1.26504 0.91777,-3.175 0,-2.30683 -1.36426,-3.96875 -1.33945,-1.66191 -3.99355,-1.66191 -2.92696,0 -4.26641,1.76113 -1.33945,1.73633 -1.46348,5.20898 h -4.7873 q 0,-5.95312 2.92695,-8.45839 2.95176,-2.53008 7.21817,-2.53008 5.18418,0 7.81347,2.55488 2.6293,2.55488 2.6293,6.52363 0,2.92696 -1.51309,4.93614 -1.48828,2.00918 -3.37343,2.85254 6.44922,1.90996 6.44922,8.23515 0,5.2586 -3.54708,7.88789 -3.52226,2.60449 -8.28476,2.60449 -6.07715,0 -9.0041,-3.24941 -2.90215,-3.24941 -2.90215,-8.9793 h 4.56406 q 0.12403,3.96875 2.15801,6.07715 2.05879,2.0836 5.45703,2.0836 3.10059,0 4.86172,-1.71153 1.78594,-1.73633 1.78594,-4.36562 0,-2.75332 -2.0836,-4.51446 -2.08359,-1.78593 -6.64765,-1.78593 -0.59532,0 -1.38907,0.0248 z"
           id="path15249" />
        <path
           d="m 550.13804,834.51108 q 6.00274,2.67891 9.74824,8.58243 3.77032,5.90351 3.77032,14.48593 0,8.28477 -3.49747,14.03946 -3.47265,5.75468 -10.02109,9.05371 v -3.86953 q 3.07578,-1.86036 5.06016,-4.71289 2.00918,-2.85254 2.70371,-6.12676 0.71933,-3.29903 0.71933,-8.35918 0,-5.35781 -0.79375,-8.70645 -0.76894,-3.34863 -3.00136,-6.27558 -2.20762,-2.92696 -4.68809,-4.26641 z"
           id="path15251" />
      </g>
      <rect
         style="fill:#0066ff;fill-opacity:1;stroke:none;stroke-width:1.8;stroke-opacity:1"
         id="rect16096"
         width="46.777409"
         height="28.704317"
         x="1245.98"
         y="89.30233" />
      <rect
         style="fill:url(#linearGradient16465);fill-opacity:1;stroke:none;stroke-width:1.8;stroke-opacity:1"
         id="rect16096-5"
         width="46.777409"
         height="28.704317"
         x="1245.9801"
         y="150.4319" />
      <g
         aria-label="python not python"
         id="text16256"
         style="font-size:50.8px;font-family:Rockwell;-inkscape-font-specification:Rockwell;fill:#ffffff;stroke-width:1.8">
        <path
           d="M 1320.1145,120.32739 V 93.935205 h -4.0431 v -4.191992 h 8.756 v 3.770313 q 3.5223,-4.142383 8.5328,-4.142383 5.0602,0 8.3592,3.472656 3.3238,3.472656 3.3238,9.028911 0,5.8291 -3.5966,9.20253 -3.5967,3.37344 -8.1856,3.37344 -4.7625,0 -8.4336,-3.67109 v 9.5498 h 4.6633 v 4.19199 h -13.7666 v -4.19199 z m 4.6385,-18.23144 q 0,1.98437 0.8186,3.79511 0.8185,1.81075 2.6044,3.05098 1.786,1.21543 4.192,1.21543 3.3735,0 5.5563,-2.25723 2.2076,-2.25722 2.2076,-6.20117 0,-3.844724 -2.3068,-6.002732 -2.2821,-2.158008 -5.209,-2.158008 -3.1254,0 -5.5067,2.356446 -2.3564,2.33164 -2.3564,6.201174 z"
           id="path16467" />
        <path
           d="m 1357.9169,113.33247 -7.8879,-19.397265 h -3.9936 v -4.191992 h 11.8815 v 4.191992 h -2.8774 l 5.1842,13.295315 5.085,-13.295315 h -3.175 v -4.191992 h 11.6334 v 4.191992 h -3.5719 l -11.8815,30.584175 h -7.9623 v -4.11757 h 4.6881 z"
           id="path16469" />
        <path
           d="m 1375.7514,93.935205 v -4.191992 h 3.1254 v -3.695898 l 4.7129,-4.316016 v 8.011914 h 4.4401 v 4.191992 h -4.4401 v 11.658205 q 0,2.80293 0.2977,3.47265 0.3224,0.64493 1.5627,0.64493 1.3146,0 2.5797,-0.4961 v 4.29121 q -1.8108,0.64493 -3.6215,0.64493 -2.158,0 -3.4975,-0.94258 -1.3394,-0.96739 -1.6867,-2.40606 -0.3473,-1.43867 -0.3473,-4.96093 V 93.935205 Z"
           id="path16471" />
        <path
           d="M 1394.9255,109.56216 V 83.442823 h -4.3409 v -4.191992 h 9.0538 v 13.245703 q 4.2416,-3.423047 8.0615,-3.423047 2.3812,0 3.9191,0.992187 1.5379,0.992188 2.0836,2.629297 0.5705,1.612305 0.5705,4.737695 v 12.129494 h 4.0928 v 4.19199 h -8.8057 V 99.069776 q 0,-2.728516 -0.1736,-3.646289 -0.1736,-0.917774 -0.9674,-1.513086 -0.7689,-0.595313 -1.8355,-0.595313 -2.7285,0 -6.9453,3.100586 v 13.146486 h 4.1671 v 4.19199 h -13.2209 v -4.19199 z"
           id="path16473" />
        <path
           d="m 1420.5983,101.74868 q 0,-5.556248 3.6711,-9.103318 3.6711,-3.571875 8.9545,-3.571875 5.1842,0 8.9049,3.522265 3.7207,3.497461 3.7207,9.152928 0,5.65547 -3.7207,9.17774 -3.6959,3.52226 -8.9049,3.52226 -5.3578,0 -9.0041,-3.57187 -3.6215,-3.57188 -3.6215,-9.12813 z m 4.9858,0 q 0,3.54707 2.2076,5.8291 2.2324,2.25723 5.4322,2.25723 3.2494,0 5.4322,-2.28203 2.2076,-2.30684 2.2076,-5.8043 0,-3.522264 -2.2324,-5.804295 -2.2324,-2.282031 -5.4074,-2.282031 -3.3238,0 -5.4818,2.33164 -2.158,2.331641 -2.158,5.754686 z"
           id="path16475" />
        <path
           d="m 1458.0782,89.743213 v 2.902149 q 4.5393,-3.274219 8.2848,-3.274219 2.3316,0 3.8447,1.116211 1.5379,1.091406 2.0092,2.703711 0.4713,1.5875 0.4713,4.663281 v 11.707814 h 4.0431 v 4.19199 h -8.756 V 98.052783 q 0,-2.728515 -0.8186,-3.54707 -0.8185,-0.843359 -2.0092,-0.843359 -3.1254,0 -7.0693,3.050976 v 12.84883 h 4.1424 v 4.19199 h -13.0721 v -4.19199 h 4.2168 V 93.935205 h -4.2168 v -4.191992 z"
           id="path16477" />
        <path
           d="m 1325.6708,153.24321 v 2.90215 q 4.5392,-3.27422 8.2847,-3.27422 2.3317,0 3.8448,1.11621 1.5379,1.09141 2.0091,2.70371 0.4713,1.5875 0.4713,4.66328 v 11.70782 h 4.0432 v 4.19199 h -8.7561 v -15.70137 q 0,-2.72851 -0.8185,-3.54707 -0.8186,-0.84336 -2.0092,-0.84336 -3.1254,0 -7.0693,3.05098 v 12.84883 h 4.1424 v 4.19199 h -13.0721 v -4.19199 h 4.2168 V 157.4352 h -4.2168 v -4.19199 z"
           id="path16479" />
        <path
           d="m 1346.4323,165.24868 q 0,-5.55625 3.6711,-9.10332 3.6711,-3.57187 8.9545,-3.57187 5.1842,0 8.9049,3.52226 3.7207,3.49746 3.7207,9.15293 0,5.65547 -3.7207,9.17774 -3.6959,3.52226 -8.9049,3.52226 -5.3578,0 -9.0041,-3.57187 -3.6215,-3.57188 -3.6215,-9.12813 z m 4.9857,0 q 0,3.54707 2.2077,5.8291 2.2324,2.25723 5.4322,2.25723 3.2494,0 5.4322,-2.28203 2.2076,-2.30684 2.2076,-5.8043 0,-3.52226 -2.2324,-5.8043 -2.2324,-2.28203 -5.4074,-2.28203 -3.3238,0 -5.4819,2.33164 -2.158,2.33164 -2.158,5.75469 z"
           id="path16481" />
        <path
           d="m 1375.1561,157.4352 v -4.19199 h 3.1254 v -3.6959 l 4.7129,-4.31601 v 8.01191 h 4.44 v 4.19199 h -4.44 v 11.65821 q 0,2.80293 0.2977,3.47265 0.3224,0.64493 1.5627,0.64493 1.3146,0 2.5796,-0.4961 v 4.29121 q -1.8107,0.64492 -3.6214,0.64492 -2.158,0 -3.4975,-0.94257 -1.3395,-0.96739 -1.6867,-2.40606 -0.3473,-1.43867 -0.3473,-4.96094 V 157.4352 Z"
           id="path16483" />
        <path
           d="M 1406.3852,183.82739 V 157.4352 h -4.0431 v -4.19199 h 8.756 v 3.77031 q 3.5223,-4.14238 8.5328,-4.14238 5.0602,0 8.3592,3.47266 3.3238,3.47265 3.3238,9.0289 0,5.82911 -3.5966,9.20254 -3.5967,3.37344 -8.1856,3.37344 -4.7625,0 -8.4336,-3.67109 v 9.5498 h 4.6633 v 4.19199 h -13.7666 v -4.19199 z m 4.6385,-18.23144 q 0,1.98437 0.8186,3.79511 0.8185,1.81075 2.6045,3.05098 1.7859,1.21543 4.1919,1.21543 3.3735,0 5.5563,-2.25723 2.2076,-2.25722 2.2076,-6.20117 0,-3.84473 -2.3068,-6.00273 -2.2821,-2.15801 -5.209,-2.15801 -3.1254,0 -5.5066,2.35644 -2.3565,2.33165 -2.3565,6.20118 z"
           id="path16485" />
        <path
           d="m 1444.1876,176.83247 -7.8879,-19.39727 h -3.9936 v -4.19199 h 11.8815 v 4.19199 h -2.8774 l 5.1842,13.29532 5.085,-13.29532 h -3.175 v -4.19199 h 11.6334 v 4.19199 h -3.5719 l -11.8815,30.58418 h -7.9623 v -4.11757 h 4.6881 z"
           id="path16487" />
        <path
           d="m 1462.0221,157.4352 v -4.19199 h 3.1254 v -3.6959 l 4.7129,-4.31601 v 8.01191 h 4.4401 v 4.19199 h -4.4401 v 11.65821 q 0,2.80293 0.2977,3.47265 0.3224,0.64493 1.5627,0.64493 1.3146,0 2.5797,-0.4961 v 4.29121 q -1.8108,0.64492 -3.6215,0.64492 -2.158,0 -3.4975,-0.94257 -1.3394,-0.96739 -1.6867,-2.40606 -0.3473,-1.43867 -0.3473,-4.96094 V 157.4352 Z"
           id="path16489" />
        <path
           d="m 1481.1962,173.06216 v -26.11934 h -4.3409 v -4.19199 h 9.0538 v 13.2457 q 4.2416,-3.42304 8.0615,-3.42304 2.3812,0 3.9191,0.99218 1.5379,0.99219 2.0836,2.6293 0.5705,1.6123 0.5705,4.7377 v 12.12949 h 4.0928 v 4.19199 h -8.8057 v -14.68438 q 0,-2.72851 -0.1736,-3.64628 -0.1736,-0.91778 -0.9674,-1.51309 -0.7689,-0.59531 -1.8355,-0.59531 -2.7285,0 -6.9453,3.10058 v 13.14649 h 4.1671 v 4.19199 h -13.2209 v -4.19199 z"
           id="path16491" />
        <path
           d="m 1506.869,165.24868 q 0,-5.55625 3.6711,-9.10332 3.6711,-3.57187 8.9545,-3.57187 5.1842,0 8.9049,3.52226 3.7207,3.49746 3.7207,9.15293 0,5.65547 -3.7207,9.17774 -3.6959,3.52226 -8.9049,3.52226 -5.3578,0 -9.0041,-3.57187 -3.6215,-3.57188 -3.6215,-9.12813 z m 4.9858,0 q 0,3.54707 2.2076,5.8291 2.2324,2.25723 5.4322,2.25723 3.2494,0 5.4322,-2.28203 2.2076,-2.30684 2.2076,-5.8043 0,-3.52226 -2.2324,-5.8043 -2.2324,-2.28203 -5.4074,-2.28203 -3.3238,0 -5.4818,2.33164 -2.158,2.33164 -2.158,5.75469 z"
           id="path16493" />
        <path
           d="m 1544.3489,153.24321 v 2.90215 q 4.5392,-3.27422 8.2848,-3.27422 2.3316,0 3.8447,1.11621 1.5379,1.09141 2.0092,2.70371 0.4713,1.5875 0.4713,4.66328 v 11.70782 h 4.0431 v 4.19199 h -8.756 v -15.70137 q 0,-2.72851 -0.8186,-3.54707 -0.8185,-0.84336 -2.0092,-0.84336 -3.1254,0 -7.0693,3.05098 v 12.84883 h 4.1424 v 4.19199 h -13.0721 v -4.19199 h 4.2168 V 157.4352 h -4.2168 v -4.19199 z"
           id="path16495" />
      </g>
    </g>
    <g
       inkscape:groupmode="layer"
       inkscape:label="Chart-Layer: python:45933,rust:138161"
       id="g9520" />
    <g
       id="g24361"
       transform="translate(90.76664,37.763382)">
      <g
         id="g12572"
         transform="translate(-92.491695,2.1262458)"
         style="stroke:none">
        <circle
           cx="588.23535"
           cy="185.29411"
           r="100"
           style="fill:#f9f9f9;stroke:none"
           id="circle9060" />
        <path
           d="m 653.33229,261.20512 1.9529,2.27732"
           style="fill:none;stroke:none;stroke-width:1;stroke-linecap:butt"
           id="path9062" />
        <path
           sodipodi:cx="588.23535"
           sodipodi:cy="185.29411"
           sodipodi:rx="100"
           sodipodi:ry="100"
           sodipodi:type="arc"
           sodipodi:start="0"
           sodipodi:end="1.7238783"
           d="m 688.23535,185.29411 a 100,100 0 0 1 -34.90333,75.91063 100,100 0 0 1 -80.34515,22.91995 l 15.24848,-98.83058 z"
           style="fill:#3b80ee;fill-opacity:1;stroke:none"
           id="path9066"
           sodipodi:arc-type="slice" />
        <path
           d="m 504.17729,131.12512 -2.52173,-1.62508"
           style="fill:none;stroke:none;stroke-width:1;stroke-linecap:butt"
           id="path9068" />
        <path
           sodipodi:cx="588.23535"
           sodipodi:cy="185.29411"
           sodipodi:rx="100"
           sodipodi:ry="100"
           sodipodi:type="arc"
           sodipodi:start="1.7238783"
           sodipodi:end="5.7042045"
           d="M 572.98687,284.12469 A 100,100 0 0 1 488.64856,194.37548 100,100 0 0 1 555.36222,90.851763 100,100 0 0 1 671.93743,130.577 l -83.70208,54.71711 z"
           style="fill:#980101;fill-opacity:1;stroke:none"
           id="path9072"
           sodipodi:arc-type="slice" />
        <path
           d="m 684.07429,156.74812 2.87517,-0.85639"
           style="fill:none;stroke:none;stroke-width:1;stroke-linecap:butt"
           id="path9074" />
        <path
           sodipodi:cx="588.23535"
           sodipodi:cy="185.29411"
           sodipodi:rx="100"
           sodipodi:ry="100"
           sodipodi:type="arc"
           sodipodi:start="5.7042045"
           sodipodi:end="6.283184"
           d="m 671.93743,130.577 a 100,100 0 0 1 16.29792,54.71698 l -100,1.3e-4 z"
           style="fill:#d40000;fill-opacity:1;stroke:none"
           id="path9078"
           sodipodi:arc-type="slice" />
      </g>
      <g
         aria-label="numpy"
         id="text10107"
         style="font-size:50.8px;font-family:'Ink Free';-inkscape-font-specification:'Ink Free';fill:#ffffff;stroke:none;stroke-width:1.8">
        <path
           d="m 428.06084,331.25698 v 2.90215 q 4.53926,-3.27422 8.28477,-3.27422 2.33164,0 3.84472,1.11621 1.53789,1.0914 2.00918,2.70371 0.47129,1.5875 0.47129,4.66328 v 11.70781 h 4.04317 v 4.19199 h -8.75606 v -15.70136 q 0,-2.72852 -0.81855,-3.54707 -0.81856,-0.84336 -2.00918,-0.84336 -3.12539,0 -7.06934,3.05097 v 12.84883 h 4.14238 v 4.19199 h -13.07207 v -4.19199 h 4.2168 v -15.62695 h -4.2168 v -4.19199 z"
           style="font-family:Rockwell;-inkscape-font-specification:Rockwell;text-align:center;text-anchor:middle;stroke:none"
           id="path13851" />
        <path
           d="m 474.49522,351.07592 v 4.19199 h -8.85528 v -2.75332 q -4.14238,3.1502 -7.9375,3.1502 -2.40605,0 -3.99355,-1.0418 -1.5627,-1.0666 -2.0836,-2.72851 -0.52089,-1.68672 -0.52089,-5.40743 v -11.03808 h -3.39825 v -4.19199 h 8.11114 v 14.63476 q 0,2.6541 0.14882,3.57188 0.14883,0.91777 0.86817,1.51308 0.71933,0.59532 1.81074,0.59532 3.27422,0 6.99492,-3.1254 v -12.99765 h -4.2416 v -4.19199 h 8.95449 v 19.81894 z"
           style="font-family:Rockwell;-inkscape-font-specification:Rockwell;text-align:center;text-anchor:middle;stroke:none"
           id="path13853" />
        <path
           d="m 480.62197,351.07592 v -15.62695 h -3.99355 v -4.19199 h 8.70644 v 3.02617 q 4.26641,-3.39824 8.35918,-3.39824 4.11758,0 5.68027,3.7455 4.68809,-3.7455 8.73125,-3.7455 2.33164,0 3.81993,1.04179 1.51308,1.017 2.03398,2.6045 0.5209,1.56269 0.5209,4.63847 v 11.90625 h 4.19199 v 4.19199 h -8.90488 v -15.25488 q 0,-2.08359 -0.19844,-2.92695 -0.17363,-0.86817 -0.94258,-1.41387 -0.74414,-0.57051 -1.81074,-0.57051 -3.02617,0 -6.8709,3.10059 v 12.87363 h 4.11758 v 4.19199 h -8.83047 v -15.70136 q 0,-2.35645 -0.69453,-3.39825 -0.66973,-1.0666 -2.30684,-1.0666 -2.6789,0 -6.8957,3.10059 v 12.87363 h 4.2168 v 4.19199 h -13.2209 v -4.19199 z"
           style="font-family:Rockwell;-inkscape-font-specification:Rockwell;text-align:center;text-anchor:middle;stroke:none"
           id="path13855" />
        <path
           d="m 523.68291,361.84116 v -26.39219 h -4.04316 v -4.19199 h 8.75605 v 3.77031 q 3.52227,-4.14238 8.53282,-4.14238 5.06015,0 8.35918,3.47265 3.32382,3.47266 3.32382,9.02891 0,5.8291 -3.59668,9.20254 -3.59668,3.37344 -8.18554,3.37344 -4.7625,0 -8.4336,-3.6711 v 9.54981 h 4.66328 v 4.19199 h -13.7666 v -4.19199 z m 4.63848,-18.23145 q 0,1.98438 0.81855,3.79512 0.81856,1.81074 2.6045,3.05097 1.78593,1.21543 4.19199,1.21543 3.37344,0 5.55625,-2.25722 2.20762,-2.25723 2.20762,-6.20117 0,-3.84473 -2.30684,-6.00274 -2.28203,-2.15801 -5.20898,-2.15801 -3.1254,0 -5.50665,2.35645 -2.35644,2.33164 -2.35644,6.20117 z"
           style="font-family:Rockwell;-inkscape-font-specification:Rockwell;text-align:center;text-anchor:middle;stroke:none"
           id="path13857" />
        <path
           d="m 561.48526,354.84623 -7.88789,-19.39726 h -3.99356 v -4.19199 h 11.88145 v 4.19199 h -2.87735 l 5.18418,13.29531 5.08496,-13.29531 h -3.175 v -4.19199 h 11.6334 v 4.19199 h -3.57187 l -11.88145,30.58418 h -7.9623 v -4.11758 h 4.68808 z"
           style="font-family:Rockwell;-inkscape-font-specification:Rockwell;text-align:center;text-anchor:middle;stroke:none"
           id="path13859" />
      </g>
      <path
         id="path17053"
         style="fill:#000000;fill-opacity:0.160622;stroke-width:0.577655"
         d="m 595.77861,145.24642 -64.21954,0.73813 c -10.14445,0.37393 -9.78216,17.5742 0,17.94813 h 52.89622 c 11.95597,0.24928 11.59368,20.31724 0,19.81868 h -70.28656 c -14.49209,-0.12465 -14.49209,20.69036 0,20.93966 h 54.77864 c 14.49207,-0.37393 14.12978,21.68721 0,21.3133 h -76.87889 c -13.40518,-0.12465 -13.04289,20.31645 0,20.93966 h 42.5202 c 12.31829,0.12465 14.4921,20.81528 0,20.56599 h -91.79376 c -3.87532,0.23329 -6.72981,1.72932 -8.56357,3.81107 13.73777,8.99992 29.31607,14.72883 45.56093,16.75493 9.59396,0.74784 16.65178,0.37391 26.60804,0 54.15149,-6.78845 94.82196,-53.31191 94.85005,-108.50016 -0.002,-11.66501 -1.84971,-23.25454 -5.47176,-34.32939 z"
         sodipodi:nodetypes="ccccccccccccccccccc" />
    </g>
    <g
       id="g24398"
       transform="translate(19.537405,50.276746)">
      <g
         id="g12589"
         transform="translate(-92.491695,2.1262458)"
         style="stroke:none">
        <circle
           cx="1070.9342"
           cy="175.95157"
           r="100"
           style="fill:#f9f9f9;stroke:none"
           id="circle9261" />
        <path
           d="m 985.42126,227.79255 -2.5654,1.55522"
           style="fill:none;stroke:none;stroke-width:1;stroke-linecap:butt"
           id="path9263" />
        <path
           sodipodi:cx="1070.9342"
           sodipodi:cy="175.95157"
           sodipodi:rx="100"
           sodipodi:ry="100"
           sodipodi:type="arc"
           sodipodi:start="0"
           sodipodi:end="5.1932087"
           d="M 1170.9342,175.95157 A 100,100 0 0 1 1097.8476,272.26183 100,100 0 0 1 985.42087,227.79238 100,100 0 0 1 997.9916,107.5456 100,100 0 0 1 1117.1848,87.289959 l -46.2506,88.661611 z"
           style="fill:#3b80ee;fill-opacity:1;stroke:none"
           id="path9267"
           sodipodi:arc-type="slice" />
        <path
           d="m 1156.4472,124.11055 2.5654,-1.55523"
           style="fill:none;stroke:none;stroke-width:1;stroke-linecap:butt"
           id="path9269" />
        <path
           sodipodi:cx="1070.9342"
           sodipodi:cy="175.95157"
           sodipodi:rx="100"
           sodipodi:ry="100"
           sodipodi:type="arc"
           sodipodi:start="5.1932087"
           sodipodi:end="6.283184"
           d="m 1117.1848,87.289959 a 100,100 0 0 1 53.7494,88.661481 l -100,1.3e-4 z"
           style="fill:#980101;fill-opacity:1;stroke:none"
           id="path9273"
           sodipodi:arc-type="slice" />
      </g>
      <g
         aria-label="matplotlib"
         id="text10107-1-5"
         style="font-size:50.8px;font-family:'Ink Free';-inkscape-font-specification:'Ink Free';fill:#ffffff;stroke:none;stroke-width:1.8">
        <path
           d="m 867.47984,333.2655 v -15.62696 h -3.99356 v -4.19199 h 8.70645 v 3.02617 q 4.2664,-3.39824 8.35918,-3.39824 4.11757,0 5.68027,3.74551 4.68809,-3.74551 8.73125,-3.74551 2.33164,0 3.81992,1.0418 1.51309,1.01699 2.03399,2.60449 0.52089,1.5627 0.52089,4.63848 v 11.90625 h 4.192 v 4.19199 h -8.90489 v -15.25488 q 0,-2.0836 -0.19843,-2.92696 -0.17364,-0.86816 -0.94258,-1.41386 -0.74414,-0.57051 -1.81074,-0.57051 -3.02618,0 -6.8709,3.10058 v 12.87364 h 4.11758 v 4.19199 h -8.83047 v -15.70137 q 0,-2.35644 -0.69453,-3.39824 -0.66973,-1.0666 -2.30684,-1.0666 -2.67891,0 -6.8957,3.10058 v 12.87364 h 4.21679 v 4.19199 h -13.2209 v -4.19199 z"
           style="font-family:Rockwell;-inkscape-font-specification:Rockwell;text-align:center;text-anchor:middle;stroke:none"
           id="path13862" />
        <path
           d="m 932.12085,333.2655 v 4.19199 h -8.23515 v -2.92695 q -3.42305,3.32382 -7.63985,3.32382 -3.27422,0 -5.70508,-2.1332 -2.40605,-2.1332 -2.40605,-5.45703 0,-3.34863 2.55488,-5.55625 2.57969,-2.20762 6.20117,-2.20762 3.37344,0 6.52364,2.03399 V 322.153 q 0,-1.83555 -0.34727,-2.82774 -0.34726,-0.99218 -1.63711,-1.78593 -1.26504,-0.79375 -3.32383,-0.79375 -3.54707,0 -5.13457,2.82773 l -4.51445,-1.19063 q 3.00137,-5.60585 10.36836,-5.60585 2.70371,0 4.66328,0.74414 1.98438,0.71933 2.95176,1.88515 0.96738,1.14102 1.28984,2.48047 0.34727,1.33945 0.34727,4.26641 v 11.1125 z m -8.70644,-4.7377 q -3.05098,-2.38125 -6.17637,-2.38125 -1.95957,0 -3.27422,1.14102 -1.31465,1.14101 -1.31465,2.95176 0,1.68671 1.14102,2.82773 1.16582,1.14101 3.15019,1.14101 3.42305,0 6.47403,-2.87734 z"
           style="font-family:Rockwell;-inkscape-font-specification:Rockwell;text-align:center;text-anchor:middle;stroke:none"
           id="path13864" />
        <path
           d="m 934.30367,317.63854 v -4.19199 h 3.12539 v -3.6959 l 4.71289,-4.31601 v 8.01191 h 4.44004 v 4.19199 h -4.44004 v 11.65821 q 0,2.80293 0.29765,3.47265 0.32246,0.64493 1.5627,0.64493 1.31465,0 2.57969,-0.4961 v 4.29121 q -1.81075,0.64492 -3.62149,0.64492 -2.15801,0 -3.49746,-0.94257 -1.33945,-0.96739 -1.68672,-2.40606 -0.34726,-1.43867 -0.34726,-4.96094 v -11.90625 z"
           style="font-family:Rockwell;-inkscape-font-specification:Rockwell;text-align:center;text-anchor:middle;stroke:none"
           id="path13866" />
        <path
           d="m 952.83276,344.03073 v -26.39219 h -4.04316 v -4.19199 h 8.75605 v 3.77031 q 3.52227,-4.14238 8.53282,-4.14238 5.06015,0 8.35917,3.47266 3.32383,3.47265 3.32383,9.0289 0,5.82911 -3.59668,9.20254 -3.59668,3.37344 -8.18554,3.37344 -4.7625,0 -8.4336,-3.67109 v 9.5498 h 4.66328 v 4.19199 h -13.7666 v -4.19199 z m 4.63848,-18.23144 q 0,1.98437 0.81855,3.79511 0.81856,1.81075 2.6045,3.05098 1.78593,1.21543 4.19199,1.21543 3.37344,0 5.55625,-2.25723 2.20761,-2.25722 2.20761,-6.20117 0,-3.84473 -2.30683,-6.00273 -2.28203,-2.15801 -5.20899,-2.15801 -3.12539,0 -5.50664,2.35644 -2.35644,2.33164 -2.35644,6.20118 z"
           style="font-family:Rockwell;-inkscape-font-specification:Rockwell;text-align:center;text-anchor:middle;stroke:none"
           id="path13868" />
        <path
           d="m 985.12847,333.2655 v -26.11934 h -4.26641 v -4.19199 h 8.9793 v 30.31133 h 3.67109 v 4.19199 h -12.65039 v -4.19199 z"
           style="font-family:Rockwell;-inkscape-font-specification:Rockwell;text-align:center;text-anchor:middle;stroke:none"
           id="path13870" />
        <path
           d="m 996.61304,325.45202 q 0,-5.55625 3.67106,-9.10332 3.6711,-3.57187 8.9545,-3.57187 5.1842,0 8.9049,3.52226 3.7207,3.49746 3.7207,9.15293 0,5.65547 -3.7207,9.17773 -3.6959,3.52227 -8.9049,3.52227 -5.3578,0 -9.0041,-3.57187 -3.62146,-3.57188 -3.62146,-9.12813 z m 4.98576,0 q 0,3.54707 2.2076,5.8291 2.2324,2.25723 5.4322,2.25723 3.2494,0 5.4323,-2.28203 2.2076,-2.30684 2.2076,-5.8043 0,-3.52227 -2.2325,-5.8043 -2.2324,-2.28203 -5.4074,-2.28203 -3.3238,0 -5.4818,2.33164 -2.158,2.33164 -2.158,5.75469 z"
           style="font-family:Rockwell;-inkscape-font-specification:Rockwell;text-align:center;text-anchor:middle;stroke:none"
           id="path13872" />
        <path
           d="m 1025.3369,317.63854 v -4.19199 h 3.1254 v -3.6959 l 4.7128,-4.31601 v 8.01191 h 4.4401 v 4.19199 h -4.4401 v 11.65821 q 0,2.80293 0.2977,3.47265 0.3225,0.64493 1.5627,0.64493 1.3146,0 2.5797,-0.4961 v 4.29121 q -1.8108,0.64492 -3.6215,0.64492 -2.158,0 -3.4975,-0.94257 -1.3394,-0.96739 -1.6867,-2.40606 -0.3472,-1.43867 -0.3472,-4.96094 v -11.90625 z"
           style="font-family:Rockwell;-inkscape-font-specification:Rockwell;text-align:center;text-anchor:middle;stroke:none"
           id="path13874" />
        <path
           d="m 1044.4117,333.2655 v -26.11934 h -4.2664 v -4.19199 h 8.9793 v 30.31133 h 3.6711 v 4.19199 h -12.6504 v -4.19199 z"
           style="font-family:Rockwell;-inkscape-font-specification:Rockwell;text-align:center;text-anchor:middle;stroke:none"
           id="path13876" />
        <path
           d="m 1058.6744,305.28581 q 0,-1.14102 0.7937,-1.98438 0.8186,-0.84335 2.0588,-0.84335 1.1658,0 2.0092,0.81855 0.8433,0.81855 0.8433,2.00918 0,1.19062 -0.8433,2.03398 -0.8434,0.81856 -2.0092,0.81856 -1.1906,0 -2.034,-0.84336 -0.8185,-0.84336 -0.8185,-2.00918 z m 0.6697,27.97969 v -15.62696 h -3.7455 v -4.19199 h 8.4584 v 19.81895 h 3.6959 v 4.19199 h -12.1543 v -4.19199 z"
           style="font-family:Rockwell;-inkscape-font-specification:Rockwell;text-align:center;text-anchor:middle;stroke:none"
           id="path13878" />
        <path
           d="m 1070.1341,337.45749 v -4.19199 h 4.2664 v -26.11934 h -4.2664 v -4.19199 h 8.8801 v 13.89062 q 3.5471,-4.06796 8.7065,-4.06796 4.9609,0 8.3095,3.42304 3.3735,3.39824 3.3735,8.9793 0,5.35781 -3.2991,9.0289 -3.2742,3.64629 -8.4087,3.64629 -2.8774,0 -5.2586,-1.24023 -2.3813,-1.24023 -3.4231,-2.75332 v 3.59668 z m 9.0289,-11.95586 q 0,3.74551 2.2821,5.95312 2.3068,2.18282 5.3082,2.18282 3.1502,0 5.4322,-2.33164 2.282,-2.33164 2.282,-6.25078 0,-3.79512 -2.282,-5.87872 -2.2572,-2.10839 -5.3082,-2.10839 -3.0014,0 -5.3578,2.18281 -2.3565,2.15801 -2.3565,6.25078 z"
           style="font-family:Rockwell;-inkscape-font-specification:Rockwell;text-align:center;text-anchor:middle;stroke:none"
           id="path13880" />
      </g>
      <path
         id="path17053-5"
         style="fill:#000000;fill-opacity:0.160622;stroke-width:0.577655"
         d="m 1076.3102,137.80455 -64.2196,0.73813 c -10.1444,0.37393 -9.7821,17.5742 0,17.94813 h 52.8962 c 11.956,0.24928 11.5937,20.31724 0,19.81868 h -70.28652 c -14.49209,-0.12465 -14.49209,20.69036 0,20.93966 h 54.77862 c 14.4921,-0.37393 14.1298,21.68721 0,21.3133 h -76.87887 c -13.40518,-0.12465 -13.04289,20.31645 0,20.93966 h 42.52017 c 12.3183,0.12465 14.4921,20.81528 0,20.56599 h -91.79373 c -3.87532,0.23329 -6.72981,1.72932 -8.56357,3.81107 13.73777,8.99992 29.31607,14.72883 45.56093,16.75493 9.59396,0.74784 16.65178,0.37391 26.60804,0 54.15153,-6.78845 94.82193,-53.31191 94.85003,-108.50016 0,-11.66501 -1.8497,-23.25454 -5.4717,-34.32939 z"
         sodipodi:nodetypes="ccccccccccccccccccc" />
    </g>
    <g
       id="g24431"
       transform="translate(4.6536842,36.700259)">
      <g
         id="g12582"
         transform="translate(-92.491695,2.1262458)"
         style="stroke:none">
        <circle
           cx="477.08353"
           cy="559.37244"
           r="100"
           style="fill:#f9f9f9;stroke:none"
           id="circle9149" />
        <path
           d="m 465.88054,658.74245 -0.3361,2.98111"
           style="fill:none;stroke:none;stroke-width:1;stroke-linecap:butt"
           id="path9151" />
        <path
           sodipodi:cx="477.08353"
           sodipodi:cy="559.37244"
           sodipodi:rx="100"
           sodipodi:ry="100"
           sodipodi:type="arc"
           sodipodi:start="0"
           sodipodi:end="3.3661317"
           d="m 577.08353,559.37244 a 100,100 0 0 1 -56.61582,90.0989 100,100 0 0 1 -105.74044,-11.92156 100,100 0 0 1 -35.13343,-100.44304 l 97.48969,22.2657 z"
           style="fill:#3b80ee;fill-opacity:1;stroke:none"
           id="path9155"
           sodipodi:arc-type="slice" />
        <path
           d="m 423.79554,474.75345 -1.59865,-2.53857"
           style="fill:none;stroke:none;stroke-width:1;stroke-linecap:butt"
           id="path9157" />
        <path
           sodipodi:cx="477.08353"
           sodipodi:cy="559.37244"
           sodipodi:rx="100"
           sodipodi:ry="100"
           sodipodi:type="arc"
           sodipodi:start="3.3661317"
           sodipodi:end="4.9346361"
           d="m 379.59384,537.10674 a 100,100 0 0 1 119.53189,-75.27476 l -22.0422,97.54046 z"
           style="fill:#980101;fill-opacity:1;stroke:none"
           id="path9161"
           sodipodi:arc-type="slice" />
        <path
           d="m 546.11254,487.01945 2.07087,-2.1706"
           style="fill:none;stroke:none;stroke-width:1;stroke-linecap:butt"
           id="path9163" />
        <path
           sodipodi:cx="477.08353"
           sodipodi:cy="559.37244"
           sodipodi:rx="100"
           sodipodi:ry="100"
           sodipodi:type="arc"
           sodipodi:start="4.9346361"
           sodipodi:end="6.0139217"
           d="m 499.12573,461.83198 a 100,100 0 0 1 74.3545,70.93829 l -96.3967,26.60217 z"
           style="fill:#d40000;fill-opacity:1;stroke:none"
           id="path9167"
           sodipodi:arc-type="slice" />
        <path
           sodipodi:cx="477.08353"
           sodipodi:cy="559.37244"
           sodipodi:rx="100"
           sodipodi:ry="100"
           sodipodi:type="arc"
           sodipodi:start="6.0139217"
           sodipodi:end="6.283184"
           d="m 573.48023,532.77027 a 100,100 0 0 1 3.6033,26.60204 l -100,1.3e-4 z"
           style="fill:#f44800;fill-opacity:1;stroke:none"
           id="path9173"
           sodipodi:arc-type="slice" />
      </g>
      <g
         aria-label="scipy"
         id="text10107-1"
         style="font-size:50.8px;font-family:'Ink Free';-inkscape-font-specification:'Ink Free';fill:#ffffff;stroke:none;stroke-width:1.8">
        <path
           d="m 328.521,727.35077 v -8.23516 h 4.2168 v 0.79375 q 0.22324,1.68672 1.81074,2.77813 1.61231,1.0914 3.79512,1.0914 2.28203,0 3.64629,-0.79375 1.36426,-0.79375 1.36426,-2.20761 0,-1.36426 -1.14102,-2.00918 -1.11621,-0.64492 -4.46484,-1.19063 -4.96094,-0.84336 -7.09414,-2.70371 -2.1084,-1.88515 -2.1084,-4.86172 0,-3.00136 2.30683,-5.01054 2.30684,-2.03399 6.07715,-2.03399 3.39824,0 5.85391,1.38906 v -1.01699 h 4.19199 v 7.96231 h -4.19199 v -1.46348 q -1.90996,-2.95176 -5.55625,-2.95176 -1.86035,0 -3.07578,0.81856 -1.19063,0.79375 -1.19063,2.1332 0,1.36426 1.09141,1.88516 1.11621,0.49609 4.7625,1.0666 3.49746,0.5457 5.2834,1.28984 1.78593,0.71934 2.95175,2.43086 1.19063,1.68672 1.19063,3.94395 0,3.34863 -2.57969,5.333 -2.55488,1.95957 -6.64765,1.95957 -3.84473,0 -6.27559,-1.73632 v 1.33945 z"
           style="font-family:Rockwell;-inkscape-font-specification:Rockwell;text-align:center;text-anchor:middle;stroke:none"
           id="path13883" />
        <path
           d="m 374.26085,703.33983 v 9.07852 h -4.2168 q -0.32246,-2.60449 -2.1332,-3.99356 -1.78594,-1.38906 -4.16719,-1.38906 -3.175,0 -5.15938,2.25723 -1.98437,2.23242 -1.98437,5.87871 0,3.39824 1.88515,6.00273 1.88516,2.57969 5.45704,2.57969 4.96093,0 7.19336,-4.71289 l 3.89433,1.83555 q -3.22461,7.16855 -11.28613,7.16855 -5.70508,0 -8.9793,-3.89434 -3.27422,-3.89433 -3.27422,-8.97929 0,-5.43223 3.57188,-8.95449 3.57187,-3.54707 8.23515,-3.54707 3.99356,0 6.74688,2.35644 v -1.68672 z"
           style="font-family:Rockwell;-inkscape-font-specification:Rockwell;text-align:center;text-anchor:middle;stroke:none"
           id="path13885" />
        <path
           d="m 380.8837,695.17909 q 0,-1.14102 0.79375,-1.98438 0.81855,-0.84335 2.05879,-0.84335 1.16582,0 2.00918,0.81855 0.84336,0.81855 0.84336,2.00918 0,1.19062 -0.84336,2.03398 -0.84336,0.81856 -2.00918,0.81856 -1.19063,0 -2.03399,-0.84336 -0.81855,-0.84336 -0.81855,-2.00918 z m 0.66972,27.97969 v -15.62696 h -3.7455 v -4.19199 h 8.4584 v 19.81895 h 3.69589 v 4.19199 h -12.15429 v -4.19199 z"
           style="font-family:Rockwell;-inkscape-font-specification:Rockwell;text-align:center;text-anchor:middle;stroke:none"
           id="path13887" />
        <path
           d="m 395.7417,733.92401 v -26.39219 h -4.04316 v -4.19199 h 8.75605 v 3.77031 q 3.52227,-4.14238 8.53281,-4.14238 5.06016,0 8.35918,3.47266 3.32383,3.47265 3.32383,9.0289 0,5.82911 -3.59668,9.20254 -3.59668,3.37344 -8.18554,3.37344 -4.7625,0 -8.4336,-3.67109 v 9.5498 h 4.66328 v 4.19199 h -13.7666 v -4.19199 z m 4.63848,-18.23144 q 0,1.98437 0.81855,3.79511 0.81856,1.81075 2.60449,3.05098 1.78594,1.21543 4.192,1.21543 3.37343,0 5.55625,-2.25723 2.20761,-2.25722 2.20761,-6.20117 0,-3.84473 -2.30683,-6.00273 -2.28203,-2.15801 -5.20899,-2.15801 -3.12539,0 -5.50664,2.35644 -2.35644,2.33164 -2.35644,6.20118 z"
           style="font-family:Rockwell;-inkscape-font-specification:Rockwell;text-align:center;text-anchor:middle;stroke:none"
           id="path13889" />
        <path
           d="m 433.54405,726.92909 -7.88789,-19.39727 h -3.99356 v -4.19199 h 11.88145 v 4.19199 h -2.87735 l 5.18418,13.29532 5.08496,-13.29532 h -3.175 v -4.19199 h 11.6334 v 4.19199 h -3.57187 L 433.94092,738.116 h -7.9623 v -4.11757 h 4.68808 z"
           style="font-family:Rockwell;-inkscape-font-specification:Rockwell;text-align:center;text-anchor:middle;stroke:none"
           id="path13891" />
      </g>
      <path
         id="path17053-5-1"
         style="fill:#000000;fill-opacity:0.160622;stroke-width:0.577655"
         d="m 486.277,521.59193 -64.2196,0.73813 c -10.1444,0.37393 -9.7821,17.5742 0,17.94813 h 52.8962 c 11.956,0.24928 11.5937,20.31724 0,19.81868 h -70.28652 c -14.49209,-0.12465 -14.49209,20.69036 0,20.93966 h 54.77862 c 14.4921,-0.37393 14.1298,21.68721 0,21.3133 h -76.87887 c -13.40518,-0.12465 -13.04289,20.31645 0,20.93966 H 425.087 c 12.3183,0.12465 14.4921,20.81528 0,20.56599 h -91.79373 c -3.87532,0.23329 -6.72981,1.72932 -8.56357,3.81107 13.73777,8.99992 29.31607,14.72883 45.56093,16.75493 9.59396,0.74784 16.65178,0.37391 26.60804,0 54.15153,-6.78845 94.82193,-53.31191 94.85003,-108.50016 0,-11.66501 -1.8497,-23.25454 -5.4717,-34.32939 z"
         sodipodi:nodetypes="ccccccccccccccccccc" />
    </g>
    <g
       id="g24462"
       transform="translate(-23.529001,-88.069641)">
      <g
         aria-label="polars"
         id="text10107-1-5-2-5"
         style="font-size:50.8px;font-family:'Ink Free';-inkscape-font-specification:'Ink Free';fill:#ffffff;stroke:none;stroke-width:1.8">
        <path
           d="m 769.47835,855.12 v -26.39219 h -4.04317 v -4.19199 h 8.75606 v 3.77031 q 3.52226,-4.14238 8.53281,-4.14238 5.06015,0 8.35918,3.47265 3.32383,3.47266 3.32383,9.02891 0,5.8291 -3.59668,9.20254 -3.59668,3.37343 -8.18555,3.37343 -4.7625,0 -8.43359,-3.67109 V 855.12 h 4.66328 v 4.19199 h -13.7666 V 855.12 Z m 4.63847,-18.23145 q 0,1.98437 0.81856,3.79512 0.81855,1.81074 2.60449,3.05097 1.78594,1.21543 4.19199,1.21543 3.37344,0 5.55625,-2.25722 2.20762,-2.25723 2.20762,-6.20118 0,-3.84472 -2.30684,-6.00273 -2.28203,-2.15801 -5.20898,-2.15801 -3.12539,0 -5.50664,2.35645 -2.35645,2.33164 -2.35645,6.20117 z"
           style="font-family:Rockwell;-inkscape-font-specification:Rockwell;text-align:center;text-anchor:middle;stroke:none"
           id="path13894" />
        <path
           d="m 798.42542,836.54128 q 0,-5.55625 3.67109,-9.10332 3.67109,-3.57187 8.95449,-3.57187 5.18418,0 8.90488,3.52226 3.72071,3.49747 3.72071,9.15293 0,5.65547 -3.72071,9.17774 -3.69589,3.52226 -8.90488,3.52226 -5.35781,0 -9.0041,-3.57187 -3.62148,-3.57188 -3.62148,-9.12813 z m 4.98574,0 q 0,3.54707 2.20762,5.82911 2.23242,2.25722 5.43222,2.25722 3.24942,0 5.43223,-2.28203 2.20762,-2.30683 2.20762,-5.8043 0,-3.52226 -2.23243,-5.80429 -2.23242,-2.28203 -5.40742,-2.28203 -3.32383,0 -5.48183,2.33164 -2.15801,2.33164 -2.15801,5.75468 z"
           style="font-family:Rockwell;-inkscape-font-specification:Rockwell;text-align:center;text-anchor:middle;stroke:none"
           id="path13896" />
        <path
           d="m 830.89475,844.35476 v -26.11933 h -4.2664 v -4.192 h 8.97929 v 30.31133 h 3.6711 v 4.19199 h -12.65039 v -4.19199 z"
           style="font-family:Rockwell;-inkscape-font-specification:Rockwell;text-align:center;text-anchor:middle;stroke:none"
           id="path13898" />
        <path
           d="m 866.76233,844.35476 v 4.19199 h -8.23516 v -2.92695 q -3.42305,3.32383 -7.63984,3.32383 -3.27422,0 -5.70508,-2.13321 -2.40606,-2.1332 -2.40606,-5.45703 0,-3.34863 2.55489,-5.55625 2.57968,-2.20761 6.20117,-2.20761 3.37344,0 6.52363,2.03398 v -2.38125 q 0,-1.83555 -0.34726,-2.82773 -0.34727,-0.99219 -1.63711,-1.78594 -1.26504,-0.79375 -3.32383,-0.79375 -3.54707,0 -5.13457,2.82773 l -4.51445,-1.19062 q 3.00136,-5.60586 10.36835,-5.60586 2.70372,0 4.66329,0.74414 1.98437,0.71934 2.95175,1.88516 0.96739,1.14101 1.28985,2.48046 0.34726,1.33946 0.34726,4.26641 v 11.1125 z m -8.70645,-4.73769 q -3.05097,-2.38125 -6.17637,-2.38125 -1.95957,0 -3.27421,1.14101 -1.31465,1.14102 -1.31465,2.95176 0,1.68672 1.14101,2.82773 1.16582,1.14102 3.1502,1.14102 3.42305,0 6.47402,-2.87734 z"
           style="font-family:Rockwell;-inkscape-font-specification:Rockwell;text-align:center;text-anchor:middle;stroke:none"
           id="path13900" />
        <path
           d="m 873.36038,844.35476 v -15.62695 h -4.83692 v -4.19199 h 8.60723 v 5.40742 q 0.79375,-2.1084 2.20762,-3.49746 1.41387,-1.38907 2.97656,-1.83555 1.5875,-0.44648 4.31602,-0.44648 h 1.24023 v 4.7625 h -0.94258 q -3.59668,0 -5.38261,0.71933 -1.76114,0.71934 -2.6293,2.6293 -0.84336,1.88515 -0.84336,6.79648 v 5.2834 h 5.23379 v 4.19199 h -14.7836 v -4.19199 z"
           style="font-family:Rockwell;-inkscape-font-specification:Rockwell;text-align:center;text-anchor:middle;stroke:none"
           id="path13902" />
        <path
           d="m 890.67404,848.54675 v -8.23515 h 4.2168 v 0.79375 q 0.22324,1.68672 1.81074,2.77812 1.61231,1.09141 3.79512,1.09141 2.28203,0 3.64629,-0.79375 1.36426,-0.79375 1.36426,-2.20762 0,-1.36426 -1.14102,-2.00918 -1.11621,-0.64492 -4.46484,-1.19062 -4.96094,-0.84336 -7.09414,-2.70371 -2.1084,-1.88516 -2.1084,-4.86172 0,-3.00137 2.30683,-5.01055 2.30684,-2.03398 6.07715,-2.03398 3.39825,0 5.85391,1.38906 v -1.01699 h 4.19199 v 7.9623 h -4.19199 v -1.46348 q -1.90996,-2.95175 -5.55625,-2.95175 -1.86035,0 -3.07578,0.81855 -1.19063,0.79375 -1.19063,2.1332 0,1.36426 1.09141,1.88516 1.11621,0.49609 4.7625,1.0666 3.49746,0.5457 5.2834,1.28985 1.78594,0.71933 2.95176,2.43085 1.19062,1.68672 1.19062,3.94395 0,3.34863 -2.57969,5.33301 -2.55488,1.95957 -6.64765,1.95957 -3.84473,0 -6.27559,-1.73633 v 1.33945 z"
           style="font-family:Rockwell;-inkscape-font-specification:Rockwell;text-align:center;text-anchor:middle;stroke:none"
           id="path13904" />
      </g>
      <g
         id="g12598"
         transform="translate(-92.491695,2.1262458)"
         style="stroke:none">
        <path
           d="m 799.44102,767.71887 2.97285,-0.40268"
           style="fill:none;stroke:none;stroke-width:1;stroke-linecap:butt"
           id="path9169" />
        <circle
           cx="931.83392"
           cy="687.71625"
           r="100"
           style="fill:#f9f9f9;stroke:none"
           id="circle9506" />
        <path
           d="m 1002.6539,758.31726 2.1246,2.11804"
           style="fill:none;stroke:none;stroke-width:1;stroke-linecap:butt"
           id="path9508" />
        <path
           sodipodi:cx="931.83392"
           sodipodi:cy="687.71625"
           sodipodi:rx="100"
           sodipodi:ry="100"
           sodipodi:type="arc"
           sodipodi:start="0"
           sodipodi:end="1.5677072"
           d="m 1031.8339,687.71625 a 100,100 0 0 1 -99.69106,99.99952 l -0.30892,-99.99952 z"
           style="fill:#3b80ee;fill-opacity:1;stroke:none"
           id="path9512"
           sodipodi:arc-type="slice" />
        <path
           d="m 861.01391,617.11526 -2.1246,-2.11804"
           style="fill:none;stroke:none;stroke-width:1;stroke-linecap:butt"
           id="path9514" />
        <path
           sodipodi:cx="931.83392"
           sodipodi:cy="687.71625"
           sodipodi:rx="100"
           sodipodi:ry="100"
           sodipodi:type="arc"
           sodipodi:start="1.5677072"
           sodipodi:end="6.283184"
           d="m 932.14284,787.71577 a 100,100 0 0 1 -92.60795,-61.5172 100,100 0 0 1 21.47918,-109.08365 100,100 0 0 1 109.01675,-21.81619 100,100 0 0 1 61.80308,92.41739 l -99.99998,1.3e-4 z"
           style="fill:#980101;fill-opacity:1;stroke:none"
           id="path9518"
           sodipodi:arc-type="slice" />
      </g>
      <path
         id="path17053-5-1-3"
         style="fill:#000000;fill-opacity:0.160622;stroke-width:0.577655"
         d="m 935.978,650.2298 -64.2196,0.73813 c -10.1444,0.37393 -9.7821,17.5742 0,17.94813 h 52.8962 c 11.956,0.24928 11.5937,20.31724 0,19.81868 h -70.28652 c -14.49209,-0.12465 -14.49209,20.69036 0,20.93966 h 54.77862 c 14.4921,-0.37393 14.1298,21.68721 0,21.3133 h -76.87887 c -13.40518,-0.12465 -13.04289,20.31645 0,20.93966 H 874.788 c 12.3183,0.12465 14.4921,20.81528 0,20.56599 h -91.79373 c -3.87532,0.23329 -6.72981,1.72932 -8.56357,3.81107 13.73777,8.99992 29.31607,14.72883 45.56093,16.75493 9.59396,0.74784 16.65178,0.37391 26.60804,0 54.15153,-6.78845 94.82193,-53.31191 94.85003,-108.50016 0,-11.66501 -1.8497,-23.25454 -5.4717,-34.32939 z"
         sodipodi:nodetypes="ccccccccccccccccccc" />
    </g>
    <g
       id="g24495"
       transform="translate(4.6536842,34.181592)">
      <circle
         cx="1201.626"
         cy="567.35114"
         r="100"
         style="fill:#f9f9f9;stroke:none"
         id="circle9369" />
      <g
         id="g12606"
         transform="translate(-92.491695,2.1262458)"
         style="stroke:none">
        <path
           d="m 1207.1286,614.54991 -2.6096,1.47975"
           style="fill:none;stroke:none;stroke-width:1;stroke-linecap:butt"
           id="path9371" />
        <path
           sodipodi:cx="1294.1177"
           sodipodi:cy="565.22491"
           sodipodi:rx="100"
           sodipodi:ry="100"
           sodipodi:type="arc"
           sodipodi:start="0"
           sodipodi:end="5.2515395"
           d="M 1394.1177,565.22491 A 100,100 0 0 1 1319.6238,661.91739 100,100 0 0 1 1207.129,614.55 100,100 0 0 1 1224.2365,493.69431 100,100 0 0 1 1345.4584,479.4104 l -51.3407,85.81451 z"
           style="fill:#3b80ee;fill-opacity:1;stroke:none"
           id="path9375"
           sodipodi:arc-type="slice" />
        <path
           d="m 1360.1607,490.13691 1.9813,-2.25265"
           style="fill:none;stroke:none;stroke-width:1;stroke-linecap:butt"
           id="path9377" />
        <path
           sodipodi:cx="1294.1177"
           sodipodi:cy="565.22491"
           sodipodi:rx="100"
           sodipodi:ry="100"
           sodipodi:type="arc"
           sodipodi:start="5.2515395"
           sodipodi:end="5.6160294"
           d="m 1345.4584,479.4104 a 100,100 0 0 1 27.2177,23.93909 l -78.5584,61.87542 z"
           style="fill:#980101;fill-opacity:1;stroke:none"
           id="path9381"
           sodipodi:arc-type="slice" />
        <path
           d="m 1388.6057,532.48191 2.8346,-0.98228"
           style="fill:none;stroke:none;stroke-width:1;stroke-linecap:butt"
           id="path9383" />
        <path
           sodipodi:cx="1294.1177"
           sodipodi:cy="565.22491"
           sodipodi:rx="100"
           sodipodi:ry="100"
           sodipodi:type="arc"
           sodipodi:start="5.6160294"
           sodipodi:end="6.283184"
           d="m 1372.6761,503.34949 a 100,100 0 0 1 21.4416,61.87529 l -100,1.3e-4 z"
           style="fill:#d40000;fill-opacity:1;stroke:none"
           id="path9387"
           sodipodi:arc-type="slice" />
      </g>
      <g
         aria-label="pandas"
         id="text10107-1-5-2"
         style="font-size:50.8px;font-family:'Ink Free';-inkscape-font-specification:'Ink Free';fill:#ffffff;stroke:none;stroke-width:1.8">
        <path
           d="M 1120.5311,733.10889 V 706.7167 h -4.0432 v -4.19199 h 8.7561 v 3.77031 q 3.5222,-4.14238 8.5328,-4.14238 5.0601,0 8.3592,3.47265 3.3238,3.47266 3.3238,9.02891 0,5.8291 -3.5967,9.20254 -3.5967,3.37344 -8.1855,3.37344 -4.7625,0 -8.4336,-3.6711 v 9.54981 h 4.6633 v 4.19199 h -13.7666 v -4.19199 z m 4.6385,-18.23145 q 0,1.98438 0.8185,3.79512 0.8186,1.81074 2.6045,3.05098 1.7859,1.21542 4.192,1.21542 3.3734,0 5.5562,-2.25722 2.2077,-2.25723 2.2077,-6.20117 0,-3.84473 -2.3069,-6.00274 -2.282,-2.15801 -5.209,-2.15801 -3.1253,0 -5.5066,2.35645 -2.3564,2.33164 -2.3564,6.20117 z"
           style="font-family:Rockwell;-inkscape-font-specification:Rockwell;text-align:center;text-anchor:middle;stroke:none"
           id="path13907" />
        <path
           d="m 1173.8612,722.34365 v 4.19199 h -8.2352 v -2.92695 q -3.423,3.32383 -7.6398,3.32383 -3.2743,0 -5.7051,-2.1332 -2.4061,-2.13321 -2.4061,-5.45703 0,-3.34864 2.5549,-5.55625 2.5797,-2.20762 6.2012,-2.20762 3.3734,0 6.5236,2.03398 v -2.38125 q 0,-1.83554 -0.3473,-2.82773 -0.3472,-0.99219 -1.6371,-1.78594 -1.265,-0.79375 -3.3238,-0.79375 -3.5471,0 -5.1346,2.82774 l -4.5144,-1.19063 q 3.0014,-5.60586 10.3683,-5.60586 2.7038,0 4.6633,0.74414 1.9844,0.71934 2.9518,1.88516 0.9674,1.14101 1.2898,2.48047 0.3473,1.33945 0.3473,4.2664 v 11.1125 z m -8.7065,-4.73769 q -3.051,-2.38125 -6.1764,-2.38125 -1.9595,0 -3.2742,1.14101 -1.3146,1.14102 -1.3146,2.95176 0,1.68672 1.141,2.82773 1.1658,1.14102 3.1502,1.14102 3.423,0 6.474,-2.87734 z"
           style="font-family:Rockwell;-inkscape-font-specification:Rockwell;text-align:center;text-anchor:middle;stroke:none"
           id="path13909" />
        <path
           d="m 1184.8,702.52471 v 2.90215 q 4.5393,-3.27422 8.2848,-3.27422 2.3316,0 3.8447,1.11621 1.5379,1.0914 2.0092,2.70371 0.4713,1.5875 0.4713,4.66328 v 11.70781 h 4.0431 v 4.19199 h -8.756 v -15.70136 q 0,-2.72852 -0.8186,-3.54707 -0.8185,-0.84336 -2.0091,-0.84336 -3.1254,0 -7.0694,3.05097 v 12.84883 h 4.1424 v 4.19199 h -13.0721 v -4.19199 h 4.2168 V 706.7167 h -4.2168 v -4.19199 z"
           style="font-family:Rockwell;-inkscape-font-specification:Rockwell;text-align:center;text-anchor:middle;stroke:none"
           id="path13911" />
        <path
           d="m 1235.2528,722.34365 v 4.19199 h -9.0289 v -3.52226 q -3.5223,3.91914 -8.5825,3.91914 -4.6881,0 -8.2351,-3.19981 -3.5471,-3.1998 -3.5471,-9.10332 0,-5.92832 3.6463,-9.35136 3.6463,-3.42305 8.2351,-3.42305 4.8618,0 8.4833,3.86953 v -9.50019 h -4.6137 v -4.192 h 9.3265 v 30.31133 z m -24.3582,-7.83828 q 0,3.96875 2.2324,6.10195 2.2572,2.13321 5.3826,2.13321 3.0262,0 5.3578,-2.23242 2.3565,-2.25723 2.3565,-6.22598 0,-3.99356 -2.4061,-6.02754 -2.3813,-2.03398 -5.3578,-2.03398 -3.1998,0 -5.3826,2.40605 -2.1828,2.38125 -2.1828,5.87871 z"
           style="font-family:Rockwell;-inkscape-font-specification:Rockwell;text-align:center;text-anchor:middle;stroke:none"
           id="path13913" />
        <path
           d="m 1261.6946,722.34365 v 4.19199 h -8.2352 v -2.92695 q -3.423,3.32383 -7.6398,3.32383 -3.2743,0 -5.7051,-2.1332 -2.4061,-2.13321 -2.4061,-5.45703 0,-3.34864 2.5549,-5.55625 2.5797,-2.20762 6.2012,-2.20762 3.3734,0 6.5236,2.03398 v -2.38125 q 0,-1.83554 -0.3473,-2.82773 -0.3472,-0.99219 -1.6371,-1.78594 -1.265,-0.79375 -3.3238,-0.79375 -3.5471,0 -5.1346,2.82774 l -4.5144,-1.19063 q 3.0014,-5.60586 10.3683,-5.60586 2.7038,0 4.6633,0.74414 1.9844,0.71934 2.9518,1.88516 0.9674,1.14101 1.2898,2.48047 0.3473,1.33945 0.3473,4.2664 v 11.1125 z m -8.7065,-4.73769 q -3.051,-2.38125 -6.1764,-2.38125 -1.9595,0 -3.2742,1.14101 -1.3146,1.14102 -1.3146,2.95176 0,1.68672 1.141,2.82773 1.1658,1.14102 3.1502,1.14102 3.423,0 6.474,-2.87734 z"
           style="font-family:Rockwell;-inkscape-font-specification:Rockwell;text-align:center;text-anchor:middle;stroke:none"
           id="path13915" />
        <path
           d="m 1264.4231,726.53564 v -8.23515 h 4.2168 v 0.79375 q 0.2232,1.68672 1.8107,2.77812 1.6123,1.09141 3.7951,1.09141 2.2821,0 3.6463,-0.79375 1.3643,-0.79375 1.3643,-2.20762 0,-1.36426 -1.141,-2.00918 -1.1162,-0.64492 -4.4649,-1.19062 -4.9609,-0.84336 -7.0941,-2.70371 -2.1084,-1.88516 -2.1084,-4.86172 0,-3.00137 2.3068,-5.01055 2.3069,-2.03398 6.0772,-2.03398 3.3982,0 5.8539,1.38906 v -1.01699 h 4.192 v 7.9623 h -4.192 v -1.46347 q -1.91,-2.95176 -5.5563,-2.95176 -1.8603,0 -3.0758,0.81855 -1.1906,0.79375 -1.1906,2.13321 0,1.36425 1.0914,1.88515 1.1162,0.4961 4.7625,1.0666 3.4975,0.54571 5.2834,1.28985 1.786,0.71933 2.9518,2.43086 1.1906,1.68671 1.1906,3.94394 0,3.34863 -2.5797,5.33301 -2.5549,1.95957 -6.6476,1.95957 -3.8448,0 -6.2756,-1.73633 v 1.33945 z"
           style="font-family:Rockwell;-inkscape-font-specification:Rockwell;text-align:center;text-anchor:middle;stroke:none"
           id="path13917" />
      </g>
      <path
         id="path17053-5-1-3-0"
         style="fill:#000000;fill-opacity:0.160622;stroke-width:0.577655"
         d="m 1300.6292,524.7813 -64.2197,0.73813 c -10.1444,0.37393 -9.7821,17.5742 0,17.94813 h 52.8963 c 11.9559,0.24928 11.5936,20.31724 0,19.81868 h -70.2866 c -14.4921,-0.12465 -14.4921,20.69036 0,20.93966 h 54.7787 c 14.4921,-0.37393 14.1298,21.68721 0,21.3133 h -76.8789 c -13.4052,-0.12465 -13.0429,20.31645 0,20.93966 h 42.5202 c 12.3183,0.12465 14.4921,20.81528 0,20.56599 h -91.7938 c -3.8753,0.23329 -6.7298,1.72932 -8.5636,3.81107 13.7378,8.99992 29.3161,14.72883 45.561,16.75493 9.5939,0.74784 16.6518,0.37391 26.608,0 54.1515,-6.78845 94.8219,-53.31191 94.85,-108.50016 0,-11.66501 -1.8497,-23.25454 -5.4716,-34.32939 z"
         sodipodi:nodetypes="ccccccccccccccccccc" />
    </g>
  </g>
</svg>
