<?xml version="1.0" encoding="UTF-8" standalone="no"?>
<!-- Created with Inkscape (http://www.inkscape.org/) -->

<svg
   width="1600mm"
   height="900mm"
   viewBox="0 0 1600 900"
   version="1.1"
   id="svg19144"
   inkscape:version="1.2 (dc2aedaf03, 2022-05-15)"
   sodipodi:docname="metcalfe.svg"
   xmlns:inkscape="http://www.inkscape.org/namespaces/inkscape"
   xmlns:sodipodi="http://sodipodi.sourceforge.net/DTD/sodipodi-0.dtd"
   xmlns="http://www.w3.org/2000/svg"
   xmlns:svg="http://www.w3.org/2000/svg">
  <sodipodi:namedview
     id="namedview19146"
     pagecolor="#000000"
     bordercolor="#000000"
     borderopacity="0.25"
     inkscape:showpageshadow="2"
     inkscape:pageopacity="0"
     inkscape:pagecheckerboard="0"
     inkscape:deskcolor="#d1d1d1"
     inkscape:document-units="mm"
     showgrid="false"
     inkscape:zoom="0.25488194"
     inkscape:cx="2403.0734"
     inkscape:cy="1700.7874"
     inkscape:window-width="1920"
     inkscape:window-height="1112"
     inkscape:window-x="2125"
     inkscape:window-y="-8"
     inkscape:window-maximized="1"
     inkscape:current-layer="layer1" />
  <defs
     id="defs19141">
    <rect
       x="431.57235"
       y="376.64496"
       width="5057.2433"
       height="2577.664"
       id="rect67" />
  </defs>
  <g
     inkscape:label="Layer 1"
     inkscape:groupmode="layer"
     id="layer1">
    <g
       aria-label="Metcalfe’s Law: The value of a network is proportional to  the square of the nodes "
       transform="scale(0.26458333)"
       id="text65"
       style="font-size:240px;line-height:2.1;font-family:Rockwell;-inkscape-font-specification:Rockwell;white-space:pre;shape-inside:url(#rect67);display:inline;fill:#ffffff;stroke-width:30.23622085;paint-order:stroke markers fill;stroke:#000000;stroke-opacity:0.89637303;stroke-dasharray:none">
      <path
         d="m 438.13477,690.73567 v -27.53906 h 21.09375 V 555.26692 h -21.09375 v -27.53906 h 81.67968 l 35.85938,95.625 35.97656,-95.625 h 83.32031 v 27.53906 h -21.09375 v 107.92969 h 21.09375 v 27.53906 h -82.03125 v -27.53906 h 19.6875 V 555.26692 h -3.86718 L 558.25195,690.73567 H 540.67383 L 489.58008,555.26692 h -3.86719 v 107.92969 h 21.32813 v 27.53906 z"
         style="font-weight:bold;-inkscape-font-specification:'Rockwell Bold';stroke:#000000;stroke-opacity:0.89637303;stroke-width:30.23622085;stroke-dasharray:none"
         id="path245" />
      <path
         d="m 781.61133,656.51692 28.125,9.02344 q -17.69531,27.77344 -55.3125,27.77344 -30,0 -46.875,-15.82031 -16.75781,-15.82032 -16.75781,-41.60157 0,-26.25 17.34375,-43.82812 17.34375,-17.57813 44.17968,-17.57813 19.45313,0 33.63282,9.84375 14.17968,9.84375 19.6875,24.49219 5.50781,14.64844 5.50781,32.69531 h -84.49219 q 0.82031,15.46875 9.72656,21.91407 9.02344,6.44531 18.98438,6.44531 13.00781,0 26.25,-13.35938 z m -6.91406,-35.15625 q -1.28907,-9.49218 -7.5,-16.17187 -6.09375,-6.67969 -16.75782,-6.67969 -19.92187,0 -23.20312,22.85156 z"
         style="font-weight:bold;-inkscape-font-specification:'Rockwell Bold';stroke:#000000;stroke-opacity:0.89637303;stroke-width:30.23622085;stroke-dasharray:none"
         id="path247" />
      <path
         d="m 823.79883,603.54817 v -26.25 h 14.41406 v -17.8125 l 36.21094,-26.01562 v 43.82812 h 20.85937 v 26.25 h -20.85937 v 49.10157 q 0,6.67968 1.64062,9.02343 1.75782,2.22657 7.85157,2.22657 5.03906,0 11.36718,-2.34375 v 25.07812 q -13.94531,5.74219 -27.30468,5.74219 -29.76563,0 -29.76563,-29.53125 v -59.29688 z"
         style="font-weight:bold;-inkscape-font-specification:'Rockwell Bold';stroke:#000000;stroke-opacity:0.89637303;stroke-width:30.23622085;stroke-dasharray:none"
         id="path249" />
      <path
         d="m 1027.5879,577.29817 v 46.05469 h -25.7813 q -8.78902,-18.98437 -27.53902,-18.98437 -11.95313,0 -19.10156,7.96875 -7.03125,7.85156 -7.03125,21.09375 0,16.05468 7.5,23.78906 7.5,7.61719 18.39843,7.61719 8.67188,0 16.40625,-4.92188 7.73438,-5.03906 12.42185,-13.24219 l 28.125,12.42188 q -15.7031,34.21875 -55.0781,34.21875 -29.64843,0 -47.34375,-16.17188 -17.57812,-16.17187 -17.57812,-43.24218 0,-27.07032 17.22656,-42.65625 17.34375,-15.70313 40.3125,-15.70313 18.39844,0 34.33591,11.13281 v -9.375 z"
         style="font-weight:bold;-inkscape-font-specification:'Rockwell Bold';stroke:#000000;stroke-opacity:0.89637303;stroke-width:30.23622085;stroke-dasharray:none"
         id="path251" />
      <path
         d="m 1173.4863,664.60286 v 26.13281 h -54.4922 v -8.90625 q -14.6484,10.54688 -30.9375,10.54688 -16.875,0 -29.1796,-9.60938 -12.1875,-9.60937 -12.1875,-25.78125 0,-16.28906 12.8906,-27.30468 12.8906,-11.01563 33.2812,-11.01563 11.3672,0 26.1328,5.74219 v -6.91406 q 0,-8.67188 -5.8593,-14.17969 -5.8594,-5.625 -15.7032,-5.625 -12.1875,0 -20.8593,8.90625 l -29.1797,-5.27344 q 12.6562,-26.83594 54.9609,-26.83594 16.4063,0 27.1875,3.75 10.7813,3.63282 16.0547,9.49219 5.2734,5.85938 7.3828,12.89063 2.2266,6.91406 2.2266,22.61718 v 41.36719 z m -54.4922,-15.82031 q -13.125,-8.20313 -20.9765,-8.20313 -6.211,0 -11.3672,3.63282 -5.0391,3.63281 -5.0391,10.54687 0,6.21094 4.1016,10.66406 4.1016,4.45313 10.5469,4.45313 10.0781,0 22.7343,-11.83594 z"
         style="font-weight:bold;-inkscape-font-specification:'Rockwell Bold';stroke:#000000;stroke-opacity:0.89637303;stroke-width:30.23622085;stroke-dasharray:none"
         id="path253" />
      <path
         d="m 1185.6738,690.73567 v -26.13281 h 17.8125 V 553.86067 h -17.8125 v -26.13281 h 54.0235 v 136.875 h 16.289 v 26.13281 z"
         style="font-weight:bold;-inkscape-font-specification:'Rockwell Bold';stroke:#000000;stroke-opacity:0.89637303;stroke-width:30.23622085;stroke-dasharray:none"
         id="path255" />
      <path
         d="m 1339.7754,664.60286 v 26.13281 h -70.4297 v -26.13281 h 16.4063 v -61.05469 h -15.2344 v -26.25 h 15.2344 v -10.42968 q 0,-17.92969 11.0156,-29.88282 11.1328,-12.07031 33.0469,-12.07031 26.6015,0 37.8515,15.9375 l -26.25,20.50781 q -3.5156,-12.1875 -10.0781,-12.1875 -9.375,0 -9.375,15.70313 v 12.42187 h 17.8125 v 26.25 h -17.8125 v 61.05469 z"
         style="font-weight:bold;-inkscape-font-specification:'Rockwell Bold';stroke:#000000;stroke-opacity:0.89637303;stroke-width:30.23622085;stroke-dasharray:none"
         id="path257" />
      <path
         d="m 1446.7676,656.51692 28.125,9.02344 q -17.6953,27.77344 -55.3125,27.77344 -30,0 -46.875,-15.82031 -16.7578,-15.82032 -16.7578,-41.60157 0,-26.25 17.3437,-43.82812 17.3438,-17.57813 44.1797,-17.57813 19.4531,0 33.6328,9.84375 14.1797,9.84375 19.6875,24.49219 5.5078,14.64844 5.5078,32.69531 h -84.4922 q 0.8204,15.46875 9.7266,21.91407 9.0234,6.44531 18.9844,6.44531 13.0078,0 26.25,-13.35938 z m -6.9141,-35.15625 q -1.289,-9.49218 -7.5,-16.17187 -6.0937,-6.67969 -16.7578,-6.67969 -19.9219,0 -23.2031,22.85156 z"
         style="font-weight:bold;-inkscape-font-specification:'Rockwell Bold';stroke:#000000;stroke-opacity:0.89637303;stroke-width:30.23622085;stroke-dasharray:none"
         id="path259" />
      <path
         d="m 1507.3535,610.34505 v -17.69531 q 19.2188,-1.875 19.2188,-23.08594 v -2.22656 h -19.2188 v -39.60938 h 39.1406 v 36.79688 q 0,16.99218 -3.6328,26.60156 -3.5156,9.49219 -12.6562,14.41406 -9.0235,4.80469 -22.8516,4.80469 z"
         style="font-weight:bold;-inkscape-font-specification:'Rockwell Bold';stroke:#000000;stroke-opacity:0.89637303;stroke-width:30.23622085;stroke-dasharray:none"
         id="path261" />
      <path
         d="m 1564.0723,690.73567 v -39.02343 h 26.4843 q 0.3516,7.96875 7.3829,12.77343 7.0312,4.6875 17.3437,4.6875 8.9063,0 13.8281,-3.04687 5.0391,-3.16406 5.0391,-7.96875 0,-4.45313 -4.5703,-6.91406 -4.5703,-2.46094 -17.9297,-4.6875 -27.5391,-4.45313 -39.7266,-13.47657 -12.1875,-9.14062 -12.1875,-24.14062 0,-14.0625 11.4844,-23.67188 11.4844,-9.72656 30.4688,-9.72656 15.3515,0 28.7109,5.625 v -3.86719 h 25.8984 v 32.92969 h -25.8984 q -3.5156,-11.83594 -24.8438,-11.83594 -15.7031,0 -15.7031,8.67188 0,3.28125 3.1641,5.03906 3.2812,1.64063 16.5234,3.98438 20.9766,3.63281 31.4063,7.26562 10.4297,3.63281 16.6406,12.07031 6.3281,8.32032 6.3281,20.03907 0,16.64062 -11.9531,27.30468 -11.8359,10.54688 -33.6328,10.54688 -20.2735,0 -27.7735,-8.20313 v 5.625 z"
         style="font-weight:bold;-inkscape-font-specification:'Rockwell Bold';stroke:#000000;stroke-opacity:0.89637303;stroke-width:30.23622085;stroke-dasharray:none"
         id="path263" />
      <path
         d="m 1739.1504,690.73567 v -27.53906 h 23.3203 V 555.26692 h -23.3203 v -27.53906 h 89.5312 v 27.53906 h -23.789 v 107.92969 h 48.164 v -50.39062 h 31.7579 v 77.92968 z"
         style="font-weight:bold;-inkscape-font-specification:'Rockwell Bold';stroke:#000000;stroke-opacity:0.89637303;stroke-width:30.23622085;stroke-dasharray:none"
         id="path265" />
      <path
         d="m 2024.0332,664.60286 v 26.13281 h -54.4922 v -8.90625 q -14.6484,10.54688 -30.9375,10.54688 -16.875,0 -29.1797,-9.60938 -12.1875,-9.60937 -12.1875,-25.78125 0,-16.28906 12.8907,-27.30468 12.8906,-11.01563 33.2812,-11.01563 11.3672,0 26.1328,5.74219 v -6.91406 q 0,-8.67188 -5.8594,-14.17969 -5.8593,-5.625 -15.7031,-5.625 -12.1875,0 -20.8594,8.90625 l -29.1796,-5.27344 q 12.6562,-26.83594 54.9609,-26.83594 16.4062,0 27.1875,3.75 10.7812,3.63282 16.0547,9.49219 5.2734,5.85938 7.3828,12.89063 2.2266,6.91406 2.2266,22.61718 v 41.36719 z m -54.4922,-15.82031 q -13.125,-8.20313 -20.9765,-8.20313 -6.211,0 -11.3672,3.63282 -5.0391,3.63281 -5.0391,10.54687 0,6.21094 4.1016,10.66406 4.1015,4.45313 10.5468,4.45313 10.0782,0 22.7344,-11.83594 z"
         style="font-weight:bold;-inkscape-font-specification:'Rockwell Bold';stroke:#000000;stroke-opacity:0.89637303;stroke-width:30.23622085;stroke-dasharray:none"
         id="path267" />
      <path
         d="m 2065.752,692.3763 -29.7657,-88.82813 h -14.414 v -26.25 h 61.7578 v 26.25 h -12.4219 l 13.9453,42.1875 23.2031,-68.4375 h 30 l 22.5,68.4375 13.9454,-42.1875 h -12.7735 v -26.25 h 54.8438 v 26.25 h -14.1797 l -29.4141,88.82813 h -31.4062 l -22.2657,-66.67969 -21.914,66.67969 z"
         style="font-weight:bold;-inkscape-font-specification:'Rockwell Bold';stroke:#000000;stroke-opacity:0.89637303;stroke-width:30.23622085;stroke-dasharray:none"
         id="path269" />
      <path
         d="m 2239.4238,616.32161 v -39.02344 h 39.2578 v 39.02344 z m 0,74.41406 v -39.25781 h 39.2578 v 39.25781 z"
         style="font-weight:bold;-inkscape-font-specification:'Rockwell Bold';stroke:#000000;stroke-opacity:0.89637303;stroke-width:30.23622085;stroke-dasharray:none"
         id="path271" />
      <path
         d="m 488.17383,1174.345 v -122.2266 h -33.63281 v 41.6016 h -20.15625 v -61.9922 h 132.07031 v 61.9922 h -20.15625 v -41.6016 H 512.7832 v 122.2266 h 21.21094 v 20.3906 h -66.67969 v -20.3906 z"
         id="path273"
         style="stroke:#000000;stroke-opacity:0.89637303;stroke-width:30.23622085;stroke-dasharray:none" />
      <path
         d="m 598.21289,1174.9309 v -123.3984 h -20.50781 v -19.8047 h 42.77344 v 62.5781 q 20.03906,-16.1718 38.08593,-16.1718 11.25,0 18.51563,4.6875 7.26562,4.6875 9.84375,12.4218 2.69531,7.6172 2.69531,22.3829 v 57.3046 h 19.33594 v 19.8047 h -41.60156 v -69.375 q 0,-12.8906 -0.82032,-17.2265 -0.82031,-4.336 -4.57031,-7.1485 -3.63281,-2.8125 -8.67187,-2.8125 -12.89063,0 -32.8125,14.6485 v 62.1093 h 19.6875 v 19.8047 h -62.46094 v -19.8047 z"
         id="path275"
         style="stroke:#000000;stroke-opacity:0.89637303;stroke-width:30.23622085;stroke-dasharray:none" />
      <path
         d="m 839.0332,1143.6419 h -95.39062 q 2.10937,15.7031 12.42187,25.4297 10.3125,9.7265 26.36719,9.7265 23.32031,0 36.91406,-18.75 l 19.6875,8.6719 q -9.60937,14.8828 -24.96093,22.1484 -15.35157,7.1485 -32.10938,7.1485 -26.01562,0 -44.53125,-16.1719 -18.39844,-16.2891 -18.39844,-43.8281 0,-26.1328 17.92969,-43.0078 18.04688,-16.875 41.36719,-16.875 22.85156,0 41.36719,16.5234 18.63281,16.4063 19.33593,48.9844 z M 816.06445,1127.47 q -2.34375,-11.9531 -12.42187,-21.5625 -10.07813,-9.7266 -24.72656,-9.7266 -13.35938,0 -22.85157,8.7891 -9.49218,8.6719 -11.60156,22.5 z"
         id="path277"
         style="stroke:#000000;stroke-opacity:0.89637303;stroke-width:30.23622085;stroke-dasharray:none" />
      <path
         d="m 964.54102,1196.6106 -37.03125,-95.5078 H 907.4707 v -19.8047 h 57.07032 v 19.8047 h -14.76563 l 24.375,64.336 24.49219,-64.336 h -15.70313 v -19.8047 h 55.42965 v 19.8047 h -17.4609 l -36.21093,95.5078 z"
         id="path279"
         style="stroke:#000000;stroke-opacity:0.89637303;stroke-width:30.23622085;stroke-dasharray:none" />
      <path
         d="m 1158.7207,1174.9309 v 19.8047 h -38.9062 v -13.8281 q -16.1719,15.7031 -36.0938,15.7031 -15.4687,0 -26.9531,-10.0781 -11.3672,-10.0781 -11.3672,-25.7812 0,-15.8204 12.0703,-26.25 12.1875,-10.4297 29.2969,-10.4297 15.9375,0 30.8203,9.6093 v -11.25 q 0,-8.6718 -1.6406,-13.3593 -1.6407,-4.6875 -7.7344,-8.4375 -5.9766,-3.75 -15.7031,-3.75 -16.7578,0 -24.2578,13.3593 l -21.3282,-5.625 q 14.1797,-26.4843 48.9844,-26.4843 12.7734,0 22.0313,3.5156 9.375,3.3984 13.9453,8.9062 4.5703,5.3907 6.0937,11.7188 1.6406,6.3281 1.6406,20.1562 v 52.5 z m -41.1328,-22.3828 q -14.4141,-11.25 -29.1797,-11.25 -9.2578,0 -15.4687,5.3907 -6.211,5.3906 -6.211,13.9453 0,7.9687 5.3906,13.3593 5.5079,5.3907 14.8829,5.3907 16.1718,0 30.5859,-13.5938 z"
         id="path281"
         style="stroke:#000000;stroke-opacity:0.89637303;stroke-width:30.23622085;stroke-dasharray:none" />
      <path
         d="m 1186.7285,1174.9309 v -123.3984 h -20.1562 v -19.8047 h 42.4218 v 143.2031 h 17.3438 v 19.8047 h -59.7656 v -19.8047 z"
         id="path283"
         style="stroke:#000000;stroke-opacity:0.89637303;stroke-width:30.23622085;stroke-dasharray:none" />
      <path
         d="m 1364.6191,1174.9309 v 19.8047 h -41.8359 v -13.0078 q -19.5703,14.8828 -37.5,14.8828 -11.3672,0 -18.8672,-4.9218 -7.3828,-5.0391 -9.8437,-12.8907 -2.461,-7.9687 -2.461,-25.5468 v -52.1485 h -16.0547 v -19.8047 h 38.3204 v 69.1407 q 0,12.539 0.7031,16.875 0.7031,4.3359 4.1015,7.1484 3.3985,2.8125 8.5547,2.8125 15.4688,0 33.0469,-14.7656 v -61.4063 h -20.0391 v -19.8047 h 42.3047 v 93.6328 z"
         id="path285"
         style="stroke:#000000;stroke-opacity:0.89637303;stroke-width:30.23622085;stroke-dasharray:none" />
      <path
         d="m 1495.6348,1143.6419 h -95.3907 q 2.1094,15.7031 12.4219,25.4297 10.3125,9.7265 26.3672,9.7265 23.3203,0 36.9141,-18.75 l 19.6875,8.6719 q -9.6094,14.8828 -24.961,22.1484 -15.3515,7.1485 -32.1093,7.1485 -26.0157,0 -44.5313,-16.1719 -18.3984,-16.2891 -18.3984,-43.8281 0,-26.1328 17.9297,-43.0078 18.0468,-16.875 41.3671,-16.875 22.8516,0 41.3672,16.5234 18.6328,16.4063 19.336,48.9844 z M 1472.666,1127.47 q -2.3437,-11.9531 -12.4219,-21.5625 -10.0781,-9.7266 -24.7265,-9.7266 -13.3594,0 -22.8516,8.7891 -9.4922,8.6719 -11.6015,22.5 z"
         id="path287"
         style="stroke:#000000;stroke-opacity:0.89637303;stroke-width:30.23622085;stroke-dasharray:none" />
      <path
         d="m 1573.6816,1138.0169 q 0,-26.25 17.3438,-43.0078 17.3437,-16.875 42.3047,-16.875 24.4922,0 42.0703,16.6406 17.5781,16.5234 17.5781,43.2422 0,26.7187 -17.5781,43.3594 -17.4609,16.6406 -42.0703,16.6406 -25.3125,0 -42.5391,-16.875 -17.1094,-16.875 -17.1094,-43.125 z m 23.5547,0 q 0,16.7578 10.4297,27.539 10.5469,10.6641 25.6641,10.6641 15.3515,0 25.664,-10.7812 10.4297,-10.8985 10.4297,-27.4219 0,-16.6406 -10.5468,-27.4219 -10.5469,-10.7812 -25.5469,-10.7812 -15.7031,0 -25.8985,11.0156 -10.1953,11.0156 -10.1953,27.1875 z"
         id="path289"
         style="stroke:#000000;stroke-opacity:0.89637303;stroke-width:30.23622085;stroke-dasharray:none" />
      <path
         d="m 1725.2051,1174.9309 v -73.8281 h -16.5235 v -19.6875 h 16.5235 v -16.4062 q 0,-20.7422 8.789,-28.5938 8.7891,-7.9687 20.7422,-7.9687 25.7813,0 29.8828,26.1328 l -19.8046,3.0469 q -1.1719,-10.8985 -8.5547,-10.8985 -5.0391,0 -6.9141,3.5156 -1.875,3.3985 -1.875,14.7657 v 16.4062 h 19.4531 v 19.6875 h -19.4531 v 73.8281 h 21.5625 v 19.8047 h -60.3516 v -19.8047 z"
         id="path291"
         style="stroke:#000000;stroke-opacity:0.89637303;stroke-width:30.23622085;stroke-dasharray:none" />
      <path
         d="m 1956.5332,1174.9309 v 19.8047 h -38.9062 v -13.8281 q -16.1719,15.7031 -36.0938,15.7031 -15.4687,0 -26.9531,-10.0781 -11.3672,-10.0781 -11.3672,-25.7812 0,-15.8204 12.0703,-26.25 12.1875,-10.4297 29.2969,-10.4297 15.9375,0 30.8203,9.6093 v -11.25 q 0,-8.6718 -1.6406,-13.3593 -1.6407,-4.6875 -7.7344,-8.4375 -5.9766,-3.75 -15.7031,-3.75 -16.7578,0 -24.2578,13.3593 l -21.3282,-5.625 q 14.1797,-26.4843 48.9844,-26.4843 12.7734,0 22.0313,3.5156 9.375,3.3984 13.9453,8.9062 4.5703,5.3907 6.0937,11.7188 1.6406,6.3281 1.6406,20.1562 v 52.5 z m -41.1328,-22.3828 q -14.4141,-11.25 -29.1797,-11.25 -9.2578,0 -15.4687,5.3907 -6.211,5.3906 -6.211,13.9453 0,7.9687 5.3906,13.3593 5.5079,5.3907 14.8829,5.3907 16.1718,0 30.5859,-13.5938 z"
         id="path293"
         style="stroke:#000000;stroke-opacity:0.89637303;stroke-width:30.23622085;stroke-dasharray:none" />
      <path
         d="m 2068.2129,1081.2981 v 13.711 q 21.4453,-15.4688 39.1406,-15.4688 11.0156,0 18.1641,5.2735 7.2656,5.1562 9.4922,12.7734 2.2265,7.5 2.2265,22.0312 v 55.3125 h 19.1016 v 19.8047 h -41.3672 v -74.1797 q 0,-12.8906 -3.8672,-16.7578 -3.8672,-3.9843 -9.4922,-3.9843 -14.7656,0 -33.3984,14.414 v 60.7031 h 19.5703 v 19.8047 h -61.7578 v -19.8047 h 19.9219 v -73.8281 h -19.9219 v -19.8047 z"
         id="path295"
         style="stroke:#000000;stroke-opacity:0.89637303;stroke-width:30.23622085;stroke-dasharray:none" />
      <path
         d="m 2285.8301,1143.6419 h -95.3906 q 2.1093,15.7031 12.4218,25.4297 10.3125,9.7265 26.3672,9.7265 23.3203,0 36.9141,-18.75 l 19.6875,8.6719 q -9.6094,14.8828 -24.961,22.1484 -15.3515,7.1485 -32.1093,7.1485 -26.0157,0 -44.5313,-16.1719 -18.3984,-16.2891 -18.3984,-43.8281 0,-26.1328 17.9297,-43.0078 18.0468,-16.875 41.3672,-16.875 22.8515,0 41.3671,16.5234 18.6329,16.4063 19.336,48.9844 z m -22.9688,-16.1719 q -2.3437,-11.9531 -12.4218,-21.5625 -10.0782,-9.7266 -24.7266,-9.7266 -13.3594,0 -22.8516,8.7891 -9.4922,8.6719 -11.6015,22.5 z"
         id="path297"
         style="stroke:#000000;stroke-opacity:0.89637303;stroke-width:30.23622085;stroke-dasharray:none" />
      <path
         d="m 2302.002,1101.1028 v -19.8047 h 14.7656 v -17.4609 l 22.2656,-20.3906 v 37.8515 h 20.9766 v 19.8047 h -20.9766 v 55.0781 q 0,13.2422 1.4063,16.4063 1.5234,3.0469 7.3828,3.0469 6.2109,0 12.1875,-2.3438 v 20.2735 q -8.5547,3.0468 -17.1094,3.0468 -10.1953,0 -16.5234,-4.4531 -6.3282,-4.5703 -7.9688,-11.3672 -1.6406,-6.7969 -1.6406,-23.4375 v -56.25 z"
         id="path299"
         style="stroke:#000000;stroke-opacity:0.89637303;stroke-width:30.23622085;stroke-dasharray:none" />
      <path
         d="m 2410.9863,1196.6106 -30.3515,-95.5078 h -13.8282 v -19.8047 h 47.8125 v 19.8047 h -14.8828 l 21.6797,68.4375 21.6797,-68.4375 h -12.4219 v -19.8047 h 54.8438 v 19.8047 h -12.4219 l 21.6797,68.4375 21.7969,-68.4375 h -15.586 v -19.8047 h 51.211 v 19.8047 h -16.2891 l -30.4687,95.5078 h -20.9766 l -26.0156,-82.0312 -26.4844,82.0312 z"
         id="path301"
         style="stroke:#000000;stroke-opacity:0.89637303;stroke-width:30.23622085;stroke-dasharray:none" />
      <path
         d="m 2552.9004,1138.0169 q 0,-26.25 17.3437,-43.0078 17.3438,-16.875 42.3047,-16.875 24.4922,0 42.0703,16.6406 17.5782,16.5234 17.5782,43.2422 0,26.7187 -17.5782,43.3594 -17.4609,16.6406 -42.0703,16.6406 -25.3125,0 -42.539,-16.875 -17.1094,-16.875 -17.1094,-43.125 z m 23.5547,0 q 0,16.7578 10.4297,27.539 10.5468,10.6641 25.664,10.6641 15.3516,0 25.6641,-10.7812 10.4297,-10.8985 10.4297,-27.4219 0,-16.6406 -10.5469,-27.4219 -10.5469,-10.7812 -25.5469,-10.7812 -15.7031,0 -25.8984,11.0156 -10.1953,11.0156 -10.1953,27.1875 z"
         id="path303"
         style="stroke:#000000;stroke-opacity:0.89637303;stroke-width:30.23622085;stroke-dasharray:none" />
      <path
         d="m 2709.4629,1174.9309 v -73.8281 h -22.8516 v -19.8047 h 40.6641 v 25.5469 q 3.75,-9.9609 10.4297,-16.5234 6.6797,-6.5625 14.0625,-8.6719 7.5,-2.1094 20.3906,-2.1094 h 5.8594 v 22.5 h -4.4531 q -16.9922,0 -25.4297,3.3985 -8.3203,3.3984 -12.4219,12.4218 -3.9844,8.9063 -3.9844,32.1094 v 24.9609 h 24.7266 v 19.8047 h -69.8438 v -19.8047 z"
         id="path305"
         style="stroke:#000000;stroke-opacity:0.89637303;stroke-width:30.23622085;stroke-dasharray:none" />
      <path
         d="m 2802.8613,1174.9309 v -123.3984 h -20.3906 v -19.8047 h 42.6563 v 101.836 l 42.4218,-33.8672 h -18.8672 v -18.3985 h 62.6954 v 18.3985 h -17.3438 l -42.5391,35.3906 39.961,39.8437 h 19.9219 v 19.8047 h -29.1797 l -57.0703,-57.0703 v 37.2656 h 19.5703 v 19.8047 h -62.2266 v -19.8047 z"
         id="path307"
         style="stroke:#000000;stroke-opacity:0.89637303;stroke-width:30.23622085;stroke-dasharray:none" />
      <path
         d="m 453.83789,1546.7434 q 0,-5.3906 3.75,-9.375 3.86719,-3.9843 9.72656,-3.9843 5.50782,0 9.49219,3.8672 3.98438,3.8671 3.98438,9.4921 0,5.625 -3.98438,9.6094 -3.98437,3.8672 -9.49219,3.8672 -5.625,0 -9.60937,-3.9844 -3.86719,-3.9843 -3.86719,-9.4922 z m 3.16406,132.1875 v -73.8281 h -17.69531 v -19.8047 h 39.96094 v 93.6328 h 17.46094 v 19.8047 h -57.42188 v -19.8047 z"
         id="path309"
         style="stroke:#000000;stroke-opacity:0.89637303;stroke-width:30.23622085;stroke-dasharray:none" />
      <path
         d="m 511.49414,1698.7356 v -38.9062 h 19.92188 v 3.75 q 1.05468,7.9687 8.55468,13.125 7.61719,5.1562 17.92969,5.1562 10.78125,0 17.22656,-3.75 6.44532,-3.75 6.44532,-10.4297 0,-6.4453 -5.39063,-9.4921 -5.27344,-3.0469 -21.09375,-5.625 -23.4375,-3.9844 -33.51562,-12.7735 -9.96094,-8.9062 -9.96094,-22.9687 0,-14.1797 10.89844,-23.6719 10.89843,-9.6094 28.71093,-9.6094 16.05469,0 27.65625,6.5625 v -4.8047 h 19.80469 v 37.6172 h -19.80469 v -6.914 q -9.02343,-13.9454 -26.25,-13.9454 -8.78906,0 -14.53125,3.8672 -5.625,3.75 -5.625,10.0782 0,6.4453 5.15625,8.9062 5.27344,2.3438 22.5,5.0391 16.52344,2.5781 24.96094,6.0937 8.4375,3.3985 13.94531,11.4844 5.625,7.9687 5.625,18.6328 0,15.8203 -12.1875,25.1953 -12.07031,9.2578 -31.40625,9.2578 -18.16406,0 -29.64843,-8.2031 v 6.3281 z"
         id="path311"
         style="stroke:#000000;stroke-opacity:0.89637303;stroke-width:30.23622085;stroke-dasharray:none" />
      <path
         d="m 693.95508,1729.7903 v -124.6875 h -19.10156 v -19.8047 h 41.36718 v 17.8125 q 16.64063,-19.5703 40.3125,-19.5703 23.90625,0 39.49219,16.4063 15.70313,16.4062 15.70313,42.6562 0,27.5391 -16.99219,43.4766 -16.99219,15.9375 -38.67188,15.9375 -22.5,0 -39.84375,-17.3438 v 45.1172 h 22.03125 v 19.8047 h -65.03906 v -19.8047 z m 21.91406,-86.1328 q 0,9.375 3.86719,17.9297 3.86719,8.5547 12.30469,14.4141 8.4375,5.7421 19.80468,5.7421 15.9375,0 26.25,-10.664 10.42969,-10.6641 10.42969,-29.2969 0,-18.1641 -10.89844,-28.3594 -10.78125,-10.1953 -24.60937,-10.1953 -14.76563,0 -26.01563,11.1328 -11.13281,11.0157 -11.13281,29.2969 z"
         id="path313"
         style="stroke:#000000;stroke-opacity:0.89637303;stroke-width:30.23622085;stroke-dasharray:none" />
      <path
         d="m 849.69727,1678.9309 v -73.8281 H 826.8457 v -19.8047 h 40.66407 v 25.5469 q 3.75,-9.9609 10.42968,-16.5234 6.67969,-6.5625 14.0625,-8.6719 7.5,-2.1094 20.39063,-2.1094 h 5.85937 v 22.5 h -4.45312 q -16.99219,0 -25.42969,3.3985 -8.32031,3.3984 -12.42187,12.4218 -3.98438,8.9063 -3.98438,32.1094 v 24.9609 h 24.72656 v 19.8047 H 826.8457 v -19.8047 z"
         id="path315"
         style="stroke:#000000;stroke-opacity:0.89637303;stroke-width:30.23622085;stroke-dasharray:none" />
      <path
         d="m 921.18164,1642.0169 q 0,-26.25 17.34375,-43.0078 17.34375,-16.875 42.30469,-16.875 24.49222,0 42.07032,16.6406 17.5781,16.5234 17.5781,43.2422 0,26.7187 -17.5781,43.3594 -17.4609,16.6406 -42.07032,16.6406 -25.3125,0 -42.53906,-16.875 -17.10938,-16.875 -17.10938,-43.125 z m 23.55469,0 q 0,16.7578 10.42969,27.539 10.54687,10.6641 25.66406,10.6641 15.35156,0 25.66402,-10.7812 10.4297,-10.8985 10.4297,-27.4219 0,-16.6406 -10.5468,-27.4219 -10.54692,-10.7812 -25.54692,-10.7812 -15.70313,0 -25.89844,11.0156 -10.19531,11.0156 -10.19531,27.1875 z"
         id="path317"
         style="stroke:#000000;stroke-opacity:0.89637303;stroke-width:30.23622085;stroke-dasharray:none" />
      <path
         d="m 1072.002,1729.7903 v -124.6875 h -19.1016 v -19.8047 h 41.3672 v 17.8125 q 16.6406,-19.5703 40.3125,-19.5703 23.9062,0 39.4922,16.4063 15.7031,16.4062 15.7031,42.6562 0,27.5391 -16.9922,43.4766 -16.9922,15.9375 -38.6719,15.9375 -22.5,0 -39.8437,-17.3438 v 45.1172 h 22.0312 v 19.8047 h -65.039 v -19.8047 z m 21.914,-86.1328 q 0,9.375 3.8672,17.9297 3.8672,8.5547 12.3047,14.4141 8.4375,5.7421 19.8047,5.7421 15.9375,0 26.25,-10.664 10.4297,-10.6641 10.4297,-29.2969 0,-18.1641 -10.8985,-28.3594 -10.7812,-10.1953 -24.6093,-10.1953 -14.7657,0 -26.0157,11.1328 -11.1328,11.0157 -11.1328,29.2969 z"
         id="path319"
         style="stroke:#000000;stroke-opacity:0.89637303;stroke-width:30.23622085;stroke-dasharray:none" />
      <path
         d="m 1208.7598,1642.0169 q 0,-26.25 17.3437,-43.0078 17.3438,-16.875 42.3047,-16.875 24.4922,0 42.0703,16.6406 17.5781,16.5234 17.5781,43.2422 0,26.7187 -17.5781,43.3594 -17.4609,16.6406 -42.0703,16.6406 -25.3125,0 -42.5391,-16.875 -17.1093,-16.875 -17.1093,-43.125 z m 23.5547,0 q 0,16.7578 10.4296,27.539 10.5469,10.6641 25.6641,10.6641 15.3516,0 25.6641,-10.7812 10.4297,-10.8985 10.4297,-27.4219 0,-16.6406 -10.5469,-27.4219 -10.5469,-10.7812 -25.5469,-10.7812 -15.7031,0 -25.8984,11.0156 -10.1953,11.0156 -10.1953,27.1875 z"
         id="path321"
         style="stroke:#000000;stroke-opacity:0.89637303;stroke-width:30.23622085;stroke-dasharray:none" />
      <path
         d="m 1365.3223,1678.9309 v -73.8281 h -22.8516 v -19.8047 h 40.6641 v 25.5469 q 3.75,-9.9609 10.4297,-16.5234 6.6796,-6.5625 14.0625,-8.6719 7.5,-2.1094 20.3906,-2.1094 h 5.8594 v 22.5 h -4.4532 q -16.9922,0 -25.4297,3.3985 -8.3203,3.3984 -12.4218,12.4218 -3.9844,8.9063 -3.9844,32.1094 v 24.9609 h 24.7266 v 19.8047 h -69.8438 v -19.8047 z"
         id="path323"
         style="stroke:#000000;stroke-opacity:0.89637303;stroke-width:30.23622085;stroke-dasharray:none" />
      <path
         d="m 1448.1738,1605.1028 v -19.8047 h 14.7657 v -17.4609 l 22.2656,-20.3906 v 37.8515 h 20.9765 v 19.8047 h -20.9765 v 55.0781 q 0,13.2422 1.4062,16.4063 1.5235,3.0469 7.3828,3.0469 6.211,0 12.1875,-2.3438 v 20.2735 q -8.5546,3.0468 -17.1093,3.0468 -10.1953,0 -16.5235,-4.4531 -6.3281,-4.5703 -7.9687,-11.3672 -1.6406,-6.7969 -1.6406,-23.4375 v -56.25 z"
         id="path325"
         style="stroke:#000000;stroke-opacity:0.89637303;stroke-width:30.23622085;stroke-dasharray:none" />
      <path
         d="m 1535.5957,1546.7434 q 0,-5.3906 3.75,-9.375 3.8672,-3.9843 9.7266,-3.9843 5.5078,0 9.4922,3.8672 3.9843,3.8671 3.9843,9.4921 0,5.625 -3.9843,9.6094 -3.9844,3.8672 -9.4922,3.8672 -5.625,0 -9.6094,-3.9844 -3.8672,-3.9843 -3.8672,-9.4922 z m 3.1641,132.1875 v -73.8281 h -17.6953 v -19.8047 h 39.9609 v 93.6328 h 17.4609 v 19.8047 h -57.4218 v -19.8047 z"
         id="path327"
         style="stroke:#000000;stroke-opacity:0.89637303;stroke-width:30.23622085;stroke-dasharray:none" />
      <path
         d="m 1592.5488,1642.0169 q 0,-26.25 17.3438,-43.0078 17.3437,-16.875 42.3047,-16.875 24.4922,0 42.0703,16.6406 17.5781,16.5234 17.5781,43.2422 0,26.7187 -17.5781,43.3594 -17.461,16.6406 -42.0703,16.6406 -25.3125,0 -42.5391,-16.875 -17.1094,-16.875 -17.1094,-43.125 z m 23.5547,0 q 0,16.7578 10.4297,27.539 10.5469,10.6641 25.6641,10.6641 15.3515,0 25.664,-10.7812 10.4297,-10.8985 10.4297,-27.4219 0,-16.6406 -10.5469,-27.4219 -10.5468,-10.7812 -25.5468,-10.7812 -15.7032,0 -25.8985,11.0156 -10.1953,11.0156 -10.1953,27.1875 z"
         id="path329"
         style="stroke:#000000;stroke-opacity:0.89637303;stroke-width:30.23622085;stroke-dasharray:none" />
      <path
         d="m 1769.6191,1585.2981 v 13.711 q 21.4454,-15.4688 39.1407,-15.4688 11.0156,0 18.164,5.2735 7.2657,5.1562 9.4922,12.7734 2.2266,7.5 2.2266,22.0312 v 55.3125 h 19.1015 v 19.8047 h -41.3671 v -74.1797 q 0,-12.8906 -3.8672,-16.7578 -3.8672,-3.9843 -9.4922,-3.9843 -14.7656,0 -33.3985,14.414 v 60.7031 h 19.5704 v 19.8047 h -61.7579 v -19.8047 h 19.9219 v -73.8281 h -19.9219 v -19.8047 z"
         id="path331"
         style="stroke:#000000;stroke-opacity:0.89637303;stroke-width:30.23622085;stroke-dasharray:none" />
      <path
         d="m 1982.9004,1678.9309 v 19.8047 h -38.9063 v -13.8281 q -16.1718,15.7031 -36.0937,15.7031 -15.4688,0 -26.9531,-10.0781 -11.3672,-10.0781 -11.3672,-25.7812 0,-15.8204 12.0703,-26.25 12.1875,-10.4297 29.2969,-10.4297 15.9375,0 30.8203,9.6093 v -11.25 q 0,-8.6718 -1.6406,-13.3593 -1.6407,-4.6875 -7.7344,-8.4375 -5.9766,-3.75 -15.7031,-3.75 -16.7579,0 -24.2579,13.3593 l -21.3281,-5.625 q 14.1797,-26.4843 48.9844,-26.4843 12.7734,0 22.0312,3.5156 9.375,3.3984 13.9454,8.9062 4.5703,5.3907 6.0937,11.7188 1.6406,6.3281 1.6406,20.1562 v 52.5 z m -41.1328,-22.3828 q -14.4141,-11.25 -29.1797,-11.25 -9.2578,0 -15.4688,5.3907 -6.2109,5.3906 -6.2109,13.9453 0,7.9687 5.3906,13.3593 5.5078,5.3907 14.8828,5.3907 16.1719,0 30.586,-13.5938 z"
         id="path333"
         style="stroke:#000000;stroke-opacity:0.89637303;stroke-width:30.23622085;stroke-dasharray:none" />
      <path
         d="m 2010.9082,1678.9309 v -123.3984 h -20.1562 v -19.8047 h 42.4218 v 143.2031 h 17.3438 v 19.8047 h -59.7656 v -19.8047 z"
         id="path335"
         style="stroke:#000000;stroke-opacity:0.89637303;stroke-width:30.23622085;stroke-dasharray:none" />
      <path
         d="m 2123.291,1605.1028 v -19.8047 h 14.7656 v -17.4609 l 22.2657,-20.3906 v 37.8515 h 20.9765 v 19.8047 h -20.9765 v 55.0781 q 0,13.2422 1.4062,16.4063 1.5235,3.0469 7.3828,3.0469 6.211,0 12.1875,-2.3438 v 20.2735 q -8.5547,3.0468 -17.1093,3.0468 -10.1954,0 -16.5235,-4.4531 -6.3281,-4.5703 -7.9687,-11.3672 -1.6407,-6.7969 -1.6407,-23.4375 v -56.25 z"
         id="path337"
         style="stroke:#000000;stroke-opacity:0.89637303;stroke-width:30.23622085;stroke-dasharray:none" />
      <path
         d="m 2197.5879,1642.0169 q 0,-26.25 17.3437,-43.0078 17.3438,-16.875 42.3047,-16.875 24.4922,0 42.0703,16.6406 17.5782,16.5234 17.5782,43.2422 0,26.7187 -17.5782,43.3594 -17.4609,16.6406 -42.0703,16.6406 -25.3125,0 -42.539,-16.875 -17.1094,-16.875 -17.1094,-43.125 z m 23.5547,0 q 0,16.7578 10.4297,27.539 10.5468,10.6641 25.664,10.6641 15.3516,0 25.6641,-10.7812 10.4297,-10.8985 10.4297,-27.4219 0,-16.6406 -10.5469,-27.4219 -10.5469,-10.7812 -25.5469,-10.7812 -15.7031,0 -25.8984,11.0156 -10.1953,11.0156 -10.1953,27.1875 z"
         id="path339"
         style="stroke:#000000;stroke-opacity:0.89637303;stroke-width:30.23622085;stroke-dasharray:none" />
      <path
         d="m 438.83789,2109.1028 v -19.8047 h 14.76563 v -17.4609 l 22.26562,-20.3906 v 37.8515 h 20.97656 v 19.8047 h -20.97656 v 55.0781 q 0,13.2422 1.40625,16.4063 1.52344,3.0469 7.38281,3.0469 6.21094,0 12.1875,-2.3438 v 20.2735 q -8.55468,3.0468 -17.10937,3.0468 -10.19531,0 -16.52344,-4.4531 -6.32812,-4.5703 -7.96875,-11.3672 -1.64062,-6.7969 -1.64062,-23.4375 v -56.25 z"
         id="path341"
         style="stroke:#000000;stroke-opacity:0.89637303;stroke-width:30.23622085;stroke-dasharray:none" />
      <path
         d="m 529.42383,2182.9309 v -123.3984 h -20.50781 v -19.8047 h 42.77343 v 62.5781 q 20.03907,-16.1718 38.08594,-16.1718 11.25,0 18.51563,4.6875 7.26562,4.6875 9.84375,12.4218 2.69531,7.6172 2.69531,22.3829 v 57.3046 h 19.33594 v 19.8047 h -41.60157 v -69.375 q 0,-12.8906 -0.82031,-17.2265 -0.82031,-4.336 -4.57031,-7.1485 -3.63281,-2.8125 -8.67188,-2.8125 -12.89062,0 -32.8125,14.6485 v 62.1093 h 19.6875 v 19.8047 h -62.46093 v -19.8047 z"
         id="path343"
         style="stroke:#000000;stroke-opacity:0.89637303;stroke-width:30.23622085;stroke-dasharray:none" />
      <path
         d="m 770.24414,2151.6419 h -95.39062 q 2.10937,15.7031 12.42187,25.4297 10.3125,9.7265 26.36719,9.7265 23.32031,0 36.91406,-18.75 l 19.6875,8.6719 q -9.60937,14.8828 -24.96094,22.1484 -15.35156,7.1485 -32.10937,7.1485 -26.01563,0 -44.53125,-16.1719 -18.39844,-16.2891 -18.39844,-43.8281 0,-26.1328 17.92969,-43.0078 18.04687,-16.875 41.36719,-16.875 22.85156,0 41.36718,16.5234 18.63282,16.4063 19.33594,48.9844 z M 747.27539,2135.47 q -2.34375,-11.9531 -12.42187,-21.5625 -10.07813,-9.7266 -24.72657,-9.7266 -13.35937,0 -22.85156,8.7891 -9.49219,8.6719 -11.60156,22.5 z"
         id="path345"
         style="stroke:#000000;stroke-opacity:0.89637303;stroke-width:30.23622085;stroke-dasharray:none" />
      <path
         d="m 848.99414,2202.7356 v -38.9062 h 19.92188 v 3.75 q 1.05468,7.9687 8.55468,13.125 7.61719,5.1562 17.92969,5.1562 10.78125,0 17.22656,-3.75 6.44532,-3.75 6.44532,-10.4297 0,-6.4453 -5.39063,-9.4921 -5.27344,-3.0469 -21.09375,-5.625 -23.4375,-3.9844 -33.51562,-12.7735 -9.96094,-8.9062 -9.96094,-22.9687 0,-14.1797 10.89844,-23.6719 10.89843,-9.6094 28.71093,-9.6094 16.05469,0 27.65625,6.5625 v -4.8047 h 19.80469 v 37.6172 h -19.80469 v -6.914 q -9.02343,-13.9454 -26.25,-13.9454 -8.78906,0 -14.53125,3.8672 -5.625,3.75 -5.625,10.0782 0,6.4453 5.15625,8.9062 5.27344,2.3438 22.5,5.0391 16.52344,2.5781 24.96094,6.0937 8.4375,3.3985 13.94531,11.4844 5.625,7.9687 5.625,18.6328 0,15.8203 -12.1875,25.1953 -12.07031,9.2578 -31.40625,9.2578 -18.16406,0 -29.64843,-8.2031 v 6.3281 z"
         id="path347"
         style="stroke:#000000;stroke-opacity:0.89637303;stroke-width:30.23622085;stroke-dasharray:none" />
      <path
         d="m 1075.5176,2233.7903 h 20.7422 v 19.8047 h -65.0391 v -19.8047 h 22.0313 v -45.3515 q -16.875,17.5781 -40.1954,17.5781 -21.2109,0 -38.32027,-15.8203 -16.99219,-15.8203 -16.99219,-43.8282 0,-26.4843 15.82031,-42.6562 15.82032,-16.1719 39.37505,-16.1719 23.6718,0 40.3125,19.5703 v -17.8125 h 41.3671 v 19.8047 h -19.1015 z m -21.9141,-86.1328 q 0,-18.2812 -11.25,-29.2969 -11.1328,-11.1328 -25.8984,-11.1328 -14.2969,0 -24.96096,10.4297 -10.54687,10.4297 -10.54687,28.4766 0,16.5234 9.49218,28.125 9.60935,11.4843 26.95315,11.4843 17.4609,0 26.8359,-11.7187 9.375,-11.7188 9.375,-26.3672 z"
         id="path349"
         style="stroke:#000000;stroke-opacity:0.89637303;stroke-width:30.23622085;stroke-dasharray:none" />
      <path
         d="m 1229.502,2182.9309 v 19.8047 h -41.836 v -13.0078 q -19.5703,14.8828 -37.5,14.8828 -11.3672,0 -18.8672,-4.9218 -7.3828,-5.0391 -9.8437,-12.8907 -2.461,-7.9687 -2.461,-25.5468 v -52.1485 h -16.0546 v -19.8047 h 38.3203 v 69.1407 q 0,12.539 0.7031,16.875 0.7031,4.3359 4.1016,7.1484 3.3984,2.8125 8.5546,2.8125 15.4688,0 33.0469,-14.7656 v -61.4063 h -20.039 v -19.8047 h 42.3046 v 93.6328 z"
         id="path351"
         style="stroke:#000000;stroke-opacity:0.89637303;stroke-width:30.23622085;stroke-dasharray:none" />
      <path
         d="m 1356.1816,2182.9309 v 19.8047 h -38.9062 v -13.8281 q -16.1719,15.7031 -36.0938,15.7031 -15.4687,0 -26.9531,-10.0781 -11.3672,-10.0781 -11.3672,-25.7812 0,-15.8204 12.0703,-26.25 12.1875,-10.4297 29.2969,-10.4297 15.9375,0 30.8203,9.6093 v -11.25 q 0,-8.6718 -1.6406,-13.3593 -1.6406,-4.6875 -7.7344,-8.4375 -5.9765,-3.75 -15.7031,-3.75 -16.7578,0 -24.2578,13.3593 l -21.3281,-5.625 q 14.1797,-26.4843 48.9843,-26.4843 12.7735,0 22.0313,3.5156 9.375,3.3984 13.9453,8.9062 4.5703,5.3907 6.0938,11.7188 1.6406,6.3281 1.6406,20.1562 v 52.5 z m -41.1328,-22.3828 q -14.414,-11.25 -29.1797,-11.25 -9.2578,0 -15.4687,5.3907 -6.2109,5.3906 -6.2109,13.9453 0,7.9687 5.3906,13.3593 5.5078,5.3907 14.8828,5.3907 16.1719,0 30.5859,-13.5938 z"
         id="path353"
         style="stroke:#000000;stroke-opacity:0.89637303;stroke-width:30.23622085;stroke-dasharray:none" />
      <path
         d="m 1387.3535,2182.9309 v -73.8281 h -22.8515 v -19.8047 h 40.664 v 25.5469 q 3.75,-9.9609 10.4297,-16.5234 6.6797,-6.5625 14.0625,-8.6719 7.5,-2.1094 20.3906,-2.1094 h 5.8594 v 22.5 h -4.4531 q -16.9922,0 -25.4297,3.3985 -8.3203,3.3984 -12.4219,12.4218 -3.9844,8.9063 -3.9844,32.1094 v 24.9609 h 24.7266 v 19.8047 h -69.8437 v -19.8047 z"
         id="path355"
         style="stroke:#000000;stroke-opacity:0.89637303;stroke-width:30.23622085;stroke-dasharray:none" />
      <path
         d="m 1576.0254,2151.6419 h -95.3906 q 2.1093,15.7031 12.4218,25.4297 10.3125,9.7265 26.3672,9.7265 23.3203,0 36.9141,-18.75 l 19.6875,8.6719 q -9.6094,14.8828 -24.9609,22.1484 -15.3516,7.1485 -32.1094,7.1485 -26.0156,0 -44.5313,-16.1719 -18.3984,-16.2891 -18.3984,-43.8281 0,-26.1328 17.9297,-43.0078 18.0469,-16.875 41.3672,-16.875 22.8515,0 41.3672,16.5234 18.6328,16.4063 19.3359,48.9844 z m -22.9688,-16.1719 q -2.3437,-11.9531 -12.4218,-21.5625 -10.0782,-9.7266 -24.7266,-9.7266 -13.3594,0 -22.8516,8.7891 -9.4921,8.6719 -11.6015,22.5 z"
         id="path357"
         style="stroke:#000000;stroke-opacity:0.89637303;stroke-width:30.23622085;stroke-dasharray:none" />
      <path
         d="m 1654.0723,2146.0169 q 0,-26.25 17.3437,-43.0078 17.3438,-16.875 42.3047,-16.875 24.4922,0 42.0703,16.6406 17.5781,16.5234 17.5781,43.2422 0,26.7187 -17.5781,43.3594 -17.4609,16.6406 -42.0703,16.6406 -25.3125,0 -42.5391,-16.875 -17.1093,-16.875 -17.1093,-43.125 z m 23.5547,0 q 0,16.7578 10.4296,27.539 10.5469,10.6641 25.6641,10.6641 15.3516,0 25.6641,-10.7812 10.4297,-10.8985 10.4297,-27.4219 0,-16.6406 -10.5469,-27.4219 -10.5469,-10.7812 -25.5469,-10.7812 -15.7031,0 -25.8984,11.0156 -10.1953,11.0156 -10.1953,27.1875 z"
         id="path359"
         style="stroke:#000000;stroke-opacity:0.89637303;stroke-width:30.23622085;stroke-dasharray:none" />
      <path
         d="m 1805.5957,2182.9309 v -73.8281 h -16.5234 v -19.6875 h 16.5234 v -16.4062 q 0,-20.7422 8.7891,-28.5938 8.789,-7.9687 20.7422,-7.9687 25.7812,0 29.8828,26.1328 l -19.8047,3.0469 q -1.1719,-10.8985 -8.5547,-10.8985 -5.0391,0 -6.9141,3.5156 -1.875,3.3985 -1.875,14.7657 v 16.4062 h 19.4532 v 19.6875 h -19.4532 v 73.8281 h 21.5625 v 19.8047 h -60.3515 v -19.8047 z"
         id="path361"
         style="stroke:#000000;stroke-opacity:0.89637303;stroke-width:30.23622085;stroke-dasharray:none" />
      <path
         d="m 1919.8535,2109.1028 v -19.8047 h 14.7656 v -17.4609 l 22.2657,-20.3906 v 37.8515 h 20.9765 v 19.8047 h -20.9765 v 55.0781 q 0,13.2422 1.4062,16.4063 1.5235,3.0469 7.3828,3.0469 6.211,0 12.1875,-2.3438 v 20.2735 q -8.5547,3.0468 -17.1093,3.0468 -10.1954,0 -16.5235,-4.4531 -6.3281,-4.5703 -7.9687,-11.3672 -1.6407,-6.7969 -1.6407,-23.4375 v -56.25 z"
         id="path363"
         style="stroke:#000000;stroke-opacity:0.89637303;stroke-width:30.23622085;stroke-dasharray:none" />
      <path
         d="m 2010.4395,2182.9309 v -123.3984 h -20.5079 v -19.8047 h 42.7735 v 62.5781 q 20.039,-16.1718 38.0859,-16.1718 11.25,0 18.5156,4.6875 7.2657,4.6875 9.8438,12.4218 2.6953,7.6172 2.6953,22.3829 v 57.3046 h 19.3359 v 19.8047 h -41.6015 v -69.375 q 0,-12.8906 -0.8203,-17.2265 -0.8203,-4.336 -4.5703,-7.1485 -3.6329,-2.8125 -8.6719,-2.8125 -12.8906,0 -32.8125,14.6485 v 62.1093 h 19.6875 v 19.8047 h -62.461 v -19.8047 z"
         id="path365"
         style="stroke:#000000;stroke-opacity:0.89637303;stroke-width:30.23622085;stroke-dasharray:none" />
      <path
         d="m 2251.2598,2151.6419 h -95.3907 q 2.1094,15.7031 12.4219,25.4297 10.3125,9.7265 26.3672,9.7265 23.3203,0 36.9141,-18.75 l 19.6875,8.6719 q -9.6094,14.8828 -24.961,22.1484 -15.3515,7.1485 -32.1093,7.1485 -26.0157,0 -44.5313,-16.1719 -18.3984,-16.2891 -18.3984,-43.8281 0,-26.1328 17.9297,-43.0078 18.0468,-16.875 41.3671,-16.875 22.8516,0 41.3672,16.5234 18.6328,16.4063 19.336,48.9844 z M 2228.291,2135.47 q -2.3437,-11.9531 -12.4219,-21.5625 -10.0781,-9.7266 -24.7265,-9.7266 -13.3594,0 -22.8516,8.7891 -9.4922,8.6719 -11.6015,22.5 z"
         id="path367"
         style="stroke:#000000;stroke-opacity:0.89637303;stroke-width:30.23622085;stroke-dasharray:none" />
      <path
         d="m 2368.7988,2089.2981 v 13.711 q 21.4453,-15.4688 39.1407,-15.4688 11.0156,0 18.164,5.2735 7.2656,5.1562 9.4922,12.7734 2.2266,7.5 2.2266,22.0312 v 55.3125 h 19.1015 v 19.8047 h -41.3672 v -74.1797 q 0,-12.8906 -3.8671,-16.7578 -3.8672,-3.9843 -9.4922,-3.9843 -14.7657,0 -33.3985,14.414 v 60.7031 h 19.5703 v 19.8047 h -61.7578 v -19.8047 h 19.9219 v -73.8281 h -19.9219 v -19.8047 z"
         id="path369"
         style="stroke:#000000;stroke-opacity:0.89637303;stroke-width:30.23622085;stroke-dasharray:none" />
      <path
         d="m 2466.8848,2146.0169 q 0,-26.25 17.3437,-43.0078 17.3438,-16.875 42.3047,-16.875 24.4922,0 42.0703,16.6406 17.5781,16.5234 17.5781,43.2422 0,26.7187 -17.5781,43.3594 -17.4609,16.6406 -42.0703,16.6406 -25.3125,0 -42.5391,-16.875 -17.1093,-16.875 -17.1093,-43.125 z m 23.5547,0 q 0,16.7578 10.4296,27.539 10.5469,10.6641 25.6641,10.6641 15.3516,0 25.6641,-10.7812 10.4297,-10.8985 10.4297,-27.4219 0,-16.6406 -10.5469,-27.4219 -10.5469,-10.7812 -25.5469,-10.7812 -15.7031,0 -25.8984,11.0156 -10.1953,11.0156 -10.1953,27.1875 z"
         id="path371"
         style="stroke:#000000;stroke-opacity:0.89637303;stroke-width:30.23622085;stroke-dasharray:none" />
      <path
         d="m 2744.7363,2182.9309 v 19.8047 h -42.6562 v -16.6406 q -16.6406,18.5156 -40.5469,18.5156 -22.1484,0 -38.9062,-15.1172 -16.7579,-15.1171 -16.7579,-43.0078 0,-28.0078 17.2266,-44.1797 17.2266,-16.1718 38.9063,-16.1718 22.9687,0 40.0781,18.2812 v -44.8828 h -21.7969 v -19.8047 h 44.0625 v 143.2031 z m -115.0781,-37.0312 q 0,18.75 10.5469,28.8281 10.664,10.0781 25.4297,10.0781 14.2968,0 25.3125,-10.5468 11.1328,-10.6641 11.1328,-29.4141 0,-18.8672 -11.3672,-28.4766 -11.25,-9.6093 -25.3125,-9.6093 -15.1172,0 -25.4297,11.3672 -10.3125,11.25 -10.3125,27.7734 z"
         id="path373"
         style="stroke:#000000;stroke-opacity:0.89637303;stroke-width:30.23622085;stroke-dasharray:none" />
      <path
         d="m 2873.9941,2151.6419 h -95.3906 q 2.1094,15.7031 12.4219,25.4297 10.3125,9.7265 26.3672,9.7265 23.3203,0 36.914,-18.75 l 19.6875,8.6719 q -9.6093,14.8828 -24.9609,22.1484 -15.3516,7.1485 -32.1094,7.1485 -26.0156,0 -44.5312,-16.1719 -18.3985,-16.2891 -18.3985,-43.8281 0,-26.1328 17.9297,-43.0078 18.0469,-16.875 41.3672,-16.875 22.8516,0 41.3672,16.5234 18.6328,16.4063 19.3359,48.9844 z m -22.9687,-16.1719 q -2.3438,-11.9531 -12.4219,-21.5625 -10.0781,-9.7266 -24.7265,-9.7266 -13.3594,0 -22.8516,8.7891 -9.4922,8.6719 -11.6016,22.5 z"
         id="path375"
         style="stroke:#000000;stroke-opacity:0.89637303;stroke-width:30.23622085;stroke-dasharray:none" />
      <path
         d="m 2892.7441,2202.7356 v -38.9062 h 19.9219 v 3.75 q 1.0547,7.9687 8.5547,13.125 7.6172,5.1562 17.9297,5.1562 10.7812,0 17.2266,-3.75 6.4453,-3.75 6.4453,-10.4297 0,-6.4453 -5.3907,-9.4921 -5.2734,-3.0469 -21.0937,-5.625 -23.4375,-3.9844 -33.5156,-12.7735 -9.961,-8.9062 -9.961,-22.9687 0,-14.1797 10.8985,-23.6719 10.8984,-9.6094 28.7109,-9.6094 16.0547,0 27.6563,6.5625 v -4.8047 h 19.8046 v 37.6172 h -19.8046 v -6.914 q -9.0235,-13.9454 -26.25,-13.9454 -8.7891,0 -14.5313,3.8672 -5.625,3.75 -5.625,10.0782 0,6.4453 5.1563,8.9062 5.2734,2.3438 22.5,5.0391 16.5234,2.5781 24.9609,6.0937 8.4375,3.3985 13.9453,11.4844 5.625,7.9687 5.625,18.6328 0,15.8203 -12.1875,25.1953 -12.0703,9.2578 -31.4062,9.2578 -18.1641,0 -29.6485,-8.2031 v 6.3281 z"
         id="path377"
         style="stroke:#000000;stroke-opacity:0.89637303;stroke-width:30.23622085;stroke-dasharray:none" />
    </g>
  </g>
</svg>
