<?xml version="1.0" encoding="UTF-8" standalone="no"?>
<!-- Created with Inkscape (http://www.inkscape.org/) -->

<svg
   width="1600mm"
   height="900mm"
   viewBox="0 0 1600 900"
   version="1.1"
   id="svg19144"
   inkscape:version="1.2 (dc2aedaf03, 2022-05-15)"
   sodipodi:docname="metcalfe-corollary.svg"
   xmlns:inkscape="http://www.inkscape.org/namespaces/inkscape"
   xmlns:sodipodi="http://sodipodi.sourceforge.net/DTD/sodipodi-0.dtd"
   xmlns="http://www.w3.org/2000/svg"
   xmlns:svg="http://www.w3.org/2000/svg">
  <sodipodi:namedview
     id="namedview19146"
     pagecolor="#000000"
     bordercolor="#000000"
     borderopacity="0.25"
     inkscape:showpageshadow="2"
     inkscape:pageopacity="0"
     inkscape:pagecheckerboard="0"
     inkscape:deskcolor="#d1d1d1"
     inkscape:document-units="mm"
     showgrid="false"
     inkscape:zoom="0.25488194"
     inkscape:cx="2399.1499"
     inkscape:cy="1700.7874"
     inkscape:window-width="2134"
     inkscape:window-height="1112"
     inkscape:window-x="-8"
     inkscape:window-y="-8"
     inkscape:window-maximized="1"
     inkscape:current-layer="layer1" />
  <defs
     id="defs19141">
    <rect
       x="431.57235"
       y="376.64496"
       width="5057.2433"
       height="2577.664"
       id="rect67" />
  </defs>
  <g
     inkscape:label="Layer 1"
     inkscape:groupmode="layer"
     id="layer1">
    <g
       aria-label="Metcalfe’s Law (corollary):
The value of a network
is proportional to 
the square of the nodes
"
       transform="scale(0.26458333)"
       id="text65"
       style="font-size:240px;line-height:2.1;font-family:Rockwell;-inkscape-font-specification:Rockwell;white-space:pre;shape-inside:url(#rect67);fill:#ffffff;stroke-width:15.1181;paint-order:stroke markers fill;stroke:#000000;stroke-opacity:0.89119172">
      <path
         d="m 438.13477,690.73567 v -27.53906 h 21.09375 V 555.26692 h -21.09375 v -27.53906 h 81.67968 l 35.85938,95.625 35.97656,-95.625 h 83.32031 v 27.53906 h -21.09375 v 107.92969 h 21.09375 v 27.53906 h -82.03125 v -27.53906 h 19.6875 V 555.26692 h -3.86718 L 558.25195,690.73567 H 540.67383 L 489.58008,555.26692 h -3.86719 v 107.92969 h 21.32813 v 27.53906 z"
         style="font-weight:bold;-inkscape-font-specification:'Rockwell Bold';stroke:#000000;stroke-opacity:0.89119172"
         id="path1739" />
      <path
         d="m 781.61133,656.51692 28.125,9.02344 q -17.69531,27.77344 -55.3125,27.77344 -30,0 -46.875,-15.82031 -16.75781,-15.82032 -16.75781,-41.60157 0,-26.25 17.34375,-43.82812 17.34375,-17.57813 44.17968,-17.57813 19.45313,0 33.63282,9.84375 14.17968,9.84375 19.6875,24.49219 5.50781,14.64844 5.50781,32.69531 h -84.49219 q 0.82031,15.46875 9.72656,21.91407 9.02344,6.44531 18.98438,6.44531 13.00781,0 26.25,-13.35938 z m -6.91406,-35.15625 q -1.28907,-9.49218 -7.5,-16.17187 -6.09375,-6.67969 -16.75782,-6.67969 -19.92187,0 -23.20312,22.85156 z"
         style="font-weight:bold;-inkscape-font-specification:'Rockwell Bold';stroke:#000000;stroke-opacity:0.89119172"
         id="path1741" />
      <path
         d="m 823.79883,603.54817 v -26.25 h 14.41406 v -17.8125 l 36.21094,-26.01562 v 43.82812 h 20.85937 v 26.25 h -20.85937 v 49.10157 q 0,6.67968 1.64062,9.02343 1.75782,2.22657 7.85157,2.22657 5.03906,0 11.36718,-2.34375 v 25.07812 q -13.94531,5.74219 -27.30468,5.74219 -29.76563,0 -29.76563,-29.53125 v -59.29688 z"
         style="font-weight:bold;-inkscape-font-specification:'Rockwell Bold';stroke:#000000;stroke-opacity:0.89119172"
         id="path1743" />
      <path
         d="m 1027.5879,577.29817 v 46.05469 h -25.7813 q -8.78902,-18.98437 -27.53902,-18.98437 -11.95313,0 -19.10156,7.96875 -7.03125,7.85156 -7.03125,21.09375 0,16.05468 7.5,23.78906 7.5,7.61719 18.39843,7.61719 8.67188,0 16.40625,-4.92188 7.73438,-5.03906 12.42185,-13.24219 l 28.125,12.42188 q -15.7031,34.21875 -55.0781,34.21875 -29.64843,0 -47.34375,-16.17188 -17.57812,-16.17187 -17.57812,-43.24218 0,-27.07032 17.22656,-42.65625 17.34375,-15.70313 40.3125,-15.70313 18.39844,0 34.33591,11.13281 v -9.375 z"
         style="font-weight:bold;-inkscape-font-specification:'Rockwell Bold';stroke:#000000;stroke-opacity:0.89119172"
         id="path1745" />
      <path
         d="m 1173.4863,664.60286 v 26.13281 h -54.4922 v -8.90625 q -14.6484,10.54688 -30.9375,10.54688 -16.875,0 -29.1796,-9.60938 -12.1875,-9.60937 -12.1875,-25.78125 0,-16.28906 12.8906,-27.30468 12.8906,-11.01563 33.2812,-11.01563 11.3672,0 26.1328,5.74219 v -6.91406 q 0,-8.67188 -5.8593,-14.17969 -5.8594,-5.625 -15.7032,-5.625 -12.1875,0 -20.8593,8.90625 l -29.1797,-5.27344 q 12.6562,-26.83594 54.9609,-26.83594 16.4063,0 27.1875,3.75 10.7813,3.63282 16.0547,9.49219 5.2734,5.85938 7.3828,12.89063 2.2266,6.91406 2.2266,22.61718 v 41.36719 z m -54.4922,-15.82031 q -13.125,-8.20313 -20.9765,-8.20313 -6.211,0 -11.3672,3.63282 -5.0391,3.63281 -5.0391,10.54687 0,6.21094 4.1016,10.66406 4.1016,4.45313 10.5469,4.45313 10.0781,0 22.7343,-11.83594 z"
         style="font-weight:bold;-inkscape-font-specification:'Rockwell Bold';stroke:#000000;stroke-opacity:0.89119172"
         id="path1747" />
      <path
         d="m 1185.6738,690.73567 v -26.13281 h 17.8125 V 553.86067 h -17.8125 v -26.13281 h 54.0235 v 136.875 h 16.289 v 26.13281 z"
         style="font-weight:bold;-inkscape-font-specification:'Rockwell Bold';stroke:#000000;stroke-opacity:0.89119172"
         id="path1749" />
      <path
         d="m 1339.7754,664.60286 v 26.13281 h -70.4297 v -26.13281 h 16.4063 v -61.05469 h -15.2344 v -26.25 h 15.2344 v -10.42968 q 0,-17.92969 11.0156,-29.88282 11.1328,-12.07031 33.0469,-12.07031 26.6015,0 37.8515,15.9375 l -26.25,20.50781 q -3.5156,-12.1875 -10.0781,-12.1875 -9.375,0 -9.375,15.70313 v 12.42187 h 17.8125 v 26.25 h -17.8125 v 61.05469 z"
         style="font-weight:bold;-inkscape-font-specification:'Rockwell Bold';stroke:#000000;stroke-opacity:0.89119172"
         id="path1751" />
      <path
         d="m 1446.7676,656.51692 28.125,9.02344 q -17.6953,27.77344 -55.3125,27.77344 -30,0 -46.875,-15.82031 -16.7578,-15.82032 -16.7578,-41.60157 0,-26.25 17.3437,-43.82812 17.3438,-17.57813 44.1797,-17.57813 19.4531,0 33.6328,9.84375 14.1797,9.84375 19.6875,24.49219 5.5078,14.64844 5.5078,32.69531 h -84.4922 q 0.8204,15.46875 9.7266,21.91407 9.0234,6.44531 18.9844,6.44531 13.0078,0 26.25,-13.35938 z m -6.9141,-35.15625 q -1.289,-9.49218 -7.5,-16.17187 -6.0937,-6.67969 -16.7578,-6.67969 -19.9219,0 -23.2031,22.85156 z"
         style="font-weight:bold;-inkscape-font-specification:'Rockwell Bold';stroke:#000000;stroke-opacity:0.89119172"
         id="path1753" />
      <path
         d="m 1507.3535,610.34505 v -17.69531 q 19.2188,-1.875 19.2188,-23.08594 v -2.22656 h -19.2188 v -39.60938 h 39.1406 v 36.79688 q 0,16.99218 -3.6328,26.60156 -3.5156,9.49219 -12.6562,14.41406 -9.0235,4.80469 -22.8516,4.80469 z"
         style="font-weight:bold;-inkscape-font-specification:'Rockwell Bold';stroke:#000000;stroke-opacity:0.89119172"
         id="path1755" />
      <path
         d="m 1564.0723,690.73567 v -39.02343 h 26.4843 q 0.3516,7.96875 7.3829,12.77343 7.0312,4.6875 17.3437,4.6875 8.9063,0 13.8281,-3.04687 5.0391,-3.16406 5.0391,-7.96875 0,-4.45313 -4.5703,-6.91406 -4.5703,-2.46094 -17.9297,-4.6875 -27.5391,-4.45313 -39.7266,-13.47657 -12.1875,-9.14062 -12.1875,-24.14062 0,-14.0625 11.4844,-23.67188 11.4844,-9.72656 30.4688,-9.72656 15.3515,0 28.7109,5.625 v -3.86719 h 25.8984 v 32.92969 h -25.8984 q -3.5156,-11.83594 -24.8438,-11.83594 -15.7031,0 -15.7031,8.67188 0,3.28125 3.1641,5.03906 3.2812,1.64063 16.5234,3.98438 20.9766,3.63281 31.4063,7.26562 10.4297,3.63281 16.6406,12.07031 6.3281,8.32032 6.3281,20.03907 0,16.64062 -11.9531,27.30468 -11.8359,10.54688 -33.6328,10.54688 -20.2735,0 -27.7735,-8.20313 v 5.625 z"
         style="font-weight:bold;-inkscape-font-specification:'Rockwell Bold';stroke:#000000;stroke-opacity:0.89119172"
         id="path1757" />
      <path
         d="m 1739.1504,690.73567 v -27.53906 h 23.3203 V 555.26692 h -23.3203 v -27.53906 h 89.5312 v 27.53906 h -23.789 v 107.92969 h 48.164 v -50.39062 h 31.7579 v 77.92968 z"
         style="font-weight:bold;-inkscape-font-specification:'Rockwell Bold';stroke:#000000;stroke-opacity:0.89119172"
         id="path1759" />
      <path
         d="m 2024.0332,664.60286 v 26.13281 h -54.4922 v -8.90625 q -14.6484,10.54688 -30.9375,10.54688 -16.875,0 -29.1797,-9.60938 -12.1875,-9.60937 -12.1875,-25.78125 0,-16.28906 12.8907,-27.30468 12.8906,-11.01563 33.2812,-11.01563 11.3672,0 26.1328,5.74219 v -6.91406 q 0,-8.67188 -5.8594,-14.17969 -5.8593,-5.625 -15.7031,-5.625 -12.1875,0 -20.8594,8.90625 l -29.1796,-5.27344 q 12.6562,-26.83594 54.9609,-26.83594 16.4062,0 27.1875,3.75 10.7812,3.63282 16.0547,9.49219 5.2734,5.85938 7.3828,12.89063 2.2266,6.91406 2.2266,22.61718 v 41.36719 z m -54.4922,-15.82031 q -13.125,-8.20313 -20.9765,-8.20313 -6.211,0 -11.3672,3.63282 -5.0391,3.63281 -5.0391,10.54687 0,6.21094 4.1016,10.66406 4.1015,4.45313 10.5468,4.45313 10.0782,0 22.7344,-11.83594 z"
         style="font-weight:bold;-inkscape-font-specification:'Rockwell Bold';stroke:#000000;stroke-opacity:0.89119172"
         id="path1761" />
      <path
         d="m 2065.752,692.3763 -29.7657,-88.82813 h -14.414 v -26.25 h 61.7578 v 26.25 h -12.4219 l 13.9453,42.1875 23.2031,-68.4375 h 30 l 22.5,68.4375 13.9454,-42.1875 h -12.7735 v -26.25 h 54.8438 v 26.25 h -14.1797 l -29.4141,88.82813 h -31.4062 l -22.2657,-66.67969 -21.914,66.67969 z"
         style="font-weight:bold;-inkscape-font-specification:'Rockwell Bold';stroke:#000000;stroke-opacity:0.89119172"
         id="path1763" />
      <path
         d="m 2352.5098,525.5013 v 23.32031 q -15.2344,7.96875 -21.5625,27.77344 -6.211,19.6875 -6.211,57.07031 0,38.08594 6.3282,57.53906 6.3281,19.57032 21.4453,27.42188 v 23.32031 q -27.3047,-9.84375 -46.1719,-37.61719 -18.75,-27.65625 -18.75,-70.66406 0,-43.71094 18.9844,-71.01562 18.9843,-27.42188 45.9375,-37.14844 z"
         style="font-weight:bold;-inkscape-font-specification:'Rockwell Bold';stroke:#000000;stroke-opacity:0.89119172"
         id="path1765" />
      <path
         d="m 2484.9316,577.29817 v 46.05469 h -25.7812 q -8.7891,-18.98437 -27.5391,-18.98437 -11.9531,0 -19.1015,7.96875 -7.0313,7.85156 -7.0313,21.09375 0,16.05468 7.5,23.78906 7.5,7.61719 18.3985,7.61719 8.6718,0 16.4062,-4.92188 7.7344,-5.03906 12.4219,-13.24219 l 28.125,12.42188 q -15.7031,34.21875 -55.0781,34.21875 -29.6485,0 -47.3438,-16.17188 -17.5781,-16.17187 -17.5781,-43.24218 0,-27.07032 17.2265,-42.65625 17.3438,-15.70313 40.3125,-15.70313 18.3985,0 34.336,11.13281 v -9.375 z"
         style="font-weight:bold;-inkscape-font-specification:'Rockwell Bold';stroke:#000000;stroke-opacity:0.89119172"
         id="path1767" />
      <path
         d="m 2563.0957,693.3138 q -25.0781,0 -42.4219,-15.82031 -17.2265,-15.9375 -17.2265,-43.59375 0,-27.65625 17.2265,-43.47657 17.3438,-15.9375 42.4219,-15.9375 25.1953,0 42.4219,15.9375 17.2265,15.82032 17.2265,43.47657 0,27.30468 -17.1093,43.35937 -16.9922,16.05469 -42.5391,16.05469 z m -0.1172,-28.125 q 10.0781,0 16.2891,-7.73438 6.3281,-7.73437 6.3281,-24.25781 0,-14.53125 -6.0937,-22.61719 -6.0938,-8.20312 -16.5235,-8.20312 -22.3828,0 -22.3828,32.34375 0,13.24219 5.5078,21.91406 5.625,8.55469 16.875,8.55469 z"
         style="font-weight:bold;-inkscape-font-specification:'Rockwell Bold';stroke:#000000;stroke-opacity:0.89119172"
         id="path1769" />
      <path
         d="m 2718.1348,664.60286 v 26.13281 h -79.8047 v -26.13281 h 20.9765 v -61.05469 h -19.6875 v -26.25 h 52.8516 v 28.82813 q 3.0469,-12.42188 13.8281,-21.44531 10.8985,-9.14063 25.6641,-9.14063 2.4609,0 5.8594,0.11719 v 34.21875 q -13.711,0 -22.3828,3.04687 -8.6719,3.04688 -14.2969,13.35938 -5.625,10.3125 -5.625,24.375 v 13.94531 z"
         style="font-weight:bold;-inkscape-font-specification:'Rockwell Bold';stroke:#000000;stroke-opacity:0.89119172"
         id="path1771" />
      <path
         d="m 2808.252,693.3138 q -25.0782,0 -42.4219,-15.82031 -17.2266,-15.9375 -17.2266,-43.59375 0,-27.65625 17.2266,-43.47657 17.3437,-15.9375 42.4219,-15.9375 25.1953,0 42.4218,15.9375 17.2266,15.82032 17.2266,43.47657 0,27.30468 -17.1094,43.35937 -16.9922,16.05469 -42.539,16.05469 z m -0.1172,-28.125 q 10.0781,0 16.289,-7.73438 6.3282,-7.73437 6.3282,-24.25781 0,-14.53125 -6.0938,-22.61719 -6.0937,-8.20312 -16.5234,-8.20312 -22.3828,0 -22.3828,32.34375 0,13.24219 5.5078,21.91406 5.625,8.55469 16.875,8.55469 z"
         style="font-weight:bold;-inkscape-font-specification:'Rockwell Bold';stroke:#000000;stroke-opacity:0.89119172"
         id="path1773" />
      <path
         d="m 2885.8301,690.73567 v -26.13281 h 17.8125 V 553.86067 h -17.8125 v -26.13281 h 54.0234 v 136.875 h 16.2891 v 26.13281 z"
         style="font-weight:bold;-inkscape-font-specification:'Rockwell Bold';stroke:#000000;stroke-opacity:0.89119172"
         id="path1775" />
      <path
         d="m 2970.791,690.73567 v -26.13281 h 17.8125 V 553.86067 h -17.8125 v -26.13281 h 54.0235 v 136.875 h 16.289 v 26.13281 z"
         style="font-weight:bold;-inkscape-font-specification:'Rockwell Bold';stroke:#000000;stroke-opacity:0.89119172"
         id="path1777" />
      <path
         d="m 3183.4863,664.60286 v 26.13281 h -54.4922 v -8.90625 q -14.6484,10.54688 -30.9375,10.54688 -16.875,0 -29.1796,-9.60938 -12.1875,-9.60937 -12.1875,-25.78125 0,-16.28906 12.8906,-27.30468 12.8906,-11.01563 33.2812,-11.01563 11.3672,0 26.1328,5.74219 v -6.91406 q 0,-8.67188 -5.8593,-14.17969 -5.8594,-5.625 -15.7032,-5.625 -12.1875,0 -20.8593,8.90625 l -29.1797,-5.27344 q 12.6562,-26.83594 54.9609,-26.83594 16.4063,0 27.1875,3.75 10.7813,3.63282 16.0547,9.49219 5.2734,5.85938 7.3828,12.89063 2.2266,6.91406 2.2266,22.61718 v 41.36719 z m -54.4922,-15.82031 q -13.125,-8.20313 -20.9765,-8.20313 -6.211,0 -11.3672,3.63282 -5.0391,3.63281 -5.0391,10.54687 0,6.21094 4.1016,10.66406 4.1016,4.45313 10.5469,4.45313 10.0781,0 22.7343,-11.83594 z"
         style="font-weight:bold;-inkscape-font-specification:'Rockwell Bold';stroke:#000000;stroke-opacity:0.89119172"
         id="path1779" />
      <path
         d="m 3273.1348,664.60286 v 26.13281 h -79.8047 v -26.13281 h 20.9765 v -61.05469 h -19.6875 v -26.25 h 52.8516 v 28.82813 q 3.0469,-12.42188 13.8281,-21.44531 10.8985,-9.14063 25.6641,-9.14063 2.4609,0 5.8594,0.11719 v 34.21875 q -13.711,0 -22.3828,3.04687 -8.6719,3.04688 -14.2969,13.35938 -5.625,10.3125 -5.625,24.375 v 13.94531 z"
         style="font-weight:bold;-inkscape-font-specification:'Rockwell Bold';stroke:#000000;stroke-opacity:0.89119172"
         id="path1781" />
      <path
         d="M 3338.5254,741.94661 V 715.8138 h 21.7969 l 7.5,-20.27344 -41.25,-91.99219 h -16.4063 v -26.25 h 67.9688 v 26.25 h -13.3594 l 18.8672,50.97657 20.1562,-50.97657 h -14.7656 v -26.25 h 59.6484 v 26.25 h -16.1718 l -54.375,138.39844 z"
         style="font-weight:bold;-inkscape-font-specification:'Rockwell Bold';stroke:#000000;stroke-opacity:0.89119172"
         id="path1783" />
      <path
         d="M 3458.291,741.94661 V 718.6263 q 15.2344,-7.96875 21.4453,-27.77344 6.3282,-19.6875 6.3282,-57.1875 0,-37.96875 -6.3282,-57.42187 -6.3281,-19.57032 -21.4453,-27.42188 V 525.5013 q 27.3047,9.84375 46.0547,37.61719 18.8672,27.65625 18.8672,70.54687 0,42.89063 -18.75,70.66406 -18.75,27.77344 -46.1719,37.61719 z"
         style="font-weight:bold;-inkscape-font-specification:'Rockwell Bold';stroke:#000000;stroke-opacity:0.89119172"
         id="path1785" />
      <path
         d="m 3556.9629,616.32161 v -39.02344 h 39.2578 v 39.02344 z m 0,74.41406 v -39.25781 h 39.2578 v 39.25781 z"
         style="font-weight:bold;-inkscape-font-specification:'Rockwell Bold';stroke:#000000;stroke-opacity:0.89119172"
         id="path1787" />
      <path
         d="m 488.17383,1174.345 v -122.2266 h -33.63281 v 41.6016 h -20.15625 v -61.9922 h 132.07031 v 61.9922 h -20.15625 v -41.6016 H 512.7832 v 122.2266 h 21.21094 v 20.3906 h -66.67969 v -20.3906 z"
         id="path1789"
         style="stroke:#000000;stroke-opacity:0.89119172" />
      <path
         d="m 598.21289,1174.9309 v -123.3984 h -20.50781 v -19.8047 h 42.77344 v 62.5781 q 20.03906,-16.1718 38.08593,-16.1718 11.25,0 18.51563,4.6875 7.26562,4.6875 9.84375,12.4218 2.69531,7.6172 2.69531,22.3829 v 57.3046 h 19.33594 v 19.8047 h -41.60156 v -69.375 q 0,-12.8906 -0.82032,-17.2265 -0.82031,-4.336 -4.57031,-7.1485 -3.63281,-2.8125 -8.67187,-2.8125 -12.89063,0 -32.8125,14.6485 v 62.1093 h 19.6875 v 19.8047 h -62.46094 v -19.8047 z"
         id="path1791"
         style="stroke:#000000;stroke-opacity:0.89119172" />
      <path
         d="m 839.0332,1143.6419 h -95.39062 q 2.10937,15.7031 12.42187,25.4297 10.3125,9.7265 26.36719,9.7265 23.32031,0 36.91406,-18.75 l 19.6875,8.6719 q -9.60937,14.8828 -24.96093,22.1484 -15.35157,7.1485 -32.10938,7.1485 -26.01562,0 -44.53125,-16.1719 -18.39844,-16.2891 -18.39844,-43.8281 0,-26.1328 17.92969,-43.0078 18.04688,-16.875 41.36719,-16.875 22.85156,0 41.36719,16.5234 18.63281,16.4063 19.33593,48.9844 z M 816.06445,1127.47 q -2.34375,-11.9531 -12.42187,-21.5625 -10.07813,-9.7266 -24.72656,-9.7266 -13.35938,0 -22.85157,8.7891 -9.49218,8.6719 -11.60156,22.5 z"
         id="path1793"
         style="stroke:#000000;stroke-opacity:0.89119172" />
      <path
         d="m 964.54102,1196.6106 -37.03125,-95.5078 H 907.4707 v -19.8047 h 57.07032 v 19.8047 h -14.76563 l 24.375,64.336 24.49219,-64.336 h -15.70313 v -19.8047 h 55.42965 v 19.8047 h -17.4609 l -36.21093,95.5078 z"
         id="path1795"
         style="stroke:#000000;stroke-opacity:0.89119172" />
      <path
         d="m 1158.7207,1174.9309 v 19.8047 h -38.9062 v -13.8281 q -16.1719,15.7031 -36.0938,15.7031 -15.4687,0 -26.9531,-10.0781 -11.3672,-10.0781 -11.3672,-25.7812 0,-15.8204 12.0703,-26.25 12.1875,-10.4297 29.2969,-10.4297 15.9375,0 30.8203,9.6093 v -11.25 q 0,-8.6718 -1.6406,-13.3593 -1.6407,-4.6875 -7.7344,-8.4375 -5.9766,-3.75 -15.7031,-3.75 -16.7578,0 -24.2578,13.3593 l -21.3282,-5.625 q 14.1797,-26.4843 48.9844,-26.4843 12.7734,0 22.0313,3.5156 9.375,3.3984 13.9453,8.9062 4.5703,5.3907 6.0937,11.7188 1.6406,6.3281 1.6406,20.1562 v 52.5 z m -41.1328,-22.3828 q -14.4141,-11.25 -29.1797,-11.25 -9.2578,0 -15.4687,5.3907 -6.211,5.3906 -6.211,13.9453 0,7.9687 5.3906,13.3593 5.5079,5.3907 14.8829,5.3907 16.1718,0 30.5859,-13.5938 z"
         id="path1797"
         style="stroke:#000000;stroke-opacity:0.89119172" />
      <path
         d="m 1186.7285,1174.9309 v -123.3984 h -20.1562 v -19.8047 h 42.4218 v 143.2031 h 17.3438 v 19.8047 h -59.7656 v -19.8047 z"
         id="path1799"
         style="stroke:#000000;stroke-opacity:0.89119172" />
      <path
         d="m 1364.6191,1174.9309 v 19.8047 h -41.8359 v -13.0078 q -19.5703,14.8828 -37.5,14.8828 -11.3672,0 -18.8672,-4.9218 -7.3828,-5.0391 -9.8437,-12.8907 -2.461,-7.9687 -2.461,-25.5468 v -52.1485 h -16.0547 v -19.8047 h 38.3204 v 69.1407 q 0,12.539 0.7031,16.875 0.7031,4.3359 4.1015,7.1484 3.3985,2.8125 8.5547,2.8125 15.4688,0 33.0469,-14.7656 v -61.4063 h -20.0391 v -19.8047 h 42.3047 v 93.6328 z"
         id="path1801"
         style="stroke:#000000;stroke-opacity:0.89119172" />
      <path
         d="m 1495.6348,1143.6419 h -95.3907 q 2.1094,15.7031 12.4219,25.4297 10.3125,9.7265 26.3672,9.7265 23.3203,0 36.9141,-18.75 l 19.6875,8.6719 q -9.6094,14.8828 -24.961,22.1484 -15.3515,7.1485 -32.1093,7.1485 -26.0157,0 -44.5313,-16.1719 -18.3984,-16.2891 -18.3984,-43.8281 0,-26.1328 17.9297,-43.0078 18.0468,-16.875 41.3671,-16.875 22.8516,0 41.3672,16.5234 18.6328,16.4063 19.336,48.9844 z M 1472.666,1127.47 q -2.3437,-11.9531 -12.4219,-21.5625 -10.0781,-9.7266 -24.7265,-9.7266 -13.3594,0 -22.8516,8.7891 -9.4922,8.6719 -11.6015,22.5 z"
         id="path1803"
         style="stroke:#000000;stroke-opacity:0.89119172" />
      <path
         d="m 1573.6816,1138.0169 q 0,-26.25 17.3438,-43.0078 17.3437,-16.875 42.3047,-16.875 24.4922,0 42.0703,16.6406 17.5781,16.5234 17.5781,43.2422 0,26.7187 -17.5781,43.3594 -17.4609,16.6406 -42.0703,16.6406 -25.3125,0 -42.5391,-16.875 -17.1094,-16.875 -17.1094,-43.125 z m 23.5547,0 q 0,16.7578 10.4297,27.539 10.5469,10.6641 25.6641,10.6641 15.3515,0 25.664,-10.7812 10.4297,-10.8985 10.4297,-27.4219 0,-16.6406 -10.5468,-27.4219 -10.5469,-10.7812 -25.5469,-10.7812 -15.7031,0 -25.8985,11.0156 -10.1953,11.0156 -10.1953,27.1875 z"
         id="path1805"
         style="stroke:#000000;stroke-opacity:0.89119172" />
      <path
         d="m 1725.2051,1174.9309 v -73.8281 h -16.5235 v -19.6875 h 16.5235 v -16.4062 q 0,-20.7422 8.789,-28.5938 8.7891,-7.9687 20.7422,-7.9687 25.7813,0 29.8828,26.1328 l -19.8046,3.0469 q -1.1719,-10.8985 -8.5547,-10.8985 -5.0391,0 -6.9141,3.5156 -1.875,3.3985 -1.875,14.7657 v 16.4062 h 19.4531 v 19.6875 h -19.4531 v 73.8281 h 21.5625 v 19.8047 h -60.3516 v -19.8047 z"
         id="path1807"
         style="stroke:#000000;stroke-opacity:0.89119172" />
      <path
         d="m 1956.5332,1174.9309 v 19.8047 h -38.9062 v -13.8281 q -16.1719,15.7031 -36.0938,15.7031 -15.4687,0 -26.9531,-10.0781 -11.3672,-10.0781 -11.3672,-25.7812 0,-15.8204 12.0703,-26.25 12.1875,-10.4297 29.2969,-10.4297 15.9375,0 30.8203,9.6093 v -11.25 q 0,-8.6718 -1.6406,-13.3593 -1.6407,-4.6875 -7.7344,-8.4375 -5.9766,-3.75 -15.7031,-3.75 -16.7578,0 -24.2578,13.3593 l -21.3282,-5.625 q 14.1797,-26.4843 48.9844,-26.4843 12.7734,0 22.0313,3.5156 9.375,3.3984 13.9453,8.9062 4.5703,5.3907 6.0937,11.7188 1.6406,6.3281 1.6406,20.1562 v 52.5 z m -41.1328,-22.3828 q -14.4141,-11.25 -29.1797,-11.25 -9.2578,0 -15.4687,5.3907 -6.211,5.3906 -6.211,13.9453 0,7.9687 5.3906,13.3593 5.5079,5.3907 14.8829,5.3907 16.1718,0 30.5859,-13.5938 z"
         id="path1809"
         style="stroke:#000000;stroke-opacity:0.89119172" />
      <path
         d="m 2068.2129,1081.2981 v 13.711 q 21.4453,-15.4688 39.1406,-15.4688 11.0156,0 18.1641,5.2735 7.2656,5.1562 9.4922,12.7734 2.2265,7.5 2.2265,22.0312 v 55.3125 h 19.1016 v 19.8047 h -41.3672 v -74.1797 q 0,-12.8906 -3.8672,-16.7578 -3.8672,-3.9843 -9.4922,-3.9843 -14.7656,0 -33.3984,14.414 v 60.7031 h 19.5703 v 19.8047 h -61.7578 v -19.8047 h 19.9219 v -73.8281 h -19.9219 v -19.8047 z"
         id="path1811"
         style="stroke:#000000;stroke-opacity:0.89119172" />
      <path
         d="m 2285.8301,1143.6419 h -95.3906 q 2.1093,15.7031 12.4218,25.4297 10.3125,9.7265 26.3672,9.7265 23.3203,0 36.9141,-18.75 l 19.6875,8.6719 q -9.6094,14.8828 -24.961,22.1484 -15.3515,7.1485 -32.1093,7.1485 -26.0157,0 -44.5313,-16.1719 -18.3984,-16.2891 -18.3984,-43.8281 0,-26.1328 17.9297,-43.0078 18.0468,-16.875 41.3672,-16.875 22.8515,0 41.3671,16.5234 18.6329,16.4063 19.336,48.9844 z m -22.9688,-16.1719 q -2.3437,-11.9531 -12.4218,-21.5625 -10.0782,-9.7266 -24.7266,-9.7266 -13.3594,0 -22.8516,8.7891 -9.4922,8.6719 -11.6015,22.5 z"
         id="path1813"
         style="stroke:#000000;stroke-opacity:0.89119172" />
      <path
         d="m 2302.002,1101.1028 v -19.8047 h 14.7656 v -17.4609 l 22.2656,-20.3906 v 37.8515 h 20.9766 v 19.8047 h -20.9766 v 55.0781 q 0,13.2422 1.4063,16.4063 1.5234,3.0469 7.3828,3.0469 6.2109,0 12.1875,-2.3438 v 20.2735 q -8.5547,3.0468 -17.1094,3.0468 -10.1953,0 -16.5234,-4.4531 -6.3282,-4.5703 -7.9688,-11.3672 -1.6406,-6.7969 -1.6406,-23.4375 v -56.25 z"
         id="path1815"
         style="stroke:#000000;stroke-opacity:0.89119172" />
      <path
         d="m 2410.9863,1196.6106 -30.3515,-95.5078 h -13.8282 v -19.8047 h 47.8125 v 19.8047 h -14.8828 l 21.6797,68.4375 21.6797,-68.4375 h -12.4219 v -19.8047 h 54.8438 v 19.8047 h -12.4219 l 21.6797,68.4375 21.7969,-68.4375 h -15.586 v -19.8047 h 51.211 v 19.8047 h -16.2891 l -30.4687,95.5078 h -20.9766 l -26.0156,-82.0312 -26.4844,82.0312 z"
         id="path1817"
         style="stroke:#000000;stroke-opacity:0.89119172" />
      <path
         d="m 2552.9004,1138.0169 q 0,-26.25 17.3437,-43.0078 17.3438,-16.875 42.3047,-16.875 24.4922,0 42.0703,16.6406 17.5782,16.5234 17.5782,43.2422 0,26.7187 -17.5782,43.3594 -17.4609,16.6406 -42.0703,16.6406 -25.3125,0 -42.539,-16.875 -17.1094,-16.875 -17.1094,-43.125 z m 23.5547,0 q 0,16.7578 10.4297,27.539 10.5468,10.6641 25.664,10.6641 15.3516,0 25.6641,-10.7812 10.4297,-10.8985 10.4297,-27.4219 0,-16.6406 -10.5469,-27.4219 -10.5469,-10.7812 -25.5469,-10.7812 -15.7031,0 -25.8984,11.0156 -10.1953,11.0156 -10.1953,27.1875 z"
         id="path1819"
         style="stroke:#000000;stroke-opacity:0.89119172" />
      <path
         d="m 2709.4629,1174.9309 v -73.8281 h -22.8516 v -19.8047 h 40.6641 v 25.5469 q 3.75,-9.9609 10.4297,-16.5234 6.6797,-6.5625 14.0625,-8.6719 7.5,-2.1094 20.3906,-2.1094 h 5.8594 v 22.5 h -4.4531 q -16.9922,0 -25.4297,3.3985 -8.3203,3.3984 -12.4219,12.4218 -3.9844,8.9063 -3.9844,32.1094 v 24.9609 h 24.7266 v 19.8047 h -69.8438 v -19.8047 z"
         id="path1821"
         style="stroke:#000000;stroke-opacity:0.89119172" />
      <path
         d="m 2802.8613,1174.9309 v -123.3984 h -20.3906 v -19.8047 h 42.6563 v 101.836 l 42.4218,-33.8672 h -18.8672 v -18.3985 h 62.6954 v 18.3985 h -17.3438 l -42.5391,35.3906 39.961,39.8437 h 19.9219 v 19.8047 h -29.1797 l -57.0703,-57.0703 v 37.2656 h 19.5703 v 19.8047 h -62.2266 v -19.8047 z"
         id="path1823"
         style="stroke:#000000;stroke-opacity:0.89119172" />
      <path
         d="m 453.83789,1546.7434 q 0,-5.3906 3.75,-9.375 3.86719,-3.9843 9.72656,-3.9843 5.50782,0 9.49219,3.8672 3.98438,3.8671 3.98438,9.4921 0,5.625 -3.98438,9.6094 -3.98437,3.8672 -9.49219,3.8672 -5.625,0 -9.60937,-3.9844 -3.86719,-3.9843 -3.86719,-9.4922 z m 3.16406,132.1875 v -73.8281 h -17.69531 v -19.8047 h 39.96094 v 93.6328 h 17.46094 v 19.8047 h -57.42188 v -19.8047 z"
         id="path1825"
         style="stroke:#000000;stroke-opacity:0.89119172" />
      <path
         d="m 511.49414,1698.7356 v -38.9062 h 19.92188 v 3.75 q 1.05468,7.9687 8.55468,13.125 7.61719,5.1562 17.92969,5.1562 10.78125,0 17.22656,-3.75 6.44532,-3.75 6.44532,-10.4297 0,-6.4453 -5.39063,-9.4921 -5.27344,-3.0469 -21.09375,-5.625 -23.4375,-3.9844 -33.51562,-12.7735 -9.96094,-8.9062 -9.96094,-22.9687 0,-14.1797 10.89844,-23.6719 10.89843,-9.6094 28.71093,-9.6094 16.05469,0 27.65625,6.5625 v -4.8047 h 19.80469 v 37.6172 h -19.80469 v -6.914 q -9.02343,-13.9454 -26.25,-13.9454 -8.78906,0 -14.53125,3.8672 -5.625,3.75 -5.625,10.0782 0,6.4453 5.15625,8.9062 5.27344,2.3438 22.5,5.0391 16.52344,2.5781 24.96094,6.0937 8.4375,3.3985 13.94531,11.4844 5.625,7.9687 5.625,18.6328 0,15.8203 -12.1875,25.1953 -12.07031,9.2578 -31.40625,9.2578 -18.16406,0 -29.64843,-8.2031 v 6.3281 z"
         id="path1827"
         style="stroke:#000000;stroke-opacity:0.89119172" />
      <path
         d="m 693.95508,1729.7903 v -124.6875 h -19.10156 v -19.8047 h 41.36718 v 17.8125 q 16.64063,-19.5703 40.3125,-19.5703 23.90625,0 39.49219,16.4063 15.70313,16.4062 15.70313,42.6562 0,27.5391 -16.99219,43.4766 -16.99219,15.9375 -38.67188,15.9375 -22.5,0 -39.84375,-17.3438 v 45.1172 h 22.03125 v 19.8047 h -65.03906 v -19.8047 z m 21.91406,-86.1328 q 0,9.375 3.86719,17.9297 3.86719,8.5547 12.30469,14.4141 8.4375,5.7421 19.80468,5.7421 15.9375,0 26.25,-10.664 10.42969,-10.6641 10.42969,-29.2969 0,-18.1641 -10.89844,-28.3594 -10.78125,-10.1953 -24.60937,-10.1953 -14.76563,0 -26.01563,11.1328 -11.13281,11.0157 -11.13281,29.2969 z"
         id="path1829"
         style="stroke:#000000;stroke-opacity:0.89119172" />
      <path
         d="m 849.69727,1678.9309 v -73.8281 H 826.8457 v -19.8047 h 40.66407 v 25.5469 q 3.75,-9.9609 10.42968,-16.5234 6.67969,-6.5625 14.0625,-8.6719 7.5,-2.1094 20.39063,-2.1094 h 5.85937 v 22.5 h -4.45312 q -16.99219,0 -25.42969,3.3985 -8.32031,3.3984 -12.42187,12.4218 -3.98438,8.9063 -3.98438,32.1094 v 24.9609 h 24.72656 v 19.8047 H 826.8457 v -19.8047 z"
         id="path1831"
         style="stroke:#000000;stroke-opacity:0.89119172" />
      <path
         d="m 921.18164,1642.0169 q 0,-26.25 17.34375,-43.0078 17.34375,-16.875 42.30469,-16.875 24.49222,0 42.07032,16.6406 17.5781,16.5234 17.5781,43.2422 0,26.7187 -17.5781,43.3594 -17.4609,16.6406 -42.07032,16.6406 -25.3125,0 -42.53906,-16.875 -17.10938,-16.875 -17.10938,-43.125 z m 23.55469,0 q 0,16.7578 10.42969,27.539 10.54687,10.6641 25.66406,10.6641 15.35156,0 25.66402,-10.7812 10.4297,-10.8985 10.4297,-27.4219 0,-16.6406 -10.5468,-27.4219 -10.54692,-10.7812 -25.54692,-10.7812 -15.70313,0 -25.89844,11.0156 -10.19531,11.0156 -10.19531,27.1875 z"
         id="path1833"
         style="stroke:#000000;stroke-opacity:0.89119172" />
      <path
         d="m 1072.002,1729.7903 v -124.6875 h -19.1016 v -19.8047 h 41.3672 v 17.8125 q 16.6406,-19.5703 40.3125,-19.5703 23.9062,0 39.4922,16.4063 15.7031,16.4062 15.7031,42.6562 0,27.5391 -16.9922,43.4766 -16.9922,15.9375 -38.6719,15.9375 -22.5,0 -39.8437,-17.3438 v 45.1172 h 22.0312 v 19.8047 h -65.039 v -19.8047 z m 21.914,-86.1328 q 0,9.375 3.8672,17.9297 3.8672,8.5547 12.3047,14.4141 8.4375,5.7421 19.8047,5.7421 15.9375,0 26.25,-10.664 10.4297,-10.6641 10.4297,-29.2969 0,-18.1641 -10.8985,-28.3594 -10.7812,-10.1953 -24.6093,-10.1953 -14.7657,0 -26.0157,11.1328 -11.1328,11.0157 -11.1328,29.2969 z"
         id="path1835"
         style="stroke:#000000;stroke-opacity:0.89119172" />
      <path
         d="m 1208.7598,1642.0169 q 0,-26.25 17.3437,-43.0078 17.3438,-16.875 42.3047,-16.875 24.4922,0 42.0703,16.6406 17.5781,16.5234 17.5781,43.2422 0,26.7187 -17.5781,43.3594 -17.4609,16.6406 -42.0703,16.6406 -25.3125,0 -42.5391,-16.875 -17.1093,-16.875 -17.1093,-43.125 z m 23.5547,0 q 0,16.7578 10.4296,27.539 10.5469,10.6641 25.6641,10.6641 15.3516,0 25.6641,-10.7812 10.4297,-10.8985 10.4297,-27.4219 0,-16.6406 -10.5469,-27.4219 -10.5469,-10.7812 -25.5469,-10.7812 -15.7031,0 -25.8984,11.0156 -10.1953,11.0156 -10.1953,27.1875 z"
         id="path1837"
         style="stroke:#000000;stroke-opacity:0.89119172" />
      <path
         d="m 1365.3223,1678.9309 v -73.8281 h -22.8516 v -19.8047 h 40.6641 v 25.5469 q 3.75,-9.9609 10.4297,-16.5234 6.6796,-6.5625 14.0625,-8.6719 7.5,-2.1094 20.3906,-2.1094 h 5.8594 v 22.5 h -4.4532 q -16.9922,0 -25.4297,3.3985 -8.3203,3.3984 -12.4218,12.4218 -3.9844,8.9063 -3.9844,32.1094 v 24.9609 h 24.7266 v 19.8047 h -69.8438 v -19.8047 z"
         id="path1839"
         style="stroke:#000000;stroke-opacity:0.89119172" />
      <path
         d="m 1448.1738,1605.1028 v -19.8047 h 14.7657 v -17.4609 l 22.2656,-20.3906 v 37.8515 h 20.9765 v 19.8047 h -20.9765 v 55.0781 q 0,13.2422 1.4062,16.4063 1.5235,3.0469 7.3828,3.0469 6.211,0 12.1875,-2.3438 v 20.2735 q -8.5546,3.0468 -17.1093,3.0468 -10.1953,0 -16.5235,-4.4531 -6.3281,-4.5703 -7.9687,-11.3672 -1.6406,-6.7969 -1.6406,-23.4375 v -56.25 z"
         id="path1841"
         style="stroke:#000000;stroke-opacity:0.89119172" />
      <path
         d="m 1535.5957,1546.7434 q 0,-5.3906 3.75,-9.375 3.8672,-3.9843 9.7266,-3.9843 5.5078,0 9.4922,3.8672 3.9843,3.8671 3.9843,9.4921 0,5.625 -3.9843,9.6094 -3.9844,3.8672 -9.4922,3.8672 -5.625,0 -9.6094,-3.9844 -3.8672,-3.9843 -3.8672,-9.4922 z m 3.1641,132.1875 v -73.8281 h -17.6953 v -19.8047 h 39.9609 v 93.6328 h 17.4609 v 19.8047 h -57.4218 v -19.8047 z"
         id="path1843"
         style="stroke:#000000;stroke-opacity:0.89119172" />
      <path
         d="m 1592.5488,1642.0169 q 0,-26.25 17.3438,-43.0078 17.3437,-16.875 42.3047,-16.875 24.4922,0 42.0703,16.6406 17.5781,16.5234 17.5781,43.2422 0,26.7187 -17.5781,43.3594 -17.461,16.6406 -42.0703,16.6406 -25.3125,0 -42.5391,-16.875 -17.1094,-16.875 -17.1094,-43.125 z m 23.5547,0 q 0,16.7578 10.4297,27.539 10.5469,10.6641 25.6641,10.6641 15.3515,0 25.664,-10.7812 10.4297,-10.8985 10.4297,-27.4219 0,-16.6406 -10.5469,-27.4219 -10.5468,-10.7812 -25.5468,-10.7812 -15.7032,0 -25.8985,11.0156 -10.1953,11.0156 -10.1953,27.1875 z"
         id="path1845"
         style="stroke:#000000;stroke-opacity:0.89119172" />
      <path
         d="m 1769.6191,1585.2981 v 13.711 q 21.4454,-15.4688 39.1407,-15.4688 11.0156,0 18.164,5.2735 7.2657,5.1562 9.4922,12.7734 2.2266,7.5 2.2266,22.0312 v 55.3125 h 19.1015 v 19.8047 h -41.3671 v -74.1797 q 0,-12.8906 -3.8672,-16.7578 -3.8672,-3.9843 -9.4922,-3.9843 -14.7656,0 -33.3985,14.414 v 60.7031 h 19.5704 v 19.8047 h -61.7579 v -19.8047 h 19.9219 v -73.8281 h -19.9219 v -19.8047 z"
         id="path1847"
         style="stroke:#000000;stroke-opacity:0.89119172" />
      <path
         d="m 1982.9004,1678.9309 v 19.8047 h -38.9063 v -13.8281 q -16.1718,15.7031 -36.0937,15.7031 -15.4688,0 -26.9531,-10.0781 -11.3672,-10.0781 -11.3672,-25.7812 0,-15.8204 12.0703,-26.25 12.1875,-10.4297 29.2969,-10.4297 15.9375,0 30.8203,9.6093 v -11.25 q 0,-8.6718 -1.6406,-13.3593 -1.6407,-4.6875 -7.7344,-8.4375 -5.9766,-3.75 -15.7031,-3.75 -16.7579,0 -24.2579,13.3593 l -21.3281,-5.625 q 14.1797,-26.4843 48.9844,-26.4843 12.7734,0 22.0312,3.5156 9.375,3.3984 13.9454,8.9062 4.5703,5.3907 6.0937,11.7188 1.6406,6.3281 1.6406,20.1562 v 52.5 z m -41.1328,-22.3828 q -14.4141,-11.25 -29.1797,-11.25 -9.2578,0 -15.4688,5.3907 -6.2109,5.3906 -6.2109,13.9453 0,7.9687 5.3906,13.3593 5.5078,5.3907 14.8828,5.3907 16.1719,0 30.586,-13.5938 z"
         id="path1849"
         style="stroke:#000000;stroke-opacity:0.89119172" />
      <path
         d="m 2010.9082,1678.9309 v -123.3984 h -20.1562 v -19.8047 h 42.4218 v 143.2031 h 17.3438 v 19.8047 h -59.7656 v -19.8047 z"
         id="path1851"
         style="stroke:#000000;stroke-opacity:0.89119172" />
      <path
         d="m 2123.291,1605.1028 v -19.8047 h 14.7656 v -17.4609 l 22.2657,-20.3906 v 37.8515 h 20.9765 v 19.8047 h -20.9765 v 55.0781 q 0,13.2422 1.4062,16.4063 1.5235,3.0469 7.3828,3.0469 6.211,0 12.1875,-2.3438 v 20.2735 q -8.5547,3.0468 -17.1093,3.0468 -10.1954,0 -16.5235,-4.4531 -6.3281,-4.5703 -7.9687,-11.3672 -1.6407,-6.7969 -1.6407,-23.4375 v -56.25 z"
         id="path1853"
         style="stroke:#000000;stroke-opacity:0.89119172" />
      <path
         d="m 2197.5879,1642.0169 q 0,-26.25 17.3437,-43.0078 17.3438,-16.875 42.3047,-16.875 24.4922,0 42.0703,16.6406 17.5782,16.5234 17.5782,43.2422 0,26.7187 -17.5782,43.3594 -17.4609,16.6406 -42.0703,16.6406 -25.3125,0 -42.539,-16.875 -17.1094,-16.875 -17.1094,-43.125 z m 23.5547,0 q 0,16.7578 10.4297,27.539 10.5468,10.6641 25.664,10.6641 15.3516,0 25.6641,-10.7812 10.4297,-10.8985 10.4297,-27.4219 0,-16.6406 -10.5469,-27.4219 -10.5469,-10.7812 -25.5469,-10.7812 -15.7031,0 -25.8984,11.0156 -10.1953,11.0156 -10.1953,27.1875 z"
         id="path1855"
         style="stroke:#000000;stroke-opacity:0.89119172" />
      <path
         d="m 438.83789,2109.1028 v -19.8047 h 14.76563 v -17.4609 l 22.26562,-20.3906 v 37.8515 h 20.97656 v 19.8047 h -20.97656 v 55.0781 q 0,13.2422 1.40625,16.4063 1.52344,3.0469 7.38281,3.0469 6.21094,0 12.1875,-2.3438 v 20.2735 q -8.55468,3.0468 -17.10937,3.0468 -10.19531,0 -16.52344,-4.4531 -6.32812,-4.5703 -7.96875,-11.3672 -1.64062,-6.7969 -1.64062,-23.4375 v -56.25 z"
         id="path1857"
         style="stroke:#000000;stroke-opacity:0.89119172" />
      <path
         d="m 529.42383,2182.9309 v -123.3984 h -20.50781 v -19.8047 h 42.77343 v 62.5781 q 20.03907,-16.1718 38.08594,-16.1718 11.25,0 18.51563,4.6875 7.26562,4.6875 9.84375,12.4218 2.69531,7.6172 2.69531,22.3829 v 57.3046 h 19.33594 v 19.8047 h -41.60157 v -69.375 q 0,-12.8906 -0.82031,-17.2265 -0.82031,-4.336 -4.57031,-7.1485 -3.63281,-2.8125 -8.67188,-2.8125 -12.89062,0 -32.8125,14.6485 v 62.1093 h 19.6875 v 19.8047 h -62.46093 v -19.8047 z"
         id="path1859"
         style="stroke:#000000;stroke-opacity:0.89119172" />
      <path
         d="m 770.24414,2151.6419 h -95.39062 q 2.10937,15.7031 12.42187,25.4297 10.3125,9.7265 26.36719,9.7265 23.32031,0 36.91406,-18.75 l 19.6875,8.6719 q -9.60937,14.8828 -24.96094,22.1484 -15.35156,7.1485 -32.10937,7.1485 -26.01563,0 -44.53125,-16.1719 -18.39844,-16.2891 -18.39844,-43.8281 0,-26.1328 17.92969,-43.0078 18.04687,-16.875 41.36719,-16.875 22.85156,0 41.36718,16.5234 18.63282,16.4063 19.33594,48.9844 z M 747.27539,2135.47 q -2.34375,-11.9531 -12.42187,-21.5625 -10.07813,-9.7266 -24.72657,-9.7266 -13.35937,0 -22.85156,8.7891 -9.49219,8.6719 -11.60156,22.5 z"
         id="path1861"
         style="stroke:#000000;stroke-opacity:0.89119172" />
      <path
         d="m 848.99414,2202.7356 v -38.9062 h 19.92188 v 3.75 q 1.05468,7.9687 8.55468,13.125 7.61719,5.1562 17.92969,5.1562 10.78125,0 17.22656,-3.75 6.44532,-3.75 6.44532,-10.4297 0,-6.4453 -5.39063,-9.4921 -5.27344,-3.0469 -21.09375,-5.625 -23.4375,-3.9844 -33.51562,-12.7735 -9.96094,-8.9062 -9.96094,-22.9687 0,-14.1797 10.89844,-23.6719 10.89843,-9.6094 28.71093,-9.6094 16.05469,0 27.65625,6.5625 v -4.8047 h 19.80469 v 37.6172 h -19.80469 v -6.914 q -9.02343,-13.9454 -26.25,-13.9454 -8.78906,0 -14.53125,3.8672 -5.625,3.75 -5.625,10.0782 0,6.4453 5.15625,8.9062 5.27344,2.3438 22.5,5.0391 16.52344,2.5781 24.96094,6.0937 8.4375,3.3985 13.94531,11.4844 5.625,7.9687 5.625,18.6328 0,15.8203 -12.1875,25.1953 -12.07031,9.2578 -31.40625,9.2578 -18.16406,0 -29.64843,-8.2031 v 6.3281 z"
         id="path1863"
         style="stroke:#000000;stroke-opacity:0.89119172" />
      <path
         d="m 1075.5176,2233.7903 h 20.7422 v 19.8047 h -65.0391 v -19.8047 h 22.0313 v -45.3515 q -16.875,17.5781 -40.1954,17.5781 -21.2109,0 -38.32027,-15.8203 -16.99219,-15.8203 -16.99219,-43.8282 0,-26.4843 15.82031,-42.6562 15.82032,-16.1719 39.37505,-16.1719 23.6718,0 40.3125,19.5703 v -17.8125 h 41.3671 v 19.8047 h -19.1015 z m -21.9141,-86.1328 q 0,-18.2812 -11.25,-29.2969 -11.1328,-11.1328 -25.8984,-11.1328 -14.2969,0 -24.96096,10.4297 -10.54687,10.4297 -10.54687,28.4766 0,16.5234 9.49218,28.125 9.60935,11.4843 26.95315,11.4843 17.4609,0 26.8359,-11.7187 9.375,-11.7188 9.375,-26.3672 z"
         id="path1865"
         style="stroke:#000000;stroke-opacity:0.89119172" />
      <path
         d="m 1229.502,2182.9309 v 19.8047 h -41.836 v -13.0078 q -19.5703,14.8828 -37.5,14.8828 -11.3672,0 -18.8672,-4.9218 -7.3828,-5.0391 -9.8437,-12.8907 -2.461,-7.9687 -2.461,-25.5468 v -52.1485 h -16.0546 v -19.8047 h 38.3203 v 69.1407 q 0,12.539 0.7031,16.875 0.7031,4.3359 4.1016,7.1484 3.3984,2.8125 8.5546,2.8125 15.4688,0 33.0469,-14.7656 v -61.4063 h -20.039 v -19.8047 h 42.3046 v 93.6328 z"
         id="path1867"
         style="stroke:#000000;stroke-opacity:0.89119172" />
      <path
         d="m 1356.1816,2182.9309 v 19.8047 h -38.9062 v -13.8281 q -16.1719,15.7031 -36.0938,15.7031 -15.4687,0 -26.9531,-10.0781 -11.3672,-10.0781 -11.3672,-25.7812 0,-15.8204 12.0703,-26.25 12.1875,-10.4297 29.2969,-10.4297 15.9375,0 30.8203,9.6093 v -11.25 q 0,-8.6718 -1.6406,-13.3593 -1.6406,-4.6875 -7.7344,-8.4375 -5.9765,-3.75 -15.7031,-3.75 -16.7578,0 -24.2578,13.3593 l -21.3281,-5.625 q 14.1797,-26.4843 48.9843,-26.4843 12.7735,0 22.0313,3.5156 9.375,3.3984 13.9453,8.9062 4.5703,5.3907 6.0938,11.7188 1.6406,6.3281 1.6406,20.1562 v 52.5 z m -41.1328,-22.3828 q -14.414,-11.25 -29.1797,-11.25 -9.2578,0 -15.4687,5.3907 -6.2109,5.3906 -6.2109,13.9453 0,7.9687 5.3906,13.3593 5.5078,5.3907 14.8828,5.3907 16.1719,0 30.5859,-13.5938 z"
         id="path1869"
         style="stroke:#000000;stroke-opacity:0.89119172" />
      <path
         d="m 1387.3535,2182.9309 v -73.8281 h -22.8515 v -19.8047 h 40.664 v 25.5469 q 3.75,-9.9609 10.4297,-16.5234 6.6797,-6.5625 14.0625,-8.6719 7.5,-2.1094 20.3906,-2.1094 h 5.8594 v 22.5 h -4.4531 q -16.9922,0 -25.4297,3.3985 -8.3203,3.3984 -12.4219,12.4218 -3.9844,8.9063 -3.9844,32.1094 v 24.9609 h 24.7266 v 19.8047 h -69.8437 v -19.8047 z"
         id="path1871"
         style="stroke:#000000;stroke-opacity:0.89119172" />
      <path
         d="m 1576.0254,2151.6419 h -95.3906 q 2.1093,15.7031 12.4218,25.4297 10.3125,9.7265 26.3672,9.7265 23.3203,0 36.9141,-18.75 l 19.6875,8.6719 q -9.6094,14.8828 -24.9609,22.1484 -15.3516,7.1485 -32.1094,7.1485 -26.0156,0 -44.5313,-16.1719 -18.3984,-16.2891 -18.3984,-43.8281 0,-26.1328 17.9297,-43.0078 18.0469,-16.875 41.3672,-16.875 22.8515,0 41.3672,16.5234 18.6328,16.4063 19.3359,48.9844 z m -22.9688,-16.1719 q -2.3437,-11.9531 -12.4218,-21.5625 -10.0782,-9.7266 -24.7266,-9.7266 -13.3594,0 -22.8516,8.7891 -9.4921,8.6719 -11.6015,22.5 z"
         id="path1873"
         style="stroke:#000000;stroke-opacity:0.89119172" />
      <path
         d="m 1654.0723,2146.0169 q 0,-26.25 17.3437,-43.0078 17.3438,-16.875 42.3047,-16.875 24.4922,0 42.0703,16.6406 17.5781,16.5234 17.5781,43.2422 0,26.7187 -17.5781,43.3594 -17.4609,16.6406 -42.0703,16.6406 -25.3125,0 -42.5391,-16.875 -17.1093,-16.875 -17.1093,-43.125 z m 23.5547,0 q 0,16.7578 10.4296,27.539 10.5469,10.6641 25.6641,10.6641 15.3516,0 25.6641,-10.7812 10.4297,-10.8985 10.4297,-27.4219 0,-16.6406 -10.5469,-27.4219 -10.5469,-10.7812 -25.5469,-10.7812 -15.7031,0 -25.8984,11.0156 -10.1953,11.0156 -10.1953,27.1875 z"
         id="path1875"
         style="stroke:#000000;stroke-opacity:0.89119172" />
      <path
         d="m 1805.5957,2182.9309 v -73.8281 h -16.5234 v -19.6875 h 16.5234 v -16.4062 q 0,-20.7422 8.7891,-28.5938 8.789,-7.9687 20.7422,-7.9687 25.7812,0 29.8828,26.1328 l -19.8047,3.0469 q -1.1719,-10.8985 -8.5547,-10.8985 -5.0391,0 -6.9141,3.5156 -1.875,3.3985 -1.875,14.7657 v 16.4062 h 19.4532 v 19.6875 h -19.4532 v 73.8281 h 21.5625 v 19.8047 h -60.3515 v -19.8047 z"
         id="path1877"
         style="stroke:#000000;stroke-opacity:0.89119172" />
      <path
         d="m 1919.8535,2109.1028 v -19.8047 h 14.7656 v -17.4609 l 22.2657,-20.3906 v 37.8515 h 20.9765 v 19.8047 h -20.9765 v 55.0781 q 0,13.2422 1.4062,16.4063 1.5235,3.0469 7.3828,3.0469 6.211,0 12.1875,-2.3438 v 20.2735 q -8.5547,3.0468 -17.1093,3.0468 -10.1954,0 -16.5235,-4.4531 -6.3281,-4.5703 -7.9687,-11.3672 -1.6407,-6.7969 -1.6407,-23.4375 v -56.25 z"
         id="path1879"
         style="stroke:#000000;stroke-opacity:0.89119172" />
      <path
         d="m 2010.4395,2182.9309 v -123.3984 h -20.5079 v -19.8047 h 42.7735 v 62.5781 q 20.039,-16.1718 38.0859,-16.1718 11.25,0 18.5156,4.6875 7.2657,4.6875 9.8438,12.4218 2.6953,7.6172 2.6953,22.3829 v 57.3046 h 19.3359 v 19.8047 h -41.6015 v -69.375 q 0,-12.8906 -0.8203,-17.2265 -0.8203,-4.336 -4.5703,-7.1485 -3.6329,-2.8125 -8.6719,-2.8125 -12.8906,0 -32.8125,14.6485 v 62.1093 h 19.6875 v 19.8047 h -62.461 v -19.8047 z"
         id="path1881"
         style="stroke:#000000;stroke-opacity:0.89119172" />
      <path
         d="m 2251.2598,2151.6419 h -95.3907 q 2.1094,15.7031 12.4219,25.4297 10.3125,9.7265 26.3672,9.7265 23.3203,0 36.9141,-18.75 l 19.6875,8.6719 q -9.6094,14.8828 -24.961,22.1484 -15.3515,7.1485 -32.1093,7.1485 -26.0157,0 -44.5313,-16.1719 -18.3984,-16.2891 -18.3984,-43.8281 0,-26.1328 17.9297,-43.0078 18.0468,-16.875 41.3671,-16.875 22.8516,0 41.3672,16.5234 18.6328,16.4063 19.336,48.9844 z M 2228.291,2135.47 q -2.3437,-11.9531 -12.4219,-21.5625 -10.0781,-9.7266 -24.7265,-9.7266 -13.3594,0 -22.8516,8.7891 -9.4922,8.6719 -11.6015,22.5 z"
         id="path1883"
         style="stroke:#000000;stroke-opacity:0.89119172" />
      <path
         d="m 2368.7988,2089.2981 v 13.711 q 21.4453,-15.4688 39.1407,-15.4688 11.0156,0 18.164,5.2735 7.2656,5.1562 9.4922,12.7734 2.2266,7.5 2.2266,22.0312 v 55.3125 h 19.1015 v 19.8047 h -41.3672 v -74.1797 q 0,-12.8906 -3.8671,-16.7578 -3.8672,-3.9843 -9.4922,-3.9843 -14.7657,0 -33.3985,14.414 v 60.7031 h 19.5703 v 19.8047 h -61.7578 v -19.8047 h 19.9219 v -73.8281 h -19.9219 v -19.8047 z"
         id="path1885"
         style="stroke:#000000;stroke-opacity:0.89119172" />
      <path
         d="m 2466.8848,2146.0169 q 0,-26.25 17.3437,-43.0078 17.3438,-16.875 42.3047,-16.875 24.4922,0 42.0703,16.6406 17.5781,16.5234 17.5781,43.2422 0,26.7187 -17.5781,43.3594 -17.4609,16.6406 -42.0703,16.6406 -25.3125,0 -42.5391,-16.875 -17.1093,-16.875 -17.1093,-43.125 z m 23.5547,0 q 0,16.7578 10.4296,27.539 10.5469,10.6641 25.6641,10.6641 15.3516,0 25.6641,-10.7812 10.4297,-10.8985 10.4297,-27.4219 0,-16.6406 -10.5469,-27.4219 -10.5469,-10.7812 -25.5469,-10.7812 -15.7031,0 -25.8984,11.0156 -10.1953,11.0156 -10.1953,27.1875 z"
         id="path1887"
         style="stroke:#000000;stroke-opacity:0.89119172" />
      <path
         d="m 2744.7363,2182.9309 v 19.8047 h -42.6562 v -16.6406 q -16.6406,18.5156 -40.5469,18.5156 -22.1484,0 -38.9062,-15.1172 -16.7579,-15.1171 -16.7579,-43.0078 0,-28.0078 17.2266,-44.1797 17.2266,-16.1718 38.9063,-16.1718 22.9687,0 40.0781,18.2812 v -44.8828 h -21.7969 v -19.8047 h 44.0625 v 143.2031 z m -115.0781,-37.0312 q 0,18.75 10.5469,28.8281 10.664,10.0781 25.4297,10.0781 14.2968,0 25.3125,-10.5468 11.1328,-10.6641 11.1328,-29.4141 0,-18.8672 -11.3672,-28.4766 -11.25,-9.6093 -25.3125,-9.6093 -15.1172,0 -25.4297,11.3672 -10.3125,11.25 -10.3125,27.7734 z"
         id="path1889"
         style="stroke:#000000;stroke-opacity:0.89119172" />
      <path
         d="m 2873.9941,2151.6419 h -95.3906 q 2.1094,15.7031 12.4219,25.4297 10.3125,9.7265 26.3672,9.7265 23.3203,0 36.914,-18.75 l 19.6875,8.6719 q -9.6093,14.8828 -24.9609,22.1484 -15.3516,7.1485 -32.1094,7.1485 -26.0156,0 -44.5312,-16.1719 -18.3985,-16.2891 -18.3985,-43.8281 0,-26.1328 17.9297,-43.0078 18.0469,-16.875 41.3672,-16.875 22.8516,0 41.3672,16.5234 18.6328,16.4063 19.3359,48.9844 z m -22.9687,-16.1719 q -2.3438,-11.9531 -12.4219,-21.5625 -10.0781,-9.7266 -24.7265,-9.7266 -13.3594,0 -22.8516,8.7891 -9.4922,8.6719 -11.6016,22.5 z"
         id="path1891"
         style="stroke:#000000;stroke-opacity:0.89119172" />
      <path
         d="m 2892.7441,2202.7356 v -38.9062 h 19.9219 v 3.75 q 1.0547,7.9687 8.5547,13.125 7.6172,5.1562 17.9297,5.1562 10.7812,0 17.2266,-3.75 6.4453,-3.75 6.4453,-10.4297 0,-6.4453 -5.3907,-9.4921 -5.2734,-3.0469 -21.0937,-5.625 -23.4375,-3.9844 -33.5156,-12.7735 -9.961,-8.9062 -9.961,-22.9687 0,-14.1797 10.8985,-23.6719 10.8984,-9.6094 28.7109,-9.6094 16.0547,0 27.6563,6.5625 v -4.8047 h 19.8046 v 37.6172 h -19.8046 v -6.914 q -9.0235,-13.9454 -26.25,-13.9454 -8.7891,0 -14.5313,3.8672 -5.625,3.75 -5.625,10.0782 0,6.4453 5.1563,8.9062 5.2734,2.3438 22.5,5.0391 16.5234,2.5781 24.9609,6.0937 8.4375,3.3985 13.9453,11.4844 5.625,7.9687 5.625,18.6328 0,15.8203 -12.1875,25.1953 -12.0703,9.2578 -31.4062,9.2578 -18.1641,0 -29.6485,-8.2031 v 6.3281 z"
         id="path1893"
         style="stroke:#000000;stroke-opacity:0.89119172" />
    </g>
    <g
       aria-label="cost"
       id="text455"
       style="font-size:63.5px;font-family:Rockwell;-inkscape-font-specification:Rockwell;fill:#ffffff;stroke-width:4;paint-order:stroke markers fill;stroke:#000000;stroke-opacity:0.89119172">
      <path
         d="m 292.28751,227.42578 v 11.34815 h -5.271 q -0.40308,-3.25562 -2.6665,-4.99195 -2.23243,-1.73633 -5.20899,-1.73633 -3.96875,0 -6.44922,2.82154 -2.48047,2.79052 -2.48047,7.34839 0,4.2478 2.35645,7.50341 2.35644,3.22461 6.82129,3.22461 6.20117,0 8.9917,-5.89111 l 4.86792,2.29443 q -4.03076,8.9607 -14.10767,8.9607 -7.13135,0 -11.22412,-4.86792 -4.09277,-4.86792 -4.09277,-11.22412 0,-6.79029 4.46484,-11.19312 4.46484,-4.43384 10.29395,-4.43384 4.99194,0 8.43359,2.94556 v -2.1084 z"
         id="path1896"
         style="stroke:#000000;stroke-opacity:0.89119172" />
      <path
         d="m 297.09341,242.43262 q 0,-6.94532 4.58887,-11.37915 4.58887,-4.46485 11.19312,-4.46485 6.48022,0 11.1311,4.40284 4.65088,4.37182 4.65088,11.44116 0,7.06933 -4.65088,11.47217 -4.61987,4.40283 -11.1311,4.40283 -6.69727,0 -11.25513,-4.46485 -4.52686,-4.46484 -4.52686,-11.41015 z m 6.23218,0 q 0,4.43384 2.75952,7.28637 2.79053,2.82154 6.79029,2.82154 4.06176,0 6.79028,-2.85254 2.75952,-2.88355 2.75952,-7.25537 0,-4.40283 -2.79053,-7.25537 -2.79052,-2.85254 -6.75927,-2.85254 -4.15479,0 -6.8523,2.91455 -2.69751,2.91455 -2.69751,7.19336 z"
         id="path1898"
         style="stroke:#000000;stroke-opacity:0.89119172" />
      <path
         d="m 333.68033,257.43945 v -10.29394 h 5.27099 v 0.99219 q 0.27906,2.10839 2.26343,3.47265 2.01538,1.36426 4.7439,1.36426 2.85254,0 4.55786,-0.99219 1.70532,-0.99219 1.70532,-2.75952 0,-1.70532 -1.42627,-2.51147 -1.39526,-0.80616 -5.58105,-1.48829 -6.20117,-1.05419 -8.86768,-3.37963 -2.6355,-2.35645 -2.6355,-6.07715 0,-3.75171 2.88355,-6.26319 2.88354,-2.54248 7.59643,-2.54248 4.24781,0 7.31739,1.73633 v -1.27124 h 5.23999 v 9.95288 h -5.23999 v -1.82934 q -2.38745,-3.6897 -6.94531,-3.6897 -2.32544,0 -3.84473,1.02319 -1.48828,0.99219 -1.48828,2.66651 0,1.70532 1.36426,2.35644 1.39526,0.62012 5.95312,1.33325 4.37183,0.68213 6.60425,1.61231 2.23242,0.89917 3.6897,3.03857 1.48828,2.1084 1.48828,4.92993 0,4.1858 -3.22461,6.66626 -3.19361,2.44947 -8.30957,2.44947 -4.80591,0 -7.84449,-2.17041 v 1.67431 z"
         id="path1900"
         style="stroke:#000000;stroke-opacity:0.89119172" />
      <path
         d="m 362.0817,232.66577 v -5.23999 h 3.90673 v -4.61987 l 5.89112,-5.39502 v 10.01489 h 5.55005 v 5.23999 h -5.55005 v 14.57276 q 0,3.50366 0.37207,4.34082 0.40307,0.80615 1.95337,0.80615 1.64331,0 3.22461,-0.62012 v 5.36401 q -2.26343,0.80616 -4.52686,0.80616 -2.69751,0 -4.37183,-1.17823 -1.67431,-1.20922 -2.10839,-3.00756 -0.43409,-1.79834 -0.43409,-6.20118 v -14.88281 z"
         id="path1902"
         style="stroke:#000000;stroke-opacity:0.89119172" />
    </g>
    <g
       aria-label="edges"
       id="text455-4"
       style="font-size:63.5px;font-family:Rockwell;-inkscape-font-specification:Rockwell;fill:#ffffff;stroke-width:4;paint-order:stroke markers fill;stroke:#000000;stroke-opacity:0.89119172">
      <path
         d="m 649.74976,510.55994 h -25.23877 q 0.5581,4.15478 3.28662,6.72827 2.72851,2.57348 6.97632,2.57348 6.17016,0 9.76684,-4.96093 l 5.20899,2.29443 q -2.54248,3.93774 -6.60425,5.86011 -4.06177,1.89136 -8.49561,1.89136 -6.8833,0 -11.78222,-4.27881 -4.86792,-4.30982 -4.86792,-11.59619 0,-6.91431 4.74389,-11.37916 4.7749,-4.46484 10.94507,-4.46484 6.04614,0 10.94507,4.37183 4.92993,4.34082 5.11597,12.96045 z m -6.07715,-4.27881 q -0.62012,-3.1626 -3.28662,-5.70508 -2.66651,-2.57349 -6.54224,-2.57349 -3.53467,0 -6.04614,2.32544 -2.51148,2.29444 -3.06958,5.95313 z"
         id="path1905"
         style="stroke:#000000;stroke-opacity:0.89119172" />
      <path
         d="m 691.63867,518.8385 v 5.23999 h -11.28613 v -4.40283 q -4.40283,4.89892 -10.72803,4.89892 -5.86011,0 -10.29394,-3.99975 -4.43384,-3.99976 -4.43384,-11.37915 0,-7.4104 4.55786,-11.68921 4.55786,-4.27881 10.29395,-4.27881 6.07714,0 10.604,4.83692 v -11.87525 h -5.76709 v -5.23999 h 11.6582 v 37.88916 z m -30.44775,-9.79785 q 0,4.96094 2.79053,7.62744 2.82153,2.6665 6.72827,2.6665 3.78271,0 6.69726,-2.79052 2.94556,-2.82154 2.94556,-7.78247 0,-4.99195 -3.00757,-7.53443 -2.97656,-2.54248 -6.69726,-2.54248 -3.99976,0 -6.72828,3.00757 -2.72851,2.97656 -2.72851,7.34839 z"
         id="path1907"
         style="stroke:#000000;stroke-opacity:0.89119172" />
      <path
         d="m 730.76807,494.06482 v 5.23999 h -5.39502 v 22.35522 q 0,4.52686 -0.46509,6.69727 -0.46509,2.20142 -2.26343,4.46484 -1.76733,2.29444 -5.33301,3.84473 -3.56567,1.55029 -7.9685,1.55029 -6.63526,0 -11.84424,-3.99975 l 3.84473,-4.27881 q 3.90673,3.03857 8.4956,3.03857 2.54248,0 4.71289,-0.99218 2.17041,-0.96119 3.22461,-2.35645 1.08521,-1.39526 1.39526,-2.6665 0.31006,-1.24024 0.31006,-4.2168 v -2.72852 q -1.39526,1.76734 -4.37182,3.34864 -2.97657,1.5813 -6.51123,1.5813 -6.44922,0 -10.51099,-4.46485 -4.06177,-4.46484 -4.06177,-10.97607 0,-7.13135 4.46485,-11.50318 4.49585,-4.40283 10.38696,-4.40283 5.95312,0 10.604,4.7439 v -4.27881 z m -30.47876,15.31689 q 0,4.55787 2.63549,7.44141 2.66651,2.88355 6.79029,2.88355 4.03076,0 6.94531,-2.88355 2.91455,-2.91455 2.91455,-7.47241 0,-4.61988 -2.91455,-7.4104 -2.91455,-2.82154 -6.75928,-2.82154 -3.84472,0 -6.72827,2.79053 -2.88354,2.75952 -2.88354,7.47241 z"
         id="path1909"
         style="stroke:#000000;stroke-opacity:0.89119172" />
      <path
         d="m 764.25439,510.55994 h -25.23877 q 0.55811,4.15478 3.28663,6.72827 2.72851,2.57348 6.97631,2.57348 6.17017,0 9.76685,-4.96093 l 5.20898,2.29443 q -2.54248,3.93774 -6.60424,5.86011 -4.06177,1.89136 -8.49561,1.89136 -6.8833,0 -11.78223,-4.27881 -4.86792,-4.30982 -4.86792,-11.59619 0,-6.91431 4.7439,-11.37916 4.7749,-4.46484 10.94507,-4.46484 6.04614,0 10.94507,4.37183 4.92993,4.34082 5.11596,12.96045 z m -6.07714,-4.27881 q -0.62012,-3.1626 -3.28663,-5.70508 -2.6665,-2.57349 -6.54223,-2.57349 -3.53467,0 -6.04614,2.32544 -2.51148,2.29444 -3.06958,5.95313 z"
         id="path1911"
         style="stroke:#000000;stroke-opacity:0.89119172" />
      <path
         d="m 769.21533,524.07849 v -10.29394 h 5.271 v 0.99218 q 0.27905,2.1084 2.26343,3.47266 2.01538,1.36426 4.74389,1.36426 2.85254,0 4.55786,-0.99219 1.70533,-0.99219 1.70533,-2.75952 0,-1.70532 -1.42627,-2.51148 -1.39527,-0.80615 -5.58106,-1.48828 -6.20117,-1.0542 -8.86767,-3.37964 -2.6355,-2.35644 -2.6355,-6.07714 0,-3.75171 2.88354,-6.26319 2.88355,-2.54248 7.59644,-2.54248 4.2478,0 7.31738,1.73633 v -1.27124 h 5.23999 v 9.95288 h -5.23999 v -1.82935 q -2.38745,-3.68969 -6.94531,-3.68969 -2.32544,0 -3.84473,1.02319 -1.48828,0.99219 -1.48828,2.6665 0,1.70533 1.36426,2.35645 1.39526,0.62012 5.95312,1.33325 4.37183,0.68213 6.60425,1.61231 2.23242,0.89917 3.6897,3.03857 1.48828,2.1084 1.48828,4.92993 0,4.18579 -3.22461,6.66626 -3.1936,2.44946 -8.30957,2.44946 -4.80591,0 -7.84448,-2.17041 v 1.67432 z"
         id="path1913"
         style="stroke:#000000;stroke-opacity:0.89119172" />
    </g>
    <path
       style="fill:#ff7f2a;stroke-width:9;paint-order:stroke markers fill;stroke:#ff7f2a;stroke-opacity:1;stroke-dasharray:none;stroke-linecap:round"
       d="M 232.52595,321.79932 C 406.9204,282.35293 406.9204,282.35293 406.9204,282.35293"
       id="path659" />
    <path
       style="fill:#ff7f2a;stroke:#ff7f2a;stroke-width:9;stroke-linecap:round;stroke-dasharray:none;stroke-opacity:1;paint-order:stroke markers fill"
       d="M 612.45675,586.5052 C 786.8512,547.05881 786.8512,547.05881 786.8512,547.05881"
       id="path659-1" />
  </g>
</svg>
