<?xml version="1.0" encoding="UTF-8" standalone="no"?>
<!-- Created with Inkscape (http://www.inkscape.org/) -->

<svg
   width="1600mm"
   height="900mm"
   viewBox="0 0 1600 900"
   version="1.1"
   id="svg19144"
   inkscape:version="1.2 (dc2aedaf03, 2022-05-15)"
   sodipodi:docname="numpy-languages.svg"
   xmlns:inkscape="http://www.inkscape.org/namespaces/inkscape"
   xmlns:sodipodi="http://sodipodi.sourceforge.net/DTD/sodipodi-0.dtd"
   xmlns="http://www.w3.org/2000/svg"
   xmlns:svg="http://www.w3.org/2000/svg">
  <sodipodi:namedview
     id="namedview19146"
     pagecolor="#000000"
     bordercolor="#000000"
     borderopacity="0.25"
     inkscape:showpageshadow="2"
     inkscape:pageopacity="0"
     inkscape:pagecheckerboard="0"
     inkscape:deskcolor="#d1d1d1"
     inkscape:document-units="mm"
     showgrid="false"
     inkscape:zoom="0.55523278"
     inkscape:cx="108.06278"
     inkscape:cy="278.26167"
     inkscape:window-width="1920"
     inkscape:window-height="1112"
     inkscape:window-x="2125"
     inkscape:window-y="-8"
     inkscape:window-maximized="1"
     inkscape:current-layer="layer1" />
  <defs
     id="defs19141" />
  <g
     inkscape:label="Layer 1"
     inkscape:groupmode="layer"
     id="layer1">
    <g
       id="g12572"
       transform="matrix(0.45740322,0,0,0.44691564,-267.8525,-82.37016)"
       style="stroke:none">
      <circle
         cx="588.23535"
         cy="185.29411"
         r="100"
         style="fill:#f9f9f9;stroke:none"
         id="circle9060" />
      <path
         d="m 653.33229,261.20512 1.9529,2.27732"
         style="fill:none;stroke:none;stroke-width:1;stroke-linecap:butt"
         id="path9062" />
      <path
         sodipodi:cx="588.23535"
         sodipodi:cy="185.29411"
         sodipodi:rx="100"
         sodipodi:ry="100"
         sodipodi:type="arc"
         sodipodi:start="0"
         sodipodi:end="1.7238783"
         d="m 688.23535,185.29411 a 100,100 0 0 1 -34.90333,75.91063 100,100 0 0 1 -80.34515,22.91995 l 15.24848,-98.83058 z"
         style="fill:#3b80ee;fill-opacity:1;stroke:none"
         id="path9066"
         sodipodi:arc-type="slice" />
      <path
         d="m 504.17729,131.12512 -2.52173,-1.62508"
         style="fill:none;stroke:none;stroke-width:1;stroke-linecap:butt"
         id="path9068" />
      <path
         sodipodi:cx="588.23535"
         sodipodi:cy="185.29411"
         sodipodi:rx="100"
         sodipodi:ry="100"
         sodipodi:type="arc"
         sodipodi:start="1.7238783"
         sodipodi:end="5.7042045"
         d="M 572.98687,284.12469 A 100,100 0 0 1 488.64856,194.37548 100,100 0 0 1 555.36222,90.851763 100,100 0 0 1 671.93743,130.577 l -83.70208,54.71711 z"
         style="fill:#980101;fill-opacity:1;stroke:none"
         id="path9072"
         sodipodi:arc-type="slice" />
      <path
         d="m 684.07429,156.74812 2.87517,-0.85639"
         style="fill:none;stroke:none;stroke-width:1;stroke-linecap:butt"
         id="path9074" />
      <path
         sodipodi:cx="588.23535"
         sodipodi:cy="185.29411"
         sodipodi:rx="100"
         sodipodi:ry="100"
         sodipodi:type="arc"
         sodipodi:start="5.7042045"
         sodipodi:end="6.283184"
         d="m 671.93743,130.577 a 100,100 0 0 1 16.29792,54.71698 l -100,1.3e-4 z"
         style="fill:#d40000;fill-opacity:1;stroke:none"
         id="path9078"
         sodipodi:arc-type="slice" />
    </g>
    <path
       id="path17053"
       style="fill:#000000;fill-opacity:0.160622;stroke-width:0.261175"
       d="m 46.964556,-18.407518 -29.374224,0.329882 c -4.640103,0.167115 -4.474391,7.854185 0,8.0213 h 24.194902 c 5.468699,0.111407 5.302986,9.08009196 0,8.8572777 H 9.635935 c -6.6287281,-0.055708 -6.6287281,9.2468454 0,9.3582615 h 25.055926 c 6.62872,-0.1671151 6.463007,9.6923538 0,9.5252468 H -0.47278995 c -6.13157235,-0.0557 -5.96585975,9.079739 0,9.358262 H 18.976086 c 5.634425,0.0557 6.628732,9.302674 0,9.191263 h -41.98676 c -1.772584,0.104258 -3.078237,0.772859 -3.917005,1.703226 6.2837,4.022205 13.409265,6.582545 20.8397158,7.488041 4.3883081,0.334221 7.6165776,0.167106 12.1706029,0 C 30.851705,42.391378 49.454509,21.599315 49.467357,-3.0651768 49.466481,-8.2784523 48.621293,-13.457994 46.964556,-18.407518 Z"
       sodipodi:nodetypes="ccccccccccccccccccc" />
  </g>
</svg>
