<?xml version="1.0" encoding="UTF-8" standalone="no"?>
<!-- Created with Inkscape (http://www.inkscape.org/) -->

<svg
   width="1600mm"
   height="900mm"
   viewBox="0 0 1600 900"
   version="1.1"
   id="svg19144"
   inkscape:version="1.2 (dc2aedaf03, 2022-05-15)"
   sodipodi:docname="orbit.svg"
   xmlns:inkscape="http://www.inkscape.org/namespaces/inkscape"
   xmlns:sodipodi="http://sodipodi.sourceforge.net/DTD/sodipodi-0.dtd"
   xmlns="http://www.w3.org/2000/svg"
   xmlns:svg="http://www.w3.org/2000/svg">
  <sodipodi:namedview
     id="namedview19146"
     pagecolor="#000000"
     bordercolor="#000000"
     borderopacity="0.25"
     inkscape:showpageshadow="2"
     inkscape:pageopacity="0"
     inkscape:pagecheckerboard="0"
     inkscape:deskcolor="#d1d1d1"
     inkscape:document-units="mm"
     showgrid="false"
     inkscape:zoom="0.24358203"
     inkscape:cx="3023.622"
     inkscape:cy="1057.1387"
     inkscape:window-width="1920"
     inkscape:window-height="1112"
     inkscape:window-x="-8"
     inkscape:window-y="-8"
     inkscape:window-maximized="1"
     inkscape:current-layer="layer1" />
  <defs
     id="defs19141" />
  <g
     inkscape:label="Layer 1"
     inkscape:groupmode="layer"
     id="layer1">
    <path
       id="orbit1"
       style="fill:none;stroke:#ffffff;stroke-width:0.304181;paint-order:stroke markers fill"
       d="M 1341.7056,449.88315 A 541.46175,166.60361 0 0 1 800.24386,616.48676 541.46175,166.60361 0 0 1 258.7821,449.88315 541.46175,166.60361 0 0 1 800.24386,283.27954 541.46175,166.60361 0 0 1 1341.7056,449.88315 Z" />
    <path
       id="orbit2"
       style="fill:none;stroke:#ffffff;stroke-width:0.377822;paint-order:stroke markers fill"
       d="M 1400.43,750.52109 A 672.54733,206.93763 26.466806 0 1 706.14282,636.02978 672.54733,206.93763 26.466806 0 1 196.3112,151.04034 672.54733,206.93763 26.466806 0 1 890.59844,265.53167 672.54733,206.93763 26.466806 0 1 1400.43,750.52109 Z" />
    <path
       id="orbit3"
       style="fill:none;stroke:#ffffff;stroke-width:0.377822;paint-order:stroke markers fill"
       d="M 619.44179,-197.52809 A 672.54733,206.93763 74.570857 0 1 997.85026,395.72569 672.54733,206.93763 74.570857 0 1 977.29945,1099.0896 672.54733,206.93763 74.570857 0 1 598.89098,505.83573 672.54733,206.93763 74.570857 0 1 619.44179,-197.52809 Z" />
    <path
       id="orbit4"
       style="fill:none;stroke:#ffffff;stroke-width:0.358492;paint-order:stroke markers fill"
       d="M 1333.3639,99.168818 A 196.35071,638.13984 56.660463 0 1 908.1581,613.92707 196.35071,638.13984 56.660463 0 1 267.12378,800.61142 196.35071,638.13984 56.660463 0 1 692.32961,285.85318 196.35071,638.13984 56.660463 0 1 1333.3639,99.168818 Z" />
  </g>
</svg>
