<?xml version="1.0" encoding="UTF-8" standalone="no"?>
<!-- Created with Inkscape (http://www.inkscape.org/) -->

<svg
   width="1600mm"
   height="900mm"
   viewBox="0 0 1600 900"
   version="1.1"
   id="svg19144"
   inkscape:version="1.2 (dc2aedaf03, 2022-05-15)"
   xml:space="preserve"
   sodipodi:docname="project-types.svg"
   xmlns:inkscape="http://www.inkscape.org/namespaces/inkscape"
   xmlns:sodipodi="http://sodipodi.sourceforge.net/DTD/sodipodi-0.dtd"
   xmlns:xlink="http://www.w3.org/1999/xlink"
   xmlns="http://www.w3.org/2000/svg"
   xmlns:svg="http://www.w3.org/2000/svg"><sodipodi:namedview
     id="namedview19146"
     pagecolor="#000000"
     bordercolor="#000000"
     borderopacity="0.25"
     inkscape:showpageshadow="2"
     inkscape:pageopacity="0"
     inkscape:pagecheckerboard="0"
     inkscape:deskcolor="#d1d1d1"
     inkscape:document-units="mm"
     showgrid="false"
     inkscape:zoom="0.25488194"
     inkscape:cx="3022.9681"
     inkscape:cy="1700.7874"
     inkscape:window-width="2134"
     inkscape:window-height="1112"
     inkscape:window-x="-8"
     inkscape:window-y="-8"
     inkscape:window-maximized="1"
     inkscape:current-layer="layer1" /><defs
     id="defs19141" /><g
     inkscape:label="Layer 1"
     inkscape:groupmode="layer"
     id="layer1"><rect
       style="fill:#ffe6d5;fill-opacity:0.81347156;stroke-width:0.264583"
       id="rect698"
       width="300"
       height="300"
       x="101.98962"
       y="126.72947"
       ry="14.532872" /><circle
       style="fill:#ff6600;fill-opacity:1;stroke:none;stroke-width:0.264583"
       id="path1531"
       cx="148.18338"
       cy="388.84021"
       r="5.7093425" /><use
       x="0"
       y="0"
       xlink:href="#path1531"
       id="use1585"
       transform="translate(30.103806,-17.647058)" /><circle
       style="fill:#4d4d4d;fill-opacity:1;stroke:none;stroke-width:0.264583"
       id="path1531-3"
       cx="254.58476"
       cy="395.58759"
       r="5.7093425" /><use
       x="0"
       y="0"
       xlink:href="#path1531-3"
       id="use1609"
       transform="translate(29.065744,-17.647059)" /><use
       x="0"
       y="0"
       xlink:href="#use1609"
       id="use1611"
       style="fill:#000000;fill-opacity:0"
       transform="translate(-57.093426,-1.038062)" /><use
       x="0"
       y="0"
       xlink:href="#use1611"
       id="use1958"
       style="fill:#7c7a7a;fill-opacity:0.952941"
       transform="translate(43.598616,-50.865052)" /><use
       x="0"
       y="0"
       xlink:href="#use1958"
       id="use3064"
       transform="translate(40.484429,-42.560554)" /><use
       x="0"
       y="0"
       xlink:href="#use1585"
       id="use3066"
       transform="translate(-18.685121,-25.951557)" /><use
       x="0"
       y="0"
       xlink:href="#use3066"
       id="use3068"
       transform="translate(43.598616,-6.228374)" /><use
       x="0"
       y="0"
       xlink:href="#use3068"
       id="use3070"
       transform="translate(-33.217993,-38.408304)" /><use
       x="0"
       y="0"
       xlink:href="#use1958"
       id="use3072"
       transform="translate(47.750865,19.723183)" /><use
       x="0"
       y="0"
       xlink:href="#use3072"
       id="use3074"
       transform="translate(34.256055,-22.83737)" /><use
       x="0"
       y="0"
       xlink:href="#use3074"
       id="use3076"
       transform="translate(18.685121,-40.484429)" /><use
       x="0"
       y="0"
       xlink:href="#use3072"
       id="use3078"
       transform="translate(31.141869,40.484429)" /><use
       x="0"
       y="0"
       xlink:href="#use1958"
       id="use3080"
       transform="translate(-30.103806,-29.065744)" /><use
       x="0"
       y="0"
       xlink:href="#use3080"
       id="use3082"
       transform="translate(34.256055,-29.065744)" /><use
       x="0"
       y="0"
       xlink:href="#use3082"
       id="use3084"
       transform="translate(65.397924,-16.608997)" /><use
       x="0"
       y="0"
       xlink:href="#use3084"
       id="use3086"
       transform="translate(-38.408304,-13.49481)" /><use
       x="0"
       y="0"
       xlink:href="#use3086"
       id="use3088"
       transform="translate(38.408304,13.49481)" /><use
       x="0"
       y="0"
       xlink:href="#use3086"
       id="use3090"
       transform="translate(72.66436,-21.799308)" /><use
       x="0"
       y="0"
       xlink:href="#use3090"
       id="use3092"
       transform="translate(-39.446367,-11.418685)" /><use
       x="0"
       y="0"
       xlink:href="#use3092"
       id="use3094"
       transform="translate(-73.702422,16.608997)" /><use
       x="0"
       y="0"
       xlink:href="#use3094"
       id="use3096"
       transform="translate(40.484429,-33.217993)" /><use
       x="0"
       y="0"
       xlink:href="#use3068"
       id="use3098"
       transform="translate(46.712803,10.380623)" /><use
       x="0"
       y="0"
       xlink:href="#use3068"
       id="use3100"
       transform="translate(6.2283737,-44.636678)" /><use
       x="0"
       y="0"
       xlink:href="#use3100"
       id="use3102"
       transform="translate(25.951557,-33.217993)" /><use
       x="0"
       y="0"
       xlink:href="#use3102"
       id="use3104"
       transform="translate(-55.017301,-1.038062)" /><use
       x="0"
       y="0"
       xlink:href="#use3104"
       id="use3106"
       transform="translate(-43.598616,12.456747)" /><use
       x="0"
       y="0"
       xlink:href="#use3106"
       id="use3108"
       transform="translate(15.570934,-33.217993)" /><use
       x="0"
       y="0"
       xlink:href="#use3094"
       id="use3110"
       transform="translate(-48.788927,3.114187)" /><use
       x="0"
       y="0"
       xlink:href="#use3110"
       id="use3112"
       transform="translate(-38.408304,-23.875433)" /><use
       x="0"
       y="0"
       xlink:href="#use3112"
       id="use3114"
       transform="translate(-41.522491,3.114187)" /><use
       x="0"
       y="0"
       xlink:href="#use3114"
       id="use3116"
       transform="translate(19.723183,-42.560554)" /><use
       x="0"
       y="0"
       xlink:href="#use3116"
       id="use3118"
       transform="translate(-19.723183,42.560554)" /><use
       x="0"
       y="0"
       xlink:href="#use3116"
       id="use3120"
       transform="translate(53.979239,9.342561)" /><use
       x="0"
       y="0"
       xlink:href="#use3120"
       id="use3122"
       transform="translate(35.294118,20.761245)" /><use
       x="0"
       y="0"
       xlink:href="#use3122"
       id="use3124"
       transform="translate(84.083045,-32.179931)" /><use
       x="0"
       y="0"
       xlink:href="#use3124"
       id="use3126"
       transform="translate(43.598616,14.532872)" /><use
       x="0"
       y="0"
       xlink:href="#use3122"
       id="use3128"
       transform="translate(24.913495,-37.370242)" /><g
       aria-label="federation"
       id="text3184"
       style="font-size:50.8px;font-family:Rockwell;-inkscape-font-specification:Rockwell;text-align:center;text-anchor:middle;fill:#ffffff;fill-opacity:0.952941;stroke-width:0.264583"
       transform="translate(0,-21.713433)"><path
         d="m 134.28365,492.00179 v -15.62695 h -3.49746 v -4.16719 h 3.49746 V 468.735 q 0,-4.39043 1.86036,-6.05235 1.86035,-1.68671 4.39042,-1.68671 5.45704,0 6.3252,5.53144 l -4.19199,0.64492 q -0.24805,-2.30683 -1.81074,-2.30683 -1.06661,0 -1.46348,0.74414 -0.39688,0.71933 -0.39688,3.12539 v 3.47265 h 4.11758 v 4.16719 h -4.11758 v 15.62695 h 4.56407 v 4.192 h -12.77442 v -4.192 z"
         id="path4184" /><path
         d="M 172.73092,485.37894 H 152.5399 q 0.44649,3.32383 2.6293,5.38262 2.18281,2.05879 5.58105,2.05879 4.93614,0 7.81348,-3.96875 l 4.16719,1.83555 q -2.03399,3.15019 -5.2834,4.68808 -3.24941,1.51309 -6.79648,1.51309 -5.50664,0 -9.42579,-3.42305 -3.89433,-3.44785 -3.89433,-9.27695 0,-5.53145 3.79512,-9.10332 3.81992,-3.57188 8.75605,-3.57188 4.83691,0 8.75606,3.49746 3.94394,3.47266 4.09277,10.36836 z m -4.86172,-3.42304 q -0.49609,-2.53008 -2.6293,-4.56407 -2.1332,-2.05879 -5.23379,-2.05879 -2.82773,0 -4.83691,1.86036 -2.00918,1.83554 -2.45566,4.7625 z"
         id="path4186" /><path
         d="m 206.24205,492.00179 v 4.192 h -9.02891 v -3.52227 q -3.52226,3.91914 -8.58242,3.91914 -4.68808,0 -8.23515,-3.1998 -3.54707,-3.19981 -3.54707,-9.10332 0,-5.92832 3.64629,-9.35137 3.64628,-3.42305 8.23515,-3.42305 4.86172,0 8.4832,3.86953 v -9.50019 h -4.61367 v -4.19199 h 9.32657 v 30.31132 z m -24.3582,-7.83828 q 0,3.96875 2.23242,6.10196 2.25723,2.1332 5.38262,2.1332 3.02617,0 5.35781,-2.23242 2.35644,-2.25723 2.35644,-6.22598 0,-3.99355 -2.40605,-6.02754 -2.38125,-2.03398 -5.35781,-2.03398 -3.19981,0 -5.38262,2.40605 -2.18281,2.38125 -2.18281,5.87871 z"
         id="path4188" /><path
         d="M 233.60162,485.37894 H 213.4106 q 0.44649,3.32383 2.6293,5.38262 2.18281,2.05879 5.58105,2.05879 4.93614,0 7.81348,-3.96875 l 4.16719,1.83555 q -2.03399,3.15019 -5.2834,4.68808 -3.24942,1.51309 -6.79649,1.51309 -5.50664,0 -9.42578,-3.42305 -3.89433,-3.44785 -3.89433,-9.27695 0,-5.53145 3.79511,-9.10332 3.81993,-3.57188 8.75606,-3.57188 4.83691,0 8.75605,3.49746 3.94395,3.47266 4.09278,10.36836 z m -4.86172,-3.42304 q -0.4961,-2.53008 -2.6293,-4.56407 -2.1332,-2.05879 -5.23379,-2.05879 -2.82773,0 -4.83691,1.86036 -2.00918,1.83554 -2.45567,4.7625 z"
         id="path4190" /><path
         d="m 241.4399,492.00179 v -15.62695 h -4.83691 v -4.19199 h 8.60722 v 5.40742 q 0.79375,-2.1084 2.20762,-3.49746 1.41387,-1.38906 2.97656,-1.83555 1.5875,-0.44648 4.31602,-0.44648 h 1.24023 v 4.7625 h -0.94258 q -3.59668,0 -5.38261,0.71934 -1.76114,0.71933 -2.6293,2.62929 -0.84336,1.88516 -0.84336,6.79649 v 5.28339 h 5.23379 v 4.192 h -14.78359 v -4.192 z"
         id="path4192" /><path
         d="m 281.72271,492.00179 v 4.192 h -8.23516 v -2.92696 q -3.42304,3.32383 -7.63984,3.32383 -3.27422,0 -5.70508,-2.1332 -2.40605,-2.1332 -2.40605,-5.45703 0,-3.34864 2.55488,-5.55625 2.57969,-2.20762 6.20117,-2.20762 3.37344,0 6.52363,2.03398 v -2.38125 q 0,-1.83554 -0.34726,-2.82773 -0.34727,-0.99219 -1.63711,-1.78594 -1.26504,-0.79375 -3.32383,-0.79375 -3.54707,0 -5.13457,2.82774 l -4.51445,-1.19063 q 3.00136,-5.60586 10.36836,-5.60586 2.70371,0 4.66328,0.74414 1.98437,0.71934 2.95175,1.88516 0.96739,1.14102 1.28985,2.48047 0.34726,1.33945 0.34726,4.2664 v 11.1125 z m -8.70645,-4.73769 q -3.05097,-2.38125 -6.17636,-2.38125 -1.95957,0 -3.27422,1.14101 -1.31465,1.14102 -1.31465,2.95176 0,1.68672 1.14101,2.82774 1.16582,1.14101 3.1502,1.14101 3.42305,0 6.47402,-2.87734 z"
         id="path4194" /><path
         d="m 283.90553,476.37484 v -4.19199 h 3.12539 v -3.6959 l 4.71289,-4.31601 v 8.01191 h 4.44004 v 4.19199 h -4.44004 v 11.6582 q 0,2.80293 0.29765,3.47266 0.32246,0.64492 1.5627,0.64492 1.31465,0 2.57969,-0.49609 v 4.29121 q -1.81075,0.64492 -3.62149,0.64492 -2.15801,0 -3.49746,-0.94258 -1.33945,-0.96738 -1.68672,-2.40605 -0.34726,-1.43867 -0.34726,-4.96094 v -11.90625 z"
         id="path4196" /><path
         d="m 302.40983,464.02211 q 0,-1.14102 0.79375,-1.98438 0.81855,-0.84336 2.05878,-0.84336 1.16582,0 2.00918,0.81856 0.84336,0.81855 0.84336,2.00918 0,1.19062 -0.84336,2.03398 -0.84336,0.81856 -2.00918,0.81856 -1.19062,0 -2.03398,-0.84336 -0.81855,-0.84336 -0.81855,-2.00918 z m 0.66972,27.97968 v -15.62695 h -3.74551 v -4.19199 h 8.4584 v 19.81894 h 3.6959 v 4.192 h -12.1543 v -4.192 z"
         id="path4198" /><path
         d="m 314.46491,484.18832 q 0,-5.55625 3.67109,-9.10332 3.67109,-3.57188 8.95449,-3.57188 5.18418,0 8.90488,3.52227 3.72071,3.49746 3.72071,9.15293 0,5.65547 -3.72071,9.17773 -3.69589,3.52227 -8.90488,3.52227 -5.35781,0 -9.0041,-3.57188 -3.62148,-3.57187 -3.62148,-9.12812 z m 4.98574,0 q 0,3.54707 2.20762,5.8291 2.23242,2.25723 5.43222,2.25723 3.24942,0 5.43223,-2.28204 2.20762,-2.30683 2.20762,-5.80429 0,-3.52227 -2.23243,-5.8043 -2.23242,-2.28203 -5.40742,-2.28203 -3.32383,0 -5.48183,2.33164 -2.15801,2.33164 -2.15801,5.75469 z"
         id="path4200" /><path
         d="m 351.94478,472.18285 v 2.90215 q 4.53926,-3.27422 8.28477,-3.27422 2.33164,0 3.84473,1.11621 1.53789,1.09141 2.00917,2.70371 0.47129,1.5875 0.47129,4.66328 v 11.70781 h 4.04317 v 4.192 h -8.75606 v -15.70137 q 0,-2.72852 -0.81855,-3.54707 -0.81856,-0.84336 -2.00918,-0.84336 -3.12539,0 -7.06934,3.05098 v 12.84882 h 4.14239 v 4.192 H 343.0151 v -4.192 h 4.21679 v -15.62695 h -4.21679 v -4.19199 z"
         id="path4202" /></g><rect
       style="fill:#ffe6d5;fill-opacity:0.81347156;stroke-width:0.264583"
       id="rect698-4"
       width="300"
       height="300"
       x="456.22839"
       y="126.72947"
       ry="14.532872" /><circle
       style="fill:#ff6600;fill-opacity:1;stroke:none;stroke-width:0.264583"
       id="path1531-6"
       cx="502.42215"
       cy="388.84021"
       r="5.7093425" /><use
       x="0"
       y="0"
       xlink:href="#path1531-6"
       id="use1585-0"
       transform="translate(63.321801,-173.35641)" /><circle
       style="fill:#4d4d4d;fill-opacity:1;stroke:none;stroke-width:0.264583"
       id="path1531-3-8"
       cx="608.82355"
       cy="395.58759"
       r="5.7093425" /><circle
       style="fill:#4d4d4d;fill-opacity:1;stroke:none;stroke-width:0.264583"
       id="use1611-1"
       cx="580.79584"
       cy="376.90247"
       r="5.7093425" /><use
       x="0"
       y="0"
       xlink:href="#use1611-1"
       id="use1958-8"
       style="fill:#7c7a7a;fill-opacity:0.952941"
       transform="translate(43.598618,-50.865054)" /><use
       x="0"
       y="0"
       xlink:href="#use1958-8"
       id="use3064-9"
       transform="translate(-84.083046,-32.179931)" /><use
       x="0"
       y="0"
       xlink:href="#use1585-0"
       id="use3066-0"
       transform="translate(1.0380609,116.26297)" /><use
       x="0"
       y="0"
       xlink:href="#use3066-0"
       id="use3068-3"
       transform="translate(8.3045005,-62.283737)" /><use
       x="0"
       y="0"
       xlink:href="#use3068-3"
       id="use3070-4"
       transform="translate(130.79585,86.159166)" /><use
       x="0"
       y="0"
       xlink:href="#use1958-8"
       id="use3072-6"
       transform="translate(47.750868,19.723176)" /><use
       x="0"
       y="0"
       xlink:href="#use3072-6"
       id="use3074-8"
       transform="translate(34.256058,-22.837374)" /><use
       x="0"
       y="0"
       xlink:href="#use3072-6"
       id="use3078-2"
       transform="translate(-185.81315,-19.723186)" /><use
       x="0"
       y="0"
       xlink:href="#use1958-8"
       id="use3080-3"
       transform="translate(-30.103812,-29.065744)" /><use
       x="0"
       y="0"
       xlink:href="#use3080-3"
       id="use3082-1"
       transform="translate(34.256058,-29.065744)" /><circle
       style="fill:#4d4d4d;fill-opacity:1;stroke:none;stroke-width:0.264583"
       id="use3086-8"
       cx="655.53632"
       cy="237.80211"
       r="5.7093425" /><use
       x="0"
       y="0"
       xlink:href="#use3086-8"
       id="use3090-6"
       transform="translate(72.664358,-21.799314)" /><circle
       style="fill:#4d4d4d;fill-opacity:1;stroke:none;stroke-width:0.264583"
       id="use3094-5"
       cx="615.05188"
       cy="221.1931"
       r="5.7093425" /><use
       x="0"
       y="0"
       xlink:href="#use3094-5"
       id="use3096-3"
       transform="translate(40.484428,-33.217994)" /><use
       x="0"
       y="0"
       xlink:href="#use3068-3"
       id="use3098-5"
       transform="translate(29.065739,79.930786)" /><use
       x="0"
       y="0"
       xlink:href="#use3068-3"
       id="use3100-6"
       transform="translate(119.37716,20.76124)" /><use
       x="0"
       y="0"
       xlink:href="#use3100-6"
       id="use3102-4"
       transform="translate(-8.3044978,-80.968861)" /><use
       x="0"
       y="0"
       xlink:href="#use3102-4"
       id="use3104-4"
       transform="translate(-97.577852,-56.055365)" /><use
       x="0"
       y="0"
       xlink:href="#use3104-4"
       id="use3106-4"
       transform="translate(-97.577861,119.37716)" /><use
       x="0"
       y="0"
       xlink:href="#use3106-4"
       id="use3108-6"
       transform="translate(15.570928,-33.217994)" /><circle
       style="fill:#4d4d4d;fill-opacity:1;stroke:none;stroke-width:0.264583"
       id="use3114-1"
       cx="486.33218"
       cy="203.54604"
       r="5.7093425" /><use
       x="0"
       y="0"
       xlink:href="#use3114-1"
       id="use3116-8"
       transform="translate(19.723178,-42.560554)" /><use
       x="0"
       y="0"
       xlink:href="#use3116-8"
       id="use3118-8"
       transform="translate(-19.723182,42.560546)" /><use
       x="0"
       y="0"
       xlink:href="#use3116-8"
       id="use3120-7"
       transform="translate(53.979238,9.342556)" /><circle
       style="fill:#4d4d4d;fill-opacity:1;stroke:none;stroke-width:0.264583"
       id="use3124-4"
       cx="679.41174"
       cy="158.90935"
       r="5.7093425" /><circle
       style="fill:#4d4d4d;fill-opacity:1;stroke:none;stroke-width:0.264583"
       id="use3128-8"
       cx="620.24219"
       cy="153.71904"
       r="5.7093425" /><g
       aria-label="club"
       id="text3184-5"
       style="font-size:50.8px;font-family:Rockwell;-inkscape-font-specification:Rockwell;text-align:center;text-anchor:middle;fill:#ffffff;fill-opacity:0.952941;stroke-width:0.264583"
       transform="translate(0,-22.232448)"><path
         d="m 578.59966,472.3546 v 9.07852 h -4.2168 q -0.32246,-2.60449 -2.1332,-3.99356 -1.78594,-1.38906 -4.16719,-1.38906 -3.175,0 -5.15937,2.25723 -1.98438,2.23242 -1.98438,5.87871 0,3.39824 1.88516,6.00273 1.88515,2.57969 5.45703,2.57969 4.96094,0 7.19336,-4.71289 l 3.89433,1.83555 q -3.22461,7.16855 -11.28613,7.16855 -5.70508,0 -8.9793,-3.89434 -3.27421,-3.89433 -3.27421,-8.97929 0,-5.43223 3.57187,-8.95449 3.57188,-3.54707 8.23516,-3.54707 3.99355,0 6.74687,2.35644 v -1.68672 z"
         id="path4205" /><path
         d="m 585.79302,492.17355 v -26.11934 h -4.26641 v -4.19199 h 8.9793 v 30.31133 h 3.67109 v 4.19199 h -12.65039 v -4.19199 z"
         id="path4207" /><path
         d="m 623.44653,492.17355 v 4.19199 h -8.85527 v -2.75332 q -4.14238,3.15019 -7.9375,3.15019 -2.40605,0 -3.99355,-1.04179 -1.5627,-1.0666 -2.0836,-2.72852 -0.5209,-1.68672 -0.5209,-5.40742 v -11.03809 h -3.39824 v -4.19199 h 8.11113 v 14.63477 q 0,2.6541 0.14883,3.57187 0.14883,0.91778 0.86817,1.51309 0.71933,0.59531 1.81074,0.59531 3.27422,0 6.99492,-3.12539 v -12.99766 h -4.2416 v -4.19199 h 8.95449 v 19.81895 z"
         id="path4209" /><path
         d="m 625.28208,496.36554 v -4.19199 h 4.2664 v -26.11934 h -4.2664 v -4.19199 h 8.88007 v 13.89062 q 3.54707,-4.06796 8.70645,-4.06796 4.96094,0 8.30957,3.42304 3.37344,3.39824 3.37344,8.9793 0,5.35781 -3.29903,9.02891 -3.27422,3.64628 -8.40879,3.64628 -2.87734,0 -5.25859,-1.24023 -2.38125,-1.24023 -3.42305,-2.75332 v 3.59668 z m 9.0289,-11.95586 q 0,3.74551 2.28203,5.95313 2.30684,2.18281 5.30821,2.18281 3.15019,0 5.43222,-2.33164 2.28203,-2.33164 2.28203,-6.25078 0,-3.79512 -2.28203,-5.87871 -2.25722,-2.1084 -5.3082,-2.1084 -3.00137,0 -5.35781,2.18281 -2.35645,2.15801 -2.35645,6.25078 z"
         id="path4211" /></g><rect
       style="fill:#ffe6d5;fill-opacity:0.81347156;stroke-width:0.264583"
       id="rect698-45"
       width="300"
       height="300"
       x="101.98962"
       y="490.13715"
       ry="14.532872" /><circle
       style="fill:#4d4d4d;fill-opacity:1;stroke:none;stroke-width:0.264583"
       id="use1958-2"
       cx="270.1557"
       cy="689.44507"
       r="5.7093425" /><use
       x="0"
       y="0"
       xlink:href="#use1958-2"
       id="use3080-0"
       transform="translate(-30.103809,-29.06574)" /><use
       x="0"
       y="0"
       xlink:href="#use3080-0"
       id="use3082-8"
       transform="translate(34.256051,-29.06574)" /><circle
       style="fill:#4d4d4d;fill-opacity:1;stroke:none;stroke-width:0.264583"
       id="use3086-2"
       cx="301.29755"
       cy="601.20978"
       r="5.7093425" /><circle
       style="fill:#ff6600;fill-opacity:1;stroke:none;stroke-width:0.264583"
       id="use3102-8"
       cx="235.38065"
       cy="624.56622"
       r="5.7093425" /><g
       aria-label="toy"
       id="text3184-4"
       style="font-size:50.8px;font-family:Rockwell;-inkscape-font-specification:Rockwell;text-align:center;text-anchor:middle;fill:#ffffff;fill-opacity:0.952941;stroke-width:0.264583"
       transform="translate(0,-24.325643)"><path
         d="m 219.01951,840.90646 v -4.19199 h 3.12539 v -3.6959 l 4.71289,-4.31602 v 8.01192 h 4.44004 v 4.19199 h -4.44004 v 11.6582 q 0,2.80293 0.29766,3.47266 0.32246,0.64492 1.5627,0.64492 1.31464,0 2.57968,-0.49609 v 4.29121 q -1.81074,0.64492 -3.62148,0.64492 -2.15801,0 -3.49746,-0.94258 -1.33945,-0.96738 -1.68672,-2.40605 -0.34727,-1.43868 -0.34727,-4.96094 v -11.90625 z"
         id="path4214" /><path
         d="m 234.74569,848.71993 q 0,-5.55625 3.67109,-9.10332 3.67109,-3.57187 8.95449,-3.57187 5.18418,0 8.90488,3.52226 3.72071,3.49747 3.72071,9.15293 0,5.65547 -3.72071,9.17774 -3.69589,3.52226 -8.90488,3.52226 -5.35781,0 -9.0041,-3.57187 -3.62148,-3.57188 -3.62148,-9.12813 z m 4.98574,0 q 0,3.54707 2.20761,5.82911 2.23243,2.25722 5.43223,2.25722 3.24942,0 5.43223,-2.28203 2.20761,-2.30683 2.20761,-5.8043 0,-3.52226 -2.23242,-5.80429 -2.23242,-2.28203 -5.40742,-2.28203 -3.32383,0 -5.48183,2.33164 -2.15801,2.33164 -2.15801,5.75468 z"
         id="path4216" /><path
         d="m 271.70467,860.30372 -7.88789,-19.39726 h -3.99356 v -4.19199 h 11.88145 v 4.19199 h -2.87734 l 5.18418,13.29531 5.08496,-13.29531 h -3.175 v -4.19199 h 11.63339 v 4.19199 h -3.57187 l -11.88145,30.58418 h -7.9623 v -4.11758 h 4.68809 z"
         id="path4218" /></g><g
       aria-label="stadium"
       id="text3184-7"
       style="font-size:50.8px;font-family:Rockwell;-inkscape-font-specification:Rockwell;text-align:center;text-anchor:middle;fill:#ffffff;fill-opacity:0.952941;stroke-width:0.264583"
       transform="translate(0,-15.577073)"><path
         d="m 516.09683,858.64929 v -8.23515 h 4.21679 v 0.79375 q 0.22325,1.68671 1.81075,2.77812 1.6123,1.09141 3.79511,1.09141 2.28203,0 3.64629,-0.79375 1.36426,-0.79375 1.36426,-2.20762 0,-1.36426 -1.14102,-2.00918 -1.11621,-0.64492 -4.46484,-1.19062 -4.96094,-0.84336 -7.09414,-2.70372 -2.1084,-1.88515 -2.1084,-4.86171 0,-3.00137 2.30684,-5.01055 2.30683,-2.03399 6.07715,-2.03399 3.39824,0 5.8539,1.38907 v -1.017 h 4.19199 v 7.96231 h -4.19199 v -1.46348 q -1.90996,-2.95175 -5.55625,-2.95175 -1.86035,0 -3.07578,0.81855 -1.19062,0.79375 -1.19062,2.1332 0,1.36426 1.0914,1.88516 1.11621,0.49609 4.7625,1.0666 3.49746,0.5457 5.2834,1.28984 1.78594,0.71934 2.95176,2.43086 1.19062,1.68672 1.19062,3.94395 0,3.34863 -2.57968,5.33301 -2.55489,1.95957 -6.64766,1.95957 -3.84473,0 -6.27559,-1.73633 v 1.33945 z"
         id="path4221" /><path
         d="m 538.81792,838.83035 v -4.192 h 3.12539 v -3.69589 l 4.71289,-4.31602 v 8.01191 h 4.44004 v 4.192 h -4.44004 v 11.6582 q 0,2.80293 0.29766,3.47266 0.32246,0.64492 1.56269,0.64492 1.31465,0 2.57969,-0.4961 v 4.29122 q -1.81074,0.64492 -3.62148,0.64492 -2.15801,0 -3.49746,-0.94258 -1.33946,-0.96738 -1.68672,-2.40606 -0.34727,-1.43867 -0.34727,-4.96093 v -11.90625 z"
         id="path4223" /><path
         d="m 578.9271,854.4573 v 4.19199 h -8.23516 v -2.92695 q -3.42304,3.32383 -7.63984,3.32383 -3.27422,0 -5.70508,-2.13321 -2.40605,-2.1332 -2.40605,-5.45703 0,-3.34863 2.55488,-5.55625 2.57969,-2.20761 6.20117,-2.20761 3.37344,0 6.52363,2.03398 v -2.38125 q 0,-1.83555 -0.34726,-2.82773 -0.34727,-0.99219 -1.63711,-1.78594 -1.26504,-0.79375 -3.32383,-0.79375 -3.54707,0 -5.13457,2.82773 l -4.51445,-1.19062 q 3.00136,-5.60586 10.36836,-5.60586 2.70371,0 4.66328,0.74414 1.98437,0.71933 2.95176,1.88516 0.96738,1.14101 1.28984,2.48046 0.34727,1.33946 0.34727,4.26641 v 11.1125 z m -8.70645,-4.7377 q -3.05097,-2.38125 -6.17636,-2.38125 -1.95957,0 -3.27422,1.14102 -1.31465,1.14102 -1.31465,2.95176 0,1.68672 1.14102,2.82773 1.16582,1.14102 3.15019,1.14102 3.42305,0 6.47402,-2.87735 z"
         id="path4225" /><path
         d="m 611.19799,854.4573 v 4.19199 h -9.0289 v -3.52226 q -3.52227,3.91914 -8.58242,3.91914 -4.68809,0 -8.23516,-3.19981 -3.54707,-3.1998 -3.54707,-9.10332 0,-5.92832 3.64629,-9.35136 3.64629,-3.42305 8.23516,-3.42305 4.86171,0 8.4832,3.86953 v -9.5002 h -4.61367 v -4.19199 h 9.32656 v 30.31133 z m -24.3582,-7.83828 q 0,3.96875 2.23242,6.10195 2.25723,2.1332 5.38262,2.1332 3.02617,0 5.35781,-2.23242 2.35645,-2.25722 2.35645,-6.22597 0,-3.99356 -2.40606,-6.02754 -2.38125,-2.03399 -5.35781,-2.03399 -3.1998,0 -5.38262,2.40606 -2.18281,2.38125 -2.18281,5.87871 z"
         id="path4227" /><path
         d="m 616.03491,826.47761 q 0,-1.14101 0.79375,-1.98437 0.81855,-0.84336 2.05879,-0.84336 1.16582,0 2.00918,0.81855 0.84336,0.81856 0.84336,2.00918 0,1.19063 -0.84336,2.03399 -0.84336,0.81855 -2.00918,0.81855 -1.19063,0 -2.03399,-0.84336 -0.81855,-0.84336 -0.81855,-2.00918 z m 0.66973,27.97969 v -15.62695 h -3.74551 v -4.192 h 8.4584 v 19.81895 h 3.69589 v 4.19199 h -12.15429 v -4.19199 z"
         id="path4229" /><path
         d="m 654.25893,854.4573 v 4.19199 h -8.85527 v -2.75332 q -4.14238,3.1502 -7.9375,3.1502 -2.40605,0 -3.99355,-1.0418 -1.5627,-1.0666 -2.0836,-2.72852 -0.52089,-1.68671 -0.52089,-5.40742 v -11.03808 h -3.39825 v -4.192 h 8.11114 v 14.63477 q 0,2.6541 0.14882,3.57188 0.14883,0.91777 0.86817,1.51308 0.71933,0.59531 1.81074,0.59531 3.27422,0 6.99492,-3.12539 v -12.99765 h -4.2416 v -4.192 h 8.95449 v 19.81895 z"
         id="path4231" /><path
         d="m 660.38569,854.4573 v -15.62695 h -3.99356 v -4.192 h 8.70645 v 3.02618 q 4.26641,-3.39825 8.35918,-3.39825 4.11758,0 5.68027,3.74551 4.68809,-3.74551 8.73125,-3.74551 2.33164,0 3.81992,1.0418 1.51309,1.01699 2.03399,2.60449 0.5209,1.5627 0.5209,4.63848 v 11.90625 h 4.19199 v 4.19199 h -8.90488 v -15.25488 q 0,-2.08359 -0.19844,-2.92695 -0.17363,-0.86817 -0.94258,-1.41387 -0.74414,-0.57051 -1.81074,-0.57051 -3.02617,0 -6.8709,3.10059 v 12.87363 h 4.11758 v 4.19199 h -8.83047 v -15.70136 q 0,-2.35645 -0.69453,-3.39825 -0.66973,-1.0666 -2.30684,-1.0666 -2.6789,0 -6.8957,3.10059 v 12.87363 h 4.2168 v 4.19199 h -13.2209 v -4.19199 z"
         id="path4233" /></g><rect
       style="fill:#ffe6d5;fill-opacity:0.81347156;stroke-width:0.264583"
       id="rect698-2"
       width="300"
       height="300"
       x="456.22836"
       y="490.13715"
       ry="14.532872" /><circle
       style="fill:#ff6600;fill-opacity:1;stroke:none;stroke-width:0.264583"
       id="path1531-1"
       cx="502.42215"
       cy="752.24792"
       r="5.7093425" /><circle
       style="fill:#4d4d4d;fill-opacity:1;stroke:none;stroke-width:0.264583"
       id="path1531-3-3"
       cx="608.82349"
       cy="758.9953"
       r="5.7093425" /><use
       x="0"
       y="0"
       xlink:href="#path1531-3-3"
       id="use1609-3"
       transform="translate(29.06574,-17.64706)" /><use
       x="0"
       y="0"
       xlink:href="#use1609-3"
       id="use1611-9"
       style="fill:#000000;fill-opacity:0"
       transform="translate(-57.093433,-1.03806)" /><use
       x="0"
       y="0"
       xlink:href="#use1611-9"
       id="use1958-0"
       style="fill:#7c7a7a;fill-opacity:0.952941"
       transform="translate(43.59862,-50.86505)" /><use
       x="0"
       y="0"
       xlink:href="#use1958-0"
       id="use3064-5"
       transform="translate(40.48443,-42.56055)" /><use
       x="0"
       y="0"
       xlink:href="#use1958-0"
       id="use3072-2"
       transform="translate(47.75086,19.72318)" /><use
       x="0"
       y="0"
       xlink:href="#use3072-2"
       id="use3074-89"
       transform="translate(34.25606,-22.83737)" /><use
       x="0"
       y="0"
       xlink:href="#use3074-89"
       id="use3076-3"
       transform="translate(18.68512,-40.48443)" /><use
       x="0"
       y="0"
       xlink:href="#use3072-2"
       id="use3078-0"
       transform="translate(31.14187,40.48443)" /><use
       x="0"
       y="0"
       xlink:href="#use1958-0"
       id="use3080-8"
       transform="translate(-30.103813,-29.06574)" /><use
       x="0"
       y="0"
       xlink:href="#use3080-8"
       id="use3082-2"
       transform="translate(34.25606,-29.06574)" /><use
       x="0"
       y="0"
       xlink:href="#use3082-2"
       id="use3084-8"
       transform="translate(65.39792,-16.609)" /><use
       x="0"
       y="0"
       xlink:href="#use3084-8"
       id="use3086-6"
       transform="translate(-38.408303,-13.49481)" /><use
       x="0"
       y="0"
       xlink:href="#use3086-6"
       id="use3088-2"
       transform="translate(38.4083,13.49481)" /><use
       x="0"
       y="0"
       xlink:href="#use3086-6"
       id="use3090-4"
       transform="translate(72.66436,-21.79931)" /><use
       x="0"
       y="0"
       xlink:href="#use3090-4"
       id="use3092-6"
       transform="translate(-39.446373,-11.41868)" /><use
       x="0"
       y="0"
       xlink:href="#use3092-6"
       id="use3094-0"
       transform="translate(-73.702423,16.609)" /><use
       x="0"
       y="0"
       xlink:href="#use3094-0"
       id="use3096-0"
       transform="translate(40.48443,-33.21799)" /><use
       x="0"
       y="0"
       xlink:href="#use3094-0"
       id="use3110-1"
       transform="translate(-48.788933,3.11419)" /><use
       x="0"
       y="0"
       xlink:href="#use3110-1"
       id="use3112-7"
       transform="translate(-38.408303,-23.87543)" /><use
       x="0"
       y="0"
       xlink:href="#use3112-7"
       id="use3114-12"
       transform="translate(-41.522493,3.11419)" /><use
       x="0"
       y="0"
       xlink:href="#use3114-12"
       id="use3116-2"
       transform="translate(19.72318,-42.56055)" /><use
       x="0"
       y="0"
       xlink:href="#use3116-2"
       id="use3118-3"
       transform="translate(-19.72318,42.56055)" /><use
       x="0"
       y="0"
       xlink:href="#use3116-2"
       id="use3120-79"
       transform="translate(53.97924,9.34256)" /><use
       x="0"
       y="0"
       xlink:href="#use3120-79"
       id="use3122-2"
       transform="translate(35.29412,20.76124)" /><use
       x="0"
       y="0"
       xlink:href="#use3122-2"
       id="use3124-8"
       transform="translate(84.08304,-32.17993)" /><use
       x="0"
       y="0"
       xlink:href="#use3124-8"
       id="use3126-9"
       transform="translate(43.59862,14.53287)" /><use
       x="0"
       y="0"
       xlink:href="#use3122-2"
       id="use3128-3"
       transform="translate(24.9135,-37.37024)" /><use
       x="0"
       y="0"
       xlink:href="#use1958-0"
       id="use4045"
       transform="translate(-68.512117,-51.90311)" /><use
       x="0"
       y="0"
       xlink:href="#use1958-0"
       id="use4047"
       transform="translate(-107.95848,-43.598612)" /><use
       x="0"
       y="0"
       xlink:href="#use1958-0"
       id="use4049"
       transform="translate(-99.653982,-80.968854)" /><use
       x="0"
       y="0"
       xlink:href="#use1958-0"
       id="use4051"
       transform="translate(-135.98616,-17.647055)" /><use
       x="0"
       y="0"
       xlink:href="#use1958-0"
       id="use4053"
       transform="translate(-91.349482)" /><use
       x="0"
       y="0"
       xlink:href="#use1958-0"
       id="use4055"
       transform="translate(-118.3391,23.875433)" /><use
       x="0"
       y="0"
       xlink:href="#use1958-0"
       id="use4057"
       transform="translate(-56.055363,17.647059)" /><use
       x="0"
       y="0"
       xlink:href="#use1958-0"
       id="use4059"
       transform="translate(-74.740484,59.16955)" /><g
       aria-label="contributors
users"
       id="text5673"
       style="font-size:35.2778px;font-family:Rockwell;-inkscape-font-specification:Rockwell;text-align:center;text-anchor:middle;fill:#ffffff;stroke-width:0.264583"><path
         d="m 859.31544,154.606 v 6.30453 h -2.92833 q -0.22393,-1.80868 -1.48139,-2.7733 -1.24024,-0.96463 -2.89389,-0.96463 -2.20486,0 -3.5829,1.56752 -1.37804,1.55029 -1.37804,4.08244 0,2.35989 1.30914,4.16857 1.30914,1.79145 3.78961,1.79145 3.4451,0 4.99539,-3.27285 l 2.7044,1.27469 q -2.23931,4.97817 -7.8376,4.97817 -3.96186,0 -6.23562,-2.7044 -2.27377,-2.70441 -2.27377,-6.23563 0,-3.77238 2.48047,-6.2184 2.48047,-2.46325 5.71887,-2.46325 2.7733,0 4.68533,1.63642 V 154.606 Z"
         style="text-align:start;text-anchor:start"
         id="path6492" /><path
         d="m 861.98539,162.94314 q 0,-3.85851 2.54937,-6.32176 2.54938,-2.48047 6.21841,-2.48047 3.60012,0 6.18395,2.44602 2.58382,2.4288 2.58382,6.35621 0,3.92741 -2.58382,6.37343 -2.5666,2.44602 -6.18395,2.44602 -3.72071,0 -6.25286,-2.48047 -2.51492,-2.48047 -2.51492,-6.33898 z m 3.46233,0 q 0,2.46324 1.53306,4.04799 1.5503,1.56752 3.77239,1.56752 2.25653,0 3.77238,-1.58475 1.53307,-1.60197 1.53307,-4.03076 0,-2.44602 -1.5503,-4.03077 -1.55029,-1.58474 -3.75515,-1.58474 -2.30822,0 -3.80684,1.61919 -1.49861,1.6192 -1.49861,3.99632 z"
         style="text-align:start;text-anchor:start"
         id="path6494" /><path
         d="m 888.01311,154.606 v 2.01538 q 3.15226,-2.27376 5.75331,-2.27376 1.6192,0 2.66995,0.77514 1.06798,0.75793 1.39527,1.87758 0.32728,1.10243 0.32728,3.23839 v 8.13044 h 2.80775 v 2.9111 h -6.08059 v -10.90373 q 0,-1.8948 -0.56844,-2.46325 -0.56845,-0.58566 -1.39527,-0.58566 -2.17041,0 -4.90926,2.11873 v 8.92281 h 2.87665 v 2.9111 h -9.07783 v -2.9111 h 2.92833 v -10.85206 h -2.92833 V 154.606 Z"
         style="text-align:start;text-anchor:start"
         id="path6496" /><path
         d="M 902.15523,157.51711 V 154.606 h 2.17042 v -2.5666 l 3.27284,-2.99723 v 5.56383 h 3.08336 v 2.91111 h -3.08336 v 8.09598 q 0,1.94648 0.2067,2.41157 0.22394,0.44786 1.08521,0.44786 0.91295,0 1.79145,-0.34451 v 2.98001 q -1.25746,0.44786 -2.51492,0.44786 -1.49862,0 -2.42879,-0.65457 -0.93018,-0.67179 -1.17134,-1.67087 -0.24115,-0.99908 -0.24115,-3.4451 v -8.26823 z"
         style="text-align:start;text-anchor:start"
         id="path6498" /><path
         d="m 915.86672,168.36917 v -10.85206 h -3.35897 V 154.606 h 5.97725 v 3.75516 q 0.55121,-1.46417 1.53307,-2.4288 0.98185,-0.96462 2.06705,-1.27468 1.10244,-0.31006 2.99724,-0.31006 h 0.86127 v 3.30729 h -0.65457 q -2.49769,0 -3.73793,0.49954 -1.22301,0.49954 -1.8259,1.8259 -0.58566,1.30914 -0.58566,4.71979 v 3.66903 h 3.63457 v 2.9111 h -10.26639 v -2.9111 z"
         style="text-align:start;text-anchor:start"
         id="path6500" /><path
         d="m 930.42226,148.93881 q 0,-0.79237 0.55121,-1.37803 0.56844,-0.58567 1.42972,-0.58567 0.8096,0 1.39526,0.56844 0.58567,0.56844 0.58567,1.39526 0,0.82683 -0.58567,1.41249 -0.58566,0.56845 -1.39526,0.56845 -0.82683,0 -1.41249,-0.58567 -0.56844,-0.58567 -0.56844,-1.39527 z m 0.46509,19.43036 V 157.51711 H 928.2863 V 154.606 h 5.87389 v 13.76317 h 2.5666 v 2.9111 h -8.44049 v -2.9111 z"
         style="text-align:start;text-anchor:start"
         id="path6502" /><path
         d="m 938.38044,171.28027 v -2.9111 h 2.96278 v -18.13844 h -2.96278 v -2.91111 h 6.16673 v 9.64627 q 2.46324,-2.82498 6.04614,-2.82498 3.4451,0 5.77054,2.37712 2.34267,2.35989 2.34267,6.23563 0,3.7207 -2.29099,6.27007 -2.27377,2.53215 -5.83944,2.53215 -1.99816,0 -3.65181,-0.86127 -1.65364,-0.86128 -2.37711,-1.91203 v 2.49769 z m 6.27008,-8.30268 q 0,2.60105 1.58474,4.13412 1.60197,1.51584 3.68626,1.51584 2.18764,0 3.77238,-1.6192 1.58475,-1.61919 1.58475,-4.34082 0,-2.6355 -1.58475,-4.08244 -1.56752,-1.46417 -3.68625,-1.46417 -2.08429,0 -3.72071,1.51584 -1.63642,1.49862 -1.63642,4.34083 z"
         style="text-align:start;text-anchor:start"
         id="path6504" /><path
         d="m 979.41155,168.36917 v 2.9111 h -6.1495 v -1.91203 q -2.87665,2.18764 -5.51215,2.18764 -1.67088,0 -2.77331,-0.72347 -1.0852,-0.7407 -1.44694,-1.8948 -0.36173,-1.17134 -0.36173,-3.75516 v -7.66534 h -2.3599 V 154.606 h 5.63274 v 10.16304 q 0,1.84313 0.10335,2.48047 0.10335,0.63734 0.60289,1.05075 0.49954,0.41342 1.25746,0.41342 2.27377,0 4.85759,-2.17042 v -9.02615 h -2.94556 V 154.606 h 6.21841 v 13.76317 z"
         style="text-align:start;text-anchor:start"
         id="path6506" /><path
         d="M 980.82404,157.51711 V 154.606 h 2.17041 v -2.5666 l 3.27284,-2.99723 v 5.56383 h 3.08337 v 2.91111 h -3.08337 v 8.09598 q 0,1.94648 0.20671,2.41157 0.22393,0.44786 1.0852,0.44786 0.91296,0 1.79146,-0.34451 v 2.98001 q -1.25747,0.44786 -2.51493,0.44786 -1.49861,0 -2.42879,-0.65457 -0.93018,-0.67179 -1.17133,-1.67087 -0.24116,-0.99908 -0.24116,-3.4451 v -8.26823 z"
         style="text-align:start;text-anchor:start"
         id="path6508" /><path
         d="m 991.745,162.94314 q 0,-3.85851 2.54937,-6.32176 2.54938,-2.48047 6.21843,-2.48047 3.6001,0 6.1839,2.44602 2.5838,2.4288 2.5838,6.35621 0,3.92741 -2.5838,6.37343 -2.5666,2.44602 -6.1839,2.44602 -3.72073,0 -6.25288,-2.48047 -2.51492,-2.48047 -2.51492,-6.33898 z m 3.46232,0 q 0,2.46324 1.53307,4.04799 1.5503,1.56752 3.77241,1.56752 2.2565,0 3.7724,-1.58475 1.533,-1.60197 1.533,-4.03076 0,-2.44602 -1.5503,-4.03077 -1.5503,-1.58474 -3.7551,-1.58474 -2.30824,0 -3.80686,1.61919 -1.49862,1.6192 -1.49862,3.99632 z"
         style="text-align:start;text-anchor:start"
         id="path6510" /><path
         d="m 1014.7583,168.36917 v -10.85206 h -3.359 V 154.606 h 5.9772 v 3.75516 q 0.5513,-1.46417 1.5331,-2.4288 0.9819,-0.96462 2.0671,-1.27468 1.1024,-0.31006 2.9972,-0.31006 h 0.8613 v 3.30729 h -0.6546 q -2.4977,0 -3.7379,0.49954 -1.223,0.49954 -1.8259,1.8259 -0.5857,1.30914 -0.5857,4.71979 v 3.66903 h 3.6346 v 2.9111 h -10.2664 v -2.9111 z"
         style="text-align:start;text-anchor:start"
         id="path6512" /><path
         d="m 1026.7816,171.28027 v -5.71886 h 2.9284 v 0.55122 q 0.155,1.17133 1.2574,1.92925 1.1197,0.75792 2.6355,0.75792 1.5848,0 2.5322,-0.55121 0.9474,-0.55122 0.9474,-1.53307 0,-0.9474 -0.7924,-1.39527 -0.7751,-0.44786 -3.1006,-0.82682 -3.4451,-0.58567 -4.9265,-1.87758 -1.4641,-1.30913 -1.4641,-3.37619 0,-2.08429 1.6019,-3.47955 1.602,-1.41249 4.2203,-1.41249 2.3599,0 4.0652,0.96463 V 154.606 h 2.9111 v 5.52938 h -2.9111 v -1.0163 q -1.3264,-2.04984 -3.8585,-2.04984 -1.2919,0 -2.136,0.56845 -0.8268,0.55121 -0.8268,1.48139 0,0.9474 0.7579,1.30914 0.7752,0.34451 3.3073,0.74069 2.4288,0.37896 3.669,0.89573 1.2403,0.49954 2.0499,1.68809 0.8268,1.17134 0.8268,2.73886 0,2.32544 -1.7914,3.70348 -1.7743,1.36081 -4.6165,1.36081 -2.6699,0 -4.358,-1.20578 v 0.93017 z"
         style="text-align:start;text-anchor:start"
         id="path6514" /><path
         d="m 861.77869,212.46642 v 2.91111 h -6.1495 v -1.91203 q -2.87666,2.18763 -5.51216,2.18763 -1.67087,0 -2.7733,-0.72347 -1.08521,-0.74069 -1.44694,-1.8948 -0.36174,-1.17133 -0.36174,-3.75516 v -7.66534 h -2.35989 v -2.91111 h 5.63273 v 10.16304 q 0,1.84313 0.10336,2.48047 0.10335,0.63734 0.60289,1.05076 0.49954,0.41341 1.25746,0.41341 2.27376,0 4.85759,-2.17041 v -9.02616 h -2.94556 v -2.91111 h 6.2184 v 13.76317 z"
         style="text-align:start;text-anchor:start"
         id="path6516" /><path
         d="m 863.57014,215.37753 v -5.71887 h 2.92833 v 0.55122 q 0.15503,1.17133 1.25746,1.92925 1.11966,0.75792 2.6355,0.75792 1.58475,0 2.53215,-0.55121 0.9474,-0.55122 0.9474,-1.53307 0,-0.9474 -0.79237,-1.39526 -0.77515,-0.44787 -3.10059,-0.82683 -3.4451,-0.58566 -4.92649,-1.87758 -1.46417,-1.30913 -1.46417,-3.37619 0,-2.08429 1.60197,-3.47955 1.60197,-1.41249 4.22025,-1.41249 2.35989,0 4.06521,0.96463 v -0.70625 h 2.91111 v 5.52938 h -2.91111 v -1.0163 q -1.32636,-2.04983 -3.85851,-2.04983 -1.29191,0 -2.13596,0.56844 -0.82682,0.55121 -0.82682,1.48139 0,0.9474 0.75792,1.30914 0.77515,0.34451 3.30729,0.74069 2.4288,0.37896 3.66903,0.89573 1.24024,0.49954 2.04984,1.6881 0.82682,1.17133 0.82682,2.73885 0,2.32544 -1.79145,3.70348 -1.77423,1.36081 -4.61643,1.36081 -2.66995,0 -4.35805,-1.20578 v 0.93018 z"
         style="text-align:start;text-anchor:start"
         id="path6518" /><path
         d="m 897.19429,207.86721 h -14.02155 q 0.31006,2.30822 1.82591,3.73793 1.51584,1.42972 3.87573,1.42972 3.42787,0 5.42603,-2.75608 l 2.89388,1.27469 q -1.41249,2.18763 -3.66903,3.25561 -2.25654,1.05076 -4.71978,1.05076 -3.82406,0 -6.54569,-2.37712 -2.7044,-2.39434 -2.7044,-6.44233 0,-3.84129 2.6355,-6.32176 2.65273,-2.48047 6.0806,-2.48047 3.35897,0 6.0806,2.4288 2.73885,2.41157 2.8422,7.20025 z m -3.37619,-2.37712 q -0.34451,-1.757 -1.82591,-3.16949 -1.48139,-1.42971 -3.63457,-1.42971 -1.96371,0 -3.35897,1.29191 -1.39527,1.27469 -1.70533,3.30729 z"
         style="text-align:start;text-anchor:start"
         id="path6520" /><path
         d="m 902.63755,212.46642 v -10.85206 h -3.35897 v -2.91111 h 5.97724 v 3.75516 q 0.55122,-1.46417 1.53307,-2.4288 0.98185,-0.96462 2.06706,-1.27468 1.10243,-0.31006 2.99723,-0.31006 h 0.86128 v 3.30729 h -0.65457 q -2.4977,0 -3.73793,0.49954 -1.22301,0.49954 -1.8259,1.8259 -0.58567,1.30914 -0.58567,4.71979 v 3.66903 h 3.63458 v 2.91111 h -10.26639 v -2.91111 z"
         style="text-align:start;text-anchor:start"
         id="path6522" /><path
         d="m 914.66094,215.37753 v -5.71887 h 2.92833 v 0.55122 q 0.15503,1.17133 1.25746,1.92925 1.11966,0.75792 2.6355,0.75792 1.58475,0 2.53215,-0.55121 0.9474,-0.55122 0.9474,-1.53307 0,-0.9474 -0.79237,-1.39526 -0.77515,-0.44787 -3.10059,-0.82683 -3.4451,-0.58566 -4.92649,-1.87758 -1.46417,-1.30913 -1.46417,-3.37619 0,-2.08429 1.60197,-3.47955 1.60197,-1.41249 4.22025,-1.41249 2.35989,0 4.06521,0.96463 v -0.70625 h 2.91111 v 5.52938 h -2.91111 v -1.0163 q -1.32636,-2.04983 -3.85851,-2.04983 -1.29191,0 -2.13596,0.56844 -0.82682,0.55121 -0.82682,1.48139 0,0.9474 0.75792,1.30914 0.77515,0.34451 3.3073,0.74069 2.42879,0.37896 3.66903,0.89573 1.24023,0.49954 2.04983,1.6881 0.82682,1.17133 0.82682,2.73885 0,2.32544 -1.79145,3.70348 -1.77422,1.36081 -4.61643,1.36081 -2.66995,0 -4.35805,-1.20578 v 0.93018 z"
         style="text-align:start;text-anchor:start"
         id="path6524" /></g><use
       x="0"
       y="0"
       xlink:href="#use3100-6"
       id="use5737"
       transform="translate(-8.3044978,-80.968861)" /><use
       x="0"
       y="0"
       xlink:href="#use5737"
       id="use5756"
       transform="translate(128.46021,-47.750865)" /><circle
       style="fill:#4d4d4d;fill-opacity:1;stroke:#ffffff;stroke-width:4;stroke-dasharray:none;stroke-opacity:1;paint-order:stroke markers fill"
       id="use6488"
       cx="814.61938"
       cy="206.60962"
       r="5.7093425" /></g></svg>
