<?xml version="1.0" encoding="UTF-8" standalone="no"?>
<!-- Created with Inkscape (http://www.inkscape.org/) -->

<svg
   inkscape:version="1.2 (dc2aedaf03, 2022-05-15)"
   id="svg19144"
   version="1.1"
   viewBox="0 0 1600 900"
   height="900mm"
   width="1600mm"
   sodipodi:docname="second-best.svg"
   xmlns:inkscape="http://www.inkscape.org/namespaces/inkscape"
   xmlns:sodipodi="http://sodipodi.sourceforge.net/DTD/sodipodi-0.dtd"
   xmlns="http://www.w3.org/2000/svg"
   xmlns:svg="http://www.w3.org/2000/svg">
  <sodipodi:namedview
     id="namedview19146"
     pagecolor="#000000"
     bordercolor="#000000"
     borderopacity="0.25"
     inkscape:showpageshadow="2"
     inkscape:pageopacity="0"
     inkscape:pagecheckerboard="0"
     inkscape:deskcolor="#d1d1d1"
     inkscape:document-units="mm"
     showgrid="true"
     inkscape:zoom="0.2488737"
     inkscape:cx="2818.6988"
     inkscape:cy="1705.6844"
     inkscape:window-width="1904"
     inkscape:window-height="1096"
     inkscape:window-x="0"
     inkscape:window-y="0"
     inkscape:window-maximized="1"
     inkscape:current-layer="layer1">
    <inkscape:grid
       type="xygrid"
       id="grid34209"
       spacingx="50.000001"
       spacingy="50.000001"
       units="mm" />
  </sodipodi:namedview>
  <defs
     id="defs19141" />
  <g
     inkscape:label="Layer 1"
     inkscape:groupmode="layer"
     id="layer1">
    <path
       style="fill:none;stroke:#ffffff;stroke-width:5;stroke-linecap:butt;stroke-dasharray:none;stroke-opacity:1;paint-order:stroke markers fill"
       d="m 200.34602,199.30796 2.07612,501.38408 H 1396.1937"
       id="path34211"
       sodipodi:nodetypes="ccc" />
    <path
       style="fill:none;stroke:#d40000;stroke-width:4.99999;stroke-linecap:butt;stroke-dasharray:none;stroke-opacity:1;paint-order:stroke markers fill"
       d="m 281.72756,649.56811 c 0,0 33.66257,-414.06676 95.68107,-414.61795 49.44588,-0.43945 83.98673,416.74419 83.98673,416.74419 v 0"
       id="path36773"
       sodipodi:nodetypes="cscc" />
    <path
       style="fill:none;stroke:#aa0000;stroke-width:4.99999;stroke-linecap:butt;stroke-dasharray:none;stroke-opacity:1;paint-order:stroke markers fill"
       d="m 361.99349,649.65202 c 0,0 33.66257,-414.06676 95.68107,-414.61795 49.44588,-0.43945 83.98673,416.74419 83.98673,416.74419 v 0"
       id="path36773-6"
       sodipodi:nodetypes="cscc" />
    <path
       style="fill:none;stroke:#782121;stroke-width:4.99999;stroke-linecap:butt;stroke-dasharray:none;stroke-opacity:1;paint-order:stroke markers fill"
       d="m 462.99017,650.71515 c 0,0 33.66257,-414.06676 95.68107,-414.61795 49.44588,-0.43945 83.98673,416.74419 83.98673,416.74419 v 0"
       id="path36773-6-0"
       sodipodi:nodetypes="cscc" />
    <path
       style="fill:none;stroke:#800000;stroke-width:4.99999;stroke-linecap:butt;stroke-dasharray:none;stroke-opacity:1;paint-order:stroke markers fill"
       d="m 709.63469,656.03076 c 0,0 33.66257,-414.06676 95.68107,-414.61795 49.44588,-0.43945 83.98673,416.74419 83.98673,416.74419 v 0"
       id="path36773-6-5"
       sodipodi:nodetypes="cscc" />
    <path
       style="fill:none;stroke:#ff2a2a;stroke-width:4.99999;stroke-linecap:butt;stroke-dasharray:none;stroke-opacity:1;paint-order:stroke markers fill"
       d="m 1080.6646,654.96764 c 0,0 33.6626,-414.06676 95.6811,-414.61795 49.4458,-0.43945 83.9867,416.74419 83.9867,416.74419 v 0"
       id="path36773-6-5-6"
       sodipodi:nodetypes="cscc" />
    <path
       style="fill:none;stroke:#aa0000;stroke-width:4.99999;stroke-linecap:butt;stroke-dasharray:none;stroke-opacity:1;paint-order:stroke markers fill"
       d="m 1160.3988,656.03076 c 0,0 33.6626,-414.06676 95.6811,-414.61795 49.4458,-0.43945 83.9867,416.74419 83.9867,416.74419 v 0"
       id="path36773-6-5-6-7"
       sodipodi:nodetypes="cscc" />
    <g
       aria-label="Python"
       id="text36926"
       style="font-size:42.3333px;line-height:0.75;font-family:Rockwell;-inkscape-font-specification:Rockwell;fill:#ffffff;stroke-width:4.99999;paint-order:stroke markers fill">
      <path
         d="m 1427.9864,361.08313 v -21.55939 h -3.6173 v -3.59668 h 10.2733 q 4.5268,0 6.7799,0.64079 2.2531,0.64079 3.7621,2.91455 1.5296,2.25309 1.5296,5.333 0,2.4598 -1.0129,4.4235 -0.9922,1.94304 -2.4805,2.87321 -1.4676,0.93018 -3.3279,1.2609 -1.8397,0.31006 -5.5811,0.31006 h -1.9843 v 7.40006 h 3.7207 v 3.59668 h -11.6789 v -3.59668 z m 4.3409,-10.87271 h 2.4804 q 4.2375,0 5.8705,-1.19889 1.6329,-1.21957 1.6329,-4.27881 0,-1.94303 -0.8681,-3.22461 -0.8682,-1.28157 -2.1498,-1.63297 -1.2815,-0.3514 -4.2788,-0.3514 h -2.6871 z"
         style="stroke-width:5"
         id="path38960" />
      <path
         d="m 1458.0414,364.32841 -6.5732,-16.16438 h -3.328 v -3.49332 h 9.9012 v 3.49332 h -2.3977 l 4.3201,11.07942 4.2375,-11.07942 h -2.6459 v -3.49332 h 9.6945 v 3.49332 h -2.9765 l -9.9012,25.4868 h -6.6353 v -3.43131 h 3.9068 z"
         style="stroke-width:5"
         id="path38962" />
      <path
         d="m 1472.9036,348.16403 v -3.49332 h 2.6045 v -3.07991 l 3.9274,-3.59668 v 6.67659 h 3.7 v 3.49332 h -3.7 v 9.71517 q 0,2.33577 0.248,2.89387 0.2687,0.53744 1.3023,0.53744 1.0955,0 2.1497,-0.41341 v 3.576 q -1.509,0.53744 -3.0179,0.53744 -1.7983,0 -2.9146,-0.78548 -1.1162,-0.80615 -1.4056,-2.00505 -0.2893,-1.19889 -0.2893,-4.13411 v -9.92187 z"
         style="stroke-width:5"
         id="path38964" />
      <path
         d="m 1488.8819,361.18649 v -21.7661 h -3.6173 v -3.49333 h 7.5447 v 11.03808 q 3.5347,-2.85254 6.7179,-2.85254 1.9844,0 3.266,0.82683 1.2816,0.82682 1.7363,2.19108 0.4754,1.34358 0.4754,3.94807 v 10.10791 h 3.4107 v 3.49332 h -7.3381 v -12.23697 q 0,-2.27376 -0.1447,-3.03857 -0.1446,-0.76481 -0.8061,-1.26091 -0.6408,-0.49609 -1.5296,-0.49609 -2.2738,0 -5.7878,2.58382 v 10.9554 h 3.4727 v 3.49332 h -11.0174 v -3.49332 z"
         style="stroke-width:5"
         id="path38966" />
      <path
         d="m 1510.2759,354.67526 q 0,-4.63021 3.0593,-7.58609 3.0592,-2.97657 7.4621,-2.97657 4.3201,0 7.4207,2.93522 3.1006,2.91455 3.1006,7.62744 0,4.71289 -3.1006,7.64811 -3.0799,2.93522 -7.4207,2.93522 -4.4649,0 -7.5035,-2.97657 -3.0179,-2.97656 -3.0179,-7.60676 z m 4.1548,0 q 0,2.95589 1.8397,4.85758 1.8604,1.88102 4.5269,1.88102 2.7078,0 4.5268,-1.90169 1.8397,-1.92236 1.8397,-4.83691 0,-2.93522 -1.8604,-4.83691 -1.8603,-1.90169 -4.5061,-1.90169 -2.7699,0 -4.5682,1.94303 -1.7984,1.94303 -1.7984,4.79557 z"
         style="stroke-width:5"
         id="path38968" />
      <path
         d="m 1541.5092,344.67071 v 2.41846 q 3.7827,-2.72852 6.9039,-2.72852 1.943,0 3.204,0.93018 1.2815,0.9095 1.6743,2.25309 0.3927,1.32291 0.3927,3.88606 v 9.75651 h 3.3693 v 3.49332 h -7.2967 v -13.08446 q 0,-2.27376 -0.6821,-2.95589 -0.6822,-0.7028 -1.6743,-0.7028 -2.6045,0 -5.8911,2.54248 v 10.70735 h 3.4519 v 3.49332 h -10.8933 v -3.49332 h 3.5139 v -13.02246 h -3.5139 v -3.49332 z"
         style="stroke-width:5"
         id="path38970" />
    </g>
    <g
       aria-label="Things"
       id="text36926-9"
       style="font-size:42.3333px;line-height:0.75;font-family:Rockwell;-inkscape-font-specification:Rockwell;fill:#ffffff;stroke-width:4.99999;paint-order:stroke markers fill">
      <path
         d="m 741.19952,763.23767 v -21.55939 h -5.93245 v 7.33805 h -3.55534 v -10.93472 h 23.29572 v 10.93472 h -3.55534 v -7.33805 h -5.91178 v 21.55939 h 3.74137 v 3.59668 h -11.76154 v -3.59668 z"
         style="stroke-width:5"
         id="path38947" />
      <path
         d="m 760.60917,763.34103 v -21.7661 h -3.61735 v -3.49332 h 7.54476 v 11.03807 q 3.53466,-2.85253 6.71793,-2.85253 1.98437,0 3.26595,0.82682 1.28157,0.82682 1.73632,2.19108 0.47542,1.34358 0.47542,3.94807 v 10.10791 h 3.41065 v 3.49332 h -7.33805 v -12.23697 q 0,-2.27376 -0.14469,-3.03857 -0.1447,-0.76481 -0.80616,-1.26091 -0.64078,-0.49609 -1.52962,-0.49609 -2.27376,0 -5.78775,2.58382 v 10.9554 h 3.47265 v 3.49332 h -11.01741 v -3.49332 z"
         style="stroke-width:5"
         id="path38949" />
      <path
         d="m 784.3183,740.02464 q 0,-0.95085 0.66146,-1.65365 0.68212,-0.7028 1.71565,-0.7028 0.97152,0 1.67432,0.68213 0.7028,0.68213 0.7028,1.67432 0,0.99218 -0.7028,1.69498 -0.7028,0.68213 -1.67432,0.68213 -0.99218,0 -1.69498,-0.7028 -0.68213,-0.7028 -0.68213,-1.67431 z m 0.5581,23.31639 v -13.02245 h -3.12125 v -3.49333 h 7.04866 v 16.51578 h 3.07991 v 3.49332 h -10.12857 v -3.49332 z"
         style="stroke-width:5"
         id="path38951" />
      <path
         d="m 801.33017,746.82525 v 2.41846 q 3.78271,-2.72852 6.90396,-2.72852 1.94303,0 3.20394,0.93018 1.28157,0.9095 1.67431,2.25309 0.39274,1.32291 0.39274,3.88606 v 9.75651 h 3.3693 v 3.49332 h -7.2967 v -13.08446 q 0,-2.27376 -0.68213,-2.95589 -0.68213,-0.7028 -1.67432,-0.7028 -2.60449,0 -5.8911,2.54248 v 10.70735 h 3.45198 v 3.49332 h -10.89338 v -3.49332 h 3.51399 v -13.02245 h -3.51399 v -3.49333 z"
         style="stroke-width:5"
         id="path38953" />
      <path
         d="m 843.00201,746.82525 v 3.49333 h -3.59668 v 14.90347 q 0,3.0179 -0.31006,4.46484 -0.31005,1.46761 -1.50895,2.97656 -1.17822,1.52962 -3.55533,2.56315 -2.37712,1.03352 -5.31234,1.03352 -4.42349,0 -7.89615,-2.6665 l 2.56315,-2.85253 q 2.60449,2.02571 5.66373,2.02571 1.69499,0 3.14193,-0.66146 1.44694,-0.64078 2.14974,-1.57096 0.72347,-0.93017 0.93017,-1.77767 0.20671,-0.82682 0.20671,-2.81119 v -1.81901 q -0.93018,1.17822 -2.91455,2.23242 -1.98438,1.0542 -4.34082,1.0542 -4.29947,0 -7.00732,-2.97656 -2.70784,-2.97656 -2.70784,-7.31738 0,-4.75423 2.97656,-7.66878 2.99723,-2.93522 6.92464,-2.93522 3.96874,0 7.06933,3.1626 v -2.85254 z m -20.31916,10.21126 q 0,3.03857 1.757,4.96093 1.77767,1.92236 4.52685,1.92236 2.68717,0 4.63021,-1.92236 1.94303,-1.94303 1.94303,-4.9816 0,-3.07992 -1.94303,-4.94027 -1.94304,-1.88102 -4.50619,-1.88102 -2.56314,0 -4.48551,1.86035 -1.92236,1.83968 -1.92236,4.98161 z"
         style="stroke-width:5"
         id="path38955" />
      <path
         d="m 845.21376,766.83435 v -6.86262 h 3.51399 v 0.66145 q 0.18604,1.4056 1.50895,2.31511 1.34359,0.9095 3.1626,0.9095 1.90169,0 3.03857,-0.66146 1.13688,-0.66146 1.13688,-1.83968 0,-1.13688 -0.95084,-1.67431 -0.93018,-0.53744 -3.7207,-0.99219 -4.13412,-0.7028 -5.91178,-2.25309 -1.757,-1.57096 -1.757,-4.05143 0,-2.50114 1.92236,-4.17545 1.92236,-1.69499 5.06429,-1.69499 2.83186,0 4.87825,1.15755 v -0.84749 h 3.49332 v 6.63525 h -3.49332 v -1.21956 q -1.59163,-2.4598 -4.63021,-2.4598 -1.55029,0 -2.56314,0.68213 -0.99219,0.66146 -0.99219,1.77767 0,1.13688 0.9095,1.57096 0.93018,0.41341 3.96875,0.88883 2.91455,0.45476 4.40283,1.07487 1.48828,0.59945 2.4598,2.02572 0.99218,1.40559 0.99218,3.28662 0,2.79052 -2.14974,4.44417 -2.12906,1.63297 -5.53971,1.63297 -3.20393,0 -5.22965,-1.44694 v 1.11621 z"
         style="stroke-width:5"
         id="path38957" />
    </g>
    <g
       aria-label="Best at"
       transform="rotate(-90)"
       id="text36926-9-4"
       style="font-size:42.3333px;line-height:0.75;font-family:Rockwell;-inkscape-font-specification:Rockwell;fill:#ffffff;stroke-width:4.99999;paint-order:stroke markers fill">
      <path
         d="M -490.49197,153.98839 V 132.429 h -3.53466 v -3.59668 h 9.57047 q 3.94807,0 5.91178,0.47543 1.98437,0.47542 3.49332,2.41845 1.50895,1.92236 1.50895,4.52685 0,2.00505 -0.9095,3.61735 -0.88884,1.6123 -2.62517,2.43913 2.39779,0.82682 3.67936,2.74918 1.30225,1.90169 1.30225,4.36149 0,2.12906 -0.97152,3.86539 -0.95084,1.73633 -2.54248,2.68717 -1.59163,0.95085 -3.49332,1.28158 -1.88102,0.33073 -5.14697,0.33073 h -9.77717 v -3.59668 z m 4.34082,-13.18781 h 2.70784 q 3.10059,0 4.32015,-1.07487 1.24023,-1.09554 1.24023,-3.20394 0,-4.09277 -5.56038,-4.09277 h -2.70784 z m 0,13.18781 h 1.63297 q 3.20394,0 4.69222,-0.31006 1.48828,-0.33073 2.41846,-1.50895 0.95084,-1.19889 0.95084,-3.05924 0,-1.69499 -0.9095,-2.83187 -0.88884,-1.15755 -2.31511,-1.52962 -1.40559,-0.39274 -3.98941,-0.39274 h -2.48047 z"
         style="stroke-width:5"
         id="path38872" />
      <path
         d="m -447.60056,148.5727 h -16.82583 q 0.37207,2.76986 2.19107,4.48552 1.81901,1.71565 4.65088,1.71565 4.11344,0 6.51123,-3.30729 l 3.47265,1.52962 q -1.69499,2.62516 -4.40283,3.90674 -2.70784,1.2609 -5.66373,1.2609 -4.58887,0 -7.85481,-2.85253 -3.24528,-2.87321 -3.24528,-7.73079 0,-4.60954 3.16259,-7.5861 3.18327,-2.97656 7.29671,-2.97656 4.03076,0 7.29671,2.91455 3.28662,2.89388 3.41064,8.64029 z m -4.05143,-2.85253 q -0.41341,-2.1084 -2.19108,-3.80338 -1.77767,-1.71566 -4.36149,-1.71566 -2.35644,0 -4.03076,1.55029 -1.67431,1.52962 -2.04638,3.96875 z"
         style="stroke-width:5"
         id="path38874" />
      <path
         d="m -444.29327,157.58507 v -6.86263 h 3.51399 v 0.66146 q 0.18604,1.4056 1.50895,2.3151 1.34359,0.90951 3.1626,0.90951 1.90169,0 3.03857,-0.66146 1.13688,-0.66146 1.13688,-1.83968 0,-1.13688 -0.95084,-1.67432 -0.93018,-0.53743 -3.7207,-0.99218 -4.13412,-0.7028 -5.91178,-2.25309 -1.757,-1.57096 -1.757,-4.05143 0,-2.50114 1.92236,-4.17545 1.92236,-1.69499 5.06429,-1.69499 2.83186,0 4.87825,1.15755 v -0.84749 h 3.49332 v 6.63525 h -3.49332 v -1.21957 q -1.59163,-2.45979 -4.63021,-2.45979 -1.55029,0 -2.56314,0.68213 -0.99219,0.66145 -0.99219,1.77766 0,1.13688 0.9095,1.57097 0.93018,0.41341 3.96875,0.88883 2.91455,0.45475 4.40283,1.07487 1.48828,0.59945 2.45979,2.02571 0.99219,1.4056 0.99219,3.28662 0,2.79053 -2.14974,4.44417 -2.12906,1.63298 -5.53971,1.63298 -3.20393,0 -5.22965,-1.44694 v 1.11621 z"
         style="stroke-width:5"
         id="path38876" />
      <path
         d="m -425.35904,141.06929 v -3.49332 h 2.60449 v -3.07991 l 3.9274,-3.59668 v 6.67659 h 3.70003 v 3.49332 h -3.70003 v 9.71516 q 0,2.33578 0.24805,2.89388 0.26872,0.53744 1.30225,0.53744 1.09553,0 2.14973,-0.41341 v 3.576 q -1.50895,0.53744 -3.0179,0.53744 -1.79834,0 -2.91455,-0.78548 -1.11621,-0.80616 -1.40559,-2.00505 -0.28939,-1.19889 -0.28939,-4.13411 v -9.92187 z"
         style="stroke-width:5"
         id="path38878" />
      <path
         d="m -381.35142,154.09174 v 3.49333 h -6.86263 v -2.43913 q -2.85253,2.76986 -6.36653,2.76986 -2.72851,0 -4.75423,-1.77767 -2.00504,-1.77767 -2.00504,-4.54752 0,-2.79053 2.12907,-4.63021 2.14974,-1.83968 5.16764,-1.83968 2.81119,0 5.43635,1.69499 v -1.98438 q 0,-1.52962 -0.28938,-2.35644 -0.28939,-0.82682 -1.36426,-1.48828 -1.0542,-0.66146 -2.76986,-0.66146 -2.95589,0 -4.2788,2.35645 l -3.76204,-0.99219 q 2.50113,-4.67155 8.64029,-4.67155 2.25309,0 3.88606,0.62012 1.65365,0.59945 2.4598,1.57096 0.80615,0.95085 1.07487,2.06706 0.28939,1.11621 0.28939,3.55533 v 9.26041 z m -7.25537,-3.94807 q -2.54248,-1.98438 -5.14697,-1.98438 -1.63297,0 -2.72851,0.95085 -1.09554,0.95084 -1.09554,2.4598 0,1.40559 0.95085,2.35644 0.97151,0.95084 2.62516,0.95084 2.85253,0 5.39501,-2.39778 z"
         style="stroke-width:5"
         id="path38880" />
      <path
         d="m -379.53241,141.06929 v -3.49332 h 2.60449 v -3.07991 l 3.9274,-3.59668 v 6.67659 h 3.70003 v 3.49332 h -3.70003 v 9.71516 q 0,2.33578 0.24805,2.89388 0.26872,0.53744 1.30224,0.53744 1.09554,0 2.14974,-0.41341 v 3.576 q -1.50895,0.53744 -3.0179,0.53744 -1.79834,0 -2.91455,-0.78548 -1.11621,-0.80616 -1.4056,-2.00505 -0.28938,-1.19889 -0.28938,-4.13411 v -9.92187 z"
         style="stroke-width:5"
         id="path38882" />
    </g>
  </g>
</svg>
