<?xml version="1.0" encoding="UTF-8" standalone="no"?>
<!-- Created with Inkscape (http://www.inkscape.org/) -->

<svg
   width="1600mm"
   height="900mm"
   viewBox="0 0 1600 900"
   version="1.1"
   id="svg19635"
   inkscape:version="1.2 (dc2aedaf03, 2022-05-15)"
   sodipodi:docname="title.svg"
   xmlns:inkscape="http://www.inkscape.org/namespaces/inkscape"
   xmlns:sodipodi="http://sodipodi.sourceforge.net/DTD/sodipodi-0.dtd"
   xmlns="http://www.w3.org/2000/svg"
   xmlns:svg="http://www.w3.org/2000/svg">
  <sodipodi:namedview
     id="namedview19637"
     pagecolor="#000000"
     bordercolor="#000000"
     borderopacity="0.25"
     inkscape:showpageshadow="2"
     inkscape:pageopacity="0"
     inkscape:pagecheckerboard="0"
     inkscape:deskcolor="#d1d1d1"
     inkscape:document-units="mm"
     showgrid="false"
     showguides="false"
     inkscape:zoom="0.25017824"
     inkscape:cx="2947.8983"
     inkscape:cy="2032.5509"
     inkscape:window-width="2134"
     inkscape:window-height="1112"
     inkscape:window-x="-8"
     inkscape:window-y="-8"
     inkscape:window-maximized="1"
     inkscape:current-layer="layer1" />
  <defs
     id="defs19632" />
  <g
     inkscape:label="Layer 1"
     inkscape:groupmode="layer"
     id="layer1">
    <g
       aria-label="MICHAEL DROETTBOOM
SCIPY 2023"
       transform="skewY(-27.587632)"
       id="text18784"
       style="font-size:63.5px;line-height:0.8;font-family:Haettenschweiler;-inkscape-font-specification:Haettenschweiler;fill:#b3b3b3;stroke-width:4.99999;stroke-linecap:round;paint-order:stroke markers fill">
      <path
         d="m 279.39951,891.77338 h -8.71265 v -24.95972 l -5.08496,24.95972 h -6.72827 l -5.8291,-24.95972 v 24.95972 h -7.62745 v -44.46241 h 12.55738 l 4.46484,23.06836 3.87573,-23.06836 h 13.08448 z"
         style="stroke-width:5"
         id="path20911" />
      <path
         d="m 291.15073,891.77338 h -9.76685 v -44.46241 h 9.76685 z"
         style="stroke-width:5"
         id="path20913" />
      <path
         d="m 314.49814,862.84491 h -8.89868 v -8.80566 q 0,-1.08521 -1.33326,-1.08521 -1.39526,0 -1.39526,1.08521 v 30.85083 q 0,1.0852 1.39526,1.0852 1.33326,0 1.33326,-1.0852 V 873.914 h 8.89868 v 11.28613 q 0,3.1626 -3.10059,5.08497 -3.10058,1.89135 -7.00732,1.89135 -11.28613,0 -11.28613,-7.99951 v -28.61841 q 0,-8.65063 11.28613,-8.65063 10.10791,0 10.10791,7.87549 z"
         style="stroke-width:5"
         id="path20915" />
      <path
         d="m 338.74472,891.77338 h -9.76685 v -21.33203 h -2.72851 v 21.33203 h -9.76685 v -44.46241 h 9.76685 v 17.73536 h 2.72851 v -17.73536 h 9.76685 z"
         style="stroke-width:5"
         id="path20917" />
      <path
         d="m 367.14609,891.77338 h -9.67383 l -1.64331,-11.93726 h -4.37183 l -1.64331,11.93726 h -9.67383 l 7.31739,-44.46241 h 12.37133 z m -12.12329,-18.10743 -1.39527,-13.2705 -1.33325,13.2705 z"
         style="stroke-width:5"
         id="path20919" />
      <path
         d="m 387.79599,891.77338 h -19.09961 v -44.46241 h 18.97559 v 5.73609 h -9.20874 v 11.99927 h 8.30957 v 5.39502 h -8.30957 v 15.62695 h 9.33276 z"
         style="stroke-width:5"
         id="path20921" />
      <path
         d="m 407.82578,891.77338 h -18.32447 v -44.46241 h 9.76685 v 38.75733 h 8.55762 z"
         style="stroke-width:5"
         id="path20923" />
      <path
         d="m 420.53818,891.77338 v -44.46241 h 12.15429 q 3.96875,0 7.06934,2.17041 3.10059,2.13941 3.10059,6.60425 v 26.91309 q 0,4.15478 -2.91455,6.48022 -2.88355,2.29444 -7.19336,2.29444 z m 12.49536,-8.06153 V 855.3725 q 0,-2.32544 -2.72852,-2.32544 v 33.02124 q 2.72852,0 2.72852,-2.35645 z"
         style="stroke-width:5"
         id="path20925" />
      <path
         d="m 469.03134,891.83539 h -9.76684 q -1.5813,-1.89136 -1.5813,-10.72803 v -0.062 l 0.062,-2.6665 q 0.093,-5.55005 0.093,-5.67408 0,-2.26342 -3.03858,-2.26342 v 21.33203 h -9.76684 v -44.46241 h 12.06128 q 4.12377,0 7.16235,1.89136 3.06958,1.89136 3.06958,5.98413 v 5.33301 q 0,5.17798 -6.04614,7.00732 6.07715,1.42627 6.07715,7.34839 l -0.15503,4.86792 q 0,10.66602 1.82934,12.09229 z m -11.19311,-29.14551 v -7.31738 q 0,-2.32544 -3.03858,-2.32544 v 11.99927 q 3.03858,0 3.03858,-2.35645 z"
         style="stroke-width:5"
         id="path20927" />
      <path
         d="m 470.27158,884.17694 v -28.61841 q 0,-8.65063 11.22412,-8.65063 11.06909,0 11.06909,8.58862 v 28.61841 q 0,3.87573 -3.10059,5.98413 -3.06958,2.07739 -8.03051,2.07739 -11.16211,0 -11.16211,-7.99951 z m 12.7434,0.46509 V 854.3493 q 0,-1.33325 -1.58129,-1.33325 -1.64332,0 -1.64332,1.33325 v 30.29273 q 0,1.33325 1.64332,1.33325 1.58129,0 1.58129,-1.33325 z"
         style="stroke-width:5"
         id="path20929" />
      <path
         d="m 513.71078,891.77338 h -19.0996 v -44.46241 h 18.97558 v 5.73609 h -9.20874 v 11.99927 h 8.30957 v 5.39502 h -8.30957 v 15.62695 h 9.33276 z"
         style="stroke-width:5"
         id="path20931" />
      <path
         d="m 535.69394,853.10907 h -5.45703 v 38.66431 h -9.76685 v -38.66431 h -5.45703 v -5.7981 h 20.68091 z"
         style="stroke-width:5"
         id="path20933" />
      <path
         d="m 557.92514,853.10907 h -5.45703 v 38.66431 h -9.76685 v -38.66431 h -5.45703 v -5.7981 h 20.68091 z"
         style="stroke-width:5"
         id="path20935" />
      <path
         d="m 559.72348,891.77338 v -44.46241 h 11.50317 q 4.12378,0 7.16236,1.89136 3.03857,1.86035 3.03857,5.98413 v 6.17017 q 0,4.68188 -5.70508,6.60425 6.01514,1.48828 6.01514,6.41821 v 8.61963 q 0,4.40283 -2.88354,6.60425 -2.85254,2.17041 -6.82129,2.17041 z m 12.49536,-28.83545 v -7.56543 q 0,-2.32544 -2.72851,-2.32544 v 12.24731 q 2.72851,0 2.72851,-2.35644 z m 0,20.77392 v -11.25512 q 0,-2.32544 -2.72851,-2.32544 v 15.93701 q 2.72851,0 2.72851,-2.35645 z"
         style="stroke-width:5"
         id="path20937" />
      <path
         d="m 583.75302,884.17694 v -28.61841 q 0,-8.65063 11.22412,-8.65063 11.06909,0 11.06909,8.58862 v 28.61841 q 0,3.87573 -3.10058,5.98413 -3.06958,2.07739 -8.03052,2.07739 -11.16211,0 -11.16211,-7.99951 z m 12.74341,0.46509 V 854.3493 q 0,-1.33325 -1.5813,-1.33325 -1.64331,0 -1.64331,1.33325 v 30.29273 q 0,1.33325 1.64331,1.33325 1.5813,0 1.5813,-1.33325 z"
         style="stroke-width:5"
         id="path20939" />
      <path
         d="m 607.9996,884.17694 v -28.61841 q 0,-8.65063 11.22412,-8.65063 11.0691,0 11.0691,8.58862 v 28.61841 q 0,3.87573 -3.10059,5.98413 -3.06958,2.07739 -8.03052,2.07739 -11.16211,0 -11.16211,-7.99951 z m 12.74341,0.46509 V 854.3493 q 0,-1.33325 -1.5813,-1.33325 -1.64331,0 -1.64331,1.33325 v 30.29273 q 0,1.33325 1.64331,1.33325 1.5813,0 1.5813,-1.33325 z"
         style="stroke-width:5"
         id="path20941" />
      <path
         d="m 666.35263,891.77338 h -8.71265 v -24.95972 l -5.08496,24.95972 h -6.72827 l -5.8291,-24.95972 v 24.95972 h -7.62744 v -44.46241 h 12.55737 l 4.46485,23.06836 3.87573,-23.06836 h 13.08447 z"
         style="stroke-width:5"
         id="path20943" />
      <path
         d="m 245.35507,924.77601 h 8.89868 v 10.20093 q 0,1.51929 1.82935,1.51929 1.76733,0 1.76733,-1.51929 v -5.27099 q 0,-2.41846 -3.22461,-5.67408 -6.23217,-6.04614 -7.75146,-8.12353 -1.51929,-2.07739 -1.51929,-4.55786 v -4.99195 q 0,-8.65063 11.28613,-8.65063 10.10791,0 10.10791,7.87549 v 7.68945 h -8.89868 v -8.18555 q 0,-1.33325 -1.45727,-1.33325 -1.70532,0 -1.70532,2.57349 l 0.18603,2.88354 q 0,2.48047 3.28662,5.76709 6.10816,5.86011 7.75147,8.18555 1.67431,2.32544 1.67431,5.271 v 5.67407 q 0,8.86767 -11.31714,8.86767 -10.91406,0 -10.91406,-8.06152 z"
         style="stroke-width:5"
         id="path20945" />
      <path
         d="m 291.05771,913.64491 h -8.89868 v -8.80566 q 0,-1.08521 -1.33325,-1.08521 -1.39527,0 -1.39527,1.08521 v 30.85083 q 0,1.0852 1.39527,1.0852 1.33325,0 1.33325,-1.0852 V 924.714 h 8.89868 v 11.28614 q 0,3.16259 -3.10059,5.08496 -3.10058,1.89135 -7.00732,1.89135 -11.28613,0 -11.28613,-7.99951 v -28.61841 q 0,-8.65063 11.28613,-8.65063 10.10791,0 10.10791,7.87549 z"
         style="stroke-width:5"
         id="path20947" />
      <path
         d="m 302.77792,942.57338 h -9.76684 v -44.46241 h 9.76684 z"
         style="stroke-width:5"
         id="path20949" />
      <path
         d="m 314.2811,926.20228 v 16.3711 h -9.5188 v -44.46241 h 10.26294 q 6.10815,0 9.05371,1.5503 2.97656,1.55029 2.97656,6.32519 v 12.34034 q 0,4.37182 -2.41846,6.20117 -2.41845,1.79834 -10.35595,1.67431 z m 3.25561,-8.71264 v -10.66602 q 0,-2.35644 -3.25561,-2.35644 v 15.3789 q 3.25561,0 3.25561,-2.35644 z"
         style="stroke-width:5"
         id="path20951" />
      <path
         d="m 355.48788,898.11097 -6.3872,17.92139 -3.19361,8.96069 v 17.58033 h -9.76684 v -17.23926 q -0.27905,-2.35645 -2.51148,-9.20874 -1.92236,-5.7981 -5.64306,-18.01441 h 9.33276 l 4.40283,15.75098 4.99195,-15.75098 z"
         style="stroke-width:5"
         id="path20953" />
      <path
         d="m 390.09042,942.57338 h -22.29321 v -5.89112 l 10.97607,-20.1538 q 1.79834,-3.28663 1.79834,-8.9917 0,-2.97657 -1.98437,-2.97657 -2.04639,0 -2.04639,1.86036 v 7.62744 h -8.74365 v -7.75147 q 0,-8.58862 11.03809,-8.58862 6.82129,0 9.0227,3.1626 2.23242,3.13159 2.23242,10.32495 0,2.82153 -0.96118,4.65088 l -10.97607,21.02197 h 11.93725 z"
         style="stroke-width:5"
         id="path20955" />
      <path
         d="m 391.79575,934.97694 v -28.61841 q 0,-8.65063 11.50317,-8.65063 11.28613,0 11.28613,8.58862 v 28.61841 q 0,3.84473 -3.1936,5.95312 -3.1626,2.1084 -8.15454,2.1084 -5.14697,0 -8.30957,-2.07739 -3.13159,-2.07739 -3.13159,-5.92212 z m 13.02246,0.46509 V 905.1493 q 0,-1.33325 -1.5813,-1.33325 -1.67432,0 -1.67432,1.33325 v 30.29273 q 0,1.33325 1.67432,1.33325 1.5813,0 1.5813,-1.33325 z"
         style="stroke-width:5"
         id="path20957" />
      <path
         d="m 438.61459,942.57338 h -22.29321 v -5.89112 l 10.97607,-20.1538 q 1.79834,-3.28663 1.79834,-8.9917 0,-2.97657 -1.98437,-2.97657 -2.04639,0 -2.04639,1.86036 v 7.62744 h -8.74365 v -7.75147 q 0,-8.58862 11.03809,-8.58862 6.82129,0 9.0227,3.1626 2.23242,3.13159 2.23242,10.32495 0,2.82153 -0.96118,4.65088 l -10.97607,21.02197 h 11.93725 z"
         style="stroke-width:5"
         id="path20959" />
      <path
         d="m 440.2269,923.93886 h 8.96069 v 10.54199 q 0,1.64331 1.76734,1.64331 1.76733,0 1.76733,-1.64331 V 924.1869 q 0,-1.76733 -0.89917,-2.38745 -0.86816,-0.65112 -3.28662,-0.65112 v -5.02295 q 4.18579,0 4.18579,-2.60449 v -7.87549 q 0,-1.33325 -1.76733,-1.33325 -1.82935,0 -1.82935,1.33325 v 8.18555 h -8.65063 v -8.24756 q 0,-7.87549 10.91406,-7.87549 4.37182,0 7.62744,1.89136 3.25561,1.89135 3.25561,5.98413 v 6.10815 q 0,5.33301 -5.08496,7.16235 5.20899,1.51929 5.20899,8.24756 v 6.60425 q 0,9.27075 -11.00708,9.27075 -11.16211,0 -11.16211,-8.43359 z"
         style="stroke-width:5"
         id="path20961" />
    </g>
    <g
       aria-label="OPEN SOURCE
CONTRIBUTORS
ACROSS SPACE AND TIME"
       transform="skewY(-27.764205)"
       id="text20048"
       style="font-size:172.253px;line-height:0;font-family:Haettenschweiler;-inkscape-font-specification:Haettenschweiler;fill:#b3b3b3;stroke-width:13.5632;stroke-linecap:round;paint-order:stroke markers fill">
      <path
         d="m 61.38487,592.76118 v -77.63161 q 0,-23.46611 30.447064,-23.46611 30.026526,0 30.026526,23.2979 v 77.6316 q 0,10.51349 -8.41079,16.23283 -8.32669,5.63523 -21.783951,5.63523 -30.278849,0 -30.278849,-21.69984 z m 34.568352,1.26161 v -82.17343 q 0,-3.61664 -4.289503,-3.61664 -4.45772,0 -4.45772,3.61664 v 82.17343 q 0,3.61665 4.45772,3.61665 4.289503,0 4.289503,-3.61665 z"
         style="line-height:0.75;fill:#ffffff"
         id="path20830" />
      <path
         d="m 153.23071,568.95864 v 44.40897 H 127.40958 V 492.75687 h 27.83972 q 16.56926,0 24.55951,4.20539 8.07436,4.2054 8.07436,17.15802 v 33.47495 q 0,11.85921 -6.56042,16.82158 -6.56042,4.87826 -28.09204,4.54183 z m 8.83133,-23.63433 v -28.93312 q 0,-6.3922 -8.83133,-6.3922 v 41.71752 q 8.83133,0 8.83133,-6.3922 z"
         style="line-height:0.75;fill:#ffffff"
         id="path20832" />
      <path
         d="M 244.4878,613.36761 H 192.67732 V 492.75687 h 51.47405 v 15.55996 h -24.98005 v 32.54976 h 22.54092 v 14.63478 h -22.54092 v 42.39039 h 25.31648 z"
         style="line-height:0.75;fill:#ffffff"
         id="path20834" />
      <path
         d="m 316.23184,613.36761 h -27.25096 l -17.99909,-64.25844 v 64.25844 H 248.86141 V 492.75687 h 30.11063 l 15.13942,55.00657 v -55.00657 h 22.12038 z"
         style="line-height:0.75;fill:#ffffff"
         id="path20836" />
      <path
         d="m 352.65056,565.08967 h 24.13897 v 27.67151 q 0,4.12128 4.96237,4.12128 4.79415,0 4.79415,-4.12128 v -14.29835 q 0,-6.56042 -8.74723,-15.39175 -16.90569,-16.40104 -21.02697,-22.03627 -4.12129,-5.63523 -4.12129,-12.36386 v -13.54138 q 0,-23.46611 30.61528,-23.46611 27.41918,0 27.41918,21.36341 v 20.85877 h -24.13897 v -22.20449 q 0,-3.61664 -3.95307,-3.61664 -4.62594,0 -4.62594,6.98095 l 0.50465,7.82204 q 0,6.72863 8.91544,15.64407 16.56926,15.8964 21.02698,22.20449 4.54182,6.30809 4.54182,14.29835 v 15.39174 q 0,24.05487 -30.69939,24.05487 -29.60598,0 -29.60598,-21.86806 z"
         style="line-height:0.75;fill:#ffffff"
         id="path20838" />
      <path
         d="m 418.42296,592.76118 v -77.63161 q 0,-23.46611 30.44706,-23.46611 30.02653,0 30.02653,23.2979 v 77.6316 q 0,10.51349 -8.4108,16.23283 -8.32668,5.63523 -21.78395,5.63523 -30.27884,0 -30.27884,-21.69984 z m 34.56835,1.26161 v -82.17343 q 0,-3.61664 -4.28951,-3.61664 -4.45771,0 -4.45771,3.61664 v 82.17343 q 0,3.61665 4.45771,3.61665 4.28951,0 4.28951,-3.61665 z"
         style="line-height:0.75;fill:#ffffff"
         id="path20840" />
      <path
         d="m 484.27943,492.75687 h 26.494 v 101.26592 q 0,3.61665 4.45772,3.61665 4.37361,0 4.37361,-3.61665 V 492.75687 h 26.49399 v 99.83609 q 0,10.42938 -8.66312,16.14872 -8.66311,5.71934 -22.20448,5.71934 -12.53208,0 -21.78395,-5.13059 -9.16777,-5.13058 -9.16777,-16.56925 z"
         style="line-height:0.75;fill:#ffffff"
         id="path20842" />
      <path
         d="m 617.25406,613.53583 h -26.49399 q -4.28951,-5.13058 -4.28951,-29.10134 v -0.16821 l 0.16822,-7.23328 q 0.25232,-15.05532 0.25232,-15.39175 0,-6.13988 -8.24257,-6.13988 v 57.86624 h -26.494 V 492.75687 h 32.71798 q 11.18635,0 19.42893,5.13058 8.32668,5.13058 8.32668,16.23283 v 14.46656 q 0,14.04602 -16.40104,19.00839 16.48515,3.86896 16.48515,19.93357 l -0.42054,13.20494 q 0,28.93313 4.96237,32.80209 z M 586.8911,534.47439 v -19.84947 q 0,-6.30809 -8.24257,-6.30809 v 32.54976 q 8.24257,0 8.24257,-6.3922 z"
         style="line-height:0.75;fill:#ffffff"
         id="path20844" />
      <path
         d="M 678.82107,534.89493 H 654.6821 v -23.88665 q 0,-2.94377 -3.61665,-2.94377 -3.78485,0 -3.78485,2.94377 v 83.68738 q 0,2.94378 3.78485,2.94378 3.61665,0 3.61665,-2.94378 v -29.7742 h 24.13897 v 30.61528 q 0,8.579 -8.4108,13.79369 -8.41079,5.13059 -19.00838,5.13059 -30.61528,0 -30.61528,-21.69984 v -77.63161 q 0,-23.46611 30.61528,-23.46611 27.41918,0 27.41918,21.36341 z"
         style="line-height:0.75;fill:#ffffff"
         id="path20846" />
      <path
         d="M 736.43497,613.36761 H 684.6245 V 492.75687 h 51.47404 v 15.55996 h -24.98005 v 32.54976 h 22.54092 v 14.63478 h -22.54092 v 42.39039 h 25.31648 z"
         style="line-height:0.75;fill:#ffffff"
         id="path20848" />
      <path
         d="M 119.58755,664.08469 H 95.448575 v -23.88665 q 0,-2.94378 -3.616641,-2.94378 -3.784856,0 -3.784856,2.94378 v 83.68737 q 0,2.94378 3.784856,2.94378 3.616641,0 3.616641,-2.94378 v -29.7742 h 24.138975 v 30.61528 q 0,8.57901 -8.4108,13.7937 -8.41079,5.13058 -19.008384,5.13058 -30.61528,0 -30.61528,-21.69984 v -77.6316 q 0,-23.46611 30.61528,-23.46611 27.419184,0 27.419184,21.36341 z"
         style="line-height:0.75;fill:#ffffff"
         id="path20850" />
      <path
         d="m 125.13867,721.95093 v -77.6316 q 0,-23.46611 30.44706,-23.46611 30.02653,0 30.02653,23.29789 v 77.6316 q 0,10.51349 -8.41079,16.23283 -8.32669,5.63523 -21.78395,5.63523 -30.27885,0 -30.27885,-21.69984 z m 34.56835,1.26162 v -82.17343 q 0,-3.61664 -4.2895,-3.61664 -4.45772,0 -4.45772,3.61664 v 82.17343 q 0,3.61664 4.45772,3.61664 4.2895,0 4.2895,-3.61664 z"
         style="line-height:0.75;fill:#ffffff"
         id="path20852" />
      <path
         d="m 258.53382,742.55737 h -27.25097 l -17.99909,-64.25845 v 64.25845 H 191.16338 V 621.94662 h 30.11063 l 15.13942,55.00658 v -55.00658 h 22.12039 z"
         style="line-height:0.75;fill:#ffffff"
         id="path20854" />
      <path
         d="m 319.59617,637.6748 h -14.803 V 742.55737 H 278.29918 V 637.6748 h -14.80299 v -15.72818 h 56.09998 z"
         style="line-height:0.75;fill:#ffffff"
         id="path20856" />
      <path
         d="m 390.07858,742.72559 h -26.49399 q -4.2895,-5.13059 -4.2895,-29.10134 v -0.16822 l 0.16821,-7.23328 q 0.25233,-15.05532 0.25233,-15.39175 0,-6.13987 -8.24258,-6.13987 v 57.86624 H 324.97906 V 621.94662 h 32.71798 q 11.18635,0 19.42892,5.13058 8.32669,5.13059 8.32669,16.23283 v 14.46656 q 0,14.04602 -16.40105,19.00839 16.48515,3.86897 16.48515,19.93358 l -0.42053,13.20494 q 0,28.93312 4.96236,32.80209 z m -30.36295,-79.06144 v -19.84947 q 0,-6.30809 -8.24258,-6.30809 v 32.54976 q 8.24258,0 8.24258,-6.3922 z"
         style="line-height:0.75;fill:#ffffff"
         id="path20858" />
      <path
         d="M 419.68458,742.55737 H 393.19059 V 621.94662 h 26.49399 z"
         style="line-height:0.75;fill:#ffffff"
         id="path20860" />
      <path
         d="M 424.89928,742.55737 V 621.94662 h 31.20403 q 11.18635,0 19.42893,5.13058 8.24257,5.04648 8.24257,16.23283 v 16.73748 q 0,12.70029 -15.47585,17.91498 16.31693,4.03718 16.31693,17.41034 v 23.382 q 0,11.94332 -7.82203,17.91499 -7.73793,5.88755 -18.50374,5.88755 z m 33.89548,-78.22036 v -20.52233 q 0,-6.30809 -7.40149,-6.30809 v 33.22262 q 7.40149,0 7.40149,-6.3922 z m 0,56.3523 v -30.53117 q 0,-6.30809 -7.40149,-6.30809 v 43.23146 q 7.40149,0 7.40149,-6.3922 z"
         style="line-height:0.75;fill:#ffffff"
         id="path20862" />
      <path
         d="M 490.16701,621.94662 H 516.661 v 101.26593 q 0,3.61664 4.45772,3.61664 4.37361,0 4.37361,-3.61664 V 621.94662 h 26.49399 v 99.83609 q 0,10.42939 -8.66311,16.14872 -8.66312,5.71934 -22.20449,5.71934 -12.53208,0 -21.78395,-5.13058 -9.16776,-5.13058 -9.16776,-16.56926 z"
         style="line-height:0.75;fill:#ffffff"
         id="path20864" />
      <path
         d="M 612.96454,637.6748 H 598.16155 V 742.55737 H 571.66756 V 637.6748 h -14.80299 v -15.72818 h 56.09997 z"
         style="line-height:0.75;fill:#ffffff"
         id="path20866" />
      <path
         d="m 617.75871,721.95093 v -77.6316 q 0,-23.46611 30.44706,-23.46611 30.02653,0 30.02653,23.29789 v 77.6316 q 0,10.51349 -8.41079,16.23283 -8.32669,5.63523 -21.78395,5.63523 -30.27885,0 -30.27885,-21.69984 z m 34.56835,1.26162 v -82.17343 q 0,-3.61664 -4.2895,-3.61664 -4.45772,0 -4.45772,3.61664 v 82.17343 q 0,3.61664 4.45772,3.61664 4.2895,0 4.2895,-3.61664 z"
         style="line-height:0.75;fill:#ffffff"
         id="path20868" />
      <path
         d="M 749.21939,742.72559 H 722.7254 q -4.28951,-5.13059 -4.28951,-29.10134 v -0.16822 l 0.16822,-7.23328 q 0.25232,-15.05532 0.25232,-15.39175 0,-6.13987 -8.24257,-6.13987 v 57.86624 H 684.11987 V 621.94662 h 32.71797 q 11.18636,0 19.42893,5.13058 8.32668,5.13059 8.32668,16.23283 v 14.46656 q 0,14.04602 -16.40104,19.00839 16.48515,3.86897 16.48515,19.93358 l -0.42054,13.20494 q 0,28.93312 4.96237,32.80209 z m -30.36296,-79.06144 v -19.84947 q 0,-6.30809 -8.24257,-6.30809 v 32.54976 q 8.24257,0 8.24257,-6.3922 z"
         style="line-height:0.75;fill:#ffffff"
         id="path20870" />
      <path
         d="m 752.75188,694.27943 h 24.13897 v 27.6715 q 0,4.12129 4.96237,4.12129 4.79415,0 4.79415,-4.12129 v -14.29834 q 0,-6.56042 -8.74723,-15.39175 -16.90569,-16.40105 -21.02698,-22.03628 -4.12128,-5.63523 -4.12128,-12.36386 v -13.54137 q 0,-23.46611 30.61528,-23.46611 27.41918,0 27.41918,21.36341 v 20.85876 H 786.64737 V 640.8709 q 0,-3.61664 -3.95308,-3.61664 -4.62593,0 -4.62593,6.98096 l 0.50465,7.82203 q 0,6.72864 8.91544,15.64408 16.56925,15.89639 21.02697,22.20449 4.54183,6.30809 4.54183,14.29834 v 15.39175 q 0,24.05486 -30.69939,24.05486 -29.60598,0 -29.60598,-21.86806 z"
         style="line-height:0.75;fill:#ffffff"
         id="path20872" />
      <path
         d="M 108.37344,829.91473 H 90.878897 l -2.97183,-21.58782 h -7.90619 l -2.97183,21.58782 H 59.534501 L 72.767555,749.5071 h 22.372834 z m -21.924252,-32.7462 -2.523252,-23.99893 -2.411108,23.99893 z"
         style="font-size:114.836px;line-height:0.75;fill:#ffffff"
         id="path20874" />
      <path
         d="m 149.81085,777.59931 h -16.09274 v -15.92452 q 0,-1.96253 -2.41111,-1.96253 -2.52325,0 -2.52325,1.96253 v 55.7919 q 0,1.96253 2.52325,1.96253 2.41111,0 2.41111,-1.96253 v -19.84958 h 16.09274 v 20.4103 q 0,5.71937 -5.60723,9.19585 -5.60723,3.42041 -12.67233,3.42041 -20.41031,0 -20.41031,-14.46664 v -51.7547 q 0,-15.64416 20.41031,-15.64416 18.27956,0 18.27956,14.24235 z"
         style="font-size:114.836px;line-height:0.75;fill:#ffffff"
         id="path20876" />
      <path
         d="m 197.30406,830.02688 h -17.66277 q -2.85968,-3.42041 -2.85968,-19.40101 v -0.11214 l 0.11214,-4.82222 q 0.16822,-10.03693 0.16822,-10.26122 0,-4.09328 -5.49508,-4.09328 v 38.57772 H 153.90412 V 749.5071 h 21.81211 q 7.45761,0 12.9527,3.42041 5.55115,3.42041 5.55115,10.82195 v 9.64443 q 0,9.36407 -10.93409,12.67233 10.99016,2.57933 10.99016,13.28913 l -0.28036,8.80334 q 0,19.28886 3.30827,21.86819 z m -20.24209,-52.70793 v -13.23306 q 0,-4.20542 -5.49508,-4.20542 v 21.69997 q 5.49508,0 5.49508,-4.26149 z"
         style="font-size:114.836px;line-height:0.75;fill:#ffffff"
         id="path20878" />
      <path
         d="m 199.54695,816.17703 v -51.7547 q 0,-15.64416 20.29816,-15.64416 20.0178,0 20.0178,15.53201 v 51.7547 q 0,7.00904 -5.60723,10.82195 -5.55115,3.75684 -14.52272,3.75684 -20.18601,0 -20.18601,-14.46664 z m 23.0457,0.84108 v -54.7826 q 0,-2.41111 -2.85969,-2.41111 -2.97183,0 -2.97183,2.41111 v 54.7826 q 0,2.41111 2.97183,2.41111 2.85969,0 2.85969,-2.41111 z"
         style="font-size:114.836px;line-height:0.75;fill:#ffffff"
         id="path20880" />
      <path
         d="m 243.5076,797.72925 h 16.09274 v 18.44778 q 0,2.74754 3.30827,2.74754 3.19612,0 3.19612,-2.74754 v -9.53229 q 0,-4.37363 -5.83152,-10.26122 -11.27052,-10.93409 -14.01807,-14.69094 -2.74754,-3.75684 -2.74754,-8.24262 v -9.02763 q 0,-15.64416 20.41031,-15.64416 18.27956,0 18.27956,14.24235 v 13.90592 h -16.09274 v -14.80308 q 0,-2.4111 -2.6354,-2.4111 -3.08397,0 -3.08397,4.65399 l 0.33643,5.21473 q 0,4.48578 5.94366,10.42944 11.04624,10.59765 14.01807,14.80307 3.0279,4.20542 3.0279,9.53229 V 814.607 q 0,16.03667 -20.46638,16.03667 -19.73744,0 -19.73744,-14.57879 z"
         style="font-size:114.836px;line-height:0.75;fill:#ffffff"
         id="path20882" />
      <path
         d="m 287.46825,797.72925 h 16.09274 v 18.44778 q 0,2.74754 3.30826,2.74754 3.19612,0 3.19612,-2.74754 v -9.53229 q 0,-4.37363 -5.83151,-10.26122 -11.27053,-10.93409 -14.01807,-14.69094 -2.74754,-3.75684 -2.74754,-8.24262 v -9.02763 q 0,-15.64416 20.41031,-15.64416 18.27955,0 18.27955,14.24235 v 13.90592 h -16.09274 v -14.80308 q 0,-2.4111 -2.63539,-2.4111 -3.08398,0 -3.08398,4.65399 l 0.33644,5.21473 q 0,4.48578 5.94366,10.42944 11.04623,10.59765 14.01806,14.80307 3.02791,4.20542 3.02791,9.53229 V 814.607 q 0,16.03667 -20.46638,16.03667 -19.73744,0 -19.73744,-14.57879 z"
         style="font-size:114.836px;line-height:0.75;fill:#ffffff"
         id="path20884" />
      <path
         d="m 351.89528,797.72925 h 16.09274 v 18.44778 q 0,2.74754 3.30827,2.74754 3.19612,0 3.19612,-2.74754 v -9.53229 q 0,-4.37363 -5.83152,-10.26122 -11.27052,-10.93409 -14.01807,-14.69094 -2.74754,-3.75684 -2.74754,-8.24262 v -9.02763 q 0,-15.64416 20.41031,-15.64416 18.27956,0 18.27956,14.24235 v 13.90592 h -16.09274 v -14.80308 q 0,-2.4111 -2.6354,-2.4111 -3.08397,0 -3.08397,4.65399 l 0.33643,5.21473 q 0,4.48578 5.94366,10.42944 11.04624,10.59765 14.01807,14.80307 3.0279,4.20542 3.0279,9.53229 V 814.607 q 0,16.03667 -20.46638,16.03667 -19.73744,0 -19.73744,-14.57879 z"
         style="font-size:114.836px;line-height:0.75;fill:#ffffff"
         id="path20886" />
      <path
         d="m 413.1262,800.30858 v 29.60615 H 395.91202 V 749.5071 h 18.55992 q 11.04623,0 16.3731,2.80362 5.38294,2.80361 5.38294,11.43874 v 22.31676 q 0,7.90619 -4.37364,11.21445 -4.37364,3.2522 -18.72814,3.02791 z m 5.88759,-15.75631 v -19.28886 q 0,-4.26149 -5.88759,-4.26149 v 27.81184 q 5.88759,0 5.88759,-4.26149 z"
         style="font-size:114.836px;line-height:0.75;fill:#ffffff"
         id="path20888" />
      <path
         d="m 487.1416,829.91473 h -17.49455 l -2.97183,-21.58782 h -7.90618 l -2.97183,21.58782 h -17.49455 l 13.23305,-80.40763 h 22.37284 z m -21.92425,-32.7462 -2.52326,-23.99893 -2.4111,23.99893 z"
         style="font-size:114.836px;line-height:0.75;fill:#ffffff"
         id="path20890" />
      <path
         d="m 528.57898,777.59931 h -16.09274 v -15.92452 q 0,-1.96253 -2.41111,-1.96253 -2.52325,0 -2.52325,1.96253 v 55.7919 q 0,1.96253 2.52325,1.96253 2.41111,0 2.41111,-1.96253 v -19.84958 h 16.09274 v 20.4103 q 0,5.71937 -5.60722,9.19585 -5.60723,3.42041 -12.67234,3.42041 -20.4103,0 -20.4103,-14.46664 v -51.7547 q 0,-15.64416 20.4103,-15.64416 18.27956,0 18.27956,14.24235 z"
         style="font-size:114.836px;line-height:0.75;fill:#ffffff"
         id="path20892" />
      <path
         d="M 566.98848,829.91473 H 532.44797 V 749.5071 h 34.31622 v 10.37337 h -16.65346 v 21.69997 h 15.02737 v 9.75657 h -15.02737 v 28.26043 h 16.87775 z"
         style="font-size:114.836px;line-height:0.75;fill:#ffffff"
         id="path20894" />
      <path
         d="m 638.0881,829.91473 h -17.49454 l -2.97183,-21.58782 h -7.90619 l -2.97183,21.58782 h -17.49455 l 13.23306,-80.40763 h 22.37283 z m -21.92425,-32.7462 -2.52325,-23.99893 -2.41111,23.99893 z"
         style="font-size:114.836px;line-height:0.75;fill:#ffffff"
         id="path20896" />
      <path
         d="M 685.80561,829.91473 H 667.6382 l -11.99947,-42.83921 v 42.83921 H 640.89172 V 749.5071 h 20.07388 l 10.093,36.67127 V 749.5071 h 14.74701 z"
         style="font-size:114.836px;line-height:0.75;fill:#ffffff"
         id="path20898" />
      <path
         d="M 689.45033,829.91473 V 749.5071 h 21.98033 q 7.17725,0 12.78448,3.92506 5.60722,3.86899 5.60722,11.9434 v 48.67072 q 0,7.51369 -5.27079,11.7191 -5.21472,4.14935 -13.00876,4.14935 z m 22.59713,-14.57879 v -51.25005 q 0,-4.20542 -4.93436,-4.20542 v 59.71697 q 4.93436,0 4.93436,-4.2615 z"
         style="font-size:114.836px;line-height:0.75;fill:#ffffff"
         id="path20900" />
      <path
         d="m 790.82898,759.99262 h -9.86872 v 69.92211 H 763.2975 v -69.92211 h -9.86872 V 749.5071 h 37.4002 z"
         style="font-size:114.836px;line-height:0.75;fill:#ffffff"
         id="path20902" />
      <path
         d="M 811.51963,829.91473 H 793.85687 V 749.5071 h 17.66276 z"
         style="font-size:114.836px;line-height:0.75;fill:#ffffff"
         id="path20904" />
      <path
         d="m 876.61955,829.91473 h -15.7563 v -45.13817 l -9.19586,45.13817 h -12.16768 l -10.54158,-45.13817 v 45.13817 H 815.16435 V 749.5071 h 22.70927 l 8.0744,41.71777 7.00904,-41.71777 h 23.66249 z"
         style="font-size:114.836px;line-height:0.75;fill:#ffffff"
         id="path20906" />
      <path
         d="M 915.08513,829.91473 H 880.54462 V 749.5071 h 34.31622 v 10.37337 h -16.65346 v 21.69997 h 15.02737 v 9.75657 h -15.02737 v 28.26043 h 16.87775 z"
         style="font-size:114.836px;line-height:0.75;fill:#ffffff"
         id="path20908" />
    </g>
  </g>
</svg>
