<?xml version="1.0" encoding="utf-8" standalone="no"?>
<!DOCTYPE svg PUBLIC "-//W3C//DTD SVG 1.1//EN"
  "http://www.w3.org/Graphics/SVG/1.1/DTD/svg11.dtd">
<!-- Created with matplotlib (http://matplotlib.org/) -->
<svg height="576pt" version="1.1" viewBox="0 0 576 576" width="576pt" xmlns="http://www.w3.org/2000/svg" xmlns:xlink="http://www.w3.org/1999/xlink">
 <defs>
  <style type="text/css">
*{stroke-linecap:butt;stroke-linejoin:round;}
  </style>
 </defs>
 <g id="figure_1">
  <g id="patch_1">
   <path d="M 0 576 
L 576 576 
L 576 0 
L 0 0 
z
" style="fill:#ffffff;"/>
  </g>
  <g id="axes_1">
   <g id="patch_2">
    <path d="M 130.415865 542.64351 
L 569.49976 542.64351 
L 569.49976 18.118365 
L 130.415865 18.118365 
z
" style="fill:#ffffff;"/>
   </g>
   <g id="patch_3">
    <path clip-path="url(#p26195f8637)" d="M 130.415865 41.960417 
L 548.591003 41.960417 
L 548.591003 53.246596 
L 130.415865 53.246596 
z
" style="fill:#1f77b4;"/>
   </g>
   <g id="patch_4">
    <path clip-path="url(#p26195f8637)" d="M 130.415865 56.06814 
L 487.406338 56.06814 
L 487.406338 67.354319 
L 130.415865 67.354319 
z
" style="fill:#1f77b4;"/>
   </g>
   <g id="patch_5">
    <path clip-path="url(#p26195f8637)" d="M 130.415865 70.175863 
L 462.682016 70.175863 
L 462.682016 81.462042 
L 130.415865 81.462042 
z
" style="fill:#1f77b4;"/>
   </g>
   <g id="patch_6">
    <path clip-path="url(#p26195f8637)" d="M 130.415865 84.283586 
L 434.224696 84.283586 
L 434.224696 95.569765 
L 130.415865 95.569765 
z
" style="fill:#1f77b4;"/>
   </g>
   <g id="patch_7">
    <path clip-path="url(#p26195f8637)" d="M 130.415865 98.391309 
L 415.973993 98.391309 
L 415.973993 109.677488 
L 130.415865 109.677488 
z
" style="fill:#1f77b4;"/>
   </g>
   <g id="patch_8">
    <path clip-path="url(#p26195f8637)" d="M 130.415865 112.499033 
L 384.528427 112.499033 
L 384.528427 123.785211 
L 130.415865 123.785211 
z
" style="fill:#1f77b4;"/>
   </g>
   <g id="patch_9">
    <path clip-path="url(#p26195f8637)" d="M 130.415865 126.606756 
L 383.388104 126.606756 
L 383.388104 137.892934 
L 130.415865 137.892934 
z
" style="fill:#1f77b4;"/>
   </g>
   <g id="patch_10">
    <path clip-path="url(#p26195f8637)" d="M 130.415865 140.714479 
L 378.122788 140.714479 
L 378.122788 152.000657 
L 130.415865 152.000657 
z
" style="fill:#1f77b4;"/>
   </g>
   <g id="patch_11">
    <path clip-path="url(#p26195f8637)" d="M 130.415865 154.822202 
L 373.469553 154.822202 
L 373.469553 166.10838 
L 130.415865 166.10838 
z
" style="fill:#1f77b4;"/>
   </g>
   <g id="patch_12">
    <path clip-path="url(#p26195f8637)" d="M 130.415865 168.929925 
L 356.714123 168.929925 
L 356.714123 180.216103 
L 130.415865 180.216103 
z
" style="fill:#1f77b4;"/>
   </g>
   <g id="patch_13">
    <path clip-path="url(#p26195f8637)" d="M 130.415865 183.037648 
L 350.735998 183.037648 
L 350.735998 194.323827 
L 130.415865 194.323827 
z
" style="fill:#1f77b4;"/>
   </g>
   <g id="patch_14">
    <path clip-path="url(#p26195f8637)" d="M 130.415865 197.145371 
L 322.672851 197.145371 
L 322.672851 208.43155 
L 130.415865 208.43155 
z
" style="fill:#1f77b4;"/>
   </g>
   <g id="patch_15">
    <path clip-path="url(#p26195f8637)" d="M 130.415865 211.253094 
L 282.136658 211.253094 
L 282.136658 222.539273 
L 130.415865 222.539273 
z
" style="fill:#1f77b4;"/>
   </g>
   <g id="patch_16">
    <path clip-path="url(#p26195f8637)" d="M 130.415865 225.360817 
L 209.98072 225.360817 
L 209.98072 236.646996 
L 130.415865 236.646996 
z
" style="fill:#1f77b4;"/>
   </g>
   <g id="patch_17">
    <path clip-path="url(#p26195f8637)" d="M 130.415865 239.46854 
L 207.861159 239.46854 
L 207.861159 250.754719 
L 130.415865 250.754719 
z
" style="fill:#1f77b4;"/>
   </g>
   <g id="patch_18">
    <path clip-path="url(#p26195f8637)" d="M 130.415865 253.576264 
L 207.205894 253.576264 
L 207.205894 264.862442 
L 130.415865 264.862442 
z
" style="fill:#1f77b4;"/>
   </g>
   <g id="patch_19">
    <path clip-path="url(#p26195f8637)" d="M 130.415865 267.683987 
L 206.90776 267.683987 
L 206.90776 278.970165 
L 130.415865 278.970165 
z
" style="fill:#1f77b4;"/>
   </g>
   <g id="patch_20">
    <path clip-path="url(#p26195f8637)" d="M 130.415865 281.79171 
L 199.815668 281.79171 
L 199.815668 293.077888 
L 130.415865 293.077888 
z
" style="fill:#1f77b4;"/>
   </g>
   <g id="patch_21">
    <path clip-path="url(#p26195f8637)" d="M 130.415865 295.899433 
L 197.431091 295.899433 
L 197.431091 307.185611 
L 130.415865 307.185611 
z
" style="fill:#1f77b4;"/>
   </g>
   <g id="patch_22">
    <path clip-path="url(#p26195f8637)" d="M 130.415865 310.007156 
L 196.640513 310.007156 
L 196.640513 321.293335 
L 130.415865 321.293335 
z
" style="fill:#1f77b4;"/>
   </g>
   <g id="patch_23">
    <path clip-path="url(#p26195f8637)" d="M 130.415865 324.114879 
L 181.489489 324.114879 
L 181.489489 335.401058 
L 130.415865 335.401058 
z
" style="fill:#1f77b4;"/>
   </g>
   <g id="patch_24">
    <path clip-path="url(#p26195f8637)" d="M 130.415865 338.222602 
L 165.370358 338.222602 
L 165.370358 349.508781 
L 130.415865 349.508781 
z
" style="fill:#1f77b4;"/>
   </g>
   <g id="patch_25">
    <path clip-path="url(#p26195f8637)" d="M 130.415865 352.330325 
L 164.452749 352.330325 
L 164.452749 363.616504 
L 130.415865 363.616504 
z
" style="fill:#1f77b4;"/>
   </g>
   <g id="patch_26">
    <path clip-path="url(#p26195f8637)" d="M 130.415865 366.438048 
L 164.101561 366.438048 
L 164.101561 377.724227 
L 130.415865 377.724227 
z
" style="fill:#1f77b4;"/>
   </g>
   <g id="patch_27">
    <path clip-path="url(#p26195f8637)" d="M 130.415865 380.545772 
L 159.35069 380.545772 
L 159.35069 391.83195 
L 130.415865 391.83195 
z
" style="fill:#1f77b4;"/>
   </g>
   <g id="patch_28">
    <path clip-path="url(#p26195f8637)" d="M 130.415865 394.653495 
L 156.374727 394.653495 
L 156.374727 405.939673 
L 130.415865 405.939673 
z
" style="fill:#1f77b4;"/>
   </g>
   <g id="patch_29">
    <path clip-path="url(#p26195f8637)" d="M 130.415865 408.761218 
L 149.780137 408.761218 
L 149.780137 420.047396 
L 130.415865 420.047396 
z
" style="fill:#1f77b4;"/>
   </g>
   <g id="patch_30">
    <path clip-path="url(#p26195f8637)" d="M 130.415865 422.868941 
L 147.267599 422.868941 
L 147.267599 434.155119 
L 130.415865 434.155119 
z
" style="fill:#1f77b4;"/>
   </g>
   <g id="patch_31">
    <path clip-path="url(#p26195f8637)" d="M 130.415865 436.976664 
L 146.549359 436.976664 
L 146.549359 448.262842 
L 130.415865 448.262842 
z
" style="fill:#1f77b4;"/>
   </g>
   <g id="patch_32">
    <path clip-path="url(#p26195f8637)" d="M 130.415865 451.084387 
L 146.10386 451.084387 
L 146.10386 462.370566 
L 130.415865 462.370566 
z
" style="fill:#1f77b4;"/>
   </g>
   <g id="patch_33">
    <path clip-path="url(#p26195f8637)" d="M 130.415865 465.19211 
L 143.660564 465.19211 
L 143.660564 476.478289 
L 130.415865 476.478289 
z
" style="fill:#1f77b4;"/>
   </g>
   <g id="patch_34">
    <path clip-path="url(#p26195f8637)" d="M 130.415865 479.299833 
L 143.217338 479.299833 
L 143.217338 490.586012 
L 130.415865 490.586012 
z
" style="fill:#1f77b4;"/>
   </g>
   <g id="patch_35">
    <path clip-path="url(#p26195f8637)" d="M 130.415865 493.407556 
L 142.097652 493.407556 
L 142.097652 504.693735 
L 130.415865 504.693735 
z
" style="fill:#1f77b4;"/>
   </g>
   <g id="patch_36">
    <path clip-path="url(#p26195f8637)" d="M 130.415865 507.515279 
L 140.328157 507.515279 
L 140.328157 518.801458 
L 130.415865 518.801458 
z
" style="fill:#1f77b4;"/>
   </g>
   <g id="matplotlib.axis_1">
    <g id="xtick_1">
     <g id="line2d_1">
      <path clip-path="url(#p26195f8637)" d="M 130.415865 542.64351 
L 130.415865 18.118365 
" style="fill:none;stroke:#b0b0b0;stroke-linecap:square;stroke-width:0.8;"/>
     </g>
     <g id="line2d_2">
      <defs>
       <path d="M 0 0 
L 0 3.5 
" id="mdf62435e39" style="stroke:#000000;stroke-width:0.8;"/>
      </defs>
      <g>
       <use style="stroke:#000000;stroke-width:0.8;" x="130.415865" xlink:href="#mdf62435e39" y="542.64351"/>
      </g>
     </g>
     <g id="text_1">
      <!-- 0 -->
      <defs>
       <path d="M 31.78125 66.40625 
Q 24.171875 66.40625 20.328125 58.90625 
Q 16.5 51.421875 16.5 36.375 
Q 16.5 21.390625 20.328125 13.890625 
Q 24.171875 6.390625 31.78125 6.390625 
Q 39.453125 6.390625 43.28125 13.890625 
Q 47.125 21.390625 47.125 36.375 
Q 47.125 51.421875 43.28125 58.90625 
Q 39.453125 66.40625 31.78125 66.40625 
z
M 31.78125 74.21875 
Q 44.046875 74.21875 50.515625 64.515625 
Q 56.984375 54.828125 56.984375 36.375 
Q 56.984375 17.96875 50.515625 8.265625 
Q 44.046875 -1.421875 31.78125 -1.421875 
Q 19.53125 -1.421875 13.0625 8.265625 
Q 6.59375 17.96875 6.59375 36.375 
Q 6.59375 54.828125 13.0625 64.515625 
Q 19.53125 74.21875 31.78125 74.21875 
z
" id="DejaVuSans-30"/>
      </defs>
      <g transform="translate(127.234615 557.241948)scale(0.1 -0.1)">
       <use xlink:href="#DejaVuSans-30"/>
      </g>
     </g>
    </g>
    <g id="xtick_2">
     <g id="line2d_3">
      <path clip-path="url(#p26195f8637)" d="M 192.159379 542.64351 
L 192.159379 18.118365 
" style="fill:none;stroke:#b0b0b0;stroke-linecap:square;stroke-width:0.8;"/>
     </g>
     <g id="line2d_4">
      <g>
       <use style="stroke:#000000;stroke-width:0.8;" x="192.159379" xlink:href="#mdf62435e39" y="542.64351"/>
      </g>
     </g>
     <g id="text_2">
      <!-- 5 -->
      <defs>
       <path d="M 10.796875 72.90625 
L 49.515625 72.90625 
L 49.515625 64.59375 
L 19.828125 64.59375 
L 19.828125 46.734375 
Q 21.96875 47.46875 24.109375 47.828125 
Q 26.265625 48.1875 28.421875 48.1875 
Q 40.625 48.1875 47.75 41.5 
Q 54.890625 34.8125 54.890625 23.390625 
Q 54.890625 11.625 47.5625 5.09375 
Q 40.234375 -1.421875 26.90625 -1.421875 
Q 22.3125 -1.421875 17.546875 -0.640625 
Q 12.796875 0.140625 7.71875 1.703125 
L 7.71875 11.625 
Q 12.109375 9.234375 16.796875 8.0625 
Q 21.484375 6.890625 26.703125 6.890625 
Q 35.15625 6.890625 40.078125 11.328125 
Q 45.015625 15.765625 45.015625 23.390625 
Q 45.015625 31 40.078125 35.4375 
Q 35.15625 39.890625 26.703125 39.890625 
Q 22.75 39.890625 18.8125 39.015625 
Q 14.890625 38.140625 10.796875 36.28125 
z
" id="DejaVuSans-35"/>
      </defs>
      <g transform="translate(188.978129 557.241948)scale(0.1 -0.1)">
       <use xlink:href="#DejaVuSans-35"/>
      </g>
     </g>
    </g>
    <g id="xtick_3">
     <g id="line2d_5">
      <path clip-path="url(#p26195f8637)" d="M 253.902893 542.64351 
L 253.902893 18.118365 
" style="fill:none;stroke:#b0b0b0;stroke-linecap:square;stroke-width:0.8;"/>
     </g>
     <g id="line2d_6">
      <g>
       <use style="stroke:#000000;stroke-width:0.8;" x="253.902893" xlink:href="#mdf62435e39" y="542.64351"/>
      </g>
     </g>
     <g id="text_3">
      <!-- 10 -->
      <defs>
       <path d="M 12.40625 8.296875 
L 28.515625 8.296875 
L 28.515625 63.921875 
L 10.984375 60.40625 
L 10.984375 69.390625 
L 28.421875 72.90625 
L 38.28125 72.90625 
L 38.28125 8.296875 
L 54.390625 8.296875 
L 54.390625 0 
L 12.40625 0 
z
" id="DejaVuSans-31"/>
      </defs>
      <g transform="translate(247.540393 557.241948)scale(0.1 -0.1)">
       <use xlink:href="#DejaVuSans-31"/>
       <use x="63.623047" xlink:href="#DejaVuSans-30"/>
      </g>
     </g>
    </g>
    <g id="xtick_4">
     <g id="line2d_7">
      <path clip-path="url(#p26195f8637)" d="M 315.646407 542.64351 
L 315.646407 18.118365 
" style="fill:none;stroke:#b0b0b0;stroke-linecap:square;stroke-width:0.8;"/>
     </g>
     <g id="line2d_8">
      <g>
       <use style="stroke:#000000;stroke-width:0.8;" x="315.646407" xlink:href="#mdf62435e39" y="542.64351"/>
      </g>
     </g>
     <g id="text_4">
      <!-- 15 -->
      <g transform="translate(309.283907 557.241948)scale(0.1 -0.1)">
       <use xlink:href="#DejaVuSans-31"/>
       <use x="63.623047" xlink:href="#DejaVuSans-35"/>
      </g>
     </g>
    </g>
    <g id="xtick_5">
     <g id="line2d_9">
      <path clip-path="url(#p26195f8637)" d="M 377.389921 542.64351 
L 377.389921 18.118365 
" style="fill:none;stroke:#b0b0b0;stroke-linecap:square;stroke-width:0.8;"/>
     </g>
     <g id="line2d_10">
      <g>
       <use style="stroke:#000000;stroke-width:0.8;" x="377.389921" xlink:href="#mdf62435e39" y="542.64351"/>
      </g>
     </g>
     <g id="text_5">
      <!-- 20 -->
      <defs>
       <path d="M 19.1875 8.296875 
L 53.609375 8.296875 
L 53.609375 0 
L 7.328125 0 
L 7.328125 8.296875 
Q 12.9375 14.109375 22.625 23.890625 
Q 32.328125 33.6875 34.8125 36.53125 
Q 39.546875 41.84375 41.421875 45.53125 
Q 43.3125 49.21875 43.3125 52.78125 
Q 43.3125 58.59375 39.234375 62.25 
Q 35.15625 65.921875 28.609375 65.921875 
Q 23.96875 65.921875 18.8125 64.3125 
Q 13.671875 62.703125 7.8125 59.421875 
L 7.8125 69.390625 
Q 13.765625 71.78125 18.9375 73 
Q 24.125 74.21875 28.421875 74.21875 
Q 39.75 74.21875 46.484375 68.546875 
Q 53.21875 62.890625 53.21875 53.421875 
Q 53.21875 48.921875 51.53125 44.890625 
Q 49.859375 40.875 45.40625 35.40625 
Q 44.1875 33.984375 37.640625 27.21875 
Q 31.109375 20.453125 19.1875 8.296875 
z
" id="DejaVuSans-32"/>
      </defs>
      <g transform="translate(371.027421 557.241948)scale(0.1 -0.1)">
       <use xlink:href="#DejaVuSans-32"/>
       <use x="63.623047" xlink:href="#DejaVuSans-30"/>
      </g>
     </g>
    </g>
    <g id="xtick_6">
     <g id="line2d_11">
      <path clip-path="url(#p26195f8637)" d="M 439.133435 542.64351 
L 439.133435 18.118365 
" style="fill:none;stroke:#b0b0b0;stroke-linecap:square;stroke-width:0.8;"/>
     </g>
     <g id="line2d_12">
      <g>
       <use style="stroke:#000000;stroke-width:0.8;" x="439.133435" xlink:href="#mdf62435e39" y="542.64351"/>
      </g>
     </g>
     <g id="text_6">
      <!-- 25 -->
      <g transform="translate(432.770935 557.241948)scale(0.1 -0.1)">
       <use xlink:href="#DejaVuSans-32"/>
       <use x="63.623047" xlink:href="#DejaVuSans-35"/>
      </g>
     </g>
    </g>
    <g id="xtick_7">
     <g id="line2d_13">
      <path clip-path="url(#p26195f8637)" d="M 500.876948 542.64351 
L 500.876948 18.118365 
" style="fill:none;stroke:#b0b0b0;stroke-linecap:square;stroke-width:0.8;"/>
     </g>
     <g id="line2d_14">
      <g>
       <use style="stroke:#000000;stroke-width:0.8;" x="500.876948" xlink:href="#mdf62435e39" y="542.64351"/>
      </g>
     </g>
     <g id="text_7">
      <!-- 30 -->
      <defs>
       <path d="M 40.578125 39.3125 
Q 47.65625 37.796875 51.625 33 
Q 55.609375 28.21875 55.609375 21.1875 
Q 55.609375 10.40625 48.1875 4.484375 
Q 40.765625 -1.421875 27.09375 -1.421875 
Q 22.515625 -1.421875 17.65625 -0.515625 
Q 12.796875 0.390625 7.625 2.203125 
L 7.625 11.71875 
Q 11.71875 9.328125 16.59375 8.109375 
Q 21.484375 6.890625 26.8125 6.890625 
Q 36.078125 6.890625 40.9375 10.546875 
Q 45.796875 14.203125 45.796875 21.1875 
Q 45.796875 27.640625 41.28125 31.265625 
Q 36.765625 34.90625 28.71875 34.90625 
L 20.21875 34.90625 
L 20.21875 43.015625 
L 29.109375 43.015625 
Q 36.375 43.015625 40.234375 45.921875 
Q 44.09375 48.828125 44.09375 54.296875 
Q 44.09375 59.90625 40.109375 62.90625 
Q 36.140625 65.921875 28.71875 65.921875 
Q 24.65625 65.921875 20.015625 65.03125 
Q 15.375 64.15625 9.8125 62.3125 
L 9.8125 71.09375 
Q 15.4375 72.65625 20.34375 73.4375 
Q 25.25 74.21875 29.59375 74.21875 
Q 40.828125 74.21875 47.359375 69.109375 
Q 53.90625 64.015625 53.90625 55.328125 
Q 53.90625 49.265625 50.4375 45.09375 
Q 46.96875 40.921875 40.578125 39.3125 
z
" id="DejaVuSans-33"/>
      </defs>
      <g transform="translate(494.514448 557.241948)scale(0.1 -0.1)">
       <use xlink:href="#DejaVuSans-33"/>
       <use x="63.623047" xlink:href="#DejaVuSans-30"/>
      </g>
     </g>
    </g>
    <g id="xtick_8">
     <g id="line2d_15">
      <path clip-path="url(#p26195f8637)" d="M 562.620462 542.64351 
L 562.620462 18.118365 
" style="fill:none;stroke:#b0b0b0;stroke-linecap:square;stroke-width:0.8;"/>
     </g>
     <g id="line2d_16">
      <g>
       <use style="stroke:#000000;stroke-width:0.8;" x="562.620462" xlink:href="#mdf62435e39" y="542.64351"/>
      </g>
     </g>
     <g id="text_8">
      <!-- 35 -->
      <g transform="translate(556.257962 557.241948)scale(0.1 -0.1)">
       <use xlink:href="#DejaVuSans-33"/>
       <use x="63.623047" xlink:href="#DejaVuSans-35"/>
      </g>
     </g>
    </g>
    <g id="text_9">
     <!-- Slowdown factor (WebAssembly:Native) -->
     <defs>
      <path d="M 53.515625 70.515625 
L 53.515625 60.890625 
Q 47.90625 63.578125 42.921875 64.890625 
Q 37.9375 66.21875 33.296875 66.21875 
Q 25.25 66.21875 20.875 63.09375 
Q 16.5 59.96875 16.5 54.203125 
Q 16.5 49.359375 19.40625 46.890625 
Q 22.3125 44.4375 30.421875 42.921875 
L 36.375 41.703125 
Q 47.40625 39.59375 52.65625 34.296875 
Q 57.90625 29 57.90625 20.125 
Q 57.90625 9.515625 50.796875 4.046875 
Q 43.703125 -1.421875 29.984375 -1.421875 
Q 24.8125 -1.421875 18.96875 -0.25 
Q 13.140625 0.921875 6.890625 3.21875 
L 6.890625 13.375 
Q 12.890625 10.015625 18.65625 8.296875 
Q 24.421875 6.59375 29.984375 6.59375 
Q 38.421875 6.59375 43.015625 9.90625 
Q 47.609375 13.234375 47.609375 19.390625 
Q 47.609375 24.75 44.3125 27.78125 
Q 41.015625 30.8125 33.5 32.328125 
L 27.484375 33.5 
Q 16.453125 35.6875 11.515625 40.375 
Q 6.59375 45.0625 6.59375 53.421875 
Q 6.59375 63.09375 13.40625 68.65625 
Q 20.21875 74.21875 32.171875 74.21875 
Q 37.3125 74.21875 42.625 73.28125 
Q 47.953125 72.359375 53.515625 70.515625 
z
" id="DejaVuSans-53"/>
      <path d="M 9.421875 75.984375 
L 18.40625 75.984375 
L 18.40625 0 
L 9.421875 0 
z
" id="DejaVuSans-6c"/>
      <path d="M 30.609375 48.390625 
Q 23.390625 48.390625 19.1875 42.75 
Q 14.984375 37.109375 14.984375 27.296875 
Q 14.984375 17.484375 19.15625 11.84375 
Q 23.34375 6.203125 30.609375 6.203125 
Q 37.796875 6.203125 41.984375 11.859375 
Q 46.1875 17.53125 46.1875 27.296875 
Q 46.1875 37.015625 41.984375 42.703125 
Q 37.796875 48.390625 30.609375 48.390625 
z
M 30.609375 56 
Q 42.328125 56 49.015625 48.375 
Q 55.71875 40.765625 55.71875 27.296875 
Q 55.71875 13.875 49.015625 6.21875 
Q 42.328125 -1.421875 30.609375 -1.421875 
Q 18.84375 -1.421875 12.171875 6.21875 
Q 5.515625 13.875 5.515625 27.296875 
Q 5.515625 40.765625 12.171875 48.375 
Q 18.84375 56 30.609375 56 
z
" id="DejaVuSans-6f"/>
      <path d="M 4.203125 54.6875 
L 13.1875 54.6875 
L 24.421875 12.015625 
L 35.59375 54.6875 
L 46.1875 54.6875 
L 57.421875 12.015625 
L 68.609375 54.6875 
L 77.59375 54.6875 
L 63.28125 0 
L 52.6875 0 
L 40.921875 44.828125 
L 29.109375 0 
L 18.5 0 
z
" id="DejaVuSans-77"/>
      <path d="M 45.40625 46.390625 
L 45.40625 75.984375 
L 54.390625 75.984375 
L 54.390625 0 
L 45.40625 0 
L 45.40625 8.203125 
Q 42.578125 3.328125 38.25 0.953125 
Q 33.9375 -1.421875 27.875 -1.421875 
Q 17.96875 -1.421875 11.734375 6.484375 
Q 5.515625 14.40625 5.515625 27.296875 
Q 5.515625 40.1875 11.734375 48.09375 
Q 17.96875 56 27.875 56 
Q 33.9375 56 38.25 53.625 
Q 42.578125 51.265625 45.40625 46.390625 
z
M 14.796875 27.296875 
Q 14.796875 17.390625 18.875 11.75 
Q 22.953125 6.109375 30.078125 6.109375 
Q 37.203125 6.109375 41.296875 11.75 
Q 45.40625 17.390625 45.40625 27.296875 
Q 45.40625 37.203125 41.296875 42.84375 
Q 37.203125 48.484375 30.078125 48.484375 
Q 22.953125 48.484375 18.875 42.84375 
Q 14.796875 37.203125 14.796875 27.296875 
z
" id="DejaVuSans-64"/>
      <path d="M 54.890625 33.015625 
L 54.890625 0 
L 45.90625 0 
L 45.90625 32.71875 
Q 45.90625 40.484375 42.875 44.328125 
Q 39.84375 48.1875 33.796875 48.1875 
Q 26.515625 48.1875 22.3125 43.546875 
Q 18.109375 38.921875 18.109375 30.90625 
L 18.109375 0 
L 9.078125 0 
L 9.078125 54.6875 
L 18.109375 54.6875 
L 18.109375 46.1875 
Q 21.34375 51.125 25.703125 53.5625 
Q 30.078125 56 35.796875 56 
Q 45.21875 56 50.046875 50.171875 
Q 54.890625 44.34375 54.890625 33.015625 
z
" id="DejaVuSans-6e"/>
      <path id="DejaVuSans-20"/>
      <path d="M 37.109375 75.984375 
L 37.109375 68.5 
L 28.515625 68.5 
Q 23.6875 68.5 21.796875 66.546875 
Q 19.921875 64.59375 19.921875 59.515625 
L 19.921875 54.6875 
L 34.71875 54.6875 
L 34.71875 47.703125 
L 19.921875 47.703125 
L 19.921875 0 
L 10.890625 0 
L 10.890625 47.703125 
L 2.296875 47.703125 
L 2.296875 54.6875 
L 10.890625 54.6875 
L 10.890625 58.5 
Q 10.890625 67.625 15.140625 71.796875 
Q 19.390625 75.984375 28.609375 75.984375 
z
" id="DejaVuSans-66"/>
      <path d="M 34.28125 27.484375 
Q 23.390625 27.484375 19.1875 25 
Q 14.984375 22.515625 14.984375 16.5 
Q 14.984375 11.71875 18.140625 8.90625 
Q 21.296875 6.109375 26.703125 6.109375 
Q 34.1875 6.109375 38.703125 11.40625 
Q 43.21875 16.703125 43.21875 25.484375 
L 43.21875 27.484375 
z
M 52.203125 31.203125 
L 52.203125 0 
L 43.21875 0 
L 43.21875 8.296875 
Q 40.140625 3.328125 35.546875 0.953125 
Q 30.953125 -1.421875 24.3125 -1.421875 
Q 15.921875 -1.421875 10.953125 3.296875 
Q 6 8.015625 6 15.921875 
Q 6 25.140625 12.171875 29.828125 
Q 18.359375 34.515625 30.609375 34.515625 
L 43.21875 34.515625 
L 43.21875 35.40625 
Q 43.21875 41.609375 39.140625 45 
Q 35.0625 48.390625 27.6875 48.390625 
Q 23 48.390625 18.546875 47.265625 
Q 14.109375 46.140625 10.015625 43.890625 
L 10.015625 52.203125 
Q 14.9375 54.109375 19.578125 55.046875 
Q 24.21875 56 28.609375 56 
Q 40.484375 56 46.34375 49.84375 
Q 52.203125 43.703125 52.203125 31.203125 
z
" id="DejaVuSans-61"/>
      <path d="M 48.78125 52.59375 
L 48.78125 44.1875 
Q 44.96875 46.296875 41.140625 47.34375 
Q 37.3125 48.390625 33.40625 48.390625 
Q 24.65625 48.390625 19.8125 42.84375 
Q 14.984375 37.3125 14.984375 27.296875 
Q 14.984375 17.28125 19.8125 11.734375 
Q 24.65625 6.203125 33.40625 6.203125 
Q 37.3125 6.203125 41.140625 7.25 
Q 44.96875 8.296875 48.78125 10.40625 
L 48.78125 2.09375 
Q 45.015625 0.34375 40.984375 -0.53125 
Q 36.96875 -1.421875 32.421875 -1.421875 
Q 20.0625 -1.421875 12.78125 6.34375 
Q 5.515625 14.109375 5.515625 27.296875 
Q 5.515625 40.671875 12.859375 48.328125 
Q 20.21875 56 33.015625 56 
Q 37.15625 56 41.109375 55.140625 
Q 45.0625 54.296875 48.78125 52.59375 
z
" id="DejaVuSans-63"/>
      <path d="M 18.3125 70.21875 
L 18.3125 54.6875 
L 36.8125 54.6875 
L 36.8125 47.703125 
L 18.3125 47.703125 
L 18.3125 18.015625 
Q 18.3125 11.328125 20.140625 9.421875 
Q 21.96875 7.515625 27.59375 7.515625 
L 36.8125 7.515625 
L 36.8125 0 
L 27.59375 0 
Q 17.1875 0 13.234375 3.875 
Q 9.28125 7.765625 9.28125 18.015625 
L 9.28125 47.703125 
L 2.6875 47.703125 
L 2.6875 54.6875 
L 9.28125 54.6875 
L 9.28125 70.21875 
z
" id="DejaVuSans-74"/>
      <path d="M 41.109375 46.296875 
Q 39.59375 47.171875 37.8125 47.578125 
Q 36.03125 48 33.890625 48 
Q 26.265625 48 22.1875 43.046875 
Q 18.109375 38.09375 18.109375 28.8125 
L 18.109375 0 
L 9.078125 0 
L 9.078125 54.6875 
L 18.109375 54.6875 
L 18.109375 46.1875 
Q 20.953125 51.171875 25.484375 53.578125 
Q 30.03125 56 36.53125 56 
Q 37.453125 56 38.578125 55.875 
Q 39.703125 55.765625 41.0625 55.515625 
z
" id="DejaVuSans-72"/>
      <path d="M 31 75.875 
Q 24.46875 64.65625 21.28125 53.65625 
Q 18.109375 42.671875 18.109375 31.390625 
Q 18.109375 20.125 21.3125 9.0625 
Q 24.515625 -2 31 -13.1875 
L 23.1875 -13.1875 
Q 15.875 -1.703125 12.234375 9.375 
Q 8.59375 20.453125 8.59375 31.390625 
Q 8.59375 42.28125 12.203125 53.3125 
Q 15.828125 64.359375 23.1875 75.875 
z
" id="DejaVuSans-28"/>
      <path d="M 3.328125 72.90625 
L 13.28125 72.90625 
L 28.609375 11.28125 
L 43.890625 72.90625 
L 54.984375 72.90625 
L 70.3125 11.28125 
L 85.59375 72.90625 
L 95.609375 72.90625 
L 77.296875 0 
L 64.890625 0 
L 49.515625 63.28125 
L 33.984375 0 
L 21.578125 0 
z
" id="DejaVuSans-57"/>
      <path d="M 56.203125 29.59375 
L 56.203125 25.203125 
L 14.890625 25.203125 
Q 15.484375 15.921875 20.484375 11.0625 
Q 25.484375 6.203125 34.421875 6.203125 
Q 39.59375 6.203125 44.453125 7.46875 
Q 49.3125 8.734375 54.109375 11.28125 
L 54.109375 2.78125 
Q 49.265625 0.734375 44.1875 -0.34375 
Q 39.109375 -1.421875 33.890625 -1.421875 
Q 20.796875 -1.421875 13.15625 6.1875 
Q 5.515625 13.8125 5.515625 26.8125 
Q 5.515625 40.234375 12.765625 48.109375 
Q 20.015625 56 32.328125 56 
Q 43.359375 56 49.78125 48.890625 
Q 56.203125 41.796875 56.203125 29.59375 
z
M 47.21875 32.234375 
Q 47.125 39.59375 43.09375 43.984375 
Q 39.0625 48.390625 32.421875 48.390625 
Q 24.90625 48.390625 20.390625 44.140625 
Q 15.875 39.890625 15.1875 32.171875 
z
" id="DejaVuSans-65"/>
      <path d="M 48.6875 27.296875 
Q 48.6875 37.203125 44.609375 42.84375 
Q 40.53125 48.484375 33.40625 48.484375 
Q 26.265625 48.484375 22.1875 42.84375 
Q 18.109375 37.203125 18.109375 27.296875 
Q 18.109375 17.390625 22.1875 11.75 
Q 26.265625 6.109375 33.40625 6.109375 
Q 40.53125 6.109375 44.609375 11.75 
Q 48.6875 17.390625 48.6875 27.296875 
z
M 18.109375 46.390625 
Q 20.953125 51.265625 25.265625 53.625 
Q 29.59375 56 35.59375 56 
Q 45.5625 56 51.78125 48.09375 
Q 58.015625 40.1875 58.015625 27.296875 
Q 58.015625 14.40625 51.78125 6.484375 
Q 45.5625 -1.421875 35.59375 -1.421875 
Q 29.59375 -1.421875 25.265625 0.953125 
Q 20.953125 3.328125 18.109375 8.203125 
L 18.109375 0 
L 9.078125 0 
L 9.078125 75.984375 
L 18.109375 75.984375 
z
" id="DejaVuSans-62"/>
      <path d="M 34.1875 63.1875 
L 20.796875 26.90625 
L 47.609375 26.90625 
z
M 28.609375 72.90625 
L 39.796875 72.90625 
L 67.578125 0 
L 57.328125 0 
L 50.6875 18.703125 
L 17.828125 18.703125 
L 11.1875 0 
L 0.78125 0 
z
" id="DejaVuSans-41"/>
      <path d="M 44.28125 53.078125 
L 44.28125 44.578125 
Q 40.484375 46.53125 36.375 47.5 
Q 32.28125 48.484375 27.875 48.484375 
Q 21.1875 48.484375 17.84375 46.4375 
Q 14.5 44.390625 14.5 40.28125 
Q 14.5 37.15625 16.890625 35.375 
Q 19.28125 33.59375 26.515625 31.984375 
L 29.59375 31.296875 
Q 39.15625 29.25 43.1875 25.515625 
Q 47.21875 21.78125 47.21875 15.09375 
Q 47.21875 7.46875 41.1875 3.015625 
Q 35.15625 -1.421875 24.609375 -1.421875 
Q 20.21875 -1.421875 15.453125 -0.5625 
Q 10.6875 0.296875 5.421875 2 
L 5.421875 11.28125 
Q 10.40625 8.6875 15.234375 7.390625 
Q 20.0625 6.109375 24.8125 6.109375 
Q 31.15625 6.109375 34.5625 8.28125 
Q 37.984375 10.453125 37.984375 14.40625 
Q 37.984375 18.0625 35.515625 20.015625 
Q 33.0625 21.96875 24.703125 23.78125 
L 21.578125 24.515625 
Q 13.234375 26.265625 9.515625 29.90625 
Q 5.8125 33.546875 5.8125 39.890625 
Q 5.8125 47.609375 11.28125 51.796875 
Q 16.75 56 26.8125 56 
Q 31.78125 56 36.171875 55.265625 
Q 40.578125 54.546875 44.28125 53.078125 
z
" id="DejaVuSans-73"/>
      <path d="M 52 44.1875 
Q 55.375 50.25 60.0625 53.125 
Q 64.75 56 71.09375 56 
Q 79.640625 56 84.28125 50.015625 
Q 88.921875 44.046875 88.921875 33.015625 
L 88.921875 0 
L 79.890625 0 
L 79.890625 32.71875 
Q 79.890625 40.578125 77.09375 44.375 
Q 74.3125 48.1875 68.609375 48.1875 
Q 61.625 48.1875 57.5625 43.546875 
Q 53.515625 38.921875 53.515625 30.90625 
L 53.515625 0 
L 44.484375 0 
L 44.484375 32.71875 
Q 44.484375 40.625 41.703125 44.40625 
Q 38.921875 48.1875 33.109375 48.1875 
Q 26.21875 48.1875 22.15625 43.53125 
Q 18.109375 38.875 18.109375 30.90625 
L 18.109375 0 
L 9.078125 0 
L 9.078125 54.6875 
L 18.109375 54.6875 
L 18.109375 46.1875 
Q 21.1875 51.21875 25.484375 53.609375 
Q 29.78125 56 35.6875 56 
Q 41.65625 56 45.828125 52.96875 
Q 50 49.953125 52 44.1875 
z
" id="DejaVuSans-6d"/>
      <path d="M 32.171875 -5.078125 
Q 28.375 -14.84375 24.75 -17.8125 
Q 21.140625 -20.796875 15.09375 -20.796875 
L 7.90625 -20.796875 
L 7.90625 -13.28125 
L 13.1875 -13.28125 
Q 16.890625 -13.28125 18.9375 -11.515625 
Q 21 -9.765625 23.484375 -3.21875 
L 25.09375 0.875 
L 2.984375 54.6875 
L 12.5 54.6875 
L 29.59375 11.921875 
L 46.6875 54.6875 
L 56.203125 54.6875 
z
" id="DejaVuSans-79"/>
      <path d="M 11.71875 12.40625 
L 22.015625 12.40625 
L 22.015625 0 
L 11.71875 0 
z
M 11.71875 51.703125 
L 22.015625 51.703125 
L 22.015625 39.3125 
L 11.71875 39.3125 
z
" id="DejaVuSans-3a"/>
      <path d="M 9.8125 72.90625 
L 23.09375 72.90625 
L 55.421875 11.921875 
L 55.421875 72.90625 
L 64.984375 72.90625 
L 64.984375 0 
L 51.703125 0 
L 19.390625 60.984375 
L 19.390625 0 
L 9.8125 0 
z
" id="DejaVuSans-4e"/>
      <path d="M 9.421875 54.6875 
L 18.40625 54.6875 
L 18.40625 0 
L 9.421875 0 
z
M 9.421875 75.984375 
L 18.40625 75.984375 
L 18.40625 64.59375 
L 9.421875 64.59375 
z
" id="DejaVuSans-69"/>
      <path d="M 2.984375 54.6875 
L 12.5 54.6875 
L 29.59375 8.796875 
L 46.6875 54.6875 
L 56.203125 54.6875 
L 35.6875 0 
L 23.484375 0 
z
" id="DejaVuSans-76"/>
      <path d="M 8.015625 75.875 
L 15.828125 75.875 
Q 23.140625 64.359375 26.78125 53.3125 
Q 30.421875 42.28125 30.421875 31.390625 
Q 30.421875 20.453125 26.78125 9.375 
Q 23.140625 -1.703125 15.828125 -13.1875 
L 8.015625 -13.1875 
Q 14.5 -2 17.703125 9.0625 
Q 20.90625 20.125 20.90625 31.390625 
Q 20.90625 42.671875 17.703125 53.65625 
Q 14.5 64.65625 8.015625 75.875 
z
" id="DejaVuSans-29"/>
     </defs>
     <g transform="translate(249.867969 570.920072)scale(0.1 -0.1)">
      <use xlink:href="#DejaVuSans-53"/>
      <use x="63.476562" xlink:href="#DejaVuSans-6c"/>
      <use x="91.259766" xlink:href="#DejaVuSans-6f"/>
      <use x="152.441406" xlink:href="#DejaVuSans-77"/>
      <use x="234.228516" xlink:href="#DejaVuSans-64"/>
      <use x="297.705078" xlink:href="#DejaVuSans-6f"/>
      <use x="358.886719" xlink:href="#DejaVuSans-77"/>
      <use x="440.673828" xlink:href="#DejaVuSans-6e"/>
      <use x="504.052734" xlink:href="#DejaVuSans-20"/>
      <use x="535.839844" xlink:href="#DejaVuSans-66"/>
      <use x="571.044922" xlink:href="#DejaVuSans-61"/>
      <use x="632.324219" xlink:href="#DejaVuSans-63"/>
      <use x="687.304688" xlink:href="#DejaVuSans-74"/>
      <use x="726.513672" xlink:href="#DejaVuSans-6f"/>
      <use x="787.695312" xlink:href="#DejaVuSans-72"/>
      <use x="828.808594" xlink:href="#DejaVuSans-20"/>
      <use x="860.595703" xlink:href="#DejaVuSans-28"/>
      <use x="899.609375" xlink:href="#DejaVuSans-57"/>
      <use x="998.408203" xlink:href="#DejaVuSans-65"/>
      <use x="1059.931641" xlink:href="#DejaVuSans-62"/>
      <use x="1123.408203" xlink:href="#DejaVuSans-41"/>
      <use x="1191.816406" xlink:href="#DejaVuSans-73"/>
      <use x="1243.916016" xlink:href="#DejaVuSans-73"/>
      <use x="1296.015625" xlink:href="#DejaVuSans-65"/>
      <use x="1357.539062" xlink:href="#DejaVuSans-6d"/>
      <use x="1454.951172" xlink:href="#DejaVuSans-62"/>
      <use x="1518.427734" xlink:href="#DejaVuSans-6c"/>
      <use x="1546.210938" xlink:href="#DejaVuSans-79"/>
      <use x="1605.28125" xlink:href="#DejaVuSans-3a"/>
      <use x="1638.972656" xlink:href="#DejaVuSans-4e"/>
      <use x="1713.777344" xlink:href="#DejaVuSans-61"/>
      <use x="1775.056641" xlink:href="#DejaVuSans-74"/>
      <use x="1814.265625" xlink:href="#DejaVuSans-69"/>
      <use x="1842.048828" xlink:href="#DejaVuSans-76"/>
      <use x="1901.228516" xlink:href="#DejaVuSans-65"/>
      <use x="1962.751953" xlink:href="#DejaVuSans-29"/>
     </g>
    </g>
   </g>
   <g id="matplotlib.axis_2">
    <g id="ytick_1">
     <g id="line2d_17">
      <path clip-path="url(#p26195f8637)" d="M 130.415865 47.603506 
L 569.49976 47.603506 
" style="fill:none;stroke:#b0b0b0;stroke-linecap:square;stroke-width:0.8;"/>
     </g>
     <g id="line2d_18">
      <defs>
       <path d="M 0 0 
L -3.5 0 
" id="m489be81ac8" style="stroke:#000000;stroke-width:0.8;"/>
      </defs>
      <g>
       <use style="stroke:#000000;stroke-width:0.8;" x="130.415865" xlink:href="#m489be81ac8" y="47.603506"/>
      </g>
     </g>
     <g id="text_10">
      <!-- julia -->
      <defs>
       <path d="M 9.421875 54.6875 
L 18.40625 54.6875 
L 18.40625 -0.984375 
Q 18.40625 -11.421875 14.421875 -16.109375 
Q 10.453125 -20.796875 1.609375 -20.796875 
L -1.8125 -20.796875 
L -1.8125 -13.1875 
L 0.59375 -13.1875 
Q 5.71875 -13.1875 7.5625 -10.8125 
Q 9.421875 -8.453125 9.421875 -0.984375 
z
M 9.421875 75.984375 
L 18.40625 75.984375 
L 18.40625 64.59375 
L 9.421875 64.59375 
z
" id="DejaVuSans-6a"/>
       <path d="M 8.5 21.578125 
L 8.5 54.6875 
L 17.484375 54.6875 
L 17.484375 21.921875 
Q 17.484375 14.15625 20.5 10.265625 
Q 23.53125 6.390625 29.59375 6.390625 
Q 36.859375 6.390625 41.078125 11.03125 
Q 45.3125 15.671875 45.3125 23.6875 
L 45.3125 54.6875 
L 54.296875 54.6875 
L 54.296875 0 
L 45.3125 0 
L 45.3125 8.40625 
Q 42.046875 3.421875 37.71875 1 
Q 33.40625 -1.421875 27.6875 -1.421875 
Q 18.265625 -1.421875 13.375 4.4375 
Q 8.5 10.296875 8.5 21.578125 
z
M 31.109375 56 
z
" id="DejaVuSans-75"/>
      </defs>
      <g transform="translate(102.615865 51.402725)scale(0.1 -0.1)">
       <use xlink:href="#DejaVuSans-6a"/>
       <use x="27.783203" xlink:href="#DejaVuSans-75"/>
       <use x="91.162109" xlink:href="#DejaVuSans-6c"/>
       <use x="118.945312" xlink:href="#DejaVuSans-69"/>
       <use x="146.728516" xlink:href="#DejaVuSans-61"/>
      </g>
     </g>
    </g>
    <g id="ytick_2">
     <g id="line2d_19">
      <path clip-path="url(#p26195f8637)" d="M 130.415865 61.711229 
L 569.49976 61.711229 
" style="fill:none;stroke:#b0b0b0;stroke-linecap:square;stroke-width:0.8;"/>
     </g>
     <g id="line2d_20">
      <g>
       <use style="stroke:#000000;stroke-width:0.8;" x="130.415865" xlink:href="#m489be81ac8" y="61.711229"/>
      </g>
     </g>
     <g id="text_11">
      <!-- fdtd -->
      <g transform="translate(103.278365 65.510448)scale(0.1 -0.1)">
       <use xlink:href="#DejaVuSans-66"/>
       <use x="35.205078" xlink:href="#DejaVuSans-64"/>
       <use x="98.681641" xlink:href="#DejaVuSans-74"/>
       <use x="137.890625" xlink:href="#DejaVuSans-64"/>
      </g>
     </g>
    </g>
    <g id="ytick_3">
     <g id="line2d_21">
      <path clip-path="url(#p26195f8637)" d="M 130.415865 75.818952 
L 569.49976 75.818952 
" style="fill:none;stroke:#b0b0b0;stroke-linecap:square;stroke-width:0.8;"/>
     </g>
     <g id="line2d_22">
      <g>
       <use style="stroke:#000000;stroke-width:0.8;" x="130.415865" xlink:href="#m489be81ac8" y="75.818952"/>
      </g>
     </g>
     <g id="text_12">
      <!-- wave -->
      <g transform="translate(97.03774 79.618171)scale(0.1 -0.1)">
       <use xlink:href="#DejaVuSans-77"/>
       <use x="81.787109" xlink:href="#DejaVuSans-61"/>
       <use x="143.066406" xlink:href="#DejaVuSans-76"/>
       <use x="202.246094" xlink:href="#DejaVuSans-65"/>
      </g>
     </g>
    </g>
    <g id="ytick_4">
     <g id="line2d_23">
      <path clip-path="url(#p26195f8637)" d="M 130.415865 89.926676 
L 569.49976 89.926676 
" style="fill:none;stroke:#b0b0b0;stroke-linecap:square;stroke-width:0.8;"/>
     </g>
     <g id="line2d_24">
      <g>
       <use style="stroke:#000000;stroke-width:0.8;" x="130.415865" xlink:href="#m489be81ac8" y="89.926676"/>
      </g>
     </g>
     <g id="text_13">
      <!-- allpairs_distances -->
      <defs>
       <path d="M 18.109375 8.203125 
L 18.109375 -20.796875 
L 9.078125 -20.796875 
L 9.078125 54.6875 
L 18.109375 54.6875 
L 18.109375 46.390625 
Q 20.953125 51.265625 25.265625 53.625 
Q 29.59375 56 35.59375 56 
Q 45.5625 56 51.78125 48.09375 
Q 58.015625 40.1875 58.015625 27.296875 
Q 58.015625 14.40625 51.78125 6.484375 
Q 45.5625 -1.421875 35.59375 -1.421875 
Q 29.59375 -1.421875 25.265625 0.953125 
Q 20.953125 3.328125 18.109375 8.203125 
z
M 48.6875 27.296875 
Q 48.6875 37.203125 44.609375 42.84375 
Q 40.53125 48.484375 33.40625 48.484375 
Q 26.265625 48.484375 22.1875 42.84375 
Q 18.109375 37.203125 18.109375 27.296875 
Q 18.109375 17.390625 22.1875 11.75 
Q 26.265625 6.109375 33.40625 6.109375 
Q 40.53125 6.109375 44.609375 11.75 
Q 48.6875 17.390625 48.6875 27.296875 
z
" id="DejaVuSans-70"/>
       <path d="M 50.984375 -16.609375 
L 50.984375 -23.578125 
L -0.984375 -23.578125 
L -0.984375 -16.609375 
z
" id="DejaVuSans-5f"/>
      </defs>
      <g transform="translate(34.573677 93.725894)scale(0.1 -0.1)">
       <use xlink:href="#DejaVuSans-61"/>
       <use x="61.279297" xlink:href="#DejaVuSans-6c"/>
       <use x="89.0625" xlink:href="#DejaVuSans-6c"/>
       <use x="116.845703" xlink:href="#DejaVuSans-70"/>
       <use x="180.322266" xlink:href="#DejaVuSans-61"/>
       <use x="241.601562" xlink:href="#DejaVuSans-69"/>
       <use x="269.384766" xlink:href="#DejaVuSans-72"/>
       <use x="310.498047" xlink:href="#DejaVuSans-73"/>
       <use x="362.597656" xlink:href="#DejaVuSans-5f"/>
       <use x="412.597656" xlink:href="#DejaVuSans-64"/>
       <use x="476.074219" xlink:href="#DejaVuSans-69"/>
       <use x="503.857422" xlink:href="#DejaVuSans-73"/>
       <use x="555.957031" xlink:href="#DejaVuSans-74"/>
       <use x="595.166016" xlink:href="#DejaVuSans-61"/>
       <use x="656.445312" xlink:href="#DejaVuSans-6e"/>
       <use x="719.824219" xlink:href="#DejaVuSans-63"/>
       <use x="774.804688" xlink:href="#DejaVuSans-65"/>
       <use x="836.328125" xlink:href="#DejaVuSans-73"/>
      </g>
     </g>
    </g>
    <g id="ytick_5">
     <g id="line2d_25">
      <path clip-path="url(#p26195f8637)" d="M 130.415865 104.034399 
L 569.49976 104.034399 
" style="fill:none;stroke:#b0b0b0;stroke-linecap:square;stroke-width:0.8;"/>
     </g>
     <g id="line2d_26">
      <g>
       <use style="stroke:#000000;stroke-width:0.8;" x="130.415865" xlink:href="#m489be81ac8" y="104.034399"/>
      </g>
     </g>
     <g id="text_14">
      <!-- check_mask -->
      <defs>
       <path d="M 54.890625 33.015625 
L 54.890625 0 
L 45.90625 0 
L 45.90625 32.71875 
Q 45.90625 40.484375 42.875 44.328125 
Q 39.84375 48.1875 33.796875 48.1875 
Q 26.515625 48.1875 22.3125 43.546875 
Q 18.109375 38.921875 18.109375 30.90625 
L 18.109375 0 
L 9.078125 0 
L 9.078125 75.984375 
L 18.109375 75.984375 
L 18.109375 46.1875 
Q 21.34375 51.125 25.703125 53.5625 
Q 30.078125 56 35.796875 56 
Q 45.21875 56 50.046875 50.171875 
Q 54.890625 44.34375 54.890625 33.015625 
z
" id="DejaVuSans-68"/>
       <path d="M 9.078125 75.984375 
L 18.109375 75.984375 
L 18.109375 31.109375 
L 44.921875 54.6875 
L 56.390625 54.6875 
L 27.390625 29.109375 
L 57.625 0 
L 45.90625 0 
L 18.109375 26.703125 
L 18.109375 0 
L 9.078125 0 
z
" id="DejaVuSans-6b"/>
      </defs>
      <g transform="translate(62.26899 107.833617)scale(0.1 -0.1)">
       <use xlink:href="#DejaVuSans-63"/>
       <use x="54.980469" xlink:href="#DejaVuSans-68"/>
       <use x="118.359375" xlink:href="#DejaVuSans-65"/>
       <use x="179.882812" xlink:href="#DejaVuSans-63"/>
       <use x="234.863281" xlink:href="#DejaVuSans-6b"/>
       <use x="292.773438" xlink:href="#DejaVuSans-5f"/>
       <use x="342.773438" xlink:href="#DejaVuSans-6d"/>
       <use x="440.185547" xlink:href="#DejaVuSans-61"/>
       <use x="501.464844" xlink:href="#DejaVuSans-73"/>
       <use x="553.564453" xlink:href="#DejaVuSans-6b"/>
      </g>
     </g>
    </g>
    <g id="ytick_6">
     <g id="line2d_27">
      <path clip-path="url(#p26195f8637)" d="M 130.415865 118.142122 
L 569.49976 118.142122 
" style="fill:none;stroke:#b0b0b0;stroke-linecap:square;stroke-width:0.8;"/>
     </g>
     <g id="line2d_28">
      <g>
       <use style="stroke:#000000;stroke-width:0.8;" x="130.415865" xlink:href="#m489be81ac8" y="118.142122"/>
      </g>
     </g>
     <g id="text_15">
      <!-- wdist -->
      <g transform="translate(96.98149 121.941341)scale(0.1 -0.1)">
       <use xlink:href="#DejaVuSans-77"/>
       <use x="81.787109" xlink:href="#DejaVuSans-64"/>
       <use x="145.263672" xlink:href="#DejaVuSans-69"/>
       <use x="173.046875" xlink:href="#DejaVuSans-73"/>
       <use x="225.146484" xlink:href="#DejaVuSans-74"/>
      </g>
     </g>
    </g>
    <g id="ytick_7">
     <g id="line2d_29">
      <path clip-path="url(#p26195f8637)" d="M 130.415865 132.249845 
L 569.49976 132.249845 
" style="fill:none;stroke:#b0b0b0;stroke-linecap:square;stroke-width:0.8;"/>
     </g>
     <g id="line2d_30">
      <g>
       <use style="stroke:#000000;stroke-width:0.8;" x="130.415865" xlink:href="#m489be81ac8" y="132.249845"/>
      </g>
     </g>
     <g id="text_16">
      <!-- pairwise -->
      <g transform="translate(81.73149 136.049064)scale(0.1 -0.1)">
       <use xlink:href="#DejaVuSans-70"/>
       <use x="63.476562" xlink:href="#DejaVuSans-61"/>
       <use x="124.755859" xlink:href="#DejaVuSans-69"/>
       <use x="152.539062" xlink:href="#DejaVuSans-72"/>
       <use x="193.652344" xlink:href="#DejaVuSans-77"/>
       <use x="275.439453" xlink:href="#DejaVuSans-69"/>
       <use x="303.222656" xlink:href="#DejaVuSans-73"/>
       <use x="355.322266" xlink:href="#DejaVuSans-65"/>
      </g>
     </g>
    </g>
    <g id="ytick_8">
     <g id="line2d_31">
      <path clip-path="url(#p26195f8637)" d="M 130.415865 146.357568 
L 569.49976 146.357568 
" style="fill:none;stroke:#b0b0b0;stroke-linecap:square;stroke-width:0.8;"/>
     </g>
     <g id="line2d_32">
      <g>
       <use style="stroke:#000000;stroke-width:0.8;" x="130.415865" xlink:href="#m489be81ac8" y="146.357568"/>
      </g>
     </g>
     <g id="text_17">
      <!-- slowparts -->
      <g transform="translate(75.414302 150.156787)scale(0.1 -0.1)">
       <use xlink:href="#DejaVuSans-73"/>
       <use x="52.099609" xlink:href="#DejaVuSans-6c"/>
       <use x="79.882812" xlink:href="#DejaVuSans-6f"/>
       <use x="141.064453" xlink:href="#DejaVuSans-77"/>
       <use x="222.851562" xlink:href="#DejaVuSans-70"/>
       <use x="286.328125" xlink:href="#DejaVuSans-61"/>
       <use x="347.607422" xlink:href="#DejaVuSans-72"/>
       <use x="388.720703" xlink:href="#DejaVuSans-74"/>
       <use x="427.929688" xlink:href="#DejaVuSans-73"/>
      </g>
     </g>
    </g>
    <g id="ytick_9">
     <g id="line2d_33">
      <path clip-path="url(#p26195f8637)" d="M 130.415865 160.465291 
L 569.49976 160.465291 
" style="fill:none;stroke:#b0b0b0;stroke-linecap:square;stroke-width:0.8;"/>
     </g>
     <g id="line2d_34">
      <g>
       <use style="stroke:#000000;stroke-width:0.8;" x="130.415865" xlink:href="#m489be81ac8" y="160.465291"/>
      </g>
     </g>
     <g id="text_18">
      <!-- hasting -->
      <defs>
       <path d="M 45.40625 27.984375 
Q 45.40625 37.75 41.375 43.109375 
Q 37.359375 48.484375 30.078125 48.484375 
Q 22.859375 48.484375 18.828125 43.109375 
Q 14.796875 37.75 14.796875 27.984375 
Q 14.796875 18.265625 18.828125 12.890625 
Q 22.859375 7.515625 30.078125 7.515625 
Q 37.359375 7.515625 41.375 12.890625 
Q 45.40625 18.265625 45.40625 27.984375 
z
M 54.390625 6.78125 
Q 54.390625 -7.171875 48.1875 -13.984375 
Q 42 -20.796875 29.203125 -20.796875 
Q 24.46875 -20.796875 20.265625 -20.09375 
Q 16.0625 -19.390625 12.109375 -17.921875 
L 12.109375 -9.1875 
Q 16.0625 -11.328125 19.921875 -12.34375 
Q 23.78125 -13.375 27.78125 -13.375 
Q 36.625 -13.375 41.015625 -8.765625 
Q 45.40625 -4.15625 45.40625 5.171875 
L 45.40625 9.625 
Q 42.625 4.78125 38.28125 2.390625 
Q 33.9375 0 27.875 0 
Q 17.828125 0 11.671875 7.65625 
Q 5.515625 15.328125 5.515625 27.984375 
Q 5.515625 40.671875 11.671875 48.328125 
Q 17.828125 56 27.875 56 
Q 33.9375 56 38.28125 53.609375 
Q 42.625 51.21875 45.40625 46.390625 
L 45.40625 54.6875 
L 54.390625 54.6875 
z
" id="DejaVuSans-67"/>
      </defs>
      <g transform="translate(86.35649 164.26451)scale(0.1 -0.1)">
       <use xlink:href="#DejaVuSans-68"/>
       <use x="63.378906" xlink:href="#DejaVuSans-61"/>
       <use x="124.658203" xlink:href="#DejaVuSans-73"/>
       <use x="176.757812" xlink:href="#DejaVuSans-74"/>
       <use x="215.966797" xlink:href="#DejaVuSans-69"/>
       <use x="243.75" xlink:href="#DejaVuSans-6e"/>
       <use x="307.128906" xlink:href="#DejaVuSans-67"/>
      </g>
     </g>
    </g>
    <g id="ytick_10">
     <g id="line2d_35">
      <path clip-path="url(#p26195f8637)" d="M 130.415865 174.573014 
L 569.49976 174.573014 
" style="fill:none;stroke:#b0b0b0;stroke-linecap:square;stroke-width:0.8;"/>
     </g>
     <g id="line2d_36">
      <g>
       <use style="stroke:#000000;stroke-width:0.8;" x="130.415865" xlink:href="#m489be81ac8" y="174.573014"/>
      </g>
     </g>
     <g id="text_19">
      <!-- growcut -->
      <g transform="translate(82.90649 178.372233)scale(0.1 -0.1)">
       <use xlink:href="#DejaVuSans-67"/>
       <use x="63.476562" xlink:href="#DejaVuSans-72"/>
       <use x="104.558594" xlink:href="#DejaVuSans-6f"/>
       <use x="165.740234" xlink:href="#DejaVuSans-77"/>
       <use x="247.527344" xlink:href="#DejaVuSans-63"/>
       <use x="302.507812" xlink:href="#DejaVuSans-75"/>
       <use x="365.886719" xlink:href="#DejaVuSans-74"/>
      </g>
     </g>
    </g>
    <g id="ytick_11">
     <g id="line2d_37">
      <path clip-path="url(#p26195f8637)" d="M 130.415865 188.680737 
L 569.49976 188.680737 
" style="fill:none;stroke:#b0b0b0;stroke-linecap:square;stroke-width:0.8;"/>
     </g>
     <g id="line2d_38">
      <g>
       <use style="stroke:#000000;stroke-width:0.8;" x="130.415865" xlink:href="#m489be81ac8" y="188.680737"/>
      </g>
     </g>
     <g id="text_20">
      <!-- allpairs_distances_loops -->
      <g transform="translate(3.00024 192.479956)scale(0.1 -0.1)">
       <use xlink:href="#DejaVuSans-61"/>
       <use x="61.279297" xlink:href="#DejaVuSans-6c"/>
       <use x="89.0625" xlink:href="#DejaVuSans-6c"/>
       <use x="116.845703" xlink:href="#DejaVuSans-70"/>
       <use x="180.322266" xlink:href="#DejaVuSans-61"/>
       <use x="241.601562" xlink:href="#DejaVuSans-69"/>
       <use x="269.384766" xlink:href="#DejaVuSans-72"/>
       <use x="310.498047" xlink:href="#DejaVuSans-73"/>
       <use x="362.597656" xlink:href="#DejaVuSans-5f"/>
       <use x="412.597656" xlink:href="#DejaVuSans-64"/>
       <use x="476.074219" xlink:href="#DejaVuSans-69"/>
       <use x="503.857422" xlink:href="#DejaVuSans-73"/>
       <use x="555.957031" xlink:href="#DejaVuSans-74"/>
       <use x="595.166016" xlink:href="#DejaVuSans-61"/>
       <use x="656.445312" xlink:href="#DejaVuSans-6e"/>
       <use x="719.824219" xlink:href="#DejaVuSans-63"/>
       <use x="774.804688" xlink:href="#DejaVuSans-65"/>
       <use x="836.328125" xlink:href="#DejaVuSans-73"/>
       <use x="888.427734" xlink:href="#DejaVuSans-5f"/>
       <use x="938.427734" xlink:href="#DejaVuSans-6c"/>
       <use x="966.210938" xlink:href="#DejaVuSans-6f"/>
       <use x="1027.392578" xlink:href="#DejaVuSans-6f"/>
       <use x="1088.574219" xlink:href="#DejaVuSans-70"/>
       <use x="1152.050781" xlink:href="#DejaVuSans-73"/>
      </g>
     </g>
    </g>
    <g id="ytick_12">
     <g id="line2d_39">
      <path clip-path="url(#p26195f8637)" d="M 130.415865 202.78846 
L 569.49976 202.78846 
" style="fill:none;stroke:#b0b0b0;stroke-linecap:square;stroke-width:0.8;"/>
     </g>
     <g id="line2d_40">
      <g>
       <use style="stroke:#000000;stroke-width:0.8;" x="130.415865" xlink:href="#m489be81ac8" y="202.78846"/>
      </g>
     </g>
     <g id="text_21">
      <!-- conv -->
      <g transform="translate(99.542428 206.587679)scale(0.1 -0.1)">
       <use xlink:href="#DejaVuSans-63"/>
       <use x="54.980469" xlink:href="#DejaVuSans-6f"/>
       <use x="116.162109" xlink:href="#DejaVuSans-6e"/>
       <use x="179.541016" xlink:href="#DejaVuSans-76"/>
      </g>
     </g>
    </g>
    <g id="ytick_13">
     <g id="line2d_41">
      <path clip-path="url(#p26195f8637)" d="M 130.415865 216.896184 
L 569.49976 216.896184 
" style="fill:none;stroke:#b0b0b0;stroke-linecap:square;stroke-width:0.8;"/>
     </g>
     <g id="line2d_42">
      <g>
       <use style="stroke:#000000;stroke-width:0.8;" x="130.415865" xlink:href="#m489be81ac8" y="216.896184"/>
      </g>
     </g>
     <g id="text_22">
      <!-- local_maxima -->
      <defs>
       <path d="M 54.890625 54.6875 
L 35.109375 28.078125 
L 55.90625 0 
L 45.3125 0 
L 29.390625 21.484375 
L 13.484375 0 
L 2.875 0 
L 24.125 28.609375 
L 4.6875 54.6875 
L 15.28125 54.6875 
L 29.78125 35.203125 
L 44.28125 54.6875 
z
" id="DejaVuSans-78"/>
      </defs>
      <g transform="translate(54.679927 220.695402)scale(0.1 -0.1)">
       <use xlink:href="#DejaVuSans-6c"/>
       <use x="27.783203" xlink:href="#DejaVuSans-6f"/>
       <use x="88.964844" xlink:href="#DejaVuSans-63"/>
       <use x="143.945312" xlink:href="#DejaVuSans-61"/>
       <use x="205.224609" xlink:href="#DejaVuSans-6c"/>
       <use x="233.007812" xlink:href="#DejaVuSans-5f"/>
       <use x="283.007812" xlink:href="#DejaVuSans-6d"/>
       <use x="380.419922" xlink:href="#DejaVuSans-61"/>
       <use x="441.699219" xlink:href="#DejaVuSans-78"/>
       <use x="500.878906" xlink:href="#DejaVuSans-69"/>
       <use x="528.662109" xlink:href="#DejaVuSans-6d"/>
       <use x="626.074219" xlink:href="#DejaVuSans-61"/>
      </g>
     </g>
    </g>
    <g id="ytick_14">
     <g id="line2d_43">
      <path clip-path="url(#p26195f8637)" d="M 130.415865 231.003907 
L 569.49976 231.003907 
" style="fill:none;stroke:#b0b0b0;stroke-linecap:square;stroke-width:0.8;"/>
     </g>
     <g id="line2d_44">
      <g>
       <use style="stroke:#000000;stroke-width:0.8;" x="130.415865" xlink:href="#m489be81ac8" y="231.003907"/>
      </g>
     </g>
     <g id="text_23">
      <!-- multiple_sum -->
      <g transform="translate(56.29399 234.803125)scale(0.1 -0.1)">
       <use xlink:href="#DejaVuSans-6d"/>
       <use x="97.412109" xlink:href="#DejaVuSans-75"/>
       <use x="160.791016" xlink:href="#DejaVuSans-6c"/>
       <use x="188.574219" xlink:href="#DejaVuSans-74"/>
       <use x="227.783203" xlink:href="#DejaVuSans-69"/>
       <use x="255.566406" xlink:href="#DejaVuSans-70"/>
       <use x="319.042969" xlink:href="#DejaVuSans-6c"/>
       <use x="346.826172" xlink:href="#DejaVuSans-65"/>
       <use x="408.349609" xlink:href="#DejaVuSans-5f"/>
       <use x="458.349609" xlink:href="#DejaVuSans-73"/>
       <use x="510.449219" xlink:href="#DejaVuSans-75"/>
       <use x="573.828125" xlink:href="#DejaVuSans-6d"/>
      </g>
     </g>
    </g>
    <g id="ytick_15">
     <g id="line2d_45">
      <path clip-path="url(#p26195f8637)" d="M 130.415865 245.11163 
L 569.49976 245.11163 
" style="fill:none;stroke:#b0b0b0;stroke-linecap:square;stroke-width:0.8;"/>
     </g>
     <g id="line2d_46">
      <g>
       <use style="stroke:#000000;stroke-width:0.8;" x="130.415865" xlink:href="#m489be81ac8" y="245.11163"/>
      </g>
     </g>
     <g id="text_24">
      <!-- periodic_dist -->
      <g transform="translate(60.02524 248.910848)scale(0.1 -0.1)">
       <use xlink:href="#DejaVuSans-70"/>
       <use x="63.476562" xlink:href="#DejaVuSans-65"/>
       <use x="125" xlink:href="#DejaVuSans-72"/>
       <use x="166.113281" xlink:href="#DejaVuSans-69"/>
       <use x="193.896484" xlink:href="#DejaVuSans-6f"/>
       <use x="255.078125" xlink:href="#DejaVuSans-64"/>
       <use x="318.554688" xlink:href="#DejaVuSans-69"/>
       <use x="346.337891" xlink:href="#DejaVuSans-63"/>
       <use x="401.318359" xlink:href="#DejaVuSans-5f"/>
       <use x="451.318359" xlink:href="#DejaVuSans-64"/>
       <use x="514.794922" xlink:href="#DejaVuSans-69"/>
       <use x="542.578125" xlink:href="#DejaVuSans-73"/>
       <use x="594.677734" xlink:href="#DejaVuSans-74"/>
      </g>
     </g>
    </g>
    <g id="ytick_16">
     <g id="line2d_47">
      <path clip-path="url(#p26195f8637)" d="M 130.415865 259.219353 
L 569.49976 259.219353 
" style="fill:none;stroke:#b0b0b0;stroke-linecap:square;stroke-width:0.8;"/>
     </g>
     <g id="line2d_48">
      <g>
       <use style="stroke:#000000;stroke-width:0.8;" x="130.415865" xlink:href="#m489be81ac8" y="259.219353"/>
      </g>
     </g>
     <g id="text_25">
      <!-- mandel -->
      <g transform="translate(85.929927 263.018572)scale(0.1 -0.1)">
       <use xlink:href="#DejaVuSans-6d"/>
       <use x="97.412109" xlink:href="#DejaVuSans-61"/>
       <use x="158.691406" xlink:href="#DejaVuSans-6e"/>
       <use x="222.070312" xlink:href="#DejaVuSans-64"/>
       <use x="285.546875" xlink:href="#DejaVuSans-65"/>
       <use x="347.070312" xlink:href="#DejaVuSans-6c"/>
      </g>
     </g>
    </g>
    <g id="ytick_17">
     <g id="line2d_49">
      <path clip-path="url(#p26195f8637)" d="M 130.415865 273.327076 
L 569.49976 273.327076 
" style="fill:none;stroke:#b0b0b0;stroke-linecap:square;stroke-width:0.8;"/>
     </g>
     <g id="line2d_50">
      <g>
       <use style="stroke:#000000;stroke-width:0.8;" x="130.415865" xlink:href="#m489be81ac8" y="273.327076"/>
      </g>
     </g>
     <g id="text_26">
      <!-- grouping -->
      <g transform="translate(78.690865 277.126295)scale(0.1 -0.1)">
       <use xlink:href="#DejaVuSans-67"/>
       <use x="63.476562" xlink:href="#DejaVuSans-72"/>
       <use x="104.558594" xlink:href="#DejaVuSans-6f"/>
       <use x="165.740234" xlink:href="#DejaVuSans-75"/>
       <use x="229.119141" xlink:href="#DejaVuSans-70"/>
       <use x="292.595703" xlink:href="#DejaVuSans-69"/>
       <use x="320.378906" xlink:href="#DejaVuSans-6e"/>
       <use x="383.757812" xlink:href="#DejaVuSans-67"/>
      </g>
     </g>
    </g>
    <g id="ytick_18">
     <g id="line2d_51">
      <path clip-path="url(#p26195f8637)" d="M 130.415865 287.434799 
L 569.49976 287.434799 
" style="fill:none;stroke:#b0b0b0;stroke-linecap:square;stroke-width:0.8;"/>
     </g>
     <g id="line2d_52">
      <g>
       <use style="stroke:#000000;stroke-width:0.8;" x="130.415865" xlink:href="#m489be81ac8" y="287.434799"/>
      </g>
     </g>
     <g id="text_27">
      <!-- grayscott -->
      <g transform="translate(76.242427 291.234018)scale(0.1 -0.1)">
       <use xlink:href="#DejaVuSans-67"/>
       <use x="63.476562" xlink:href="#DejaVuSans-72"/>
       <use x="104.589844" xlink:href="#DejaVuSans-61"/>
       <use x="165.869141" xlink:href="#DejaVuSans-79"/>
       <use x="225.048828" xlink:href="#DejaVuSans-73"/>
       <use x="277.148438" xlink:href="#DejaVuSans-63"/>
       <use x="332.128906" xlink:href="#DejaVuSans-6f"/>
       <use x="393.310547" xlink:href="#DejaVuSans-74"/>
       <use x="432.519531" xlink:href="#DejaVuSans-74"/>
      </g>
     </g>
    </g>
    <g id="ytick_19">
     <g id="line2d_53">
      <path clip-path="url(#p26195f8637)" d="M 130.415865 301.542522 
L 569.49976 301.542522 
" style="fill:none;stroke:#b0b0b0;stroke-linecap:square;stroke-width:0.8;"/>
     </g>
     <g id="line2d_54">
      <g>
       <use style="stroke:#000000;stroke-width:0.8;" x="130.415865" xlink:href="#m489be81ac8" y="301.542522"/>
      </g>
     </g>
     <g id="text_28">
      <!-- smoothing -->
      <g transform="translate(70.50649 305.341741)scale(0.1 -0.1)">
       <use xlink:href="#DejaVuSans-73"/>
       <use x="52.099609" xlink:href="#DejaVuSans-6d"/>
       <use x="149.511719" xlink:href="#DejaVuSans-6f"/>
       <use x="210.693359" xlink:href="#DejaVuSans-6f"/>
       <use x="271.875" xlink:href="#DejaVuSans-74"/>
       <use x="311.083984" xlink:href="#DejaVuSans-68"/>
       <use x="374.462891" xlink:href="#DejaVuSans-69"/>
       <use x="402.246094" xlink:href="#DejaVuSans-6e"/>
       <use x="465.625" xlink:href="#DejaVuSans-67"/>
      </g>
     </g>
    </g>
    <g id="ytick_20">
     <g id="line2d_55">
      <path clip-path="url(#p26195f8637)" d="M 130.415865 315.650245 
L 569.49976 315.650245 
" style="fill:none;stroke:#b0b0b0;stroke-linecap:square;stroke-width:0.8;"/>
     </g>
     <g id="line2d_56">
      <g>
       <use style="stroke:#000000;stroke-width:0.8;" x="130.415865" xlink:href="#m489be81ac8" y="315.650245"/>
      </g>
     </g>
     <g id="text_29">
      <!-- diffusion -->
      <g transform="translate(80.467427 319.449464)scale(0.1 -0.1)">
       <use xlink:href="#DejaVuSans-64"/>
       <use x="63.476562" xlink:href="#DejaVuSans-69"/>
       <use x="91.259766" xlink:href="#DejaVuSans-66"/>
       <use x="126.464844" xlink:href="#DejaVuSans-66"/>
       <use x="161.669922" xlink:href="#DejaVuSans-75"/>
       <use x="225.048828" xlink:href="#DejaVuSans-73"/>
       <use x="277.148438" xlink:href="#DejaVuSans-69"/>
       <use x="304.931641" xlink:href="#DejaVuSans-6f"/>
       <use x="366.113281" xlink:href="#DejaVuSans-6e"/>
      </g>
     </g>
    </g>
    <g id="ytick_21">
     <g id="line2d_57">
      <path clip-path="url(#p26195f8637)" d="M 130.415865 329.757968 
L 569.49976 329.757968 
" style="fill:none;stroke:#b0b0b0;stroke-linecap:square;stroke-width:0.8;"/>
     </g>
     <g id="line2d_58">
      <g>
       <use style="stroke:#000000;stroke-width:0.8;" x="130.415865" xlink:href="#m489be81ac8" y="329.757968"/>
      </g>
     </g>
     <g id="text_30">
      <!-- pystone -->
      <g transform="translate(83.409615 333.557187)scale(0.1 -0.1)">
       <use xlink:href="#DejaVuSans-70"/>
       <use x="63.476562" xlink:href="#DejaVuSans-79"/>
       <use x="122.65625" xlink:href="#DejaVuSans-73"/>
       <use x="174.755859" xlink:href="#DejaVuSans-74"/>
       <use x="213.964844" xlink:href="#DejaVuSans-6f"/>
       <use x="275.146484" xlink:href="#DejaVuSans-6e"/>
       <use x="338.525391" xlink:href="#DejaVuSans-65"/>
      </g>
     </g>
    </g>
    <g id="ytick_22">
     <g id="line2d_59">
      <path clip-path="url(#p26195f8637)" d="M 130.415865 343.865691 
L 569.49976 343.865691 
" style="fill:none;stroke:#b0b0b0;stroke-linecap:square;stroke-width:0.8;"/>
     </g>
     <g id="line2d_60">
      <g>
       <use style="stroke:#000000;stroke-width:0.8;" x="130.415865" xlink:href="#m489be81ac8" y="343.865691"/>
      </g>
     </g>
     <g id="text_31">
      <!-- vibr_energy -->
      <g transform="translate(64.239302 347.66491)scale(0.1 -0.1)">
       <use xlink:href="#DejaVuSans-76"/>
       <use x="59.179688" xlink:href="#DejaVuSans-69"/>
       <use x="86.962891" xlink:href="#DejaVuSans-62"/>
       <use x="150.439453" xlink:href="#DejaVuSans-72"/>
       <use x="191.552734" xlink:href="#DejaVuSans-5f"/>
       <use x="241.552734" xlink:href="#DejaVuSans-65"/>
       <use x="303.076172" xlink:href="#DejaVuSans-6e"/>
       <use x="366.455078" xlink:href="#DejaVuSans-65"/>
       <use x="427.978516" xlink:href="#DejaVuSans-72"/>
       <use x="469.076172" xlink:href="#DejaVuSans-67"/>
       <use x="532.552734" xlink:href="#DejaVuSans-79"/>
      </g>
     </g>
    </g>
    <g id="ytick_23">
     <g id="line2d_61">
      <path clip-path="url(#p26195f8637)" d="M 130.415865 357.973415 
L 569.49976 357.973415 
" style="fill:none;stroke:#b0b0b0;stroke-linecap:square;stroke-width:0.8;"/>
     </g>
     <g id="line2d_62">
      <g>
       <use style="stroke:#000000;stroke-width:0.8;" x="130.415865" xlink:href="#m489be81ac8" y="357.973415"/>
      </g>
     </g>
     <g id="text_32">
      <!-- evolve -->
      <g transform="translate(90.37524 361.772633)scale(0.1 -0.1)">
       <use xlink:href="#DejaVuSans-65"/>
       <use x="61.523438" xlink:href="#DejaVuSans-76"/>
       <use x="120.703125" xlink:href="#DejaVuSans-6f"/>
       <use x="181.884766" xlink:href="#DejaVuSans-6c"/>
       <use x="209.667969" xlink:href="#DejaVuSans-76"/>
       <use x="268.847656" xlink:href="#DejaVuSans-65"/>
      </g>
     </g>
    </g>
    <g id="ytick_24">
     <g id="line2d_63">
      <path clip-path="url(#p26195f8637)" d="M 130.415865 372.081138 
L 569.49976 372.081138 
" style="fill:none;stroke:#b0b0b0;stroke-linecap:square;stroke-width:0.8;"/>
     </g>
     <g id="line2d_64">
      <g>
       <use style="stroke:#000000;stroke-width:0.8;" x="130.415865" xlink:href="#m489be81ac8" y="372.081138"/>
      </g>
     </g>
     <g id="text_33">
      <!-- cronbach -->
      <g transform="translate(77.040865 375.880356)scale(0.1 -0.1)">
       <use xlink:href="#DejaVuSans-63"/>
       <use x="54.980469" xlink:href="#DejaVuSans-72"/>
       <use x="96.0625" xlink:href="#DejaVuSans-6f"/>
       <use x="157.244141" xlink:href="#DejaVuSans-6e"/>
       <use x="220.623047" xlink:href="#DejaVuSans-62"/>
       <use x="284.099609" xlink:href="#DejaVuSans-61"/>
       <use x="345.378906" xlink:href="#DejaVuSans-63"/>
       <use x="400.359375" xlink:href="#DejaVuSans-68"/>
      </g>
     </g>
    </g>
    <g id="ytick_25">
     <g id="line2d_65">
      <path clip-path="url(#p26195f8637)" d="M 130.415865 386.188861 
L 569.49976 386.188861 
" style="fill:none;stroke:#b0b0b0;stroke-linecap:square;stroke-width:0.8;"/>
     </g>
     <g id="line2d_66">
      <g>
       <use style="stroke:#000000;stroke-width:0.8;" x="130.415865" xlink:href="#m489be81ac8" y="386.188861"/>
      </g>
     </g>
     <g id="text_34">
      <!-- arc_distance -->
      <g transform="translate(60.308052 389.98808)scale(0.1 -0.1)">
       <use xlink:href="#DejaVuSans-61"/>
       <use x="61.279297" xlink:href="#DejaVuSans-72"/>
       <use x="102.361328" xlink:href="#DejaVuSans-63"/>
       <use x="157.341797" xlink:href="#DejaVuSans-5f"/>
       <use x="207.341797" xlink:href="#DejaVuSans-64"/>
       <use x="270.818359" xlink:href="#DejaVuSans-69"/>
       <use x="298.601562" xlink:href="#DejaVuSans-73"/>
       <use x="350.701172" xlink:href="#DejaVuSans-74"/>
       <use x="389.910156" xlink:href="#DejaVuSans-61"/>
       <use x="451.189453" xlink:href="#DejaVuSans-6e"/>
       <use x="514.568359" xlink:href="#DejaVuSans-63"/>
       <use x="569.548828" xlink:href="#DejaVuSans-65"/>
      </g>
     </g>
    </g>
    <g id="ytick_26">
     <g id="line2d_67">
      <path clip-path="url(#p26195f8637)" d="M 130.415865 400.296584 
L 569.49976 400.296584 
" style="fill:none;stroke:#b0b0b0;stroke-linecap:square;stroke-width:0.8;"/>
     </g>
     <g id="line2d_68">
      <g>
       <use style="stroke:#000000;stroke-width:0.8;" x="130.415865" xlink:href="#m489be81ac8" y="400.296584"/>
      </g>
     </g>
     <g id="text_35">
      <!-- log_likelihood -->
      <g transform="translate(55.195552 404.095803)scale(0.1 -0.1)">
       <use xlink:href="#DejaVuSans-6c"/>
       <use x="27.783203" xlink:href="#DejaVuSans-6f"/>
       <use x="88.964844" xlink:href="#DejaVuSans-67"/>
       <use x="152.441406" xlink:href="#DejaVuSans-5f"/>
       <use x="202.441406" xlink:href="#DejaVuSans-6c"/>
       <use x="230.224609" xlink:href="#DejaVuSans-69"/>
       <use x="258.007812" xlink:href="#DejaVuSans-6b"/>
       <use x="315.871094" xlink:href="#DejaVuSans-65"/>
       <use x="377.394531" xlink:href="#DejaVuSans-6c"/>
       <use x="405.177734" xlink:href="#DejaVuSans-69"/>
       <use x="432.960938" xlink:href="#DejaVuSans-68"/>
       <use x="496.339844" xlink:href="#DejaVuSans-6f"/>
       <use x="557.521484" xlink:href="#DejaVuSans-6f"/>
       <use x="618.703125" xlink:href="#DejaVuSans-64"/>
      </g>
     </g>
    </g>
    <g id="ytick_27">
     <g id="line2d_69">
      <path clip-path="url(#p26195f8637)" d="M 130.415865 414.404307 
L 569.49976 414.404307 
" style="fill:none;stroke:#b0b0b0;stroke-linecap:square;stroke-width:0.8;"/>
     </g>
     <g id="line2d_70">
      <g>
       <use style="stroke:#000000;stroke-width:0.8;" x="130.415865" xlink:href="#m489be81ac8" y="414.404307"/>
      </g>
     </g>
     <g id="text_36">
      <!-- create_grid -->
      <g transform="translate(66.86899 418.203526)scale(0.1 -0.1)">
       <use xlink:href="#DejaVuSans-63"/>
       <use x="54.980469" xlink:href="#DejaVuSans-72"/>
       <use x="96.0625" xlink:href="#DejaVuSans-65"/>
       <use x="157.585938" xlink:href="#DejaVuSans-61"/>
       <use x="218.865234" xlink:href="#DejaVuSans-74"/>
       <use x="258.074219" xlink:href="#DejaVuSans-65"/>
       <use x="319.597656" xlink:href="#DejaVuSans-5f"/>
       <use x="369.597656" xlink:href="#DejaVuSans-67"/>
       <use x="433.074219" xlink:href="#DejaVuSans-72"/>
       <use x="474.1875" xlink:href="#DejaVuSans-69"/>
       <use x="501.970703" xlink:href="#DejaVuSans-64"/>
      </g>
     </g>
    </g>
    <g id="ytick_28">
     <g id="line2d_71">
      <path clip-path="url(#p26195f8637)" d="M 130.415865 428.51203 
L 569.49976 428.51203 
" style="fill:none;stroke:#b0b0b0;stroke-linecap:square;stroke-width:0.8;"/>
     </g>
     <g id="line2d_72">
      <g>
       <use style="stroke:#000000;stroke-width:0.8;" x="130.415865" xlink:href="#m489be81ac8" y="428.51203"/>
      </g>
     </g>
     <g id="text_37">
      <!-- repeating -->
      <g transform="translate(75.140865 432.311249)scale(0.1 -0.1)">
       <use xlink:href="#DejaVuSans-72"/>
       <use x="41.082031" xlink:href="#DejaVuSans-65"/>
       <use x="102.605469" xlink:href="#DejaVuSans-70"/>
       <use x="166.082031" xlink:href="#DejaVuSans-65"/>
       <use x="227.605469" xlink:href="#DejaVuSans-61"/>
       <use x="288.884766" xlink:href="#DejaVuSans-74"/>
       <use x="328.09375" xlink:href="#DejaVuSans-69"/>
       <use x="355.876953" xlink:href="#DejaVuSans-6e"/>
       <use x="419.255859" xlink:href="#DejaVuSans-67"/>
      </g>
     </g>
    </g>
    <g id="ytick_29">
     <g id="line2d_73">
      <path clip-path="url(#p26195f8637)" d="M 130.415865 442.619753 
L 569.49976 442.619753 
" style="fill:none;stroke:#b0b0b0;stroke-linecap:square;stroke-width:0.8;"/>
     </g>
     <g id="line2d_74">
      <g>
       <use style="stroke:#000000;stroke-width:0.8;" x="130.415865" xlink:href="#m489be81ac8" y="442.619753"/>
      </g>
     </g>
     <g id="text_38">
      <!-- l2norm -->
      <g transform="translate(87.96899 446.418972)scale(0.1 -0.1)">
       <use xlink:href="#DejaVuSans-6c"/>
       <use x="27.783203" xlink:href="#DejaVuSans-32"/>
       <use x="91.40625" xlink:href="#DejaVuSans-6e"/>
       <use x="154.785156" xlink:href="#DejaVuSans-6f"/>
       <use x="215.966797" xlink:href="#DejaVuSans-72"/>
       <use x="257.064453" xlink:href="#DejaVuSans-6d"/>
      </g>
     </g>
    </g>
    <g id="ytick_30">
     <g id="line2d_75">
      <path clip-path="url(#p26195f8637)" d="M 130.415865 456.727476 
L 569.49976 456.727476 
" style="fill:none;stroke:#b0b0b0;stroke-linecap:square;stroke-width:0.8;"/>
     </g>
     <g id="line2d_76">
      <g>
       <use style="stroke:#000000;stroke-width:0.8;" x="130.415865" xlink:href="#m489be81ac8" y="456.727476"/>
      </g>
     </g>
     <g id="text_39">
      <!-- specialconvolve -->
      <g transform="translate(43.679927 460.526695)scale(0.1 -0.1)">
       <use xlink:href="#DejaVuSans-73"/>
       <use x="52.099609" xlink:href="#DejaVuSans-70"/>
       <use x="115.576172" xlink:href="#DejaVuSans-65"/>
       <use x="177.099609" xlink:href="#DejaVuSans-63"/>
       <use x="232.080078" xlink:href="#DejaVuSans-69"/>
       <use x="259.863281" xlink:href="#DejaVuSans-61"/>
       <use x="321.142578" xlink:href="#DejaVuSans-6c"/>
       <use x="348.925781" xlink:href="#DejaVuSans-63"/>
       <use x="403.90625" xlink:href="#DejaVuSans-6f"/>
       <use x="465.087891" xlink:href="#DejaVuSans-6e"/>
       <use x="528.466797" xlink:href="#DejaVuSans-76"/>
       <use x="587.646484" xlink:href="#DejaVuSans-6f"/>
       <use x="648.828125" xlink:href="#DejaVuSans-6c"/>
       <use x="676.611328" xlink:href="#DejaVuSans-76"/>
       <use x="735.791016" xlink:href="#DejaVuSans-65"/>
      </g>
     </g>
    </g>
    <g id="ytick_31">
     <g id="line2d_77">
      <path clip-path="url(#p26195f8637)" d="M 130.415865 470.835199 
L 569.49976 470.835199 
" style="fill:none;stroke:#b0b0b0;stroke-linecap:square;stroke-width:0.8;"/>
     </g>
     <g id="line2d_78">
      <g>
       <use style="stroke:#000000;stroke-width:0.8;" x="130.415865" xlink:href="#m489be81ac8" y="470.835199"/>
      </g>
     </g>
     <g id="text_40">
      <!-- reverse_cumsum -->
      <g transform="translate(37.745552 474.495356)scale(0.1 -0.1)">
       <use xlink:href="#DejaVuSans-72"/>
       <use x="41.082031" xlink:href="#DejaVuSans-65"/>
       <use x="102.605469" xlink:href="#DejaVuSans-76"/>
       <use x="161.785156" xlink:href="#DejaVuSans-65"/>
       <use x="223.308594" xlink:href="#DejaVuSans-72"/>
       <use x="264.421875" xlink:href="#DejaVuSans-73"/>
       <use x="316.521484" xlink:href="#DejaVuSans-65"/>
       <use x="378.044922" xlink:href="#DejaVuSans-5f"/>
       <use x="428.044922" xlink:href="#DejaVuSans-63"/>
       <use x="483.025391" xlink:href="#DejaVuSans-75"/>
       <use x="546.404297" xlink:href="#DejaVuSans-6d"/>
       <use x="643.816406" xlink:href="#DejaVuSans-73"/>
       <use x="695.916016" xlink:href="#DejaVuSans-75"/>
       <use x="759.294922" xlink:href="#DejaVuSans-6d"/>
      </g>
     </g>
    </g>
    <g id="ytick_32">
     <g id="line2d_79">
      <path clip-path="url(#p26195f8637)" d="M 130.415865 484.942923 
L 569.49976 484.942923 
" style="fill:none;stroke:#b0b0b0;stroke-linecap:square;stroke-width:0.8;"/>
     </g>
     <g id="line2d_80">
      <g>
       <use style="stroke:#000000;stroke-width:0.8;" x="130.415865" xlink:href="#m489be81ac8" y="484.942923"/>
      </g>
     </g>
     <g id="text_41">
      <!-- rosen -->
      <g transform="translate(95.489302 488.742141)scale(0.1 -0.1)">
       <use xlink:href="#DejaVuSans-72"/>
       <use x="41.082031" xlink:href="#DejaVuSans-6f"/>
       <use x="102.263672" xlink:href="#DejaVuSans-73"/>
       <use x="154.363281" xlink:href="#DejaVuSans-65"/>
       <use x="215.886719" xlink:href="#DejaVuSans-6e"/>
      </g>
     </g>
    </g>
    <g id="ytick_33">
     <g id="line2d_81">
      <path clip-path="url(#p26195f8637)" d="M 130.415865 499.050646 
L 569.49976 499.050646 
" style="fill:none;stroke:#b0b0b0;stroke-linecap:square;stroke-width:0.8;"/>
     </g>
     <g id="line2d_82">
      <g>
       <use style="stroke:#000000;stroke-width:0.8;" x="130.415865" xlink:href="#m489be81ac8" y="499.050646"/>
      </g>
     </g>
     <g id="text_42">
      <!-- lstsqr -->
      <defs>
       <path d="M 14.796875 27.296875 
Q 14.796875 17.390625 18.875 11.75 
Q 22.953125 6.109375 30.078125 6.109375 
Q 37.203125 6.109375 41.296875 11.75 
Q 45.40625 17.390625 45.40625 27.296875 
Q 45.40625 37.203125 41.296875 42.84375 
Q 37.203125 48.484375 30.078125 48.484375 
Q 22.953125 48.484375 18.875 42.84375 
Q 14.796875 37.203125 14.796875 27.296875 
z
M 45.40625 8.203125 
Q 42.578125 3.328125 38.25 0.953125 
Q 33.9375 -1.421875 27.875 -1.421875 
Q 17.96875 -1.421875 11.734375 6.484375 
Q 5.515625 14.40625 5.515625 27.296875 
Q 5.515625 40.1875 11.734375 48.09375 
Q 17.96875 56 27.875 56 
Q 33.9375 56 38.25 53.625 
Q 42.578125 51.265625 45.40625 46.390625 
L 45.40625 54.6875 
L 54.390625 54.6875 
L 54.390625 -20.796875 
L 45.40625 -20.796875 
z
" id="DejaVuSans-71"/>
      </defs>
      <g transform="translate(95.839303 502.849864)scale(0.1 -0.1)">
       <use xlink:href="#DejaVuSans-6c"/>
       <use x="27.783203" xlink:href="#DejaVuSans-73"/>
       <use x="79.882812" xlink:href="#DejaVuSans-74"/>
       <use x="119.091797" xlink:href="#DejaVuSans-73"/>
       <use x="171.191406" xlink:href="#DejaVuSans-71"/>
       <use x="234.667969" xlink:href="#DejaVuSans-72"/>
      </g>
     </g>
    </g>
    <g id="ytick_34">
     <g id="line2d_83">
      <path clip-path="url(#p26195f8637)" d="M 130.415865 513.158369 
L 569.49976 513.158369 
" style="fill:none;stroke:#b0b0b0;stroke-linecap:square;stroke-width:0.8;"/>
     </g>
     <g id="line2d_84">
      <g>
       <use style="stroke:#000000;stroke-width:0.8;" x="130.415865" xlink:href="#m489be81ac8" y="513.158369"/>
      </g>
     </g>
     <g id="text_43">
      <!-- harris -->
      <g transform="translate(94.742427 516.957587)scale(0.1 -0.1)">
       <use xlink:href="#DejaVuSans-68"/>
       <use x="63.378906" xlink:href="#DejaVuSans-61"/>
       <use x="124.658203" xlink:href="#DejaVuSans-72"/>
       <use x="165.755859" xlink:href="#DejaVuSans-72"/>
       <use x="206.869141" xlink:href="#DejaVuSans-69"/>
       <use x="234.652344" xlink:href="#DejaVuSans-73"/>
      </g>
     </g>
    </g>
   </g>
   <g id="line2d_85">
    <path clip-path="url(#p26195f8637)" d="M 142.764568 542.64351 
L 142.764568 18.118365 
" style="fill:none;stroke:#ff0000;stroke-linecap:square;stroke-width:1.5;"/>
   </g>
   <g id="patch_37">
    <path d="M 130.415865 542.64351 
L 130.415865 18.118365 
" style="fill:none;stroke:#000000;stroke-linecap:square;stroke-linejoin:miter;stroke-width:0.8;"/>
   </g>
   <g id="patch_38">
    <path d="M 569.49976 542.64351 
L 569.49976 18.118365 
" style="fill:none;stroke:#000000;stroke-linecap:square;stroke-linejoin:miter;stroke-width:0.8;"/>
   </g>
   <g id="patch_39">
    <path d="M 130.415865 542.64351 
L 569.49976 542.64351 
" style="fill:none;stroke:#000000;stroke-linecap:square;stroke-linejoin:miter;stroke-width:0.8;"/>
   </g>
   <g id="patch_40">
    <path d="M 130.415865 18.118365 
L 569.49976 18.118365 
" style="fill:none;stroke:#000000;stroke-linecap:square;stroke-linejoin:miter;stroke-width:0.8;"/>
   </g>
   <g id="text_44">
    <!-- Python benchmarks -->
    <defs>
     <path d="M 19.671875 64.796875 
L 19.671875 37.40625 
L 32.078125 37.40625 
Q 38.96875 37.40625 42.71875 40.96875 
Q 46.484375 44.53125 46.484375 51.125 
Q 46.484375 57.671875 42.71875 61.234375 
Q 38.96875 64.796875 32.078125 64.796875 
z
M 9.8125 72.90625 
L 32.078125 72.90625 
Q 44.34375 72.90625 50.609375 67.359375 
Q 56.890625 61.8125 56.890625 51.125 
Q 56.890625 40.328125 50.609375 34.8125 
Q 44.34375 29.296875 32.078125 29.296875 
L 19.671875 29.296875 
L 19.671875 0 
L 9.8125 0 
z
" id="DejaVuSans-50"/>
    </defs>
    <g transform="translate(290.260625 12.118365)scale(0.12 -0.12)">
     <use xlink:href="#DejaVuSans-50"/>
     <use x="60.302734" xlink:href="#DejaVuSans-79"/>
     <use x="119.482422" xlink:href="#DejaVuSans-74"/>
     <use x="158.691406" xlink:href="#DejaVuSans-68"/>
     <use x="222.070312" xlink:href="#DejaVuSans-6f"/>
     <use x="283.251953" xlink:href="#DejaVuSans-6e"/>
     <use x="346.630859" xlink:href="#DejaVuSans-20"/>
     <use x="378.417969" xlink:href="#DejaVuSans-62"/>
     <use x="441.894531" xlink:href="#DejaVuSans-65"/>
     <use x="503.417969" xlink:href="#DejaVuSans-6e"/>
     <use x="566.796875" xlink:href="#DejaVuSans-63"/>
     <use x="621.777344" xlink:href="#DejaVuSans-68"/>
     <use x="685.15625" xlink:href="#DejaVuSans-6d"/>
     <use x="782.568359" xlink:href="#DejaVuSans-61"/>
     <use x="843.847656" xlink:href="#DejaVuSans-72"/>
     <use x="884.960938" xlink:href="#DejaVuSans-6b"/>
     <use x="942.871094" xlink:href="#DejaVuSans-73"/>
    </g>
   </g>
  </g>
 </g>
 <defs>
  <clipPath id="p26195f8637">
   <rect height="524.525145" width="439.083895" x="130.415865" y="18.118365"/>
  </clipPath>
 </defs>
</svg>
